<svg width="139" height="91" viewBox="0 0 139 91" fill="none" xmlns="http://www.w3.org/2000/svg">
<path d="M136.5 45.5C136.5 56.9471 129.411 67.6363 117.275 75.5817C105.16 83.5129 88.2762 88.5 69.5 88.5C50.7238 88.5 33.84 83.5129 21.7254 75.5817C9.58894 67.6363 2.5 56.9471 2.5 45.5C2.5 34.0529 9.58894 23.3637 21.7254 15.4183C33.84 7.48712 50.7238 2.5 69.5 2.5C88.2762 2.5 105.16 7.48712 117.275 15.4183C129.411 23.3637 136.5 34.0529 136.5 45.5Z" fill="white" stroke="black" stroke-width="5"/>
<path d="M48.8 57H57.5L57.59 56.76H53.09L57.2 42H52.4L52.34 42.24H56.84L52.79 56.76H48.89L48.8 57ZM67.6531 41.7C63.2431 41.7 60.3031 45.3 60.3031 49.59C60.3031 53.91 63.2431 57.3 67.6531 57.3C72.0931 57.3 75.0031 53.73 75.0031 49.59C75.0031 45.12 72.0031 41.7 67.6531 41.7ZM67.6531 57.03C63.3631 57.03 60.6031 53.7 60.6031 49.59C60.6031 45.42 63.4231 41.97 67.6531 41.97C71.9131 41.97 74.7031 45.33 74.7031 49.59C74.7031 53.58 71.9131 57.03 67.6531 57.03ZM80.3084 57.18C83.4884 57.18 86.0684 55.29 86.0684 51.54C86.0684 49.17 84.6584 47.28 83.2484 45.45L86.2184 34.71C88.0484 34.71 89.0984 35.04 89.4284 35.16L87.6584 41.82H87.9584L89.7584 34.98C89.7584 34.98 88.7084 34.47 86.3084 34.44L87.0284 31.83H86.7284L86.0084 34.44C82.6484 34.44 80.1584 36.3 80.1584 39.48C80.1584 41.85 81.5384 43.68 82.9184 45.48L79.7684 56.88C78.2684 56.79 76.9784 56.28 76.3784 55.71L77.8484 50.43H77.5484L76.0484 55.8C76.7984 56.52 78.2084 57.03 79.6784 57.15L78.6884 60.72H78.9884L79.9784 57.18C80.0984 57.18 80.1884 57.18 80.3084 57.18ZM80.4584 39.48C80.4584 36.36 82.9484 34.77 85.9184 34.71L83.0084 45.15C81.7184 43.41 80.4584 41.67 80.4584 39.48ZM85.7684 51.57C85.7684 55.14 83.3384 56.91 80.3384 56.91C80.2484 56.91 80.1584 56.91 80.0384 56.91L83.1584 45.78C84.4784 47.52 85.7684 49.29 85.7684 51.57Z" fill="black"/>
<path d="M48.8 57L47.8637 56.6489L47.357 58H48.8V57ZM57.5 57V58H58.193L58.4363 57.3511L57.5 57ZM57.59 56.76L58.5263 57.1111L59.033 55.76H57.59V56.76ZM53.09 56.76L52.1267 56.4918L51.7735 57.76H53.09V56.76ZM57.2 42L58.1634 42.2682L58.5165 41H57.2V42ZM52.4 42V41H51.6192L51.4299 41.7575L52.4 42ZM52.34 42.24L51.3699 41.9975L51.0592 43.24H52.34V42.24ZM56.84 42.24L57.8032 42.5087L58.1571 41.24H56.84V42.24ZM52.79 56.76V57.76H53.5492L53.7532 57.0287L52.79 56.76ZM48.89 56.76V55.76H48.197L47.9537 56.4089L48.89 56.76ZM48.8 58H57.5V56H48.8V58ZM58.4363 57.3511L58.5263 57.1111L56.6537 56.4089L56.5637 56.6489L58.4363 57.3511ZM57.59 55.76H53.09V57.76H57.59V55.76ZM54.0533 57.0282L58.1634 42.2682L56.2367 41.7318L52.1267 56.4918L54.0533 57.0282ZM57.2 41H52.4V43H57.2V41ZM51.4299 41.7575L51.3699 41.9975L53.3101 42.4825L53.3701 42.2425L51.4299 41.7575ZM52.34 43.24H56.84V41.24H52.34V43.24ZM55.8768 41.9713L51.8268 56.4913L53.7532 57.0287L57.8032 42.5087L55.8768 41.9713ZM52.79 55.76H48.89V57.76H52.79V55.76ZM47.9537 56.4089L47.8637 56.6489L49.7363 57.3511L49.8263 57.1111L47.9537 56.4089ZM67.6531 40.7C62.59 40.7 59.3031 44.8543 59.3031 49.59H61.3031C61.3031 45.7457 63.8963 42.7 67.6531 42.7V40.7ZM59.3031 49.59C59.3031 54.3896 62.6208 58.3 67.6531 58.3V56.3C63.8654 56.3 61.3031 53.4304 61.3031 49.59H59.3031ZM67.6531 58.3C72.7325 58.3 76.0031 54.191 76.0031 49.59H74.0031C74.0031 53.269 71.4538 56.3 67.6531 56.3V58.3ZM76.0031 49.59C76.0031 44.6531 72.6371 40.7 67.6531 40.7V42.7C71.3692 42.7 74.0031 45.5869 74.0031 49.59H76.0031ZM67.6531 56.03C64.0012 56.03 61.6031 53.2376 61.6031 49.59H59.6031C59.6031 54.1624 62.725 58.03 67.6531 58.03V56.03ZM61.6031 49.59C61.6031 45.8613 64.0802 42.97 67.6531 42.97V40.97C62.766 40.97 59.6031 44.9787 59.6031 49.59H61.6031ZM67.6531 42.97C71.2606 42.97 73.7031 45.7764 73.7031 49.59H75.7031C75.7031 44.8836 72.5657 40.97 67.6531 40.97V42.97ZM73.7031 49.59C73.7031 53.1255 71.2679 56.03 67.6531 56.03V58.03C72.5584 58.03 75.7031 54.0345 75.7031 49.59H73.7031ZM83.2484 45.45L82.2846 45.1835L82.1515 45.6648L82.4563 46.0603L83.2484 45.45ZM86.2184 34.71V33.71H85.4574L85.2546 34.4435L86.2184 34.71ZM89.4284 35.16L90.3949 35.4168L90.6298 34.5328L89.7702 34.2202L89.4284 35.16ZM87.6584 41.82L86.692 41.5631L86.358 42.82H87.6584V41.82ZM87.9584 41.82V42.82H88.7293L88.9255 42.0745L87.9584 41.82ZM89.7584 34.98L90.7255 35.2345L90.9347 34.4396L90.1953 34.0805L89.7584 34.98ZM86.3084 34.44L85.3444 34.1741L84.9997 35.4237L86.2959 35.4399L86.3084 34.44ZM87.0284 31.83L87.9924 32.0959L88.3417 30.83H87.0284V31.83ZM86.7284 31.83V30.83H85.9669L85.7644 31.5641L86.7284 31.83ZM86.0084 34.44V35.44H86.7699L86.9724 34.7059L86.0084 34.44ZM82.9184 45.48L83.8823 45.7463L84.0149 45.2666L83.712 44.8716L82.9184 45.48ZM79.7684 56.88L79.7085 57.8782L80.5167 57.9267L80.7323 57.1463L79.7684 56.88ZM76.3784 55.71L75.4151 55.4418L75.2538 56.0209L75.6897 56.435L76.3784 55.71ZM77.8484 50.43L78.8118 50.6982L79.1649 49.43H77.8484V50.43ZM77.5484 50.43V49.43H76.7895L76.5853 50.161L77.5484 50.43ZM76.0484 55.8L75.0853 55.531L74.9244 56.1071L75.3559 56.5214L76.0484 55.8ZM79.6784 57.15L80.6421 57.4172L80.9653 56.2517L79.7598 56.1533L79.6784 57.15ZM78.6884 60.72L77.7248 60.4528L77.3734 61.72H78.6884V60.72ZM78.9884 60.72V61.72H79.7471L79.9515 60.9893L78.9884 60.72ZM79.9784 57.18V56.18H79.2197L79.0154 56.9107L79.9784 57.18ZM85.9184 34.71L86.8817 34.9785L87.2428 33.683L85.8982 33.7102L85.9184 34.71ZM83.0084 45.15L82.2051 45.7456L83.4228 47.388L83.9717 45.4185L83.0084 45.15ZM80.0384 56.91L79.0756 56.6401L78.7196 57.91H80.0384V56.91ZM83.1584 45.78L83.9551 45.1756L82.7388 43.5722L82.1956 45.5101L83.1584 45.78ZM80.3084 58.18C82.0898 58.18 83.787 57.6498 85.0511 56.5085C86.3307 55.3531 87.0684 53.6592 87.0684 51.54H85.0684C85.0684 53.1708 84.5161 54.2969 83.7108 55.024C82.8899 55.7652 81.707 56.18 80.3084 56.18V58.18ZM87.0684 51.54C87.0684 48.7782 85.4172 46.6263 84.0406 44.8397L82.4563 46.0603C83.8997 47.9337 85.0684 49.5618 85.0684 51.54H87.0684ZM84.2123 45.7165L87.1823 34.9765L85.2546 34.4435L82.2846 45.1835L84.2123 45.7165ZM86.2184 35.71C87.923 35.71 88.8575 36.0165 89.0867 36.0998L89.7702 34.2202C89.3393 34.0635 88.1739 33.71 86.2184 33.71V35.71ZM88.462 34.9031L86.692 41.5631L88.6249 42.0768L90.3949 35.4168L88.462 34.9031ZM87.6584 42.82H87.9584V40.82H87.6584V42.82ZM88.9255 42.0745L90.7255 35.2345L88.7914 34.7255L86.9914 41.5655L88.9255 42.0745ZM89.7584 34.98C90.1953 34.0805 90.195 34.0803 90.1946 34.0801C90.1944 34.08 90.194 34.0799 90.1938 34.0797C90.1932 34.0795 90.1926 34.0792 90.1921 34.0789C90.1909 34.0784 90.1897 34.0778 90.1884 34.0772C90.1858 34.0759 90.183 34.0746 90.1799 34.0731C90.1737 34.0702 90.1664 34.0669 90.1581 34.0631C90.1414 34.0556 90.1205 34.0464 90.0953 34.0358C90.0448 34.0147 89.9771 33.9879 89.8916 33.9575C89.7204 33.8967 89.4783 33.8215 89.1607 33.7474C88.5251 33.5991 87.5904 33.4559 86.3209 33.4401L86.2959 35.4399C87.4264 35.4541 88.2168 35.5809 88.7062 35.6951C88.9511 35.7522 89.1215 35.8064 89.2222 35.8422C89.2726 35.8601 89.3056 35.8734 89.3219 35.8802C89.3301 35.8837 89.3341 35.8855 89.334 35.8854C89.334 35.8854 89.3329 35.8849 89.3308 35.8839C89.3298 35.8835 89.3285 35.8828 89.3269 35.8821C89.3262 35.8817 89.3253 35.8813 89.3244 35.8809C89.324 35.8807 89.3235 35.8805 89.323 35.8802C89.3228 35.8801 89.3224 35.8799 89.3223 35.8799C89.3219 35.8797 89.3215 35.8795 89.7584 34.98ZM87.2724 34.7059L87.9924 32.0959L86.0644 31.5641L85.3444 34.1741L87.2724 34.7059ZM87.0284 30.83H86.7284V32.83H87.0284V30.83ZM85.7644 31.5641L85.0444 34.1741L86.9724 34.7059L87.6924 32.0959L85.7644 31.5641ZM86.0084 33.44C84.1528 33.44 82.4473 33.9535 81.186 34.997C79.9041 36.0575 79.1584 37.6048 79.1584 39.48H81.1584C81.1584 38.1752 81.6577 37.2025 82.4609 36.538C83.2845 35.8565 84.5041 35.44 86.0084 35.44V33.44ZM79.1584 39.48C79.1584 42.2408 80.7789 44.3328 82.1248 46.0884L83.712 44.8716C82.298 43.0272 81.1584 41.4592 81.1584 39.48H79.1584ZM81.9546 45.2137L78.8046 56.6137L80.7323 57.1463L83.8823 45.7463L81.9546 45.2137ZM79.8283 55.8818C78.463 55.7999 77.4353 55.3347 77.0672 54.985L75.6897 56.435C76.5216 57.2253 78.0738 57.7801 79.7085 57.8782L79.8283 55.8818ZM77.3418 55.9782L78.8118 50.6982L76.8851 50.1618L75.4151 55.4418L77.3418 55.9782ZM77.8484 49.43H77.5484V51.43H77.8484V49.43ZM76.5853 50.161L75.0853 55.531L77.0116 56.069L78.5116 50.699L76.5853 50.161ZM75.3559 56.5214C76.336 57.4623 78.0056 58.0168 79.5971 58.1467L79.7598 56.1533C78.4113 56.0432 77.2609 55.5777 76.741 55.0786L75.3559 56.5214ZM78.7148 56.8828L77.7248 60.4528L79.6521 60.9872L80.6421 57.4172L78.7148 56.8828ZM78.6884 61.72H78.9884V59.72H78.6884V61.72ZM79.9515 60.9893L80.9415 57.4493L79.0154 56.9107L78.0254 60.4507L79.9515 60.9893ZM79.9784 58.18C79.9787 58.18 79.9789 58.18 79.9791 58.18C79.9794 58.18 79.9796 58.18 79.9798 58.18C79.9801 58.18 79.9803 58.18 79.9805 58.18C79.9808 58.18 79.981 58.18 79.9812 58.18C79.9815 58.18 79.9817 58.18 79.9819 58.18C79.9822 58.18 79.9824 58.18 79.9826 58.18C79.9829 58.18 79.9831 58.18 79.9833 58.18C79.9836 58.18 79.9838 58.18 79.984 58.18C79.9843 58.18 79.9845 58.18 79.9847 58.18C79.985 58.18 79.9852 58.18 79.9854 58.18C79.9857 58.18 79.9859 58.18 79.9861 58.18C79.9864 58.18 79.9866 58.18 79.9868 58.18C79.9871 58.18 79.9873 58.18 79.9875 58.18C79.9878 58.18 79.988 58.18 79.9882 58.18C79.9884 58.18 79.9887 58.18 79.9889 58.18C79.9891 58.18 79.9894 58.18 79.9896 58.18C79.9898 58.18 79.9901 58.18 79.9903 58.18C79.9905 58.18 79.9908 58.18 79.991 58.18C79.9912 58.18 79.9914 58.18 79.9917 58.18C79.9919 58.18 79.9921 58.18 79.9924 58.18C79.9926 58.18 79.9928 58.18 79.9931 58.18C79.9933 58.18 79.9935 58.18 79.9937 58.18C79.994 58.18 79.9942 58.18 79.9944 58.18C79.9947 58.18 79.9949 58.18 79.9951 58.18C79.9953 58.18 79.9956 58.18 79.9958 58.18C79.996 58.18 79.9963 58.18 79.9965 58.18C79.9967 58.18 79.997 58.18 79.9972 58.18C79.9974 58.18 79.9976 58.18 79.9979 58.18C79.9981 58.18 79.9983 58.18 79.9986 58.18C79.9988 58.18 79.999 58.18 79.9992 58.18C79.9995 58.18 79.9997 58.18 79.9999 58.18C80.0001 58.18 80.0004 58.18 80.0006 58.18C80.0008 58.18 80.0011 58.18 80.0013 58.18C80.0015 58.18 80.0017 58.18 80.002 58.18C80.0022 58.18 80.0024 58.18 80.0026 58.18C80.0029 58.18 80.0031 58.18 80.0033 58.18C80.0036 58.18 80.0038 58.18 80.004 58.18C80.0042 58.18 80.0045 58.18 80.0047 58.18C80.0049 58.18 80.0051 58.18 80.0054 58.18C80.0056 58.18 80.0058 58.18 80.006 58.18C80.0063 58.18 80.0065 58.18 80.0067 58.18C80.0069 58.18 80.0072 58.18 80.0074 58.18C80.0076 58.18 80.0078 58.18 80.0081 58.18C80.0083 58.18 80.0085 58.18 80.0087 58.18C80.009 58.18 80.0092 58.18 80.0094 58.18C80.0096 58.18 80.0099 58.18 80.0101 58.18C80.0103 58.18 80.0105 58.18 80.0108 58.18C80.011 58.18 80.0112 58.18 80.0114 58.18C80.0117 58.18 80.0119 58.18 80.0121 58.18C80.0123 58.18 80.0126 58.18 80.0128 58.18C80.013 58.18 80.0132 58.18 80.0135 58.18C80.0137 58.18 80.0139 58.18 80.0141 58.18C80.0144 58.18 80.0146 58.18 80.0148 58.18C80.015 58.18 80.0153 58.18 80.0155 58.18C80.0157 58.18 80.0159 58.18 80.0161 58.18C80.0164 58.18 80.0166 58.18 80.0168 58.18C80.017 58.18 80.0173 58.18 80.0175 58.18C80.0177 58.18 80.0179 58.18 80.0182 58.18C80.0184 58.18 80.0186 58.18 80.0188 58.18C80.019 58.18 80.0193 58.18 80.0195 58.18C80.0197 58.18 80.0199 58.18 80.0202 58.18C80.0204 58.18 80.0206 58.18 80.0208 58.18C80.021 58.18 80.0213 58.18 80.0215 58.18C80.0217 58.18 80.0219 58.18 80.0221 58.18C80.0224 58.18 80.0226 58.18 80.0228 58.18C80.023 58.18 80.0233 58.18 80.0235 58.18C80.0237 58.18 80.0239 58.18 80.0241 58.18C80.0244 58.18 80.0246 58.18 80.0248 58.18C80.025 58.18 80.0252 58.18 80.0255 58.18C80.0257 58.18 80.0259 58.18 80.0261 58.18C80.0263 58.18 80.0266 58.18 80.0268 58.18C80.027 58.18 80.0272 58.18 80.0275 58.18C80.0277 58.18 80.0279 58.18 80.0281 58.18C80.0283 58.18 80.0285 58.18 80.0288 58.18C80.029 58.18 80.0292 58.18 80.0294 58.18C80.0296 58.18 80.0299 58.18 80.0301 58.18C80.0303 58.18 80.0305 58.18 80.0307 58.18C80.031 58.18 80.0312 58.18 80.0314 58.18C80.0316 58.18 80.0318 58.18 80.0321 58.18C80.0323 58.18 80.0325 58.18 80.0327 58.18C80.0329 58.18 80.0332 58.18 80.0334 58.18C80.0336 58.18 80.0338 58.18 80.034 58.18C80.0343 58.18 80.0345 58.18 80.0347 58.18C80.0349 58.18 80.0351 58.18 80.0353 58.18C80.0356 58.18 80.0358 58.18 80.036 58.18C80.0362 58.18 80.0364 58.18 80.0367 58.18C80.0369 58.18 80.0371 58.18 80.0373 58.18C80.0375 58.18 80.0377 58.18 80.038 58.18C80.0382 58.18 80.0384 58.18 80.0386 58.18C80.0388 58.18 80.039 58.18 80.0393 58.18C80.0395 58.18 80.0397 58.18 80.0399 58.18C80.0401 58.18 80.0403 58.18 80.0406 58.18C80.0408 58.18 80.041 58.18 80.0412 58.18C80.0414 58.18 80.0417 58.18 80.0419 58.18C80.0421 58.18 80.0423 58.18 80.0425 58.18C80.0427 58.18 80.043 58.18 80.0432 58.18C80.0434 58.18 80.0436 58.18 80.0438 58.18C80.044 58.18 80.0443 58.18 80.0445 58.18C80.0447 58.18 80.0449 58.18 80.0451 58.18C80.0453 58.18 80.0455 58.18 80.0458 58.18C80.046 58.18 80.0462 58.18 80.0464 58.18C80.0466 58.18 80.0468 58.18 80.0471 58.18C80.0473 58.18 80.0475 58.18 80.0477 58.18C80.0479 58.18 80.0481 58.18 80.0484 58.18C80.0486 58.18 80.0488 58.18 80.049 58.18C80.0492 58.18 80.0494 58.18 80.0496 58.18C80.0499 58.18 80.0501 58.18 80.0503 58.18C80.0505 58.18 80.0507 58.18 80.0509 58.18C80.0511 58.18 80.0514 58.18 80.0516 58.18C80.0518 58.18 80.052 58.18 80.0522 58.18C80.0524 58.18 80.0527 58.18 80.0529 58.18C80.0531 58.18 80.0533 58.18 80.0535 58.18C80.0537 58.18 80.0539 58.18 80.0542 58.18C80.0544 58.18 80.0546 58.18 80.0548 58.18C80.055 58.18 80.0552 58.18 80.0554 58.18C80.0557 58.18 80.0559 58.18 80.0561 58.18C80.0563 58.18 80.0565 58.18 80.0567 58.18C80.0569 58.18 80.0571 58.18 80.0574 58.18C80.0576 58.18 80.0578 58.18 80.058 58.18C80.0582 58.18 80.0584 58.18 80.0586 58.18C80.0589 58.18 80.0591 58.18 80.0593 58.18C80.0595 58.18 80.0597 58.18 80.0599 58.18C80.0601 58.18 80.0603 58.18 80.0606 58.18C80.0608 58.18 80.061 58.18 80.0612 58.18C80.0614 58.18 80.0616 58.18 80.0618 58.18C80.062 58.18 80.0623 58.18 80.0625 58.18C80.0627 58.18 80.0629 58.18 80.0631 58.18C80.0633 58.18 80.0635 58.18 80.0637 58.18C80.064 58.18 80.0642 58.18 80.0644 58.18C80.0646 58.18 80.0648 58.18 80.065 58.18C80.0652 58.18 80.0654 58.18 80.0657 58.18C80.0659 58.18 80.0661 58.18 80.0663 58.18C80.0665 58.18 80.0667 58.18 80.0669 58.18C80.0671 58.18 80.0674 58.18 80.0676 58.18C80.0678 58.18 80.068 58.18 80.0682 58.18C80.0684 58.18 80.0686 58.18 80.0688 58.18C80.069 58.18 80.0693 58.18 80.0695 58.18C80.0697 58.18 80.0699 58.18 80.0701 58.18C80.0703 58.18 80.0705 58.18 80.0707 58.18C80.0709 58.18 80.0712 58.18 80.0714 58.18C80.0716 58.18 80.0718 58.18 80.072 58.18C80.0722 58.18 80.0724 58.18 80.0726 58.18C80.0728 58.18 80.0731 58.18 80.0733 58.18C80.0735 58.18 80.0737 58.18 80.0739 58.18C80.0741 58.18 80.0743 58.18 80.0745 58.18C80.0747 58.18 80.075 58.18 80.0752 58.18C80.0754 58.18 80.0756 58.18 80.0758 58.18C80.076 58.18 80.0762 58.18 80.0764 58.18C80.0766 58.18 80.0768 58.18 80.0771 58.18C80.0773 58.18 80.0775 58.18 80.0777 58.18C80.0779 58.18 80.0781 58.18 80.0783 58.18C80.0785 58.18 80.0787 58.18 80.079 58.18C80.0792 58.18 80.0794 58.18 80.0796 58.18C80.0798 58.18 80.08 58.18 80.0802 58.18C80.0804 58.18 80.0806 58.18 80.0808 58.18C80.081 58.18 80.0813 58.18 80.0815 58.18C80.0817 58.18 80.0819 58.18 80.0821 58.18C80.0823 58.18 80.0825 58.18 80.0827 58.18C80.0829 58.18 80.0831 58.18 80.0834 58.18C80.0836 58.18 80.0838 58.18 80.084 58.18C80.0842 58.18 80.0844 58.18 80.0846 58.18C80.0848 58.18 80.085 58.18 80.0852 58.18C80.0854 58.18 80.0857 58.18 80.0859 58.18C80.0861 58.18 80.0863 58.18 80.0865 58.18C80.0867 58.18 80.0869 58.18 80.0871 58.18C80.0873 58.18 80.0875 58.18 80.0877 58.18C80.0879 58.18 80.0882 58.18 80.0884 58.18C80.0886 58.18 80.0888 58.18 80.089 58.18C80.0892 58.18 80.0894 58.18 80.0896 58.18C80.0898 58.18 80.09 58.18 80.0902 58.18C80.0905 58.18 80.0907 58.18 80.0909 58.18C80.0911 58.18 80.0913 58.18 80.0915 58.18C80.0917 58.18 80.0919 58.18 80.0921 58.18C80.0923 58.18 80.0925 58.18 80.0927 58.18C80.093 58.18 80.0932 58.18 80.0934 58.18C80.0936 58.18 80.0938 58.18 80.094 58.18C80.0942 58.18 80.0944 58.18 80.0946 58.18C80.0948 58.18 80.095 58.18 80.0952 58.18C80.0954 58.18 80.0957 58.18 80.0959 58.18C80.0961 58.18 80.0963 58.18 80.0965 58.18C80.0967 58.18 80.0969 58.18 80.0971 58.18C80.0973 58.18 80.0975 58.18 80.0977 58.18C80.0979 58.18 80.0981 58.18 80.0984 58.18C80.0986 58.18 80.0988 58.18 80.099 58.18C80.0992 58.18 80.0994 58.18 80.0996 58.18C80.0998 58.18 80.1 58.18 80.1002 58.18C80.1004 58.18 80.1006 58.18 80.1008 58.18C80.101 58.18 80.1013 58.18 80.1015 58.18C80.1017 58.18 80.1019 58.18 80.1021 58.18C80.1023 58.18 80.1025 58.18 80.1027 58.18C80.1029 58.18 80.1031 58.18 80.1033 58.18C80.1035 58.18 80.1037 58.18 80.1039 58.18C80.1042 58.18 80.1044 58.18 80.1046 58.18C80.1048 58.18 80.105 58.18 80.1052 58.18C80.1054 58.18 80.1056 58.18 80.1058 58.18C80.106 58.18 80.1062 58.18 80.1064 58.18C80.1066 58.18 80.1068 58.18 80.107 58.18C80.1073 58.18 80.1075 58.18 80.1077 58.18C80.1079 58.18 80.1081 58.18 80.1083 58.18C80.1085 58.18 80.1087 58.18 80.1089 58.18C80.1091 58.18 80.1093 58.18 80.1095 58.18C80.1097 58.18 80.1099 58.18 80.1101 58.18C80.1104 58.18 80.1106 58.18 80.1108 58.18C80.111 58.18 80.1112 58.18 80.1114 58.18C80.1116 58.18 80.1118 58.18 80.112 58.18C80.1122 58.18 80.1124 58.18 80.1126 58.18C80.1128 58.18 80.113 58.18 80.1132 58.18C80.1134 58.18 80.1137 58.18 80.1139 58.18C80.1141 58.18 80.1143 58.18 80.1145 58.18C80.1147 58.18 80.1149 58.18 80.1151 58.18C80.1153 58.18 80.1155 58.18 80.1157 58.18C80.1159 58.18 80.1161 58.18 80.1163 58.18C80.1165 58.18 80.1167 58.18 80.1169 58.18C80.1172 58.18 80.1174 58.18 80.1176 58.18C80.1178 58.18 80.118 58.18 80.1182 58.18C80.1184 58.18 80.1186 58.18 80.1188 58.18C80.119 58.18 80.1192 58.18 80.1194 58.18C80.1196 58.18 80.1198 58.18 80.12 58.18C80.1202 58.18 80.1204 58.18 80.1207 58.18C80.1209 58.18 80.1211 58.18 80.1213 58.18C80.1215 58.18 80.1217 58.18 80.1219 58.18C80.1221 58.18 80.1223 58.18 80.1225 58.18C80.1227 58.18 80.1229 58.18 80.1231 58.18C80.1233 58.18 80.1235 58.18 80.1237 58.18C80.1239 58.18 80.1241 58.18 80.1244 58.18C80.1246 58.18 80.1248 58.18 80.125 58.18C80.1252 58.18 80.1254 58.18 80.1256 58.18C80.1258 58.18 80.126 58.18 80.1262 58.18C80.1264 58.18 80.1266 58.18 80.1268 58.18C80.127 58.18 80.1272 58.18 80.1274 58.18C80.1276 58.18 80.1278 58.18 80.128 58.18C80.1283 58.18 80.1285 58.18 80.1287 58.18C80.1289 58.18 80.1291 58.18 80.1293 58.18C80.1295 58.18 80.1297 58.18 80.1299 58.18C80.1301 58.18 80.1303 58.18 80.1305 58.18C80.1307 58.18 80.1309 58.18 80.1311 58.18C80.1313 58.18 80.1315 58.18 80.1317 58.18C80.132 58.18 80.1322 58.18 80.1324 58.18C80.1326 58.18 80.1328 58.18 80.133 58.18C80.1332 58.18 80.1334 58.18 80.1336 58.18C80.1338 58.18 80.134 58.18 80.1342 58.18C80.1344 58.18 80.1346 58.18 80.1348 58.18C80.135 58.18 80.1352 58.18 80.1354 58.18C80.1356 58.18 80.1358 58.18 80.1361 58.18C80.1363 58.18 80.1365 58.18 80.1367 58.18C80.1369 58.18 80.1371 58.18 80.1373 58.18C80.1375 58.18 80.1377 58.18 80.1379 58.18C80.1381 58.18 80.1383 58.18 80.1385 58.18C80.1387 58.18 80.1389 58.18 80.1391 58.18C80.1393 58.18 80.1395 58.18 80.1397 58.18C80.14 58.18 80.1402 58.18 80.1404 58.18C80.1406 58.18 80.1408 58.18 80.141 58.18C80.1412 58.18 80.1414 58.18 80.1416 58.18C80.1418 58.18 80.142 58.18 80.1422 58.18C80.1424 58.18 80.1426 58.18 80.1428 58.18C80.143 58.18 80.1432 58.18 80.1434 58.18C80.1436 58.18 80.1438 58.18 80.1441 58.18C80.1443 58.18 80.1445 58.18 80.1447 58.18C80.1449 58.18 80.1451 58.18 80.1453 58.18C80.1455 58.18 80.1457 58.18 80.1459 58.18C80.1461 58.18 80.1463 58.18 80.1465 58.18C80.1467 58.18 80.1469 58.18 80.1471 58.18C80.1473 58.18 80.1475 58.18 80.1477 58.18C80.1479 58.18 80.1482 58.18 80.1484 58.18C80.1486 58.18 80.1488 58.18 80.149 58.18C80.1492 58.18 80.1494 58.18 80.1496 58.18C80.1498 58.18 80.15 58.18 80.1502 58.18C80.1504 58.18 80.1506 58.18 80.1508 58.18C80.151 58.18 80.1512 58.18 80.1514 58.18C80.1516 58.18 80.1518 58.18 80.1521 58.18C80.1523 58.18 80.1525 58.18 80.1527 58.18C80.1529 58.18 80.1531 58.18 80.1533 58.18C80.1535 58.18 80.1537 58.18 80.1539 58.18C80.1541 58.18 80.1543 58.18 80.1545 58.18C80.1547 58.18 80.1549 58.18 80.1551 58.18C80.1553 58.18 80.1555 58.18 80.1557 58.18C80.156 58.18 80.1562 58.18 80.1564 58.18C80.1566 58.18 80.1568 58.18 80.157 58.18C80.1572 58.18 80.1574 58.18 80.1576 58.18C80.1578 58.18 80.158 58.18 80.1582 58.18C80.1584 58.18 80.1586 58.18 80.1588 58.18C80.159 58.18 80.1592 58.18 80.1594 58.18C80.1596 58.18 80.1599 58.18 80.1601 58.18C80.1603 58.18 80.1605 58.18 80.1607 58.18C80.1609 58.18 80.1611 58.18 80.1613 58.18C80.1615 58.18 80.1617 58.18 80.1619 58.18C80.1621 58.18 80.1623 58.18 80.1625 58.18C80.1627 58.18 80.1629 58.18 80.1631 58.18C80.1633 58.18 80.1636 58.18 80.1638 58.18C80.164 58.18 80.1642 58.18 80.1644 58.18C80.1646 58.18 80.1648 58.18 80.165 58.18C80.1652 58.18 80.1654 58.18 80.1656 58.18C80.1658 58.18 80.166 58.18 80.1662 58.18C80.1664 58.18 80.1666 58.18 80.1668 58.18C80.167 58.18 80.1673 58.18 80.1675 58.18C80.1677 58.18 80.1679 58.18 80.1681 58.18C80.1683 58.18 80.1685 58.18 80.1687 58.18C80.1689 58.18 80.1691 58.18 80.1693 58.18C80.1695 58.18 80.1697 58.18 80.1699 58.18C80.1701 58.18 80.1703 58.18 80.1705 58.18C80.1708 58.18 80.171 58.18 80.1712 58.18C80.1714 58.18 80.1716 58.18 80.1718 58.18C80.172 58.18 80.1722 58.18 80.1724 58.18C80.1726 58.18 80.1728 58.18 80.173 58.18C80.1732 58.18 80.1734 58.18 80.1736 58.18C80.1738 58.18 80.174 58.18 80.1743 58.18C80.1745 58.18 80.1747 58.18 80.1749 58.18C80.1751 58.18 80.1753 58.18 80.1755 58.18C80.1757 58.18 80.1759 58.18 80.1761 58.18C80.1763 58.18 80.1765 58.18 80.1767 58.18C80.1769 58.18 80.1771 58.18 80.1773 58.18C80.1776 58.18 80.1778 58.18 80.178 58.18C80.1782 58.18 80.1784 58.18 80.1786 58.18C80.1788 58.18 80.179 58.18 80.1792 58.18C80.1794 58.18 80.1796 58.18 80.1798 58.18C80.18 58.18 80.1802 58.18 80.1804 58.18C80.1807 58.18 80.1809 58.18 80.1811 58.18C80.1813 58.18 80.1815 58.18 80.1817 58.18C80.1819 58.18 80.1821 58.18 80.1823 58.18C80.1825 58.18 80.1827 58.18 80.1829 58.18C80.1831 58.18 80.1833 58.18 80.1835 58.18C80.1838 58.18 80.184 58.18 80.1842 58.18C80.1844 58.18 80.1846 58.18 80.1848 58.18C80.185 58.18 80.1852 58.18 80.1854 58.18C80.1856 58.18 80.1858 58.18 80.186 58.18C80.1862 58.18 80.1865 58.18 80.1867 58.18C80.1869 58.18 80.1871 58.18 80.1873 58.18C80.1875 58.18 80.1877 58.18 80.1879 58.18C80.1881 58.18 80.1883 58.18 80.1885 58.18C80.1887 58.18 80.1889 58.18 80.1891 58.18C80.1894 58.18 80.1896 58.18 80.1898 58.18C80.19 58.18 80.1902 58.18 80.1904 58.18C80.1906 58.18 80.1908 58.18 80.191 58.18C80.1912 58.18 80.1914 58.18 80.1916 58.18C80.1918 58.18 80.1921 58.18 80.1923 58.18C80.1925 58.18 80.1927 58.18 80.1929 58.18C80.1931 58.18 80.1933 58.18 80.1935 58.18C80.1937 58.18 80.1939 58.18 80.1941 58.18C80.1943 58.18 80.1945 58.18 80.1948 58.18C80.195 58.18 80.1952 58.18 80.1954 58.18C80.1956 58.18 80.1958 58.18 80.196 58.18C80.1962 58.18 80.1964 58.18 80.1966 58.18C80.1968 58.18 80.197 58.18 80.1973 58.18C80.1975 58.18 80.1977 58.18 80.1979 58.18C80.1981 58.18 80.1983 58.18 80.1985 58.18C80.1987 58.18 80.1989 58.18 80.1991 58.18C80.1993 58.18 80.1996 58.18 80.1998 58.18C80.2 58.18 80.2002 58.18 80.2004 58.18C80.2006 58.18 80.2008 58.18 80.201 58.18C80.2012 58.18 80.2014 58.18 80.2016 58.18C80.2019 58.18 80.2021 58.18 80.2023 58.18C80.2025 58.18 80.2027 58.18 80.2029 58.18C80.2031 58.18 80.2033 58.18 80.2035 58.18C80.2037 58.18 80.2039 58.18 80.2042 58.18C80.2044 58.18 80.2046 58.18 80.2048 58.18C80.205 58.18 80.2052 58.18 80.2054 58.18C80.2056 58.18 80.2058 58.18 80.206 58.18C80.2062 58.18 80.2065 58.18 80.2067 58.18C80.2069 58.18 80.2071 58.18 80.2073 58.18C80.2075 58.18 80.2077 58.18 80.2079 58.18C80.2081 58.18 80.2083 58.18 80.2086 58.18C80.2088 58.18 80.209 58.18 80.2092 58.18C80.2094 58.18 80.2096 58.18 80.2098 58.18C80.21 58.18 80.2102 58.18 80.2104 58.18C80.2107 58.18 80.2109 58.18 80.2111 58.18C80.2113 58.18 80.2115 58.18 80.2117 58.18C80.2119 58.18 80.2121 58.18 80.2123 58.18C80.2126 58.18 80.2128 58.18 80.213 58.18C80.2132 58.18 80.2134 58.18 80.2136 58.18C80.2138 58.18 80.214 58.18 80.2142 58.18C80.2144 58.18 80.2147 58.18 80.2149 58.18C80.2151 58.18 80.2153 58.18 80.2155 58.18C80.2157 58.18 80.2159 58.18 80.2161 58.18C80.2163 58.18 80.2166 58.18 80.2168 58.18C80.217 58.18 80.2172 58.18 80.2174 58.18C80.2176 58.18 80.2178 58.18 80.218 58.18C80.2183 58.18 80.2185 58.18 80.2187 58.18C80.2189 58.18 80.2191 58.18 80.2193 58.18C80.2195 58.18 80.2197 58.18 80.2199 58.18C80.2202 58.18 80.2204 58.18 80.2206 58.18C80.2208 58.18 80.221 58.18 80.2212 58.18C80.2214 58.18 80.2216 58.18 80.2219 58.18C80.2221 58.18 80.2223 58.18 80.2225 58.18C80.2227 58.18 80.2229 58.18 80.2231 58.18C80.2233 58.18 80.2236 58.18 80.2238 58.18C80.224 58.18 80.2242 58.18 80.2244 58.18C80.2246 58.18 80.2248 58.18 80.225 58.18C80.2253 58.18 80.2255 58.18 80.2257 58.18C80.2259 58.18 80.2261 58.18 80.2263 58.18C80.2265 58.18 80.2267 58.18 80.227 58.18C80.2272 58.18 80.2274 58.18 80.2276 58.18C80.2278 58.18 80.228 58.18 80.2282 58.18C80.2284 58.18 80.2287 58.18 80.2289 58.18C80.2291 58.18 80.2293 58.18 80.2295 58.18C80.2297 58.18 80.2299 58.18 80.2302 58.18C80.2304 58.18 80.2306 58.18 80.2308 58.18C80.231 58.18 80.2312 58.18 80.2314 58.18C80.2317 58.18 80.2319 58.18 80.2321 58.18C80.2323 58.18 80.2325 58.18 80.2327 58.18C80.2329 58.18 80.2332 58.18 80.2334 58.18C80.2336 58.18 80.2338 58.18 80.234 58.18C80.2342 58.18 80.2344 58.18 80.2347 58.18C80.2349 58.18 80.2351 58.18 80.2353 58.18C80.2355 58.18 80.2357 58.18 80.2359 58.18C80.2362 58.18 80.2364 58.18 80.2366 58.18C80.2368 58.18 80.237 58.18 80.2372 58.18C80.2374 58.18 80.2377 58.18 80.2379 58.18C80.2381 58.18 80.2383 58.18 80.2385 58.18C80.2387 58.18 80.239 58.18 80.2392 58.18C80.2394 58.18 80.2396 58.18 80.2398 58.18C80.24 58.18 80.2402 58.18 80.2405 58.18C80.2407 58.18 80.2409 58.18 80.2411 58.18C80.2413 58.18 80.2415 58.18 80.2418 58.18C80.242 58.18 80.2422 58.18 80.2424 58.18C80.2426 58.18 80.2428 58.18 80.2431 58.18C80.2433 58.18 80.2435 58.18 80.2437 58.18C80.2439 58.18 80.2441 58.18 80.2444 58.18C80.2446 58.18 80.2448 58.18 80.245 58.18C80.2452 58.18 80.2454 58.18 80.2457 58.18C80.2459 58.18 80.2461 58.18 80.2463 58.18C80.2465 58.18 80.2467 58.18 80.247 58.18C80.2472 58.18 80.2474 58.18 80.2476 58.18C80.2478 58.18 80.248 58.18 80.2483 58.18C80.2485 58.18 80.2487 58.18 80.2489 58.18C80.2491 58.18 80.2494 58.18 80.2496 58.18C80.2498 58.18 80.25 58.18 80.2502 58.18C80.2504 58.18 80.2507 58.18 80.2509 58.18C80.2511 58.18 80.2513 58.18 80.2515 58.18C80.2518 58.18 80.252 58.18 80.2522 58.18C80.2524 58.18 80.2526 58.18 80.2528 58.18C80.2531 58.18 80.2533 58.18 80.2535 58.18C80.2537 58.18 80.2539 58.18 80.2542 58.18C80.2544 58.18 80.2546 58.18 80.2548 58.18C80.255 58.18 80.2553 58.18 80.2555 58.18C80.2557 58.18 80.2559 58.18 80.2561 58.18C80.2563 58.18 80.2566 58.18 80.2568 58.18C80.257 58.18 80.2572 58.18 80.2574 58.18C80.2577 58.18 80.2579 58.18 80.2581 58.18C80.2583 58.18 80.2585 58.18 80.2588 58.18C80.259 58.18 80.2592 58.18 80.2594 58.18C80.2596 58.18 80.2599 58.18 80.2601 58.18C80.2603 58.18 80.2605 58.18 80.2607 58.18C80.261 58.18 80.2612 58.18 80.2614 58.18C80.2616 58.18 80.2619 58.18 80.2621 58.18C80.2623 58.18 80.2625 58.18 80.2627 58.18C80.263 58.18 80.2632 58.18 80.2634 58.18C80.2636 58.18 80.2638 58.18 80.2641 58.18C80.2643 58.18 80.2645 58.18 80.2647 58.18C80.2649 58.18 80.2652 58.18 80.2654 58.18C80.2656 58.18 80.2658 58.18 80.2661 58.18C80.2663 58.18 80.2665 58.18 80.2667 58.18C80.2669 58.18 80.2672 58.18 80.2674 58.18C80.2676 58.18 80.2678 58.18 80.2681 58.18C80.2683 58.18 80.2685 58.18 80.2687 58.18C80.2689 58.18 80.2692 58.18 80.2694 58.18C80.2696 58.18 80.2698 58.18 80.2701 58.18C80.2703 58.18 80.2705 58.18 80.2707 58.18C80.271 58.18 80.2712 58.18 80.2714 58.18C80.2716 58.18 80.2718 58.18 80.2721 58.18C80.2723 58.18 80.2725 58.18 80.2727 58.18C80.273 58.18 80.2732 58.18 80.2734 58.18C80.2736 58.18 80.2739 58.18 80.2741 58.18C80.2743 58.18 80.2745 58.18 80.2748 58.18C80.275 58.18 80.2752 58.18 80.2754 58.18C80.2757 58.18 80.2759 58.18 80.2761 58.18C80.2763 58.18 80.2766 58.18 80.2768 58.18C80.277 58.18 80.2772 58.18 80.2775 58.18C80.2777 58.18 80.2779 58.18 80.2781 58.18C80.2784 58.18 80.2786 58.18 80.2788 58.18C80.279 58.18 80.2793 58.18 80.2795 58.18C80.2797 58.18 80.2799 58.18 80.2802 58.18C80.2804 58.18 80.2806 58.18 80.2808 58.18C80.2811 58.18 80.2813 58.18 80.2815 58.18C80.2817 58.18 80.282 58.18 80.2822 58.18C80.2824 58.18 80.2826 58.18 80.2829 58.18C80.2831 58.18 80.2833 58.18 80.2835 58.18C80.2838 58.18 80.284 58.18 80.2842 58.18C80.2845 58.18 80.2847 58.18 80.2849 58.18C80.2851 58.18 80.2854 58.18 80.2856 58.18C80.2858 58.18 80.286 58.18 80.2863 58.18C80.2865 58.18 80.2867 58.18 80.287 58.18C80.2872 58.18 80.2874 58.18 80.2876 58.18C80.2879 58.18 80.2881 58.18 80.2883 58.18C80.2886 58.18 80.2888 58.18 80.289 58.18C80.2892 58.18 80.2895 58.18 80.2897 58.18C80.2899 58.18 80.2902 58.18 80.2904 58.18C80.2906 58.18 80.2908 58.18 80.2911 58.18C80.2913 58.18 80.2915 58.18 80.2918 58.18C80.292 58.18 80.2922 58.18 80.2924 58.18C80.2927 58.18 80.2929 58.18 80.2931 58.18C80.2934 58.18 80.2936 58.18 80.2938 58.18C80.294 58.18 80.2943 58.18 80.2945 58.18C80.2947 58.18 80.295 58.18 80.2952 58.18C80.2954 58.18 80.2957 58.18 80.2959 58.18C80.2961 58.18 80.2964 58.18 80.2966 58.18C80.2968 58.18 80.297 58.18 80.2973 58.18C80.2975 58.18 80.2977 58.18 80.298 58.18C80.2982 58.18 80.2984 58.18 80.2987 58.18C80.2989 58.18 80.2991 58.18 80.2994 58.18C80.2996 58.18 80.2998 58.18 80.3 58.18C80.3003 58.18 80.3005 58.18 80.3007 58.18C80.301 58.18 80.3012 58.18 80.3014 58.18C80.3017 58.18 80.3019 58.18 80.3021 58.18C80.3024 58.18 80.3026 58.18 80.3028 58.18C80.3031 58.18 80.3033 58.18 80.3035 58.18C80.3038 58.18 80.304 58.18 80.3042 58.18C80.3045 58.18 80.3047 58.18 80.3049 58.18C80.3052 58.18 80.3054 58.18 80.3056 58.18C80.3059 58.18 80.3061 58.18 80.3063 58.18C80.3066 58.18 80.3068 58.18 80.307 58.18C80.3073 58.18 80.3075 58.18 80.3077 58.18C80.308 58.18 80.3082 58.18 80.3084 58.18V56.18C80.3082 56.18 80.308 56.18 80.3077 56.18C80.3075 56.18 80.3073 56.18 80.307 56.18C80.3068 56.18 80.3066 56.18 80.3063 56.18C80.3061 56.18 80.3059 56.18 80.3056 56.18C80.3054 56.18 80.3052 56.18 80.3049 56.18C80.3047 56.18 80.3045 56.18 80.3042 56.18C80.304 56.18 80.3038 56.18 80.3035 56.18C80.3033 56.18 80.3031 56.18 80.3028 56.18C80.3026 56.18 80.3024 56.18 80.3021 56.18C80.3019 56.18 80.3017 56.18 80.3014 56.18C80.3012 56.18 80.301 56.18 80.3007 56.18C80.3005 56.18 80.3003 56.18 80.3 56.18C80.2998 56.18 80.2996 56.18 80.2994 56.18C80.2991 56.18 80.2989 56.18 80.2987 56.18C80.2984 56.18 80.2982 56.18 80.298 56.18C80.2977 56.18 80.2975 56.18 80.2973 56.18C80.297 56.18 80.2968 56.18 80.2966 56.18C80.2964 56.18 80.2961 56.18 80.2959 56.18C80.2957 56.18 80.2954 56.18 80.2952 56.18C80.295 56.18 80.2947 56.18 80.2945 56.18C80.2943 56.18 80.294 56.18 80.2938 56.18C80.2936 56.18 80.2934 56.18 80.2931 56.18C80.2929 56.18 80.2927 56.18 80.2924 56.18C80.2922 56.18 80.292 56.18 80.2918 56.18C80.2915 56.18 80.2913 56.18 80.2911 56.18C80.2908 56.18 80.2906 56.18 80.2904 56.18C80.2902 56.18 80.2899 56.18 80.2897 56.18C80.2895 56.18 80.2892 56.18 80.289 56.18C80.2888 56.18 80.2886 56.18 80.2883 56.18C80.2881 56.18 80.2879 56.18 80.2876 56.18C80.2874 56.18 80.2872 56.18 80.287 56.18C80.2867 56.18 80.2865 56.18 80.2863 56.18C80.286 56.18 80.2858 56.18 80.2856 56.18C80.2854 56.18 80.2851 56.18 80.2849 56.18C80.2847 56.18 80.2845 56.18 80.2842 56.18C80.284 56.18 80.2838 56.18 80.2835 56.18C80.2833 56.18 80.2831 56.18 80.2829 56.18C80.2826 56.18 80.2824 56.18 80.2822 56.18C80.282 56.18 80.2817 56.18 80.2815 56.18C80.2813 56.18 80.2811 56.18 80.2808 56.18C80.2806 56.18 80.2804 56.18 80.2802 56.18C80.2799 56.18 80.2797 56.18 80.2795 56.18C80.2793 56.18 80.279 56.18 80.2788 56.18C80.2786 56.18 80.2784 56.18 80.2781 56.18C80.2779 56.18 80.2777 56.18 80.2775 56.18C80.2772 56.18 80.277 56.18 80.2768 56.18C80.2766 56.18 80.2763 56.18 80.2761 56.18C80.2759 56.18 80.2757 56.18 80.2754 56.18C80.2752 56.18 80.275 56.18 80.2748 56.18C80.2745 56.18 80.2743 56.18 80.2741 56.18C80.2739 56.18 80.2736 56.18 80.2734 56.18C80.2732 56.18 80.273 56.18 80.2727 56.18C80.2725 56.18 80.2723 56.18 80.2721 56.18C80.2718 56.18 80.2716 56.18 80.2714 56.18C80.2712 56.18 80.271 56.18 80.2707 56.18C80.2705 56.18 80.2703 56.18 80.2701 56.18C80.2698 56.18 80.2696 56.18 80.2694 56.18C80.2692 56.18 80.2689 56.18 80.2687 56.18C80.2685 56.18 80.2683 56.18 80.2681 56.18C80.2678 56.18 80.2676 56.18 80.2674 56.18C80.2672 56.18 80.2669 56.18 80.2667 56.18C80.2665 56.18 80.2663 56.18 80.2661 56.18C80.2658 56.18 80.2656 56.18 80.2654 56.18C80.2652 56.18 80.2649 56.18 80.2647 56.18C80.2645 56.18 80.2643 56.18 80.2641 56.18C80.2638 56.18 80.2636 56.18 80.2634 56.18C80.2632 56.18 80.263 56.18 80.2627 56.18C80.2625 56.18 80.2623 56.18 80.2621 56.18C80.2619 56.18 80.2616 56.18 80.2614 56.18C80.2612 56.18 80.261 56.18 80.2607 56.18C80.2605 56.18 80.2603 56.18 80.2601 56.18C80.2599 56.18 80.2596 56.18 80.2594 56.18C80.2592 56.18 80.259 56.18 80.2588 56.18C80.2585 56.18 80.2583 56.18 80.2581 56.18C80.2579 56.18 80.2577 56.18 80.2574 56.18C80.2572 56.18 80.257 56.18 80.2568 56.18C80.2566 56.18 80.2563 56.18 80.2561 56.18C80.2559 56.18 80.2557 56.18 80.2555 56.18C80.2553 56.18 80.255 56.18 80.2548 56.18C80.2546 56.18 80.2544 56.18 80.2542 56.18C80.2539 56.18 80.2537 56.18 80.2535 56.18C80.2533 56.18 80.2531 56.18 80.2528 56.18C80.2526 56.18 80.2524 56.18 80.2522 56.18C80.252 56.18 80.2518 56.18 80.2515 56.18C80.2513 56.18 80.2511 56.18 80.2509 56.18C80.2507 56.18 80.2504 56.18 80.2502 56.18C80.25 56.18 80.2498 56.18 80.2496 56.18C80.2494 56.18 80.2491 56.18 80.2489 56.18C80.2487 56.18 80.2485 56.18 80.2483 56.18C80.248 56.18 80.2478 56.18 80.2476 56.18C80.2474 56.18 80.2472 56.18 80.247 56.18C80.2467 56.18 80.2465 56.18 80.2463 56.18C80.2461 56.18 80.2459 56.18 80.2457 56.18C80.2454 56.18 80.2452 56.18 80.245 56.18C80.2448 56.18 80.2446 56.18 80.2444 56.18C80.2441 56.18 80.2439 56.18 80.2437 56.18C80.2435 56.18 80.2433 56.18 80.2431 56.18C80.2428 56.18 80.2426 56.18 80.2424 56.18C80.2422 56.18 80.242 56.18 80.2418 56.18C80.2415 56.18 80.2413 56.18 80.2411 56.18C80.2409 56.18 80.2407 56.18 80.2405 56.18C80.2402 56.18 80.24 56.18 80.2398 56.18C80.2396 56.18 80.2394 56.18 80.2392 56.18C80.239 56.18 80.2387 56.18 80.2385 56.18C80.2383 56.18 80.2381 56.18 80.2379 56.18C80.2377 56.18 80.2374 56.18 80.2372 56.18C80.237 56.18 80.2368 56.18 80.2366 56.18C80.2364 56.18 80.2362 56.18 80.2359 56.18C80.2357 56.18 80.2355 56.18 80.2353 56.18C80.2351 56.18 80.2349 56.18 80.2347 56.18C80.2344 56.18 80.2342 56.18 80.234 56.18C80.2338 56.18 80.2336 56.18 80.2334 56.18C80.2332 56.18 80.2329 56.18 80.2327 56.18C80.2325 56.18 80.2323 56.18 80.2321 56.18C80.2319 56.18 80.2317 56.18 80.2314 56.18C80.2312 56.18 80.231 56.18 80.2308 56.18C80.2306 56.18 80.2304 56.18 80.2302 56.18C80.2299 56.18 80.2297 56.18 80.2295 56.18C80.2293 56.18 80.2291 56.18 80.2289 56.18C80.2287 56.18 80.2284 56.18 80.2282 56.18C80.228 56.18 80.2278 56.18 80.2276 56.18C80.2274 56.18 80.2272 56.18 80.227 56.18C80.2267 56.18 80.2265 56.18 80.2263 56.18C80.2261 56.18 80.2259 56.18 80.2257 56.18C80.2255 56.18 80.2253 56.18 80.225 56.18C80.2248 56.18 80.2246 56.18 80.2244 56.18C80.2242 56.18 80.224 56.18 80.2238 56.18C80.2236 56.18 80.2233 56.18 80.2231 56.18C80.2229 56.18 80.2227 56.18 80.2225 56.18C80.2223 56.18 80.2221 56.18 80.2219 56.18C80.2216 56.18 80.2214 56.18 80.2212 56.18C80.221 56.18 80.2208 56.18 80.2206 56.18C80.2204 56.18 80.2202 56.18 80.2199 56.18C80.2197 56.18 80.2195 56.18 80.2193 56.18C80.2191 56.18 80.2189 56.18 80.2187 56.18C80.2185 56.18 80.2183 56.18 80.218 56.18C80.2178 56.18 80.2176 56.18 80.2174 56.18C80.2172 56.18 80.217 56.18 80.2168 56.18C80.2166 56.18 80.2163 56.18 80.2161 56.18C80.2159 56.18 80.2157 56.18 80.2155 56.18C80.2153 56.18 80.2151 56.18 80.2149 56.18C80.2147 56.18 80.2144 56.18 80.2142 56.18C80.214 56.18 80.2138 56.18 80.2136 56.18C80.2134 56.18 80.2132 56.18 80.213 56.18C80.2128 56.18 80.2126 56.18 80.2123 56.18C80.2121 56.18 80.2119 56.18 80.2117 56.18C80.2115 56.18 80.2113 56.18 80.2111 56.18C80.2109 56.18 80.2107 56.18 80.2104 56.18C80.2102 56.18 80.21 56.18 80.2098 56.18C80.2096 56.18 80.2094 56.18 80.2092 56.18C80.209 56.18 80.2088 56.18 80.2086 56.18C80.2083 56.18 80.2081 56.18 80.2079 56.18C80.2077 56.18 80.2075 56.18 80.2073 56.18C80.2071 56.18 80.2069 56.18 80.2067 56.18C80.2065 56.18 80.2062 56.18 80.206 56.18C80.2058 56.18 80.2056 56.18 80.2054 56.18C80.2052 56.18 80.205 56.18 80.2048 56.18C80.2046 56.18 80.2044 56.18 80.2042 56.18C80.2039 56.18 80.2037 56.18 80.2035 56.18C80.2033 56.18 80.2031 56.18 80.2029 56.18C80.2027 56.18 80.2025 56.18 80.2023 56.18C80.2021 56.18 80.2019 56.18 80.2016 56.18C80.2014 56.18 80.2012 56.18 80.201 56.18C80.2008 56.18 80.2006 56.18 80.2004 56.18C80.2002 56.18 80.2 56.18 80.1998 56.18C80.1996 56.18 80.1993 56.18 80.1991 56.18C80.1989 56.18 80.1987 56.18 80.1985 56.18C80.1983 56.18 80.1981 56.18 80.1979 56.18C80.1977 56.18 80.1975 56.18 80.1973 56.18C80.197 56.18 80.1968 56.18 80.1966 56.18C80.1964 56.18 80.1962 56.18 80.196 56.18C80.1958 56.18 80.1956 56.18 80.1954 56.18C80.1952 56.18 80.195 56.18 80.1948 56.18C80.1945 56.18 80.1943 56.18 80.1941 56.18C80.1939 56.18 80.1937 56.18 80.1935 56.18C80.1933 56.18 80.1931 56.18 80.1929 56.18C80.1927 56.18 80.1925 56.18 80.1923 56.18C80.1921 56.18 80.1918 56.18 80.1916 56.18C80.1914 56.18 80.1912 56.18 80.191 56.18C80.1908 56.18 80.1906 56.18 80.1904 56.18C80.1902 56.18 80.19 56.18 80.1898 56.18C80.1896 56.18 80.1894 56.18 80.1891 56.18C80.1889 56.18 80.1887 56.18 80.1885 56.18C80.1883 56.18 80.1881 56.18 80.1879 56.18C80.1877 56.18 80.1875 56.18 80.1873 56.18C80.1871 56.18 80.1869 56.18 80.1867 56.18C80.1865 56.18 80.1862 56.18 80.186 56.18C80.1858 56.18 80.1856 56.18 80.1854 56.18C80.1852 56.18 80.185 56.18 80.1848 56.18C80.1846 56.18 80.1844 56.18 80.1842 56.18C80.184 56.18 80.1838 56.18 80.1835 56.18C80.1833 56.18 80.1831 56.18 80.1829 56.18C80.1827 56.18 80.1825 56.18 80.1823 56.18C80.1821 56.18 80.1819 56.18 80.1817 56.18C80.1815 56.18 80.1813 56.18 80.1811 56.18C80.1809 56.18 80.1807 56.18 80.1804 56.18C80.1802 56.18 80.18 56.18 80.1798 56.18C80.1796 56.18 80.1794 56.18 80.1792 56.18C80.179 56.18 80.1788 56.18 80.1786 56.18C80.1784 56.18 80.1782 56.18 80.178 56.18C80.1778 56.18 80.1776 56.18 80.1773 56.18C80.1771 56.18 80.1769 56.18 80.1767 56.18C80.1765 56.18 80.1763 56.18 80.1761 56.18C80.1759 56.18 80.1757 56.18 80.1755 56.18C80.1753 56.18 80.1751 56.18 80.1749 56.18C80.1747 56.18 80.1745 56.18 80.1743 56.18C80.174 56.18 80.1738 56.18 80.1736 56.18C80.1734 56.18 80.1732 56.18 80.173 56.18C80.1728 56.18 80.1726 56.18 80.1724 56.18C80.1722 56.18 80.172 56.18 80.1718 56.18C80.1716 56.18 80.1714 56.18 80.1712 56.18C80.171 56.18 80.1708 56.18 80.1705 56.18C80.1703 56.18 80.1701 56.18 80.1699 56.18C80.1697 56.18 80.1695 56.18 80.1693 56.18C80.1691 56.18 80.1689 56.18 80.1687 56.18C80.1685 56.18 80.1683 56.18 80.1681 56.18C80.1679 56.18 80.1677 56.18 80.1675 56.18C80.1673 56.18 80.167 56.18 80.1668 56.18C80.1666 56.18 80.1664 56.18 80.1662 56.18C80.166 56.18 80.1658 56.18 80.1656 56.18C80.1654 56.18 80.1652 56.18 80.165 56.18C80.1648 56.18 80.1646 56.18 80.1644 56.18C80.1642 56.18 80.164 56.18 80.1638 56.18C80.1636 56.18 80.1633 56.18 80.1631 56.18C80.1629 56.18 80.1627 56.18 80.1625 56.18C80.1623 56.18 80.1621 56.18 80.1619 56.18C80.1617 56.18 80.1615 56.18 80.1613 56.18C80.1611 56.18 80.1609 56.18 80.1607 56.18C80.1605 56.18 80.1603 56.18 80.1601 56.18C80.1599 56.18 80.1596 56.18 80.1594 56.18C80.1592 56.18 80.159 56.18 80.1588 56.18C80.1586 56.18 80.1584 56.18 80.1582 56.18C80.158 56.18 80.1578 56.18 80.1576 56.18C80.1574 56.18 80.1572 56.18 80.157 56.18C80.1568 56.18 80.1566 56.18 80.1564 56.18C80.1562 56.18 80.156 56.18 80.1557 56.18C80.1555 56.18 80.1553 56.18 80.1551 56.18C80.1549 56.18 80.1547 56.18 80.1545 56.18C80.1543 56.18 80.1541 56.18 80.1539 56.18C80.1537 56.18 80.1535 56.18 80.1533 56.18C80.1531 56.18 80.1529 56.18 80.1527 56.18C80.1525 56.18 80.1523 56.18 80.1521 56.18C80.1518 56.18 80.1516 56.18 80.1514 56.18C80.1512 56.18 80.151 56.18 80.1508 56.18C80.1506 56.18 80.1504 56.18 80.1502 56.18C80.15 56.18 80.1498 56.18 80.1496 56.18C80.1494 56.18 80.1492 56.18 80.149 56.18C80.1488 56.18 80.1486 56.18 80.1484 56.18C80.1482 56.18 80.1479 56.18 80.1477 56.18C80.1475 56.18 80.1473 56.18 80.1471 56.18C80.1469 56.18 80.1467 56.18 80.1465 56.18C80.1463 56.18 80.1461 56.18 80.1459 56.18C80.1457 56.18 80.1455 56.18 80.1453 56.18C80.1451 56.18 80.1449 56.18 80.1447 56.18C80.1445 56.18 80.1443 56.18 80.1441 56.18C80.1438 56.18 80.1436 56.18 80.1434 56.18C80.1432 56.18 80.143 56.18 80.1428 56.18C80.1426 56.18 80.1424 56.18 80.1422 56.18C80.142 56.18 80.1418 56.18 80.1416 56.18C80.1414 56.18 80.1412 56.18 80.141 56.18C80.1408 56.18 80.1406 56.18 80.1404 56.18C80.1402 56.18 80.14 56.18 80.1397 56.18C80.1395 56.18 80.1393 56.18 80.1391 56.18C80.1389 56.18 80.1387 56.18 80.1385 56.18C80.1383 56.18 80.1381 56.18 80.1379 56.18C80.1377 56.18 80.1375 56.18 80.1373 56.18C80.1371 56.18 80.1369 56.18 80.1367 56.18C80.1365 56.18 80.1363 56.18 80.1361 56.18C80.1358 56.18 80.1356 56.18 80.1354 56.18C80.1352 56.18 80.135 56.18 80.1348 56.18C80.1346 56.18 80.1344 56.18 80.1342 56.18C80.134 56.18 80.1338 56.18 80.1336 56.18C80.1334 56.18 80.1332 56.18 80.133 56.18C80.1328 56.18 80.1326 56.18 80.1324 56.18C80.1322 56.18 80.132 56.18 80.1317 56.18C80.1315 56.18 80.1313 56.18 80.1311 56.18C80.1309 56.18 80.1307 56.18 80.1305 56.18C80.1303 56.18 80.1301 56.18 80.1299 56.18C80.1297 56.18 80.1295 56.18 80.1293 56.18C80.1291 56.18 80.1289 56.18 80.1287 56.18C80.1285 56.18 80.1283 56.18 80.128 56.18C80.1278 56.18 80.1276 56.18 80.1274 56.18C80.1272 56.18 80.127 56.18 80.1268 56.18C80.1266 56.18 80.1264 56.18 80.1262 56.18C80.126 56.18 80.1258 56.18 80.1256 56.18C80.1254 56.18 80.1252 56.18 80.125 56.18C80.1248 56.18 80.1246 56.18 80.1244 56.18C80.1241 56.18 80.1239 56.18 80.1237 56.18C80.1235 56.18 80.1233 56.18 80.1231 56.18C80.1229 56.18 80.1227 56.18 80.1225 56.18C80.1223 56.18 80.1221 56.18 80.1219 56.18C80.1217 56.18 80.1215 56.18 80.1213 56.18C80.1211 56.18 80.1209 56.18 80.1207 56.18C80.1204 56.18 80.1202 56.18 80.12 56.18C80.1198 56.18 80.1196 56.18 80.1194 56.18C80.1192 56.18 80.119 56.18 80.1188 56.18C80.1186 56.18 80.1184 56.18 80.1182 56.18C80.118 56.18 80.1178 56.18 80.1176 56.18C80.1174 56.18 80.1172 56.18 80.1169 56.18C80.1167 56.18 80.1165 56.18 80.1163 56.18C80.1161 56.18 80.1159 56.18 80.1157 56.18C80.1155 56.18 80.1153 56.18 80.1151 56.18C80.1149 56.18 80.1147 56.18 80.1145 56.18C80.1143 56.18 80.1141 56.18 80.1139 56.18C80.1137 56.18 80.1134 56.18 80.1132 56.18C80.113 56.18 80.1128 56.18 80.1126 56.18C80.1124 56.18 80.1122 56.18 80.112 56.18C80.1118 56.18 80.1116 56.18 80.1114 56.18C80.1112 56.18 80.111 56.18 80.1108 56.18C80.1106 56.18 80.1104 56.18 80.1101 56.18C80.1099 56.18 80.1097 56.18 80.1095 56.18C80.1093 56.18 80.1091 56.18 80.1089 56.18C80.1087 56.18 80.1085 56.18 80.1083 56.18C80.1081 56.18 80.1079 56.18 80.1077 56.18C80.1075 56.18 80.1073 56.18 80.107 56.18C80.1068 56.18 80.1066 56.18 80.1064 56.18C80.1062 56.18 80.106 56.18 80.1058 56.18C80.1056 56.18 80.1054 56.18 80.1052 56.18C80.105 56.18 80.1048 56.18 80.1046 56.18C80.1044 56.18 80.1042 56.18 80.1039 56.18C80.1037 56.18 80.1035 56.18 80.1033 56.18C80.1031 56.18 80.1029 56.18 80.1027 56.18C80.1025 56.18 80.1023 56.18 80.1021 56.18C80.1019 56.18 80.1017 56.18 80.1015 56.18C80.1013 56.18 80.101 56.18 80.1008 56.18C80.1006 56.18 80.1004 56.18 80.1002 56.18C80.1 56.18 80.0998 56.18 80.0996 56.18C80.0994 56.18 80.0992 56.18 80.099 56.18C80.0988 56.18 80.0986 56.18 80.0984 56.18C80.0981 56.18 80.0979 56.18 80.0977 56.18C80.0975 56.18 80.0973 56.18 80.0971 56.18C80.0969 56.18 80.0967 56.18 80.0965 56.18C80.0963 56.18 80.0961 56.18 80.0959 56.18C80.0957 56.18 80.0954 56.18 80.0952 56.18C80.095 56.18 80.0948 56.18 80.0946 56.18C80.0944 56.18 80.0942 56.18 80.094 56.18C80.0938 56.18 80.0936 56.18 80.0934 56.18C80.0932 56.18 80.093 56.18 80.0927 56.18C80.0925 56.18 80.0923 56.18 80.0921 56.18C80.0919 56.18 80.0917 56.18 80.0915 56.18C80.0913 56.18 80.0911 56.18 80.0909 56.18C80.0907 56.18 80.0905 56.18 80.0902 56.18C80.09 56.18 80.0898 56.18 80.0896 56.18C80.0894 56.18 80.0892 56.18 80.089 56.18C80.0888 56.18 80.0886 56.18 80.0884 56.18C80.0882 56.18 80.0879 56.18 80.0877 56.18C80.0875 56.18 80.0873 56.18 80.0871 56.18C80.0869 56.18 80.0867 56.18 80.0865 56.18C80.0863 56.18 80.0861 56.18 80.0859 56.18C80.0857 56.18 80.0854 56.18 80.0852 56.18C80.085 56.18 80.0848 56.18 80.0846 56.18C80.0844 56.18 80.0842 56.18 80.084 56.18C80.0838 56.18 80.0836 56.18 80.0834 56.18C80.0831 56.18 80.0829 56.18 80.0827 56.18C80.0825 56.18 80.0823 56.18 80.0821 56.18C80.0819 56.18 80.0817 56.18 80.0815 56.18C80.0813 56.18 80.081 56.18 80.0808 56.18C80.0806 56.18 80.0804 56.18 80.0802 56.18C80.08 56.18 80.0798 56.18 80.0796 56.18C80.0794 56.18 80.0792 56.18 80.079 56.18C80.0787 56.18 80.0785 56.18 80.0783 56.18C80.0781 56.18 80.0779 56.18 80.0777 56.18C80.0775 56.18 80.0773 56.18 80.0771 56.18C80.0768 56.18 80.0766 56.18 80.0764 56.18C80.0762 56.18 80.076 56.18 80.0758 56.18C80.0756 56.18 80.0754 56.18 80.0752 56.18C80.075 56.18 80.0747 56.18 80.0745 56.18C80.0743 56.18 80.0741 56.18 80.0739 56.18C80.0737 56.18 80.0735 56.18 80.0733 56.18C80.0731 56.18 80.0728 56.18 80.0726 56.18C80.0724 56.18 80.0722 56.18 80.072 56.18C80.0718 56.18 80.0716 56.18 80.0714 56.18C80.0712 56.18 80.0709 56.18 80.0707 56.18C80.0705 56.18 80.0703 56.18 80.0701 56.18C80.0699 56.18 80.0697 56.18 80.0695 56.18C80.0693 56.18 80.069 56.18 80.0688 56.18C80.0686 56.18 80.0684 56.18 80.0682 56.18C80.068 56.18 80.0678 56.18 80.0676 56.18C80.0674 56.18 80.0671 56.18 80.0669 56.18C80.0667 56.18 80.0665 56.18 80.0663 56.18C80.0661 56.18 80.0659 56.18 80.0657 56.18C80.0654 56.18 80.0652 56.18 80.065 56.18C80.0648 56.18 80.0646 56.18 80.0644 56.18C80.0642 56.18 80.064 56.18 80.0637 56.18C80.0635 56.18 80.0633 56.18 80.0631 56.18C80.0629 56.18 80.0627 56.18 80.0625 56.18C80.0623 56.18 80.062 56.18 80.0618 56.18C80.0616 56.18 80.0614 56.18 80.0612 56.18C80.061 56.18 80.0608 56.18 80.0606 56.18C80.0603 56.18 80.0601 56.18 80.0599 56.18C80.0597 56.18 80.0595 56.18 80.0593 56.18C80.0591 56.18 80.0589 56.18 80.0586 56.18C80.0584 56.18 80.0582 56.18 80.058 56.18C80.0578 56.18 80.0576 56.18 80.0574 56.18C80.0571 56.18 80.0569 56.18 80.0567 56.18C80.0565 56.18 80.0563 56.18 80.0561 56.18C80.0559 56.18 80.0557 56.18 80.0554 56.18C80.0552 56.18 80.055 56.18 80.0548 56.18C80.0546 56.18 80.0544 56.18 80.0542 56.18C80.0539 56.18 80.0537 56.18 80.0535 56.18C80.0533 56.18 80.0531 56.18 80.0529 56.18C80.0527 56.18 80.0524 56.18 80.0522 56.18C80.052 56.18 80.0518 56.18 80.0516 56.18C80.0514 56.18 80.0511 56.18 80.0509 56.18C80.0507 56.18 80.0505 56.18 80.0503 56.18C80.0501 56.18 80.0499 56.18 80.0496 56.18C80.0494 56.18 80.0492 56.18 80.049 56.18C80.0488 56.18 80.0486 56.18 80.0484 56.18C80.0481 56.18 80.0479 56.18 80.0477 56.18C80.0475 56.18 80.0473 56.18 80.0471 56.18C80.0468 56.18 80.0466 56.18 80.0464 56.18C80.0462 56.18 80.046 56.18 80.0458 56.18C80.0455 56.18 80.0453 56.18 80.0451 56.18C80.0449 56.18 80.0447 56.18 80.0445 56.18C80.0443 56.18 80.044 56.18 80.0438 56.18C80.0436 56.18 80.0434 56.18 80.0432 56.18C80.043 56.18 80.0427 56.18 80.0425 56.18C80.0423 56.18 80.0421 56.18 80.0419 56.18C80.0417 56.18 80.0414 56.18 80.0412 56.18C80.041 56.18 80.0408 56.18 80.0406 56.18C80.0403 56.18 80.0401 56.18 80.0399 56.18C80.0397 56.18 80.0395 56.18 80.0393 56.18C80.039 56.18 80.0388 56.18 80.0386 56.18C80.0384 56.18 80.0382 56.18 80.038 56.18C80.0377 56.18 80.0375 56.18 80.0373 56.18C80.0371 56.18 80.0369 56.18 80.0367 56.18C80.0364 56.18 80.0362 56.18 80.036 56.18C80.0358 56.18 80.0356 56.18 80.0353 56.18C80.0351 56.18 80.0349 56.18 80.0347 56.18C80.0345 56.18 80.0343 56.18 80.034 56.18C80.0338 56.18 80.0336 56.18 80.0334 56.18C80.0332 56.18 80.0329 56.18 80.0327 56.18C80.0325 56.18 80.0323 56.18 80.0321 56.18C80.0318 56.18 80.0316 56.18 80.0314 56.18C80.0312 56.18 80.031 56.18 80.0307 56.18C80.0305 56.18 80.0303 56.18 80.0301 56.18C80.0299 56.18 80.0296 56.18 80.0294 56.18C80.0292 56.18 80.029 56.18 80.0288 56.18C80.0285 56.18 80.0283 56.18 80.0281 56.18C80.0279 56.18 80.0277 56.18 80.0275 56.18C80.0272 56.18 80.027 56.18 80.0268 56.18C80.0266 56.18 80.0263 56.18 80.0261 56.18C80.0259 56.18 80.0257 56.18 80.0255 56.18C80.0252 56.18 80.025 56.18 80.0248 56.18C80.0246 56.18 80.0244 56.18 80.0241 56.18C80.0239 56.18 80.0237 56.18 80.0235 56.18C80.0233 56.18 80.023 56.18 80.0228 56.18C80.0226 56.18 80.0224 56.18 80.0221 56.18C80.0219 56.18 80.0217 56.18 80.0215 56.18C80.0213 56.18 80.021 56.18 80.0208 56.18C80.0206 56.18 80.0204 56.18 80.0202 56.18C80.0199 56.18 80.0197 56.18 80.0195 56.18C80.0193 56.18 80.019 56.18 80.0188 56.18C80.0186 56.18 80.0184 56.18 80.0182 56.18C80.0179 56.18 80.0177 56.18 80.0175 56.18C80.0173 56.18 80.017 56.18 80.0168 56.18C80.0166 56.18 80.0164 56.18 80.0161 56.18C80.0159 56.18 80.0157 56.18 80.0155 56.18C80.0153 56.18 80.015 56.18 80.0148 56.18C80.0146 56.18 80.0144 56.18 80.0141 56.18C80.0139 56.18 80.0137 56.18 80.0135 56.18C80.0132 56.18 80.013 56.18 80.0128 56.18C80.0126 56.18 80.0123 56.18 80.0121 56.18C80.0119 56.18 80.0117 56.18 80.0114 56.18C80.0112 56.18 80.011 56.18 80.0108 56.18C80.0105 56.18 80.0103 56.18 80.0101 56.18C80.0099 56.18 80.0096 56.18 80.0094 56.18C80.0092 56.18 80.009 56.18 80.0087 56.18C80.0085 56.18 80.0083 56.18 80.0081 56.18C80.0078 56.18 80.0076 56.18 80.0074 56.18C80.0072 56.18 80.0069 56.18 80.0067 56.18C80.0065 56.18 80.0063 56.18 80.006 56.18C80.0058 56.18 80.0056 56.18 80.0054 56.18C80.0051 56.18 80.0049 56.18 80.0047 56.18C80.0045 56.18 80.0042 56.18 80.004 56.18C80.0038 56.18 80.0036 56.18 80.0033 56.18C80.0031 56.18 80.0029 56.18 80.0026 56.18C80.0024 56.18 80.0022 56.18 80.002 56.18C80.0017 56.18 80.0015 56.18 80.0013 56.18C80.0011 56.18 80.0008 56.18 80.0006 56.18C80.0004 56.18 80.0001 56.18 79.9999 56.18C79.9997 56.18 79.9995 56.18 79.9992 56.18C79.999 56.18 79.9988 56.18 79.9986 56.18C79.9983 56.18 79.9981 56.18 79.9979 56.18C79.9976 56.18 79.9974 56.18 79.9972 56.18C79.997 56.18 79.9967 56.18 79.9965 56.18C79.9963 56.18 79.996 56.18 79.9958 56.18C79.9956 56.18 79.9953 56.18 79.9951 56.18C79.9949 56.18 79.9947 56.18 79.9944 56.18C79.9942 56.18 79.994 56.18 79.9937 56.18C79.9935 56.18 79.9933 56.18 79.9931 56.18C79.9928 56.18 79.9926 56.18 79.9924 56.18C79.9921 56.18 79.9919 56.18 79.9917 56.18C79.9914 56.18 79.9912 56.18 79.991 56.18C79.9908 56.18 79.9905 56.18 79.9903 56.18C79.9901 56.18 79.9898 56.18 79.9896 56.18C79.9894 56.18 79.9891 56.18 79.9889 56.18C79.9887 56.18 79.9884 56.18 79.9882 56.18C79.988 56.18 79.9878 56.18 79.9875 56.18C79.9873 56.18 79.9871 56.18 79.9868 56.18C79.9866 56.18 79.9864 56.18 79.9861 56.18C79.9859 56.18 79.9857 56.18 79.9854 56.18C79.9852 56.18 79.985 56.18 79.9847 56.18C79.9845 56.18 79.9843 56.18 79.984 56.18C79.9838 56.18 79.9836 56.18 79.9833 56.18C79.9831 56.18 79.9829 56.18 79.9826 56.18C79.9824 56.18 79.9822 56.18 79.9819 56.18C79.9817 56.18 79.9815 56.18 79.9812 56.18C79.981 56.18 79.9808 56.18 79.9805 56.18C79.9803 56.18 79.9801 56.18 79.9798 56.18C79.9796 56.18 79.9794 56.18 79.9791 56.18C79.9789 56.18 79.9787 56.18 79.9784 56.18V58.18ZM81.4584 39.48C81.4584 38.2174 81.9478 37.3296 82.6994 36.7284C83.4792 36.1045 84.613 35.7366 85.9386 35.7098L85.8982 33.7102C84.2538 33.7434 82.6577 34.2005 81.45 35.1666C80.2141 36.1554 79.4584 37.6226 79.4584 39.48H81.4584ZM84.9552 34.4415L82.0452 44.8815L83.9717 45.4185L86.8817 34.9785L84.9552 34.4415ZM83.8117 44.5544C82.4889 42.7701 81.4584 41.289 81.4584 39.48H79.4584C79.4584 42.051 80.948 44.0499 82.2051 45.7456L83.8117 44.5544ZM84.7684 51.57C84.7684 53.1139 84.2516 54.1641 83.5076 54.8371C82.748 55.5243 81.6487 55.91 80.3384 55.91V57.91C82.0281 57.91 83.6439 57.4107 84.8493 56.3204C86.0703 55.2159 86.7684 53.5961 86.7684 51.57H84.7684ZM80.3384 55.91C80.3383 55.91 80.3381 55.91 80.3379 55.91C80.3377 55.91 80.3376 55.91 80.3374 55.91C80.3372 55.91 80.337 55.91 80.3369 55.91C80.3367 55.91 80.3365 55.91 80.3363 55.91C80.3362 55.91 80.336 55.91 80.3358 55.91C80.3356 55.91 80.3354 55.91 80.3353 55.91C80.3351 55.91 80.3349 55.91 80.3347 55.91C80.3346 55.91 80.3344 55.91 80.3342 55.91C80.334 55.91 80.3339 55.91 80.3337 55.91C80.3335 55.91 80.3333 55.91 80.3332 55.91C80.333 55.91 80.3328 55.91 80.3326 55.91C80.3325 55.91 80.3323 55.91 80.3321 55.91C80.3319 55.91 80.3318 55.91 80.3316 55.91C80.3314 55.91 80.3312 55.91 80.3311 55.91C80.3309 55.91 80.3307 55.91 80.3305 55.91C80.3304 55.91 80.3302 55.91 80.33 55.91C80.3298 55.91 80.3296 55.91 80.3295 55.91C80.3293 55.91 80.3291 55.91 80.3289 55.91C80.3288 55.91 80.3286 55.91 80.3284 55.91C80.3282 55.91 80.3281 55.91 80.3279 55.91C80.3277 55.91 80.3275 55.91 80.3274 55.91C80.3272 55.91 80.327 55.91 80.3268 55.91C80.3267 55.91 80.3265 55.91 80.3263 55.91C80.3261 55.91 80.326 55.91 80.3258 55.91C80.3256 55.91 80.3254 55.91 80.3253 55.91C80.3251 55.91 80.3249 55.91 80.3247 55.91C80.3245 55.91 80.3244 55.91 80.3242 55.91C80.324 55.91 80.3238 55.91 80.3237 55.91C80.3235 55.91 80.3233 55.91 80.3231 55.91C80.323 55.91 80.3228 55.91 80.3226 55.91C80.3224 55.91 80.3223 55.91 80.3221 55.91C80.3219 55.91 80.3217 55.91 80.3216 55.91C80.3214 55.91 80.3212 55.91 80.321 55.91C80.3209 55.91 80.3207 55.91 80.3205 55.91C80.3203 55.91 80.3201 55.91 80.32 55.91C80.3198 55.91 80.3196 55.91 80.3194 55.91C80.3193 55.91 80.3191 55.91 80.3189 55.91C80.3187 55.91 80.3186 55.91 80.3184 55.91C80.3182 55.91 80.318 55.91 80.3179 55.91C80.3177 55.91 80.3175 55.91 80.3173 55.91C80.3172 55.91 80.317 55.91 80.3168 55.91C80.3166 55.91 80.3164 55.91 80.3163 55.91C80.3161 55.91 80.3159 55.91 80.3157 55.91C80.3156 55.91 80.3154 55.91 80.3152 55.91C80.315 55.91 80.3149 55.91 80.3147 55.91C80.3145 55.91 80.3143 55.91 80.3142 55.91C80.314 55.91 80.3138 55.91 80.3136 55.91C80.3135 55.91 80.3133 55.91 80.3131 55.91C80.3129 55.91 80.3127 55.91 80.3126 55.91C80.3124 55.91 80.3122 55.91 80.312 55.91C80.3119 55.91 80.3117 55.91 80.3115 55.91C80.3113 55.91 80.3112 55.91 80.311 55.91C80.3108 55.91 80.3106 55.91 80.3105 55.91C80.3103 55.91 80.3101 55.91 80.3099 55.91C80.3097 55.91 80.3096 55.91 80.3094 55.91C80.3092 55.91 80.309 55.91 80.3089 55.91C80.3087 55.91 80.3085 55.91 80.3083 55.91C80.3082 55.91 80.308 55.91 80.3078 55.91C80.3076 55.91 80.3075 55.91 80.3073 55.91C80.3071 55.91 80.3069 55.91 80.3067 55.91C80.3066 55.91 80.3064 55.91 80.3062 55.91C80.306 55.91 80.3059 55.91 80.3057 55.91C80.3055 55.91 80.3053 55.91 80.3052 55.91C80.305 55.91 80.3048 55.91 80.3046 55.91C80.3045 55.91 80.3043 55.91 80.3041 55.91C80.3039 55.91 80.3037 55.91 80.3036 55.91C80.3034 55.91 80.3032 55.91 80.303 55.91C80.3029 55.91 80.3027 55.91 80.3025 55.91C80.3023 55.91 80.3022 55.91 80.302 55.91C80.3018 55.91 80.3016 55.91 80.3014 55.91C80.3013 55.91 80.3011 55.91 80.3009 55.91C80.3007 55.91 80.3006 55.91 80.3004 55.91C80.3002 55.91 80.3 55.91 80.2999 55.91C80.2997 55.91 80.2995 55.91 80.2993 55.91C80.2991 55.91 80.299 55.91 80.2988 55.91C80.2986 55.91 80.2984 55.91 80.2983 55.91C80.2981 55.91 80.2979 55.91 80.2977 55.91C80.2976 55.91 80.2974 55.91 80.2972 55.91C80.297 55.91 80.2968 55.91 80.2967 55.91C80.2965 55.91 80.2963 55.91 80.2961 55.91C80.296 55.91 80.2958 55.91 80.2956 55.91C80.2954 55.91 80.2952 55.91 80.2951 55.91C80.2949 55.91 80.2947 55.91 80.2945 55.91C80.2944 55.91 80.2942 55.91 80.294 55.91C80.2938 55.91 80.2937 55.91 80.2935 55.91C80.2933 55.91 80.2931 55.91 80.2929 55.91C80.2928 55.91 80.2926 55.91 80.2924 55.91C80.2922 55.91 80.2921 55.91 80.2919 55.91C80.2917 55.91 80.2915 55.91 80.2913 55.91C80.2912 55.91 80.291 55.91 80.2908 55.91C80.2906 55.91 80.2905 55.91 80.2903 55.91C80.2901 55.91 80.2899 55.91 80.2897 55.91C80.2896 55.91 80.2894 55.91 80.2892 55.91C80.289 55.91 80.2889 55.91 80.2887 55.91C80.2885 55.91 80.2883 55.91 80.2881 55.91C80.288 55.91 80.2878 55.91 80.2876 55.91C80.2874 55.91 80.2873 55.91 80.2871 55.91C80.2869 55.91 80.2867 55.91 80.2865 55.91C80.2864 55.91 80.2862 55.91 80.286 55.91C80.2858 55.91 80.2857 55.91 80.2855 55.91C80.2853 55.91 80.2851 55.91 80.2849 55.91C80.2848 55.91 80.2846 55.91 80.2844 55.91C80.2842 55.91 80.2841 55.91 80.2839 55.91C80.2837 55.91 80.2835 55.91 80.2833 55.91C80.2832 55.91 80.283 55.91 80.2828 55.91C80.2826 55.91 80.2825 55.91 80.2823 55.91C80.2821 55.91 80.2819 55.91 80.2817 55.91C80.2816 55.91 80.2814 55.91 80.2812 55.91C80.281 55.91 80.2808 55.91 80.2807 55.91C80.2805 55.91 80.2803 55.91 80.2801 55.91C80.28 55.91 80.2798 55.91 80.2796 55.91C80.2794 55.91 80.2792 55.91 80.2791 55.91C80.2789 55.91 80.2787 55.91 80.2785 55.91C80.2783 55.91 80.2782 55.91 80.278 55.91C80.2778 55.91 80.2776 55.91 80.2775 55.91C80.2773 55.91 80.2771 55.91 80.2769 55.91C80.2767 55.91 80.2766 55.91 80.2764 55.91C80.2762 55.91 80.276 55.91 80.2758 55.91C80.2757 55.91 80.2755 55.91 80.2753 55.91C80.2751 55.91 80.275 55.91 80.2748 55.91C80.2746 55.91 80.2744 55.91 80.2742 55.91C80.2741 55.91 80.2739 55.91 80.2737 55.91C80.2735 55.91 80.2733 55.91 80.2732 55.91C80.273 55.91 80.2728 55.91 80.2726 55.91C80.2724 55.91 80.2723 55.91 80.2721 55.91C80.2719 55.91 80.2717 55.91 80.2715 55.91C80.2714 55.91 80.2712 55.91 80.271 55.91C80.2708 55.91 80.2706 55.91 80.2705 55.91C80.2703 55.91 80.2701 55.91 80.2699 55.91C80.2698 55.91 80.2696 55.91 80.2694 55.91C80.2692 55.91 80.269 55.91 80.2689 55.91C80.2687 55.91 80.2685 55.91 80.2683 55.91C80.2681 55.91 80.268 55.91 80.2678 55.91C80.2676 55.91 80.2674 55.91 80.2672 55.91C80.2671 55.91 80.2669 55.91 80.2667 55.91C80.2665 55.91 80.2663 55.91 80.2662 55.91C80.266 55.91 80.2658 55.91 80.2656 55.91C80.2654 55.91 80.2653 55.91 80.2651 55.91C80.2649 55.91 80.2647 55.91 80.2645 55.91C80.2644 55.91 80.2642 55.91 80.264 55.91C80.2638 55.91 80.2636 55.91 80.2635 55.91C80.2633 55.91 80.2631 55.91 80.2629 55.91C80.2627 55.91 80.2626 55.91 80.2624 55.91C80.2622 55.91 80.262 55.91 80.2618 55.91C80.2617 55.91 80.2615 55.91 80.2613 55.91C80.2611 55.91 80.2609 55.91 80.2607 55.91C80.2606 55.91 80.2604 55.91 80.2602 55.91C80.26 55.91 80.2598 55.91 80.2597 55.91C80.2595 55.91 80.2593 55.91 80.2591 55.91C80.2589 55.91 80.2588 55.91 80.2586 55.91C80.2584 55.91 80.2582 55.91 80.258 55.91C80.2579 55.91 80.2577 55.91 80.2575 55.91C80.2573 55.91 80.2571 55.91 80.257 55.91C80.2568 55.91 80.2566 55.91 80.2564 55.91C80.2562 55.91 80.256 55.91 80.2559 55.91C80.2557 55.91 80.2555 55.91 80.2553 55.91C80.2551 55.91 80.255 55.91 80.2548 55.91C80.2546 55.91 80.2544 55.91 80.2542 55.91C80.2541 55.91 80.2539 55.91 80.2537 55.91C80.2535 55.91 80.2533 55.91 80.2531 55.91C80.253 55.91 80.2528 55.91 80.2526 55.91C80.2524 55.91 80.2522 55.91 80.2521 55.91C80.2519 55.91 80.2517 55.91 80.2515 55.91C80.2513 55.91 80.2512 55.91 80.251 55.91C80.2508 55.91 80.2506 55.91 80.2504 55.91C80.2502 55.91 80.2501 55.91 80.2499 55.91C80.2497 55.91 80.2495 55.91 80.2493 55.91C80.2491 55.91 80.249 55.91 80.2488 55.91C80.2486 55.91 80.2484 55.91 80.2482 55.91C80.2481 55.91 80.2479 55.91 80.2477 55.91C80.2475 55.91 80.2473 55.91 80.2471 55.91C80.247 55.91 80.2468 55.91 80.2466 55.91C80.2464 55.91 80.2462 55.91 80.246 55.91C80.2459 55.91 80.2457 55.91 80.2455 55.91C80.2453 55.91 80.2451 55.91 80.245 55.91C80.2448 55.91 80.2446 55.91 80.2444 55.91C80.2442 55.91 80.244 55.91 80.2439 55.91C80.2437 55.91 80.2435 55.91 80.2433 55.91C80.2431 55.91 80.2429 55.91 80.2428 55.91C80.2426 55.91 80.2424 55.91 80.2422 55.91C80.242 55.91 80.2418 55.91 80.2417 55.91C80.2415 55.91 80.2413 55.91 80.2411 55.91C80.2409 55.91 80.2407 55.91 80.2406 55.91C80.2404 55.91 80.2402 55.91 80.24 55.91C80.2398 55.91 80.2396 55.91 80.2395 55.91C80.2393 55.91 80.2391 55.91 80.2389 55.91C80.2387 55.91 80.2385 55.91 80.2384 55.91C80.2382 55.91 80.238 55.91 80.2378 55.91C80.2376 55.91 80.2374 55.91 80.2373 55.91C80.2371 55.91 80.2369 55.91 80.2367 55.91C80.2365 55.91 80.2363 55.91 80.2362 55.91C80.236 55.91 80.2358 55.91 80.2356 55.91C80.2354 55.91 80.2352 55.91 80.2351 55.91C80.2349 55.91 80.2347 55.91 80.2345 55.91C80.2343 55.91 80.2341 55.91 80.2339 55.91C80.2338 55.91 80.2336 55.91 80.2334 55.91C80.2332 55.91 80.233 55.91 80.2328 55.91C80.2327 55.91 80.2325 55.91 80.2323 55.91C80.2321 55.91 80.2319 55.91 80.2317 55.91C80.2316 55.91 80.2314 55.91 80.2312 55.91C80.231 55.91 80.2308 55.91 80.2306 55.91C80.2304 55.91 80.2303 55.91 80.2301 55.91C80.2299 55.91 80.2297 55.91 80.2295 55.91C80.2293 55.91 80.2291 55.91 80.229 55.91C80.2288 55.91 80.2286 55.91 80.2284 55.91C80.2282 55.91 80.228 55.91 80.2279 55.91C80.2277 55.91 80.2275 55.91 80.2273 55.91C80.2271 55.91 80.2269 55.91 80.2267 55.91C80.2266 55.91 80.2264 55.91 80.2262 55.91C80.226 55.91 80.2258 55.91 80.2256 55.91C80.2254 55.91 80.2253 55.91 80.2251 55.91C80.2249 55.91 80.2247 55.91 80.2245 55.91C80.2243 55.91 80.2241 55.91 80.224 55.91C80.2238 55.91 80.2236 55.91 80.2234 55.91C80.2232 55.91 80.223 55.91 80.2228 55.91C80.2227 55.91 80.2225 55.91 80.2223 55.91C80.2221 55.91 80.2219 55.91 80.2217 55.91C80.2215 55.91 80.2213 55.91 80.2212 55.91C80.221 55.91 80.2208 55.91 80.2206 55.91C80.2204 55.91 80.2202 55.91 80.22 55.91C80.2199 55.91 80.2197 55.91 80.2195 55.91C80.2193 55.91 80.2191 55.91 80.2189 55.91C80.2187 55.91 80.2185 55.91 80.2184 55.91C80.2182 55.91 80.218 55.91 80.2178 55.91C80.2176 55.91 80.2174 55.91 80.2172 55.91C80.2171 55.91 80.2169 55.91 80.2167 55.91C80.2165 55.91 80.2163 55.91 80.2161 55.91C80.2159 55.91 80.2157 55.91 80.2156 55.91C80.2154 55.91 80.2152 55.91 80.215 55.91C80.2148 55.91 80.2146 55.91 80.2144 55.91C80.2142 55.91 80.2141 55.91 80.2139 55.91C80.2137 55.91 80.2135 55.91 80.2133 55.91C80.2131 55.91 80.2129 55.91 80.2127 55.91C80.2126 55.91 80.2124 55.91 80.2122 55.91C80.212 55.91 80.2118 55.91 80.2116 55.91C80.2114 55.91 80.2112 55.91 80.211 55.91C80.2109 55.91 80.2107 55.91 80.2105 55.91C80.2103 55.91 80.2101 55.91 80.2099 55.91C80.2097 55.91 80.2095 55.91 80.2094 55.91C80.2092 55.91 80.209 55.91 80.2088 55.91C80.2086 55.91 80.2084 55.91 80.2082 55.91C80.208 55.91 80.2078 55.91 80.2077 55.91C80.2075 55.91 80.2073 55.91 80.2071 55.91C80.2069 55.91 80.2067 55.91 80.2065 55.91C80.2063 55.91 80.2061 55.91 80.206 55.91C80.2058 55.91 80.2056 55.91 80.2054 55.91C80.2052 55.91 80.205 55.91 80.2048 55.91C80.2046 55.91 80.2044 55.91 80.2042 55.91C80.2041 55.91 80.2039 55.91 80.2037 55.91C80.2035 55.91 80.2033 55.91 80.2031 55.91C80.2029 55.91 80.2027 55.91 80.2025 55.91C80.2024 55.91 80.2022 55.91 80.202 55.91C80.2018 55.91 80.2016 55.91 80.2014 55.91C80.2012 55.91 80.201 55.91 80.2008 55.91C80.2006 55.91 80.2004 55.91 80.2003 55.91C80.2001 55.91 80.1999 55.91 80.1997 55.91C80.1995 55.91 80.1993 55.91 80.1991 55.91C80.1989 55.91 80.1987 55.91 80.1985 55.91C80.1984 55.91 80.1982 55.91 80.198 55.91C80.1978 55.91 80.1976 55.91 80.1974 55.91C80.1972 55.91 80.197 55.91 80.1968 55.91C80.1966 55.91 80.1964 55.91 80.1963 55.91C80.1961 55.91 80.1959 55.91 80.1957 55.91C80.1955 55.91 80.1953 55.91 80.1951 55.91C80.1949 55.91 80.1947 55.91 80.1945 55.91C80.1943 55.91 80.1941 55.91 80.194 55.91C80.1938 55.91 80.1936 55.91 80.1934 55.91C80.1932 55.91 80.193 55.91 80.1928 55.91C80.1926 55.91 80.1924 55.91 80.1922 55.91C80.192 55.91 80.1918 55.91 80.1917 55.91C80.1915 55.91 80.1913 55.91 80.1911 55.91C80.1909 55.91 80.1907 55.91 80.1905 55.91C80.1903 55.91 80.1901 55.91 80.1899 55.91C80.1897 55.91 80.1895 55.91 80.1893 55.91C80.1892 55.91 80.189 55.91 80.1888 55.91C80.1886 55.91 80.1884 55.91 80.1882 55.91C80.188 55.91 80.1878 55.91 80.1876 55.91C80.1874 55.91 80.1872 55.91 80.187 55.91C80.1868 55.91 80.1866 55.91 80.1865 55.91C80.1863 55.91 80.1861 55.91 80.1859 55.91C80.1857 55.91 80.1855 55.91 80.1853 55.91C80.1851 55.91 80.1849 55.91 80.1847 55.91C80.1845 55.91 80.1843 55.91 80.1841 55.91C80.1839 55.91 80.1837 55.91 80.1836 55.91C80.1834 55.91 80.1832 55.91 80.183 55.91C80.1828 55.91 80.1826 55.91 80.1824 55.91C80.1822 55.91 80.182 55.91 80.1818 55.91C80.1816 55.91 80.1814 55.91 80.1812 55.91C80.181 55.91 80.1808 55.91 80.1806 55.91C80.1804 55.91 80.1803 55.91 80.1801 55.91C80.1799 55.91 80.1797 55.91 80.1795 55.91C80.1793 55.91 80.1791 55.91 80.1789 55.91C80.1787 55.91 80.1785 55.91 80.1783 55.91C80.1781 55.91 80.1779 55.91 80.1777 55.91C80.1775 55.91 80.1773 55.91 80.1771 55.91C80.1769 55.91 80.1767 55.91 80.1765 55.91C80.1764 55.91 80.1762 55.91 80.176 55.91C80.1758 55.91 80.1756 55.91 80.1754 55.91C80.1752 55.91 80.175 55.91 80.1748 55.91C80.1746 55.91 80.1744 55.91 80.1742 55.91C80.174 55.91 80.1738 55.91 80.1736 55.91C80.1734 55.91 80.1732 55.91 80.173 55.91C80.1728 55.91 80.1726 55.91 80.1724 55.91C80.1722 55.91 80.172 55.91 80.1718 55.91C80.1716 55.91 80.1715 55.91 80.1713 55.91C80.1711 55.91 80.1709 55.91 80.1707 55.91C80.1705 55.91 80.1703 55.91 80.1701 55.91C80.1699 55.91 80.1697 55.91 80.1695 55.91C80.1693 55.91 80.1691 55.91 80.1689 55.91C80.1687 55.91 80.1685 55.91 80.1683 55.91C80.1681 55.91 80.1679 55.91 80.1677 55.91C80.1675 55.91 80.1673 55.91 80.1671 55.91C80.1669 55.91 80.1667 55.91 80.1665 55.91C80.1663 55.91 80.1661 55.91 80.1659 55.91C80.1657 55.91 80.1655 55.91 80.1653 55.91C80.1651 55.91 80.1649 55.91 80.1647 55.91C80.1645 55.91 80.1643 55.91 80.1642 55.91C80.164 55.91 80.1638 55.91 80.1636 55.91C80.1634 55.91 80.1632 55.91 80.163 55.91C80.1628 55.91 80.1626 55.91 80.1624 55.91C80.1622 55.91 80.162 55.91 80.1618 55.91C80.1616 55.91 80.1614 55.91 80.1612 55.91C80.161 55.91 80.1608 55.91 80.1606 55.91C80.1604 55.91 80.1602 55.91 80.16 55.91C80.1598 55.91 80.1596 55.91 80.1594 55.91C80.1592 55.91 80.159 55.91 80.1588 55.91C80.1586 55.91 80.1584 55.91 80.1582 55.91C80.158 55.91 80.1578 55.91 80.1576 55.91C80.1574 55.91 80.1572 55.91 80.157 55.91C80.1568 55.91 80.1566 55.91 80.1564 55.91C80.1562 55.91 80.156 55.91 80.1558 55.91C80.1556 55.91 80.1554 55.91 80.1552 55.91C80.155 55.91 80.1548 55.91 80.1546 55.91C80.1544 55.91 80.1542 55.91 80.154 55.91C80.1538 55.91 80.1536 55.91 80.1534 55.91C80.1532 55.91 80.153 55.91 80.1528 55.91C80.1526 55.91 80.1524 55.91 80.1522 55.91C80.152 55.91 80.1518 55.91 80.1516 55.91C80.1514 55.91 80.1512 55.91 80.151 55.91C80.1508 55.91 80.1506 55.91 80.1504 55.91C80.1502 55.91 80.15 55.91 80.1497 55.91C80.1495 55.91 80.1493 55.91 80.1491 55.91C80.1489 55.91 80.1487 55.91 80.1485 55.91C80.1483 55.91 80.1481 55.91 80.1479 55.91C80.1477 55.91 80.1475 55.91 80.1473 55.91C80.1471 55.91 80.1469 55.91 80.1467 55.91C80.1465 55.91 80.1463 55.91 80.1461 55.91C80.1459 55.91 80.1457 55.91 80.1455 55.91C80.1453 55.91 80.1451 55.91 80.1449 55.91C80.1447 55.91 80.1445 55.91 80.1443 55.91C80.1441 55.91 80.1439 55.91 80.1437 55.91C80.1435 55.91 80.1433 55.91 80.1431 55.91C80.1429 55.91 80.1427 55.91 80.1425 55.91C80.1423 55.91 80.142 55.91 80.1418 55.91C80.1416 55.91 80.1414 55.91 80.1412 55.91C80.141 55.91 80.1408 55.91 80.1406 55.91C80.1404 55.91 80.1402 55.91 80.14 55.91C80.1398 55.91 80.1396 55.91 80.1394 55.91C80.1392 55.91 80.139 55.91 80.1388 55.91C80.1386 55.91 80.1384 55.91 80.1382 55.91C80.138 55.91 80.1378 55.91 80.1376 55.91C80.1373 55.91 80.1371 55.91 80.1369 55.91C80.1367 55.91 80.1365 55.91 80.1363 55.91C80.1361 55.91 80.1359 55.91 80.1357 55.91C80.1355 55.91 80.1353 55.91 80.1351 55.91C80.1349 55.91 80.1347 55.91 80.1345 55.91C80.1343 55.91 80.1341 55.91 80.1339 55.91C80.1336 55.91 80.1334 55.91 80.1332 55.91C80.133 55.91 80.1328 55.91 80.1326 55.91C80.1324 55.91 80.1322 55.91 80.132 55.91C80.1318 55.91 80.1316 55.91 80.1314 55.91C80.1312 55.91 80.131 55.91 80.1308 55.91C80.1306 55.91 80.1303 55.91 80.1301 55.91C80.1299 55.91 80.1297 55.91 80.1295 55.91C80.1293 55.91 80.1291 55.91 80.1289 55.91C80.1287 55.91 80.1285 55.91 80.1283 55.91C80.1281 55.91 80.1279 55.91 80.1277 55.91C80.1274 55.91 80.1272 55.91 80.127 55.91C80.1268 55.91 80.1266 55.91 80.1264 55.91C80.1262 55.91 80.126 55.91 80.1258 55.91C80.1256 55.91 80.1254 55.91 80.1252 55.91C80.125 55.91 80.1247 55.91 80.1245 55.91C80.1243 55.91 80.1241 55.91 80.1239 55.91C80.1237 55.91 80.1235 55.91 80.1233 55.91C80.1231 55.91 80.1229 55.91 80.1227 55.91C80.1224 55.91 80.1222 55.91 80.122 55.91C80.1218 55.91 80.1216 55.91 80.1214 55.91C80.1212 55.91 80.121 55.91 80.1208 55.91C80.1206 55.91 80.1204 55.91 80.1201 55.91C80.1199 55.91 80.1197 55.91 80.1195 55.91C80.1193 55.91 80.1191 55.91 80.1189 55.91C80.1187 55.91 80.1185 55.91 80.1183 55.91C80.118 55.91 80.1178 55.91 80.1176 55.91C80.1174 55.91 80.1172 55.91 80.117 55.91C80.1168 55.91 80.1166 55.91 80.1164 55.91C80.1162 55.91 80.1159 55.91 80.1157 55.91C80.1155 55.91 80.1153 55.91 80.1151 55.91C80.1149 55.91 80.1147 55.91 80.1145 55.91C80.1143 55.91 80.114 55.91 80.1138 55.91C80.1136 55.91 80.1134 55.91 80.1132 55.91C80.113 55.91 80.1128 55.91 80.1126 55.91C80.1123 55.91 80.1121 55.91 80.1119 55.91C80.1117 55.91 80.1115 55.91 80.1113 55.91C80.1111 55.91 80.1109 55.91 80.1107 55.91C80.1104 55.91 80.1102 55.91 80.11 55.91C80.1098 55.91 80.1096 55.91 80.1094 55.91C80.1092 55.91 80.109 55.91 80.1087 55.91C80.1085 55.91 80.1083 55.91 80.1081 55.91C80.1079 55.91 80.1077 55.91 80.1075 55.91C80.1072 55.91 80.107 55.91 80.1068 55.91C80.1066 55.91 80.1064 55.91 80.1062 55.91C80.106 55.91 80.1058 55.91 80.1055 55.91C80.1053 55.91 80.1051 55.91 80.1049 55.91C80.1047 55.91 80.1045 55.91 80.1043 55.91C80.104 55.91 80.1038 55.91 80.1036 55.91C80.1034 55.91 80.1032 55.91 80.103 55.91C80.1028 55.91 80.1025 55.91 80.1023 55.91C80.1021 55.91 80.1019 55.91 80.1017 55.91C80.1015 55.91 80.1013 55.91 80.101 55.91C80.1008 55.91 80.1006 55.91 80.1004 55.91C80.1002 55.91 80.1 55.91 80.0997 55.91C80.0995 55.91 80.0993 55.91 80.0991 55.91C80.0989 55.91 80.0987 55.91 80.0985 55.91C80.0982 55.91 80.098 55.91 80.0978 55.91C80.0976 55.91 80.0974 55.91 80.0972 55.91C80.0969 55.91 80.0967 55.91 80.0965 55.91C80.0963 55.91 80.0961 55.91 80.0959 55.91C80.0956 55.91 80.0954 55.91 80.0952 55.91C80.095 55.91 80.0948 55.91 80.0946 55.91C80.0943 55.91 80.0941 55.91 80.0939 55.91C80.0937 55.91 80.0935 55.91 80.0933 55.91C80.093 55.91 80.0928 55.91 80.0926 55.91C80.0924 55.91 80.0922 55.91 80.092 55.91C80.0917 55.91 80.0915 55.91 80.0913 55.91C80.0911 55.91 80.0909 55.91 80.0906 55.91C80.0904 55.91 80.0902 55.91 80.09 55.91C80.0898 55.91 80.0896 55.91 80.0893 55.91C80.0891 55.91 80.0889 55.91 80.0887 55.91C80.0885 55.91 80.0882 55.91 80.088 55.91C80.0878 55.91 80.0876 55.91 80.0874 55.91C80.0871 55.91 80.0869 55.91 80.0867 55.91C80.0865 55.91 80.0863 55.91 80.0861 55.91C80.0858 55.91 80.0856 55.91 80.0854 55.91C80.0852 55.91 80.085 55.91 80.0847 55.91C80.0845 55.91 80.0843 55.91 80.0841 55.91C80.0839 55.91 80.0836 55.91 80.0834 55.91C80.0832 55.91 80.083 55.91 80.0828 55.91C80.0825 55.91 80.0823 55.91 80.0821 55.91C80.0819 55.91 80.0816 55.91 80.0814 55.91C80.0812 55.91 80.081 55.91 80.0808 55.91C80.0805 55.91 80.0803 55.91 80.0801 55.91C80.0799 55.91 80.0797 55.91 80.0794 55.91C80.0792 55.91 80.079 55.91 80.0788 55.91C80.0786 55.91 80.0783 55.91 80.0781 55.91C80.0779 55.91 80.0777 55.91 80.0774 55.91C80.0772 55.91 80.077 55.91 80.0768 55.91C80.0766 55.91 80.0763 55.91 80.0761 55.91C80.0759 55.91 80.0757 55.91 80.0754 55.91C80.0752 55.91 80.075 55.91 80.0748 55.91C80.0745 55.91 80.0743 55.91 80.0741 55.91C80.0739 55.91 80.0737 55.91 80.0734 55.91C80.0732 55.91 80.073 55.91 80.0728 55.91C80.0725 55.91 80.0723 55.91 80.0721 55.91C80.0719 55.91 80.0716 55.91 80.0714 55.91C80.0712 55.91 80.071 55.91 80.0707 55.91C80.0705 55.91 80.0703 55.91 80.0701 55.91C80.0699 55.91 80.0696 55.91 80.0694 55.91C80.0692 55.91 80.069 55.91 80.0687 55.91C80.0685 55.91 80.0683 55.91 80.0681 55.91C80.0678 55.91 80.0676 55.91 80.0674 55.91C80.0672 55.91 80.0669 55.91 80.0667 55.91C80.0665 55.91 80.0663 55.91 80.066 55.91C80.0658 55.91 80.0656 55.91 80.0654 55.91C80.0651 55.91 80.0649 55.91 80.0647 55.91C80.0644 55.91 80.0642 55.91 80.064 55.91C80.0638 55.91 80.0635 55.91 80.0633 55.91C80.0631 55.91 80.0629 55.91 80.0626 55.91C80.0624 55.91 80.0622 55.91 80.062 55.91C80.0617 55.91 80.0615 55.91 80.0613 55.91C80.061 55.91 80.0608 55.91 80.0606 55.91C80.0604 55.91 80.0601 55.91 80.0599 55.91C80.0597 55.91 80.0595 55.91 80.0592 55.91C80.059 55.91 80.0588 55.91 80.0585 55.91C80.0583 55.91 80.0581 55.91 80.0579 55.91C80.0576 55.91 80.0574 55.91 80.0572 55.91C80.0569 55.91 80.0567 55.91 80.0565 55.91C80.0563 55.91 80.056 55.91 80.0558 55.91C80.0556 55.91 80.0553 55.91 80.0551 55.91C80.0549 55.91 80.0547 55.91 80.0544 55.91C80.0542 55.91 80.054 55.91 80.0537 55.91C80.0535 55.91 80.0533 55.91 80.0531 55.91C80.0528 55.91 80.0526 55.91 80.0524 55.91C80.0521 55.91 80.0519 55.91 80.0517 55.91C80.0514 55.91 80.0512 55.91 80.051 55.91C80.0508 55.91 80.0505 55.91 80.0503 55.91C80.0501 55.91 80.0498 55.91 80.0496 55.91C80.0494 55.91 80.0491 55.91 80.0489 55.91C80.0487 55.91 80.0484 55.91 80.0482 55.91C80.048 55.91 80.0478 55.91 80.0475 55.91C80.0473 55.91 80.0471 55.91 80.0468 55.91C80.0466 55.91 80.0464 55.91 80.0461 55.91C80.0459 55.91 80.0457 55.91 80.0454 55.91C80.0452 55.91 80.045 55.91 80.0447 55.91C80.0445 55.91 80.0443 55.91 80.044 55.91C80.0438 55.91 80.0436 55.91 80.0433 55.91C80.0431 55.91 80.0429 55.91 80.0426 55.91C80.0424 55.91 80.0422 55.91 80.0419 55.91C80.0417 55.91 80.0415 55.91 80.0412 55.91C80.041 55.91 80.0408 55.91 80.0405 55.91C80.0403 55.91 80.0401 55.91 80.0398 55.91C80.0396 55.91 80.0394 55.91 80.0391 55.91C80.0389 55.91 80.0387 55.91 80.0384 55.91V57.91C80.0387 57.91 80.0389 57.91 80.0391 57.91C80.0394 57.91 80.0396 57.91 80.0398 57.91C80.0401 57.91 80.0403 57.91 80.0405 57.91C80.0408 57.91 80.041 57.91 80.0412 57.91C80.0415 57.91 80.0417 57.91 80.0419 57.91C80.0422 57.91 80.0424 57.91 80.0426 57.91C80.0429 57.91 80.0431 57.91 80.0433 57.91C80.0436 57.91 80.0438 57.91 80.044 57.91C80.0443 57.91 80.0445 57.91 80.0447 57.91C80.045 57.91 80.0452 57.91 80.0454 57.91C80.0457 57.91 80.0459 57.91 80.0461 57.91C80.0464 57.91 80.0466 57.91 80.0468 57.91C80.0471 57.91 80.0473 57.91 80.0475 57.91C80.0478 57.91 80.048 57.91 80.0482 57.91C80.0484 57.91 80.0487 57.91 80.0489 57.91C80.0491 57.91 80.0494 57.91 80.0496 57.91C80.0498 57.91 80.0501 57.91 80.0503 57.91C80.0505 57.91 80.0508 57.91 80.051 57.91C80.0512 57.91 80.0514 57.91 80.0517 57.91C80.0519 57.91 80.0521 57.91 80.0524 57.91C80.0526 57.91 80.0528 57.91 80.0531 57.91C80.0533 57.91 80.0535 57.91 80.0537 57.91C80.054 57.91 80.0542 57.91 80.0544 57.91C80.0547 57.91 80.0549 57.91 80.0551 57.91C80.0553 57.91 80.0556 57.91 80.0558 57.91C80.056 57.91 80.0563 57.91 80.0565 57.91C80.0567 57.91 80.0569 57.91 80.0572 57.91C80.0574 57.91 80.0576 57.91 80.0579 57.91C80.0581 57.91 80.0583 57.91 80.0585 57.91C80.0588 57.91 80.059 57.91 80.0592 57.91C80.0595 57.91 80.0597 57.91 80.0599 57.91C80.0601 57.91 80.0604 57.91 80.0606 57.91C80.0608 57.91 80.061 57.91 80.0613 57.91C80.0615 57.91 80.0617 57.91 80.062 57.91C80.0622 57.91 80.0624 57.91 80.0626 57.91C80.0629 57.91 80.0631 57.91 80.0633 57.91C80.0635 57.91 80.0638 57.91 80.064 57.91C80.0642 57.91 80.0644 57.91 80.0647 57.91C80.0649 57.91 80.0651 57.91 80.0654 57.91C80.0656 57.91 80.0658 57.91 80.066 57.91C80.0663 57.91 80.0665 57.91 80.0667 57.91C80.0669 57.91 80.0672 57.91 80.0674 57.91C80.0676 57.91 80.0678 57.91 80.0681 57.91C80.0683 57.91 80.0685 57.91 80.0687 57.91C80.069 57.91 80.0692 57.91 80.0694 57.91C80.0696 57.91 80.0699 57.91 80.0701 57.91C80.0703 57.91 80.0705 57.91 80.0707 57.91C80.071 57.91 80.0712 57.91 80.0714 57.91C80.0716 57.91 80.0719 57.91 80.0721 57.91C80.0723 57.91 80.0725 57.91 80.0728 57.91C80.073 57.91 80.0732 57.91 80.0734 57.91C80.0737 57.91 80.0739 57.91 80.0741 57.91C80.0743 57.91 80.0745 57.91 80.0748 57.91C80.075 57.91 80.0752 57.91 80.0754 57.91C80.0757 57.91 80.0759 57.91 80.0761 57.91C80.0763 57.91 80.0766 57.91 80.0768 57.91C80.077 57.91 80.0772 57.91 80.0774 57.91C80.0777 57.91 80.0779 57.91 80.0781 57.91C80.0783 57.91 80.0786 57.91 80.0788 57.91C80.079 57.91 80.0792 57.91 80.0794 57.91C80.0797 57.91 80.0799 57.91 80.0801 57.91C80.0803 57.91 80.0805 57.91 80.0808 57.91C80.081 57.91 80.0812 57.91 80.0814 57.91C80.0816 57.91 80.0819 57.91 80.0821 57.91C80.0823 57.91 80.0825 57.91 80.0828 57.91C80.083 57.91 80.0832 57.91 80.0834 57.91C80.0836 57.91 80.0839 57.91 80.0841 57.91C80.0843 57.91 80.0845 57.91 80.0847 57.91C80.085 57.91 80.0852 57.91 80.0854 57.91C80.0856 57.91 80.0858 57.91 80.0861 57.91C80.0863 57.91 80.0865 57.91 80.0867 57.91C80.0869 57.91 80.0871 57.91 80.0874 57.91C80.0876 57.91 80.0878 57.91 80.088 57.91C80.0882 57.91 80.0885 57.91 80.0887 57.91C80.0889 57.91 80.0891 57.91 80.0893 57.91C80.0896 57.91 80.0898 57.91 80.09 57.91C80.0902 57.91 80.0904 57.91 80.0906 57.91C80.0909 57.91 80.0911 57.91 80.0913 57.91C80.0915 57.91 80.0917 57.91 80.092 57.91C80.0922 57.91 80.0924 57.91 80.0926 57.91C80.0928 57.91 80.093 57.91 80.0933 57.91C80.0935 57.91 80.0937 57.91 80.0939 57.91C80.0941 57.91 80.0943 57.91 80.0946 57.91C80.0948 57.91 80.095 57.91 80.0952 57.91C80.0954 57.91 80.0956 57.91 80.0959 57.91C80.0961 57.91 80.0963 57.91 80.0965 57.91C80.0967 57.91 80.0969 57.91 80.0972 57.91C80.0974 57.91 80.0976 57.91 80.0978 57.91C80.098 57.91 80.0982 57.91 80.0985 57.91C80.0987 57.91 80.0989 57.91 80.0991 57.91C80.0993 57.91 80.0995 57.91 80.0997 57.91C80.1 57.91 80.1002 57.91 80.1004 57.91C80.1006 57.91 80.1008 57.91 80.101 57.91C80.1013 57.91 80.1015 57.91 80.1017 57.91C80.1019 57.91 80.1021 57.91 80.1023 57.91C80.1025 57.91 80.1028 57.91 80.103 57.91C80.1032 57.91 80.1034 57.91 80.1036 57.91C80.1038 57.91 80.104 57.91 80.1043 57.91C80.1045 57.91 80.1047 57.91 80.1049 57.91C80.1051 57.91 80.1053 57.91 80.1055 57.91C80.1058 57.91 80.106 57.91 80.1062 57.91C80.1064 57.91 80.1066 57.91 80.1068 57.91C80.107 57.91 80.1072 57.91 80.1075 57.91C80.1077 57.91 80.1079 57.91 80.1081 57.91C80.1083 57.91 80.1085 57.91 80.1087 57.91C80.109 57.91 80.1092 57.91 80.1094 57.91C80.1096 57.91 80.1098 57.91 80.11 57.91C80.1102 57.91 80.1104 57.91 80.1107 57.91C80.1109 57.91 80.1111 57.91 80.1113 57.91C80.1115 57.91 80.1117 57.91 80.1119 57.91C80.1121 57.91 80.1123 57.91 80.1126 57.91C80.1128 57.91 80.113 57.91 80.1132 57.91C80.1134 57.91 80.1136 57.91 80.1138 57.91C80.114 57.91 80.1143 57.91 80.1145 57.91C80.1147 57.91 80.1149 57.91 80.1151 57.91C80.1153 57.91 80.1155 57.91 80.1157 57.91C80.1159 57.91 80.1162 57.91 80.1164 57.91C80.1166 57.91 80.1168 57.91 80.117 57.91C80.1172 57.91 80.1174 57.91 80.1176 57.91C80.1178 57.91 80.118 57.91 80.1183 57.91C80.1185 57.91 80.1187 57.91 80.1189 57.91C80.1191 57.91 80.1193 57.91 80.1195 57.91C80.1197 57.91 80.1199 57.91 80.1201 57.91C80.1204 57.91 80.1206 57.91 80.1208 57.91C80.121 57.91 80.1212 57.91 80.1214 57.91C80.1216 57.91 80.1218 57.91 80.122 57.91C80.1222 57.91 80.1224 57.91 80.1227 57.91C80.1229 57.91 80.1231 57.91 80.1233 57.91C80.1235 57.91 80.1237 57.91 80.1239 57.91C80.1241 57.91 80.1243 57.91 80.1245 57.91C80.1247 57.91 80.125 57.91 80.1252 57.91C80.1254 57.91 80.1256 57.91 80.1258 57.91C80.126 57.91 80.1262 57.91 80.1264 57.91C80.1266 57.91 80.1268 57.91 80.127 57.91C80.1272 57.91 80.1274 57.91 80.1277 57.91C80.1279 57.91 80.1281 57.91 80.1283 57.91C80.1285 57.91 80.1287 57.91 80.1289 57.91C80.1291 57.91 80.1293 57.91 80.1295 57.91C80.1297 57.91 80.1299 57.91 80.1301 57.91C80.1303 57.91 80.1306 57.91 80.1308 57.91C80.131 57.91 80.1312 57.91 80.1314 57.91C80.1316 57.91 80.1318 57.91 80.132 57.91C80.1322 57.91 80.1324 57.91 80.1326 57.91C80.1328 57.91 80.133 57.91 80.1332 57.91C80.1334 57.91 80.1336 57.91 80.1339 57.91C80.1341 57.91 80.1343 57.91 80.1345 57.91C80.1347 57.91 80.1349 57.91 80.1351 57.91C80.1353 57.91 80.1355 57.91 80.1357 57.91C80.1359 57.91 80.1361 57.91 80.1363 57.91C80.1365 57.91 80.1367 57.91 80.1369 57.91C80.1371 57.91 80.1373 57.91 80.1376 57.91C80.1378 57.91 80.138 57.91 80.1382 57.91C80.1384 57.91 80.1386 57.91 80.1388 57.91C80.139 57.91 80.1392 57.91 80.1394 57.91C80.1396 57.91 80.1398 57.91 80.14 57.91C80.1402 57.91 80.1404 57.91 80.1406 57.91C80.1408 57.91 80.141 57.91 80.1412 57.91C80.1414 57.91 80.1416 57.91 80.1418 57.91C80.142 57.91 80.1423 57.91 80.1425 57.91C80.1427 57.91 80.1429 57.91 80.1431 57.91C80.1433 57.91 80.1435 57.91 80.1437 57.91C80.1439 57.91 80.1441 57.91 80.1443 57.91C80.1445 57.91 80.1447 57.91 80.1449 57.91C80.1451 57.91 80.1453 57.91 80.1455 57.91C80.1457 57.91 80.1459 57.91 80.1461 57.91C80.1463 57.91 80.1465 57.91 80.1467 57.91C80.1469 57.91 80.1471 57.91 80.1473 57.91C80.1475 57.91 80.1477 57.91 80.1479 57.91C80.1481 57.91 80.1483 57.91 80.1485 57.91C80.1487 57.91 80.1489 57.91 80.1491 57.91C80.1493 57.91 80.1495 57.91 80.1497 57.91C80.15 57.91 80.1502 57.91 80.1504 57.91C80.1506 57.91 80.1508 57.91 80.151 57.91C80.1512 57.91 80.1514 57.91 80.1516 57.91C80.1518 57.91 80.152 57.91 80.1522 57.91C80.1524 57.91 80.1526 57.91 80.1528 57.91C80.153 57.91 80.1532 57.91 80.1534 57.91C80.1536 57.91 80.1538 57.91 80.154 57.91C80.1542 57.91 80.1544 57.91 80.1546 57.91C80.1548 57.91 80.155 57.91 80.1552 57.91C80.1554 57.91 80.1556 57.91 80.1558 57.91C80.156 57.91 80.1562 57.91 80.1564 57.91C80.1566 57.91 80.1568 57.91 80.157 57.91C80.1572 57.91 80.1574 57.91 80.1576 57.91C80.1578 57.91 80.158 57.91 80.1582 57.91C80.1584 57.91 80.1586 57.91 80.1588 57.91C80.159 57.91 80.1592 57.91 80.1594 57.91C80.1596 57.91 80.1598 57.91 80.16 57.91C80.1602 57.91 80.1604 57.91 80.1606 57.91C80.1608 57.91 80.161 57.91 80.1612 57.91C80.1614 57.91 80.1616 57.91 80.1618 57.91C80.162 57.91 80.1622 57.91 80.1624 57.91C80.1626 57.91 80.1628 57.91 80.163 57.91C80.1632 57.91 80.1634 57.91 80.1636 57.91C80.1638 57.91 80.164 57.91 80.1642 57.91C80.1643 57.91 80.1645 57.91 80.1647 57.91C80.1649 57.91 80.1651 57.91 80.1653 57.91C80.1655 57.91 80.1657 57.91 80.1659 57.91C80.1661 57.91 80.1663 57.91 80.1665 57.91C80.1667 57.91 80.1669 57.91 80.1671 57.91C80.1673 57.91 80.1675 57.91 80.1677 57.91C80.1679 57.91 80.1681 57.91 80.1683 57.91C80.1685 57.91 80.1687 57.91 80.1689 57.91C80.1691 57.91 80.1693 57.91 80.1695 57.91C80.1697 57.91 80.1699 57.91 80.1701 57.91C80.1703 57.91 80.1705 57.91 80.1707 57.91C80.1709 57.91 80.1711 57.91 80.1713 57.91C80.1715 57.91 80.1716 57.91 80.1718 57.91C80.172 57.91 80.1722 57.91 80.1724 57.91C80.1726 57.91 80.1728 57.91 80.173 57.91C80.1732 57.91 80.1734 57.91 80.1736 57.91C80.1738 57.91 80.174 57.91 80.1742 57.91C80.1744 57.91 80.1746 57.91 80.1748 57.91C80.175 57.91 80.1752 57.91 80.1754 57.91C80.1756 57.91 80.1758 57.91 80.176 57.91C80.1762 57.91 80.1764 57.91 80.1765 57.91C80.1767 57.91 80.1769 57.91 80.1771 57.91C80.1773 57.91 80.1775 57.91 80.1777 57.91C80.1779 57.91 80.1781 57.91 80.1783 57.91C80.1785 57.91 80.1787 57.91 80.1789 57.91C80.1791 57.91 80.1793 57.91 80.1795 57.91C80.1797 57.91 80.1799 57.91 80.1801 57.91C80.1803 57.91 80.1804 57.91 80.1806 57.91C80.1808 57.91 80.181 57.91 80.1812 57.91C80.1814 57.91 80.1816 57.91 80.1818 57.91C80.182 57.91 80.1822 57.91 80.1824 57.91C80.1826 57.91 80.1828 57.91 80.183 57.91C80.1832 57.91 80.1834 57.91 80.1836 57.91C80.1837 57.91 80.1839 57.91 80.1841 57.91C80.1843 57.91 80.1845 57.91 80.1847 57.91C80.1849 57.91 80.1851 57.91 80.1853 57.91C80.1855 57.91 80.1857 57.91 80.1859 57.91C80.1861 57.91 80.1863 57.91 80.1865 57.91C80.1866 57.91 80.1868 57.91 80.187 57.91C80.1872 57.91 80.1874 57.91 80.1876 57.91C80.1878 57.91 80.188 57.91 80.1882 57.91C80.1884 57.91 80.1886 57.91 80.1888 57.91C80.189 57.91 80.1892 57.91 80.1893 57.91C80.1895 57.91 80.1897 57.91 80.1899 57.91C80.1901 57.91 80.1903 57.91 80.1905 57.91C80.1907 57.91 80.1909 57.91 80.1911 57.91C80.1913 57.91 80.1915 57.91 80.1917 57.91C80.1918 57.91 80.192 57.91 80.1922 57.91C80.1924 57.91 80.1926 57.91 80.1928 57.91C80.193 57.91 80.1932 57.91 80.1934 57.91C80.1936 57.91 80.1938 57.91 80.194 57.91C80.1941 57.91 80.1943 57.91 80.1945 57.91C80.1947 57.91 80.1949 57.91 80.1951 57.91C80.1953 57.91 80.1955 57.91 80.1957 57.91C80.1959 57.91 80.1961 57.91 80.1963 57.91C80.1964 57.91 80.1966 57.91 80.1968 57.91C80.197 57.91 80.1972 57.91 80.1974 57.91C80.1976 57.91 80.1978 57.91 80.198 57.91C80.1982 57.91 80.1984 57.91 80.1985 57.91C80.1987 57.91 80.1989 57.91 80.1991 57.91C80.1993 57.91 80.1995 57.91 80.1997 57.91C80.1999 57.91 80.2001 57.91 80.2003 57.91C80.2004 57.91 80.2006 57.91 80.2008 57.91C80.201 57.91 80.2012 57.91 80.2014 57.91C80.2016 57.91 80.2018 57.91 80.202 57.91C80.2022 57.91 80.2024 57.91 80.2025 57.91C80.2027 57.91 80.2029 57.91 80.2031 57.91C80.2033 57.91 80.2035 57.91 80.2037 57.91C80.2039 57.91 80.2041 57.91 80.2042 57.91C80.2044 57.91 80.2046 57.91 80.2048 57.91C80.205 57.91 80.2052 57.91 80.2054 57.91C80.2056 57.91 80.2058 57.91 80.206 57.91C80.2061 57.91 80.2063 57.91 80.2065 57.91C80.2067 57.91 80.2069 57.91 80.2071 57.91C80.2073 57.91 80.2075 57.91 80.2077 57.91C80.2078 57.91 80.208 57.91 80.2082 57.91C80.2084 57.91 80.2086 57.91 80.2088 57.91C80.209 57.91 80.2092 57.91 80.2094 57.91C80.2095 57.91 80.2097 57.91 80.2099 57.91C80.2101 57.91 80.2103 57.91 80.2105 57.91C80.2107 57.91 80.2109 57.91 80.211 57.91C80.2112 57.91 80.2114 57.91 80.2116 57.91C80.2118 57.91 80.212 57.91 80.2122 57.91C80.2124 57.91 80.2126 57.91 80.2127 57.91C80.2129 57.91 80.2131 57.91 80.2133 57.91C80.2135 57.91 80.2137 57.91 80.2139 57.91C80.2141 57.91 80.2142 57.91 80.2144 57.91C80.2146 57.91 80.2148 57.91 80.215 57.91C80.2152 57.91 80.2154 57.91 80.2156 57.91C80.2157 57.91 80.2159 57.91 80.2161 57.91C80.2163 57.91 80.2165 57.91 80.2167 57.91C80.2169 57.91 80.2171 57.91 80.2172 57.91C80.2174 57.91 80.2176 57.91 80.2178 57.91C80.218 57.91 80.2182 57.91 80.2184 57.91C80.2185 57.91 80.2187 57.91 80.2189 57.91C80.2191 57.91 80.2193 57.91 80.2195 57.91C80.2197 57.91 80.2199 57.91 80.22 57.91C80.2202 57.91 80.2204 57.91 80.2206 57.91C80.2208 57.91 80.221 57.91 80.2212 57.91C80.2213 57.91 80.2215 57.91 80.2217 57.91C80.2219 57.91 80.2221 57.91 80.2223 57.91C80.2225 57.91 80.2227 57.91 80.2228 57.91C80.223 57.91 80.2232 57.91 80.2234 57.91C80.2236 57.91 80.2238 57.91 80.224 57.91C80.2241 57.91 80.2243 57.91 80.2245 57.91C80.2247 57.91 80.2249 57.91 80.2251 57.91C80.2253 57.91 80.2254 57.91 80.2256 57.91C80.2258 57.91 80.226 57.91 80.2262 57.91C80.2264 57.91 80.2266 57.91 80.2267 57.91C80.2269 57.91 80.2271 57.91 80.2273 57.91C80.2275 57.91 80.2277 57.91 80.2279 57.91C80.228 57.91 80.2282 57.91 80.2284 57.91C80.2286 57.91 80.2288 57.91 80.229 57.91C80.2291 57.91 80.2293 57.91 80.2295 57.91C80.2297 57.91 80.2299 57.91 80.2301 57.91C80.2303 57.91 80.2304 57.91 80.2306 57.91C80.2308 57.91 80.231 57.91 80.2312 57.91C80.2314 57.91 80.2316 57.91 80.2317 57.91C80.2319 57.91 80.2321 57.91 80.2323 57.91C80.2325 57.91 80.2327 57.91 80.2328 57.91C80.233 57.91 80.2332 57.91 80.2334 57.91C80.2336 57.91 80.2338 57.91 80.2339 57.91C80.2341 57.91 80.2343 57.91 80.2345 57.91C80.2347 57.91 80.2349 57.91 80.2351 57.91C80.2352 57.91 80.2354 57.91 80.2356 57.91C80.2358 57.91 80.236 57.91 80.2362 57.91C80.2363 57.91 80.2365 57.91 80.2367 57.91C80.2369 57.91 80.2371 57.91 80.2373 57.91C80.2374 57.91 80.2376 57.91 80.2378 57.91C80.238 57.91 80.2382 57.91 80.2384 57.91C80.2385 57.91 80.2387 57.91 80.2389 57.91C80.2391 57.91 80.2393 57.91 80.2395 57.91C80.2396 57.91 80.2398 57.91 80.24 57.91C80.2402 57.91 80.2404 57.91 80.2406 57.91C80.2407 57.91 80.2409 57.91 80.2411 57.91C80.2413 57.91 80.2415 57.91 80.2417 57.91C80.2418 57.91 80.242 57.91 80.2422 57.91C80.2424 57.91 80.2426 57.91 80.2428 57.91C80.2429 57.91 80.2431 57.91 80.2433 57.91C80.2435 57.91 80.2437 57.91 80.2439 57.91C80.244 57.91 80.2442 57.91 80.2444 57.91C80.2446 57.91 80.2448 57.91 80.245 57.91C80.2451 57.91 80.2453 57.91 80.2455 57.91C80.2457 57.91 80.2459 57.91 80.246 57.91C80.2462 57.91 80.2464 57.91 80.2466 57.91C80.2468 57.91 80.247 57.91 80.2471 57.91C80.2473 57.91 80.2475 57.91 80.2477 57.91C80.2479 57.91 80.2481 57.91 80.2482 57.91C80.2484 57.91 80.2486 57.91 80.2488 57.91C80.249 57.91 80.2491 57.91 80.2493 57.91C80.2495 57.91 80.2497 57.91 80.2499 57.91C80.2501 57.91 80.2502 57.91 80.2504 57.91C80.2506 57.91 80.2508 57.91 80.251 57.91C80.2512 57.91 80.2513 57.91 80.2515 57.91C80.2517 57.91 80.2519 57.91 80.2521 57.91C80.2522 57.91 80.2524 57.91 80.2526 57.91C80.2528 57.91 80.253 57.91 80.2531 57.91C80.2533 57.91 80.2535 57.91 80.2537 57.91C80.2539 57.91 80.2541 57.91 80.2542 57.91C80.2544 57.91 80.2546 57.91 80.2548 57.91C80.255 57.91 80.2551 57.91 80.2553 57.91C80.2555 57.91 80.2557 57.91 80.2559 57.91C80.256 57.91 80.2562 57.91 80.2564 57.91C80.2566 57.91 80.2568 57.91 80.257 57.91C80.2571 57.91 80.2573 57.91 80.2575 57.91C80.2577 57.91 80.2579 57.91 80.258 57.91C80.2582 57.91 80.2584 57.91 80.2586 57.91C80.2588 57.91 80.2589 57.91 80.2591 57.91C80.2593 57.91 80.2595 57.91 80.2597 57.91C80.2598 57.91 80.26 57.91 80.2602 57.91C80.2604 57.91 80.2606 57.91 80.2607 57.91C80.2609 57.91 80.2611 57.91 80.2613 57.91C80.2615 57.91 80.2617 57.91 80.2618 57.91C80.262 57.91 80.2622 57.91 80.2624 57.91C80.2626 57.91 80.2627 57.91 80.2629 57.91C80.2631 57.91 80.2633 57.91 80.2635 57.91C80.2636 57.91 80.2638 57.91 80.264 57.91C80.2642 57.91 80.2644 57.91 80.2645 57.91C80.2647 57.91 80.2649 57.91 80.2651 57.91C80.2653 57.91 80.2654 57.91 80.2656 57.91C80.2658 57.91 80.266 57.91 80.2662 57.91C80.2663 57.91 80.2665 57.91 80.2667 57.91C80.2669 57.91 80.2671 57.91 80.2672 57.91C80.2674 57.91 80.2676 57.91 80.2678 57.91C80.268 57.91 80.2681 57.91 80.2683 57.91C80.2685 57.91 80.2687 57.91 80.2689 57.91C80.269 57.91 80.2692 57.91 80.2694 57.91C80.2696 57.91 80.2698 57.91 80.2699 57.91C80.2701 57.91 80.2703 57.91 80.2705 57.91C80.2706 57.91 80.2708 57.91 80.271 57.91C80.2712 57.91 80.2714 57.91 80.2715 57.91C80.2717 57.91 80.2719 57.91 80.2721 57.91C80.2723 57.91 80.2724 57.91 80.2726 57.91C80.2728 57.91 80.273 57.91 80.2732 57.91C80.2733 57.91 80.2735 57.91 80.2737 57.91C80.2739 57.91 80.2741 57.91 80.2742 57.91C80.2744 57.91 80.2746 57.91 80.2748 57.91C80.275 57.91 80.2751 57.91 80.2753 57.91C80.2755 57.91 80.2757 57.91 80.2758 57.91C80.276 57.91 80.2762 57.91 80.2764 57.91C80.2766 57.91 80.2767 57.91 80.2769 57.91C80.2771 57.91 80.2773 57.91 80.2775 57.91C80.2776 57.91 80.2778 57.91 80.278 57.91C80.2782 57.91 80.2783 57.91 80.2785 57.91C80.2787 57.91 80.2789 57.91 80.2791 57.91C80.2792 57.91 80.2794 57.91 80.2796 57.91C80.2798 57.91 80.28 57.91 80.2801 57.91C80.2803 57.91 80.2805 57.91 80.2807 57.91C80.2808 57.91 80.281 57.91 80.2812 57.91C80.2814 57.91 80.2816 57.91 80.2817 57.91C80.2819 57.91 80.2821 57.91 80.2823 57.91C80.2825 57.91 80.2826 57.91 80.2828 57.91C80.283 57.91 80.2832 57.91 80.2833 57.91C80.2835 57.91 80.2837 57.91 80.2839 57.91C80.2841 57.91 80.2842 57.91 80.2844 57.91C80.2846 57.91 80.2848 57.91 80.2849 57.91C80.2851 57.91 80.2853 57.91 80.2855 57.91C80.2857 57.91 80.2858 57.91 80.286 57.91C80.2862 57.91 80.2864 57.91 80.2865 57.91C80.2867 57.91 80.2869 57.91 80.2871 57.91C80.2873 57.91 80.2874 57.91 80.2876 57.91C80.2878 57.91 80.288 57.91 80.2881 57.91C80.2883 57.91 80.2885 57.91 80.2887 57.91C80.2889 57.91 80.289 57.91 80.2892 57.91C80.2894 57.91 80.2896 57.91 80.2897 57.91C80.2899 57.91 80.2901 57.91 80.2903 57.91C80.2905 57.91 80.2906 57.91 80.2908 57.91C80.291 57.91 80.2912 57.91 80.2913 57.91C80.2915 57.91 80.2917 57.91 80.2919 57.91C80.2921 57.91 80.2922 57.91 80.2924 57.91C80.2926 57.91 80.2928 57.91 80.2929 57.91C80.2931 57.91 80.2933 57.91 80.2935 57.91C80.2937 57.91 80.2938 57.91 80.294 57.91C80.2942 57.91 80.2944 57.91 80.2945 57.91C80.2947 57.91 80.2949 57.91 80.2951 57.91C80.2952 57.91 80.2954 57.91 80.2956 57.91C80.2958 57.91 80.296 57.91 80.2961 57.91C80.2963 57.91 80.2965 57.91 80.2967 57.91C80.2968 57.91 80.297 57.91 80.2972 57.91C80.2974 57.91 80.2976 57.91 80.2977 57.91C80.2979 57.91 80.2981 57.91 80.2983 57.91C80.2984 57.91 80.2986 57.91 80.2988 57.91C80.299 57.91 80.2991 57.91 80.2993 57.91C80.2995 57.91 80.2997 57.91 80.2999 57.91C80.3 57.91 80.3002 57.91 80.3004 57.91C80.3006 57.91 80.3007 57.91 80.3009 57.91C80.3011 57.91 80.3013 57.91 80.3014 57.91C80.3016 57.91 80.3018 57.91 80.302 57.91C80.3022 57.91 80.3023 57.91 80.3025 57.91C80.3027 57.91 80.3029 57.91 80.303 57.91C80.3032 57.91 80.3034 57.91 80.3036 57.91C80.3037 57.91 80.3039 57.91 80.3041 57.91C80.3043 57.91 80.3045 57.91 80.3046 57.91C80.3048 57.91 80.305 57.91 80.3052 57.91C80.3053 57.91 80.3055 57.91 80.3057 57.91C80.3059 57.91 80.306 57.91 80.3062 57.91C80.3064 57.91 80.3066 57.91 80.3067 57.91C80.3069 57.91 80.3071 57.91 80.3073 57.91C80.3075 57.91 80.3076 57.91 80.3078 57.91C80.308 57.91 80.3082 57.91 80.3083 57.91C80.3085 57.91 80.3087 57.91 80.3089 57.91C80.309 57.91 80.3092 57.91 80.3094 57.91C80.3096 57.91 80.3097 57.91 80.3099 57.91C80.3101 57.91 80.3103 57.91 80.3105 57.91C80.3106 57.91 80.3108 57.91 80.311 57.91C80.3112 57.91 80.3113 57.91 80.3115 57.91C80.3117 57.91 80.3119 57.91 80.312 57.91C80.3122 57.91 80.3124 57.91 80.3126 57.91C80.3127 57.91 80.3129 57.91 80.3131 57.91C80.3133 57.91 80.3135 57.91 80.3136 57.91C80.3138 57.91 80.314 57.91 80.3142 57.91C80.3143 57.91 80.3145 57.91 80.3147 57.91C80.3149 57.91 80.315 57.91 80.3152 57.91C80.3154 57.91 80.3156 57.91 80.3157 57.91C80.3159 57.91 80.3161 57.91 80.3163 57.91C80.3164 57.91 80.3166 57.91 80.3168 57.91C80.317 57.91 80.3172 57.91 80.3173 57.91C80.3175 57.91 80.3177 57.91 80.3179 57.91C80.318 57.91 80.3182 57.91 80.3184 57.91C80.3186 57.91 80.3187 57.91 80.3189 57.91C80.3191 57.91 80.3193 57.91 80.3194 57.91C80.3196 57.91 80.3198 57.91 80.32 57.91C80.3201 57.91 80.3203 57.91 80.3205 57.91C80.3207 57.91 80.3209 57.91 80.321 57.91C80.3212 57.91 80.3214 57.91 80.3216 57.91C80.3217 57.91 80.3219 57.91 80.3221 57.91C80.3223 57.91 80.3224 57.91 80.3226 57.91C80.3228 57.91 80.323 57.91 80.3231 57.91C80.3233 57.91 80.3235 57.91 80.3237 57.91C80.3238 57.91 80.324 57.91 80.3242 57.91C80.3244 57.91 80.3245 57.91 80.3247 57.91C80.3249 57.91 80.3251 57.91 80.3253 57.91C80.3254 57.91 80.3256 57.91 80.3258 57.91C80.326 57.91 80.3261 57.91 80.3263 57.91C80.3265 57.91 80.3267 57.91 80.3268 57.91C80.327 57.91 80.3272 57.91 80.3274 57.91C80.3275 57.91 80.3277 57.91 80.3279 57.91C80.3281 57.91 80.3282 57.91 80.3284 57.91C80.3286 57.91 80.3288 57.91 80.3289 57.91C80.3291 57.91 80.3293 57.91 80.3295 57.91C80.3296 57.91 80.3298 57.91 80.33 57.91C80.3302 57.91 80.3304 57.91 80.3305 57.91C80.3307 57.91 80.3309 57.91 80.3311 57.91C80.3312 57.91 80.3314 57.91 80.3316 57.91C80.3318 57.91 80.3319 57.91 80.3321 57.91C80.3323 57.91 80.3325 57.91 80.3326 57.91C80.3328 57.91 80.333 57.91 80.3332 57.91C80.3333 57.91 80.3335 57.91 80.3337 57.91C80.3339 57.91 80.334 57.91 80.3342 57.91C80.3344 57.91 80.3346 57.91 80.3347 57.91C80.3349 57.91 80.3351 57.91 80.3353 57.91C80.3354 57.91 80.3356 57.91 80.3358 57.91C80.336 57.91 80.3362 57.91 80.3363 57.91C80.3365 57.91 80.3367 57.91 80.3369 57.91C80.337 57.91 80.3372 57.91 80.3374 57.91C80.3376 57.91 80.3377 57.91 80.3379 57.91C80.3381 57.91 80.3383 57.91 80.3384 57.91V55.91ZM81.0013 57.1799L84.1213 46.0499L82.1956 45.5101L79.0756 56.6401L81.0013 57.1799ZM82.3617 46.3844C83.7074 48.1582 84.7684 49.6729 84.7684 51.57H86.7684C86.7684 48.9071 85.2494 46.8818 83.9551 45.1756L82.3617 46.3844Z" fill="black"/>
</svg>
