<svg width="139" height="91" viewBox="0 0 139 91" fill="none" xmlns="http://www.w3.org/2000/svg">
<path d="M136.5 45.5C136.5 56.9471 129.411 67.6363 117.275 75.5817C105.16 83.5129 88.2762 88.5 69.5 88.5C50.7238 88.5 33.84 83.5129 21.7254 75.5817C9.58894 67.6363 2.5 56.9471 2.5 45.5C2.5 34.0529 9.58894 23.3637 21.7254 15.4183C33.84 7.48712 50.7238 2.5 69.5 2.5C88.2762 2.5 105.16 7.48712 117.275 15.4183C129.411 23.3637 136.5 34.0529 136.5 45.5Z" fill="white" stroke="black" stroke-width="5"/>
<path d="M48.8 57H57.5L57.59 56.76H53.09L57.2 42H52.4L52.34 42.24H56.84L52.79 56.76H48.89L48.8 57ZM60.4531 53.13C61.3831 52.32 62.7031 51.63 64.2631 51.63C66.8431 51.63 67.9231 53.88 67.9231 56.28C67.9231 60.54 64.7131 64.41 60.0631 64.41C59.1331 64.41 58.0531 64.2 57.6331 63.99L58.7131 59.88H58.4131L57.3031 64.08C57.6031 64.35 58.8031 64.68 60.0631 64.68C64.8331 64.68 68.2231 60.72 68.2231 56.28C68.2231 53.76 67.0531 51.36 64.2331 51.36C62.6131 51.36 61.2631 52.11 60.5731 52.68L63.5131 42.27H70.4431L69.2131 46.62H69.5131L70.7431 42.24L70.5331 42H63.3031L60.2131 52.95L60.4531 53.13ZM75.2987 57.18C78.4787 57.18 81.0587 55.29 81.0587 51.54C81.0587 49.17 79.6487 47.28 78.2387 45.45L81.2087 34.71C83.0387 34.71 84.0887 35.04 84.4187 35.16L82.6487 41.82H82.9487L84.7487 34.98C84.7487 34.98 83.6987 34.47 81.2987 34.44L82.0187 31.83H81.7187L80.9987 34.44C77.6387 34.44 75.1487 36.3 75.1487 39.48C75.1487 41.85 76.5287 43.68 77.9087 45.48L74.7587 56.88C73.2587 56.79 71.9687 56.28 71.3687 55.71L72.8387 50.43H72.5387L71.0387 55.8C71.7887 56.52 73.1987 57.03 74.6687 57.15L73.6787 60.72H73.9787L74.9687 57.18C75.0887 57.18 75.1787 57.18 75.2987 57.18ZM75.4487 39.48C75.4487 36.36 77.9387 34.77 80.9087 34.71L77.9987 45.15C76.7087 43.41 75.4487 41.67 75.4487 39.48ZM80.7587 51.57C80.7587 55.14 78.3287 56.91 75.3287 56.91C75.2387 56.91 75.1487 56.91 75.0287 56.91L78.1487 45.78C79.4687 47.52 80.7587 49.29 80.7587 51.57Z" fill="black"/>
<path d="M48.8 57L47.8637 56.6489L47.357 58H48.8V57ZM57.5 57V58H58.193L58.4363 57.3511L57.5 57ZM57.59 56.76L58.5263 57.1111L59.033 55.76H57.59V56.76ZM53.09 56.76L52.1267 56.4918L51.7735 57.76H53.09V56.76ZM57.2 42L58.1634 42.2682L58.5165 41H57.2V42ZM52.4 42V41H51.6192L51.4299 41.7575L52.4 42ZM52.34 42.24L51.3699 41.9975L51.0592 43.24H52.34V42.24ZM56.84 42.24L57.8032 42.5087L58.1571 41.24H56.84V42.24ZM52.79 56.76V57.76H53.5492L53.7532 57.0287L52.79 56.76ZM48.89 56.76V55.76H48.197L47.9537 56.4089L48.89 56.76ZM48.8 58H57.5V56H48.8V58ZM58.4363 57.3511L58.5263 57.1111L56.6537 56.4089L56.5637 56.6489L58.4363 57.3511ZM57.59 55.76H53.09V57.76H57.59V55.76ZM54.0533 57.0282L58.1634 42.2682L56.2367 41.7318L52.1267 56.4918L54.0533 57.0282ZM57.2 41H52.4V43H57.2V41ZM51.4299 41.7575L51.3699 41.9975L53.3101 42.4825L53.3701 42.2425L51.4299 41.7575ZM52.34 43.24H56.84V41.24H52.34V43.24ZM55.8768 41.9713L51.8268 56.4913L53.7532 57.0287L57.8032 42.5087L55.8768 41.9713ZM52.79 55.76H48.89V57.76H52.79V55.76ZM47.9537 56.4089L47.8637 56.6489L49.7363 57.3511L49.8263 57.1111L47.9537 56.4089ZM60.4531 53.13L59.8531 53.93L60.5001 54.4152L61.1099 53.8841L60.4531 53.13ZM57.6331 63.99L56.666 63.7359L56.4596 64.5213L57.1859 64.8844L57.6331 63.99ZM58.7131 59.88L59.6803 60.1341L60.0098 58.88H58.7131V59.88ZM58.4131 59.88V58.88H57.6431L57.4463 59.6245L58.4131 59.88ZM57.3031 64.08L56.3363 63.8245L56.1803 64.4148L56.6342 64.8233L57.3031 64.08ZM60.5731 52.68L59.6108 52.4082L58.74 55.4914L61.21 53.451L60.5731 52.68ZM63.5131 42.27V41.27H62.7564L62.5508 41.9982L63.5131 42.27ZM70.4431 42.27L71.4054 42.5421L71.7651 41.27H70.4431V42.27ZM69.2131 46.62L68.2509 46.3479L67.8912 47.62H69.2131V46.62ZM69.5131 46.62V47.62H70.271L70.4759 46.8904L69.5131 46.62ZM70.7431 42.24L71.7059 42.5104L71.8523 41.989L71.4957 41.5815L70.7431 42.24ZM70.5331 42L71.2857 41.3415L70.9869 41H70.5331V42ZM63.3031 42V41H62.5463L62.3407 41.7284L63.3031 42ZM60.2131 52.95L59.2507 52.6784L59.0644 53.3385L59.6131 53.75L60.2131 52.95ZM61.1099 53.8841C61.9093 53.1878 63.005 52.63 64.2631 52.63V50.63C62.4012 50.63 60.857 51.4522 59.7963 52.3759L61.1099 53.8841ZM64.2631 52.63C65.2131 52.63 65.8243 53.0214 66.2364 53.6212C66.6792 54.2658 66.9231 55.2094 66.9231 56.28H68.9231C68.9231 54.9506 68.6271 53.5692 67.8849 52.4888C67.1119 51.3636 65.8932 50.63 64.2631 50.63V52.63ZM66.9231 56.28C66.9231 60.0652 64.0864 63.41 60.0631 63.41V65.41C65.3398 65.41 68.9231 61.0148 68.9231 56.28H66.9231ZM60.0631 63.41C59.6666 63.41 59.2238 63.3645 58.8335 63.2945C58.4177 63.2198 58.1582 63.1345 58.0803 63.0956L57.1859 64.8844C57.5281 65.0555 58.0185 65.1802 58.4802 65.263C58.9674 65.3505 59.5297 65.41 60.0631 65.41V63.41ZM58.6003 64.2441L59.6803 60.1341L57.746 59.6259L56.666 63.7359L58.6003 64.2441ZM58.7131 58.88H58.4131V60.88H58.7131V58.88ZM57.4463 59.6245L56.3363 63.8245L58.2699 64.3355L59.3799 60.1355L57.4463 59.6245ZM56.6342 64.8233C56.8451 65.0131 57.112 65.137 57.3162 65.2177C57.546 65.3085 57.8118 65.3884 58.0945 65.4548C58.6597 65.5875 59.3515 65.68 60.0631 65.68V63.68C59.5148 63.68 58.9765 63.6075 58.5518 63.5077C58.3395 63.4579 58.1702 63.4047 58.0513 63.3576C57.9067 63.3005 57.9112 63.2819 57.9721 63.3367L56.6342 64.8233ZM60.0631 65.68C65.4482 65.68 69.2231 61.2074 69.2231 56.28H67.2231C67.2231 60.2326 64.2181 63.68 60.0631 63.68V65.68ZM69.2231 56.28C69.2231 54.8853 68.9023 53.4328 68.103 52.2988C67.2731 51.1216 65.9726 50.36 64.2331 50.36V52.36C65.3137 52.36 66.0081 52.7984 66.4683 53.4512C66.959 54.1472 67.2231 55.1547 67.2231 56.28H69.2231ZM64.2331 50.36C62.3189 50.36 60.7513 51.2357 59.9362 51.909L61.21 53.451C61.775 52.9843 62.9073 52.36 64.2331 52.36V50.36ZM61.5355 52.9518L64.4755 42.5418L62.5508 41.9982L59.6108 52.4082L61.5355 52.9518ZM63.5131 43.27H70.4431V41.27H63.5131V43.27ZM69.4809 41.9979L68.2509 46.3479L70.1754 46.8921L71.4054 42.5421L69.4809 41.9979ZM69.2131 47.62H69.5131V45.62H69.2131V47.62ZM70.4759 46.8904L71.7059 42.5104L69.7804 41.9696L68.5504 46.3496L70.4759 46.8904ZM71.4957 41.5815L71.2857 41.3415L69.7806 42.6585L69.9905 42.8985L71.4957 41.5815ZM70.5331 41H63.3031V43H70.5331V41ZM62.3407 41.7284L59.2507 52.6784L61.1755 53.2216L64.2655 42.2716L62.3407 41.7284ZM59.6131 53.75L59.8531 53.93L61.0531 52.33L60.8131 52.15L59.6131 53.75ZM78.2387 45.45L77.2748 45.1835L77.1417 45.6648L77.4465 46.0603L78.2387 45.45ZM81.2087 34.71V33.71H80.4477L80.2448 34.4435L81.2087 34.71ZM84.4187 35.16L85.3851 35.4168L85.6201 34.5328L84.7604 34.2202L84.4187 35.16ZM82.6487 41.82L81.6822 41.5631L81.3482 42.82H82.6487V41.82ZM82.9487 41.82V42.82H83.7196L83.9157 42.0745L82.9487 41.82ZM84.7487 34.98L85.7157 35.2345L85.9249 34.4396L85.1856 34.0805L84.7487 34.98ZM81.2987 34.44L80.3347 34.1741L79.9899 35.4237L81.2862 35.4399L81.2987 34.44ZM82.0187 31.83L82.9827 32.0959L83.3319 30.83H82.0187V31.83ZM81.7187 31.83V30.83H80.9572L80.7547 31.5641L81.7187 31.83ZM80.9987 34.44V35.44H81.7602L81.9627 34.7059L80.9987 34.44ZM77.9087 45.48L78.8726 45.7463L79.0051 45.2666L78.7023 44.8716L77.9087 45.48ZM74.7587 56.88L74.6988 57.8782L75.5069 57.9267L75.7226 57.1463L74.7587 56.88ZM71.3687 55.71L70.4053 55.4418L70.2441 56.0209L70.6799 56.435L71.3687 55.71ZM72.8387 50.43L73.802 50.6982L74.1551 49.43H72.8387V50.43ZM72.5387 50.43V49.43H71.7797L71.5755 50.161L72.5387 50.43ZM71.0387 55.8L70.0755 55.531L69.9146 56.1071L70.3461 56.5214L71.0387 55.8ZM74.6687 57.15L75.6323 57.4172L75.9555 56.2517L74.75 56.1533L74.6687 57.15ZM73.6787 60.72L72.715 60.4528L72.3636 61.72H73.6787V60.72ZM73.9787 60.72V61.72H74.7374L74.9417 60.9893L73.9787 60.72ZM74.9687 57.18V56.18H74.21L74.0056 56.9107L74.9687 57.18ZM80.9087 34.71L81.872 34.9785L82.233 33.683L80.8885 33.7102L80.9087 34.71ZM77.9987 45.15L77.1954 45.7456L78.413 47.388L78.962 45.4185L77.9987 45.15ZM75.0287 56.91L74.0658 56.6401L73.7098 57.91H75.0287V56.91ZM78.1487 45.78L78.9454 45.1756L77.729 43.5722L77.1858 45.5101L78.1487 45.78ZM75.2987 58.18C77.0801 58.18 78.7772 57.6498 80.0413 56.5085C81.321 55.3531 82.0587 53.6592 82.0587 51.54H80.0587C80.0587 53.1708 79.5064 54.2969 78.701 55.024C77.8801 55.7652 76.6973 56.18 75.2987 56.18V58.18ZM82.0587 51.54C82.0587 48.7782 80.4074 46.6263 79.0308 44.8397L77.4465 46.0603C78.8899 47.9337 80.0587 49.5618 80.0587 51.54H82.0587ZM79.2025 45.7165L82.1725 34.9765L80.2448 34.4435L77.2748 45.1835L79.2025 45.7165ZM81.2087 35.71C82.9132 35.71 83.8478 36.0165 84.0769 36.0998L84.7604 34.2202C84.3296 34.0635 83.1641 33.71 81.2087 33.71V35.71ZM83.4522 34.9031L81.6822 41.5631L83.6151 42.0768L85.3851 35.4168L83.4522 34.9031ZM82.6487 42.82H82.9487V40.82H82.6487V42.82ZM83.9157 42.0745L85.7157 35.2345L83.7816 34.7255L81.9816 41.5655L83.9157 42.0745ZM84.7487 34.98C85.1856 34.0805 85.1852 34.0803 85.1848 34.0801C85.1847 34.08 85.1843 34.0799 85.184 34.0797C85.1834 34.0795 85.1829 34.0792 85.1823 34.0789C85.1811 34.0784 85.1799 34.0778 85.1786 34.0772C85.1761 34.0759 85.1732 34.0746 85.1701 34.0731C85.1639 34.0702 85.1567 34.0669 85.1483 34.0631C85.1317 34.0556 85.1108 34.0464 85.0855 34.0358C85.0351 34.0147 84.9674 33.9879 84.8818 33.9575C84.7106 33.8967 84.4685 33.8215 84.1509 33.7474C83.5153 33.5991 82.5807 33.4559 81.3112 33.4401L81.2862 35.4399C82.4167 35.4541 83.207 35.5809 83.6964 35.6951C83.9413 35.7522 84.1117 35.8064 84.2124 35.8422C84.2628 35.8601 84.2959 35.8734 84.3122 35.8802C84.3204 35.8837 84.3244 35.8855 84.3243 35.8854C84.3242 35.8854 84.3231 35.8849 84.321 35.8839C84.32 35.8835 84.3187 35.8828 84.3172 35.8821C84.3164 35.8817 84.3156 35.8813 84.3147 35.8809C84.3142 35.8807 84.3137 35.8805 84.3133 35.8802C84.313 35.8801 84.3126 35.8799 84.3125 35.8799C84.3121 35.8797 84.3118 35.8795 84.7487 34.98ZM82.2627 34.7059L82.9827 32.0959L81.0547 31.5641L80.3347 34.1741L82.2627 34.7059ZM82.0187 30.83H81.7187V32.83H82.0187V30.83ZM80.7547 31.5641L80.0347 34.1741L81.9627 34.7059L82.6827 32.0959L80.7547 31.5641ZM80.9987 33.44C79.143 33.44 77.4376 33.9535 76.1762 34.997C74.8944 36.0575 74.1487 37.6048 74.1487 39.48H76.1487C76.1487 38.1752 76.648 37.2025 77.4511 36.538C78.2748 35.8565 79.4943 35.44 80.9987 35.44V33.44ZM74.1487 39.48C74.1487 42.2408 75.7691 44.3328 77.1151 46.0884L78.7023 44.8716C77.2882 43.0272 76.1487 41.4592 76.1487 39.48H74.1487ZM76.9448 45.2137L73.7948 56.6137L75.7226 57.1463L78.8726 45.7463L76.9448 45.2137ZM74.8186 55.8818C73.4533 55.7999 72.4255 55.3347 72.0574 54.985L70.6799 56.435C71.5118 57.2253 73.0641 57.7801 74.6988 57.8782L74.8186 55.8818ZM72.332 55.9782L73.802 50.6982L71.8753 50.1618L70.4053 55.4418L72.332 55.9782ZM72.8387 49.43H72.5387V51.43H72.8387V49.43ZM71.5755 50.161L70.0755 55.531L72.0018 56.069L73.5018 50.699L71.5755 50.161ZM70.3461 56.5214C71.3262 57.4623 72.9958 58.0168 74.5873 58.1467L74.75 56.1533C73.4015 56.0432 72.2511 55.5777 71.7312 55.0786L70.3461 56.5214ZM73.705 56.8828L72.715 60.4528L74.6423 60.9872L75.6323 57.4172L73.705 56.8828ZM73.6787 61.72H73.9787V59.72H73.6787V61.72ZM74.9417 60.9893L75.9317 57.4493L74.0056 56.9107L73.0156 60.4507L74.9417 60.9893ZM74.9687 58.18C74.9689 58.18 74.9691 58.18 74.9694 58.18C74.9696 58.18 74.9698 58.18 74.9701 58.18C74.9703 58.18 74.9705 58.18 74.9708 58.18C74.971 58.18 74.9712 58.18 74.9715 58.18C74.9717 58.18 74.9719 58.18 74.9722 58.18C74.9724 58.18 74.9726 58.18 74.9729 58.18C74.9731 58.18 74.9733 58.18 74.9736 58.18C74.9738 58.18 74.974 58.18 74.9743 58.18C74.9745 58.18 74.9747 58.18 74.975 58.18C74.9752 58.18 74.9754 58.18 74.9757 58.18C74.9759 58.18 74.9761 58.18 74.9764 58.18C74.9766 58.18 74.9768 58.18 74.9771 58.18C74.9773 58.18 74.9775 58.18 74.9778 58.18C74.978 58.18 74.9782 58.18 74.9784 58.18C74.9787 58.18 74.9789 58.18 74.9791 58.18C74.9794 58.18 74.9796 58.18 74.9798 58.18C74.9801 58.18 74.9803 58.18 74.9805 58.18C74.9808 58.18 74.981 58.18 74.9812 58.18C74.9815 58.18 74.9817 58.18 74.9819 58.18C74.9821 58.18 74.9824 58.18 74.9826 58.18C74.9828 58.18 74.9831 58.18 74.9833 58.18C74.9835 58.18 74.9837 58.18 74.984 58.18C74.9842 58.18 74.9844 58.18 74.9847 58.18C74.9849 58.18 74.9851 58.18 74.9854 58.18C74.9856 58.18 74.9858 58.18 74.986 58.18C74.9863 58.18 74.9865 58.18 74.9867 58.18C74.987 58.18 74.9872 58.18 74.9874 58.18C74.9876 58.18 74.9879 58.18 74.9881 58.18C74.9883 58.18 74.9886 58.18 74.9888 58.18C74.989 58.18 74.9892 58.18 74.9895 58.18C74.9897 58.18 74.9899 58.18 74.9902 58.18C74.9904 58.18 74.9906 58.18 74.9908 58.18C74.9911 58.18 74.9913 58.18 74.9915 58.18C74.9917 58.18 74.992 58.18 74.9922 58.18C74.9924 58.18 74.9927 58.18 74.9929 58.18C74.9931 58.18 74.9933 58.18 74.9936 58.18C74.9938 58.18 74.994 58.18 74.9942 58.18C74.9945 58.18 74.9947 58.18 74.9949 58.18C74.9951 58.18 74.9954 58.18 74.9956 58.18C74.9958 58.18 74.996 58.18 74.9963 58.18C74.9965 58.18 74.9967 58.18 74.997 58.18C74.9972 58.18 74.9974 58.18 74.9976 58.18C74.9979 58.18 74.9981 58.18 74.9983 58.18C74.9985 58.18 74.9988 58.18 74.999 58.18C74.9992 58.18 74.9994 58.18 74.9997 58.18C74.9999 58.18 75.0001 58.18 75.0003 58.18C75.0006 58.18 75.0008 58.18 75.001 58.18C75.0012 58.18 75.0015 58.18 75.0017 58.18C75.0019 58.18 75.0021 58.18 75.0024 58.18C75.0026 58.18 75.0028 58.18 75.003 58.18C75.0033 58.18 75.0035 58.18 75.0037 58.18C75.0039 58.18 75.0041 58.18 75.0044 58.18C75.0046 58.18 75.0048 58.18 75.005 58.18C75.0053 58.18 75.0055 58.18 75.0057 58.18C75.0059 58.18 75.0062 58.18 75.0064 58.18C75.0066 58.18 75.0068 58.18 75.007 58.18C75.0073 58.18 75.0075 58.18 75.0077 58.18C75.0079 58.18 75.0082 58.18 75.0084 58.18C75.0086 58.18 75.0088 58.18 75.0091 58.18C75.0093 58.18 75.0095 58.18 75.0097 58.18C75.0099 58.18 75.0102 58.18 75.0104 58.18C75.0106 58.18 75.0108 58.18 75.0111 58.18C75.0113 58.18 75.0115 58.18 75.0117 58.18C75.0119 58.18 75.0122 58.18 75.0124 58.18C75.0126 58.18 75.0128 58.18 75.013 58.18C75.0133 58.18 75.0135 58.18 75.0137 58.18C75.0139 58.18 75.0142 58.18 75.0144 58.18C75.0146 58.18 75.0148 58.18 75.015 58.18C75.0153 58.18 75.0155 58.18 75.0157 58.18C75.0159 58.18 75.0161 58.18 75.0164 58.18C75.0166 58.18 75.0168 58.18 75.017 58.18C75.0172 58.18 75.0175 58.18 75.0177 58.18C75.0179 58.18 75.0181 58.18 75.0183 58.18C75.0186 58.18 75.0188 58.18 75.019 58.18C75.0192 58.18 75.0194 58.18 75.0197 58.18C75.0199 58.18 75.0201 58.18 75.0203 58.18C75.0205 58.18 75.0208 58.18 75.021 58.18C75.0212 58.18 75.0214 58.18 75.0216 58.18C75.0219 58.18 75.0221 58.18 75.0223 58.18C75.0225 58.18 75.0227 58.18 75.023 58.18C75.0232 58.18 75.0234 58.18 75.0236 58.18C75.0238 58.18 75.024 58.18 75.0243 58.18C75.0245 58.18 75.0247 58.18 75.0249 58.18C75.0251 58.18 75.0254 58.18 75.0256 58.18C75.0258 58.18 75.026 58.18 75.0262 58.18C75.0264 58.18 75.0267 58.18 75.0269 58.18C75.0271 58.18 75.0273 58.18 75.0275 58.18C75.0278 58.18 75.028 58.18 75.0282 58.18C75.0284 58.18 75.0286 58.18 75.0288 58.18C75.0291 58.18 75.0293 58.18 75.0295 58.18C75.0297 58.18 75.0299 58.18 75.0301 58.18C75.0304 58.18 75.0306 58.18 75.0308 58.18C75.031 58.18 75.0312 58.18 75.0315 58.18C75.0317 58.18 75.0319 58.18 75.0321 58.18C75.0323 58.18 75.0325 58.18 75.0328 58.18C75.033 58.18 75.0332 58.18 75.0334 58.18C75.0336 58.18 75.0338 58.18 75.0341 58.18C75.0343 58.18 75.0345 58.18 75.0347 58.18C75.0349 58.18 75.0351 58.18 75.0354 58.18C75.0356 58.18 75.0358 58.18 75.036 58.18C75.0362 58.18 75.0364 58.18 75.0366 58.18C75.0369 58.18 75.0371 58.18 75.0373 58.18C75.0375 58.18 75.0377 58.18 75.0379 58.18C75.0382 58.18 75.0384 58.18 75.0386 58.18C75.0388 58.18 75.039 58.18 75.0392 58.18C75.0394 58.18 75.0397 58.18 75.0399 58.18C75.0401 58.18 75.0403 58.18 75.0405 58.18C75.0407 58.18 75.041 58.18 75.0412 58.18C75.0414 58.18 75.0416 58.18 75.0418 58.18C75.042 58.18 75.0422 58.18 75.0425 58.18C75.0427 58.18 75.0429 58.18 75.0431 58.18C75.0433 58.18 75.0435 58.18 75.0437 58.18C75.044 58.18 75.0442 58.18 75.0444 58.18C75.0446 58.18 75.0448 58.18 75.045 58.18C75.0452 58.18 75.0455 58.18 75.0457 58.18C75.0459 58.18 75.0461 58.18 75.0463 58.18C75.0465 58.18 75.0467 58.18 75.047 58.18C75.0472 58.18 75.0474 58.18 75.0476 58.18C75.0478 58.18 75.048 58.18 75.0482 58.18C75.0484 58.18 75.0487 58.18 75.0489 58.18C75.0491 58.18 75.0493 58.18 75.0495 58.18C75.0497 58.18 75.0499 58.18 75.0502 58.18C75.0504 58.18 75.0506 58.18 75.0508 58.18C75.051 58.18 75.0512 58.18 75.0514 58.18C75.0516 58.18 75.0519 58.18 75.0521 58.18C75.0523 58.18 75.0525 58.18 75.0527 58.18C75.0529 58.18 75.0531 58.18 75.0533 58.18C75.0536 58.18 75.0538 58.18 75.054 58.18C75.0542 58.18 75.0544 58.18 75.0546 58.18C75.0548 58.18 75.055 58.18 75.0553 58.18C75.0555 58.18 75.0557 58.18 75.0559 58.18C75.0561 58.18 75.0563 58.18 75.0565 58.18C75.0567 58.18 75.057 58.18 75.0572 58.18C75.0574 58.18 75.0576 58.18 75.0578 58.18C75.058 58.18 75.0582 58.18 75.0584 58.18C75.0586 58.18 75.0589 58.18 75.0591 58.18C75.0593 58.18 75.0595 58.18 75.0597 58.18C75.0599 58.18 75.0601 58.18 75.0603 58.18C75.0606 58.18 75.0608 58.18 75.061 58.18C75.0612 58.18 75.0614 58.18 75.0616 58.18C75.0618 58.18 75.062 58.18 75.0622 58.18C75.0625 58.18 75.0627 58.18 75.0629 58.18C75.0631 58.18 75.0633 58.18 75.0635 58.18C75.0637 58.18 75.0639 58.18 75.0641 58.18C75.0643 58.18 75.0646 58.18 75.0648 58.18C75.065 58.18 75.0652 58.18 75.0654 58.18C75.0656 58.18 75.0658 58.18 75.066 58.18C75.0662 58.18 75.0665 58.18 75.0667 58.18C75.0669 58.18 75.0671 58.18 75.0673 58.18C75.0675 58.18 75.0677 58.18 75.0679 58.18C75.0681 58.18 75.0683 58.18 75.0686 58.18C75.0688 58.18 75.069 58.18 75.0692 58.18C75.0694 58.18 75.0696 58.18 75.0698 58.18C75.07 58.18 75.0702 58.18 75.0704 58.18C75.0707 58.18 75.0709 58.18 75.0711 58.18C75.0713 58.18 75.0715 58.18 75.0717 58.18C75.0719 58.18 75.0721 58.18 75.0723 58.18C75.0725 58.18 75.0727 58.18 75.073 58.18C75.0732 58.18 75.0734 58.18 75.0736 58.18C75.0738 58.18 75.074 58.18 75.0742 58.18C75.0744 58.18 75.0746 58.18 75.0748 58.18C75.0751 58.18 75.0753 58.18 75.0755 58.18C75.0757 58.18 75.0759 58.18 75.0761 58.18C75.0763 58.18 75.0765 58.18 75.0767 58.18C75.0769 58.18 75.0771 58.18 75.0773 58.18C75.0776 58.18 75.0778 58.18 75.078 58.18C75.0782 58.18 75.0784 58.18 75.0786 58.18C75.0788 58.18 75.079 58.18 75.0792 58.18C75.0794 58.18 75.0796 58.18 75.0799 58.18C75.0801 58.18 75.0803 58.18 75.0805 58.18C75.0807 58.18 75.0809 58.18 75.0811 58.18C75.0813 58.18 75.0815 58.18 75.0817 58.18C75.0819 58.18 75.0821 58.18 75.0824 58.18C75.0826 58.18 75.0828 58.18 75.083 58.18C75.0832 58.18 75.0834 58.18 75.0836 58.18C75.0838 58.18 75.084 58.18 75.0842 58.18C75.0844 58.18 75.0846 58.18 75.0848 58.18C75.0851 58.18 75.0853 58.18 75.0855 58.18C75.0857 58.18 75.0859 58.18 75.0861 58.18C75.0863 58.18 75.0865 58.18 75.0867 58.18C75.0869 58.18 75.0871 58.18 75.0873 58.18C75.0875 58.18 75.0878 58.18 75.088 58.18C75.0882 58.18 75.0884 58.18 75.0886 58.18C75.0888 58.18 75.089 58.18 75.0892 58.18C75.0894 58.18 75.0896 58.18 75.0898 58.18C75.09 58.18 75.0902 58.18 75.0905 58.18C75.0907 58.18 75.0909 58.18 75.0911 58.18C75.0913 58.18 75.0915 58.18 75.0917 58.18C75.0919 58.18 75.0921 58.18 75.0923 58.18C75.0925 58.18 75.0927 58.18 75.0929 58.18C75.0931 58.18 75.0934 58.18 75.0936 58.18C75.0938 58.18 75.094 58.18 75.0942 58.18C75.0944 58.18 75.0946 58.18 75.0948 58.18C75.095 58.18 75.0952 58.18 75.0954 58.18C75.0956 58.18 75.0958 58.18 75.096 58.18C75.0962 58.18 75.0965 58.18 75.0967 58.18C75.0969 58.18 75.0971 58.18 75.0973 58.18C75.0975 58.18 75.0977 58.18 75.0979 58.18C75.0981 58.18 75.0983 58.18 75.0985 58.18C75.0987 58.18 75.0989 58.18 75.0991 58.18C75.0993 58.18 75.0996 58.18 75.0998 58.18C75.1 58.18 75.1002 58.18 75.1004 58.18C75.1006 58.18 75.1008 58.18 75.101 58.18C75.1012 58.18 75.1014 58.18 75.1016 58.18C75.1018 58.18 75.102 58.18 75.1022 58.18C75.1024 58.18 75.1026 58.18 75.1029 58.18C75.1031 58.18 75.1033 58.18 75.1035 58.18C75.1037 58.18 75.1039 58.18 75.1041 58.18C75.1043 58.18 75.1045 58.18 75.1047 58.18C75.1049 58.18 75.1051 58.18 75.1053 58.18C75.1055 58.18 75.1057 58.18 75.1059 58.18C75.1062 58.18 75.1064 58.18 75.1066 58.18C75.1068 58.18 75.107 58.18 75.1072 58.18C75.1074 58.18 75.1076 58.18 75.1078 58.18C75.108 58.18 75.1082 58.18 75.1084 58.18C75.1086 58.18 75.1088 58.18 75.109 58.18C75.1092 58.18 75.1094 58.18 75.1097 58.18C75.1099 58.18 75.1101 58.18 75.1103 58.18C75.1105 58.18 75.1107 58.18 75.1109 58.18C75.1111 58.18 75.1113 58.18 75.1115 58.18C75.1117 58.18 75.1119 58.18 75.1121 58.18C75.1123 58.18 75.1125 58.18 75.1127 58.18C75.1129 58.18 75.1131 58.18 75.1134 58.18C75.1136 58.18 75.1138 58.18 75.114 58.18C75.1142 58.18 75.1144 58.18 75.1146 58.18C75.1148 58.18 75.115 58.18 75.1152 58.18C75.1154 58.18 75.1156 58.18 75.1158 58.18C75.116 58.18 75.1162 58.18 75.1164 58.18C75.1166 58.18 75.1168 58.18 75.1171 58.18C75.1173 58.18 75.1175 58.18 75.1177 58.18C75.1179 58.18 75.1181 58.18 75.1183 58.18C75.1185 58.18 75.1187 58.18 75.1189 58.18C75.1191 58.18 75.1193 58.18 75.1195 58.18C75.1197 58.18 75.1199 58.18 75.1201 58.18C75.1203 58.18 75.1205 58.18 75.1207 58.18C75.121 58.18 75.1212 58.18 75.1214 58.18C75.1216 58.18 75.1218 58.18 75.122 58.18C75.1222 58.18 75.1224 58.18 75.1226 58.18C75.1228 58.18 75.123 58.18 75.1232 58.18C75.1234 58.18 75.1236 58.18 75.1238 58.18C75.124 58.18 75.1242 58.18 75.1244 58.18C75.1246 58.18 75.1249 58.18 75.1251 58.18C75.1253 58.18 75.1255 58.18 75.1257 58.18C75.1259 58.18 75.1261 58.18 75.1263 58.18C75.1265 58.18 75.1267 58.18 75.1269 58.18C75.1271 58.18 75.1273 58.18 75.1275 58.18C75.1277 58.18 75.1279 58.18 75.1281 58.18C75.1283 58.18 75.1285 58.18 75.1287 58.18C75.129 58.18 75.1292 58.18 75.1294 58.18C75.1296 58.18 75.1298 58.18 75.13 58.18C75.1302 58.18 75.1304 58.18 75.1306 58.18C75.1308 58.18 75.131 58.18 75.1312 58.18C75.1314 58.18 75.1316 58.18 75.1318 58.18C75.132 58.18 75.1322 58.18 75.1324 58.18C75.1326 58.18 75.1329 58.18 75.1331 58.18C75.1333 58.18 75.1335 58.18 75.1337 58.18C75.1339 58.18 75.1341 58.18 75.1343 58.18C75.1345 58.18 75.1347 58.18 75.1349 58.18C75.1351 58.18 75.1353 58.18 75.1355 58.18C75.1357 58.18 75.1359 58.18 75.1361 58.18C75.1363 58.18 75.1365 58.18 75.1367 58.18C75.137 58.18 75.1372 58.18 75.1374 58.18C75.1376 58.18 75.1378 58.18 75.138 58.18C75.1382 58.18 75.1384 58.18 75.1386 58.18C75.1388 58.18 75.139 58.18 75.1392 58.18C75.1394 58.18 75.1396 58.18 75.1398 58.18C75.14 58.18 75.1402 58.18 75.1404 58.18C75.1406 58.18 75.1409 58.18 75.1411 58.18C75.1413 58.18 75.1415 58.18 75.1417 58.18C75.1419 58.18 75.1421 58.18 75.1423 58.18C75.1425 58.18 75.1427 58.18 75.1429 58.18C75.1431 58.18 75.1433 58.18 75.1435 58.18C75.1437 58.18 75.1439 58.18 75.1441 58.18C75.1443 58.18 75.1445 58.18 75.1447 58.18C75.145 58.18 75.1452 58.18 75.1454 58.18C75.1456 58.18 75.1458 58.18 75.146 58.18C75.1462 58.18 75.1464 58.18 75.1466 58.18C75.1468 58.18 75.147 58.18 75.1472 58.18C75.1474 58.18 75.1476 58.18 75.1478 58.18C75.148 58.18 75.1482 58.18 75.1484 58.18C75.1486 58.18 75.1489 58.18 75.1491 58.18C75.1493 58.18 75.1495 58.18 75.1497 58.18C75.1499 58.18 75.1501 58.18 75.1503 58.18C75.1505 58.18 75.1507 58.18 75.1509 58.18C75.1511 58.18 75.1513 58.18 75.1515 58.18C75.1517 58.18 75.1519 58.18 75.1521 58.18C75.1523 58.18 75.1526 58.18 75.1528 58.18C75.153 58.18 75.1532 58.18 75.1534 58.18C75.1536 58.18 75.1538 58.18 75.154 58.18C75.1542 58.18 75.1544 58.18 75.1546 58.18C75.1548 58.18 75.155 58.18 75.1552 58.18C75.1554 58.18 75.1556 58.18 75.1558 58.18C75.156 58.18 75.1563 58.18 75.1565 58.18C75.1567 58.18 75.1569 58.18 75.1571 58.18C75.1573 58.18 75.1575 58.18 75.1577 58.18C75.1579 58.18 75.1581 58.18 75.1583 58.18C75.1585 58.18 75.1587 58.18 75.1589 58.18C75.1591 58.18 75.1593 58.18 75.1595 58.18C75.1597 58.18 75.16 58.18 75.1602 58.18C75.1604 58.18 75.1606 58.18 75.1608 58.18C75.161 58.18 75.1612 58.18 75.1614 58.18C75.1616 58.18 75.1618 58.18 75.162 58.18C75.1622 58.18 75.1624 58.18 75.1626 58.18C75.1628 58.18 75.163 58.18 75.1633 58.18C75.1635 58.18 75.1637 58.18 75.1639 58.18C75.1641 58.18 75.1643 58.18 75.1645 58.18C75.1647 58.18 75.1649 58.18 75.1651 58.18C75.1653 58.18 75.1655 58.18 75.1657 58.18C75.1659 58.18 75.1661 58.18 75.1663 58.18C75.1666 58.18 75.1668 58.18 75.167 58.18C75.1672 58.18 75.1674 58.18 75.1676 58.18C75.1678 58.18 75.168 58.18 75.1682 58.18C75.1684 58.18 75.1686 58.18 75.1688 58.18C75.169 58.18 75.1692 58.18 75.1694 58.18C75.1696 58.18 75.1699 58.18 75.1701 58.18C75.1703 58.18 75.1705 58.18 75.1707 58.18C75.1709 58.18 75.1711 58.18 75.1713 58.18C75.1715 58.18 75.1717 58.18 75.1719 58.18C75.1721 58.18 75.1723 58.18 75.1725 58.18C75.1728 58.18 75.173 58.18 75.1732 58.18C75.1734 58.18 75.1736 58.18 75.1738 58.18C75.174 58.18 75.1742 58.18 75.1744 58.18C75.1746 58.18 75.1748 58.18 75.175 58.18C75.1752 58.18 75.1754 58.18 75.1756 58.18C75.1759 58.18 75.1761 58.18 75.1763 58.18C75.1765 58.18 75.1767 58.18 75.1769 58.18C75.1771 58.18 75.1773 58.18 75.1775 58.18C75.1777 58.18 75.1779 58.18 75.1781 58.18C75.1783 58.18 75.1786 58.18 75.1788 58.18C75.179 58.18 75.1792 58.18 75.1794 58.18C75.1796 58.18 75.1798 58.18 75.18 58.18C75.1802 58.18 75.1804 58.18 75.1806 58.18C75.1808 58.18 75.181 58.18 75.1812 58.18C75.1815 58.18 75.1817 58.18 75.1819 58.18C75.1821 58.18 75.1823 58.18 75.1825 58.18C75.1827 58.18 75.1829 58.18 75.1831 58.18C75.1833 58.18 75.1835 58.18 75.1837 58.18C75.184 58.18 75.1842 58.18 75.1844 58.18C75.1846 58.18 75.1848 58.18 75.185 58.18C75.1852 58.18 75.1854 58.18 75.1856 58.18C75.1858 58.18 75.186 58.18 75.1862 58.18C75.1864 58.18 75.1867 58.18 75.1869 58.18C75.1871 58.18 75.1873 58.18 75.1875 58.18C75.1877 58.18 75.1879 58.18 75.1881 58.18C75.1883 58.18 75.1885 58.18 75.1887 58.18C75.189 58.18 75.1892 58.18 75.1894 58.18C75.1896 58.18 75.1898 58.18 75.19 58.18C75.1902 58.18 75.1904 58.18 75.1906 58.18C75.1908 58.18 75.191 58.18 75.1912 58.18C75.1915 58.18 75.1917 58.18 75.1919 58.18C75.1921 58.18 75.1923 58.18 75.1925 58.18C75.1927 58.18 75.1929 58.18 75.1931 58.18C75.1933 58.18 75.1935 58.18 75.1938 58.18C75.194 58.18 75.1942 58.18 75.1944 58.18C75.1946 58.18 75.1948 58.18 75.195 58.18C75.1952 58.18 75.1954 58.18 75.1956 58.18C75.1959 58.18 75.1961 58.18 75.1963 58.18C75.1965 58.18 75.1967 58.18 75.1969 58.18C75.1971 58.18 75.1973 58.18 75.1975 58.18C75.1977 58.18 75.1979 58.18 75.1982 58.18C75.1984 58.18 75.1986 58.18 75.1988 58.18C75.199 58.18 75.1992 58.18 75.1994 58.18C75.1996 58.18 75.1998 58.18 75.2001 58.18C75.2003 58.18 75.2005 58.18 75.2007 58.18C75.2009 58.18 75.2011 58.18 75.2013 58.18C75.2015 58.18 75.2017 58.18 75.2019 58.18C75.2022 58.18 75.2024 58.18 75.2026 58.18C75.2028 58.18 75.203 58.18 75.2032 58.18C75.2034 58.18 75.2036 58.18 75.2038 58.18C75.2041 58.18 75.2043 58.18 75.2045 58.18C75.2047 58.18 75.2049 58.18 75.2051 58.18C75.2053 58.18 75.2055 58.18 75.2057 58.18C75.2059 58.18 75.2062 58.18 75.2064 58.18C75.2066 58.18 75.2068 58.18 75.207 58.18C75.2072 58.18 75.2074 58.18 75.2076 58.18C75.2078 58.18 75.2081 58.18 75.2083 58.18C75.2085 58.18 75.2087 58.18 75.2089 58.18C75.2091 58.18 75.2093 58.18 75.2095 58.18C75.2098 58.18 75.21 58.18 75.2102 58.18C75.2104 58.18 75.2106 58.18 75.2108 58.18C75.211 58.18 75.2112 58.18 75.2114 58.18C75.2117 58.18 75.2119 58.18 75.2121 58.18C75.2123 58.18 75.2125 58.18 75.2127 58.18C75.2129 58.18 75.2131 58.18 75.2134 58.18C75.2136 58.18 75.2138 58.18 75.214 58.18C75.2142 58.18 75.2144 58.18 75.2146 58.18C75.2148 58.18 75.2151 58.18 75.2153 58.18C75.2155 58.18 75.2157 58.18 75.2159 58.18C75.2161 58.18 75.2163 58.18 75.2165 58.18C75.2168 58.18 75.217 58.18 75.2172 58.18C75.2174 58.18 75.2176 58.18 75.2178 58.18C75.218 58.18 75.2183 58.18 75.2185 58.18C75.2187 58.18 75.2189 58.18 75.2191 58.18C75.2193 58.18 75.2195 58.18 75.2197 58.18C75.22 58.18 75.2202 58.18 75.2204 58.18C75.2206 58.18 75.2208 58.18 75.221 58.18C75.2212 58.18 75.2215 58.18 75.2217 58.18C75.2219 58.18 75.2221 58.18 75.2223 58.18C75.2225 58.18 75.2227 58.18 75.223 58.18C75.2232 58.18 75.2234 58.18 75.2236 58.18C75.2238 58.18 75.224 58.18 75.2242 58.18C75.2245 58.18 75.2247 58.18 75.2249 58.18C75.2251 58.18 75.2253 58.18 75.2255 58.18C75.2257 58.18 75.226 58.18 75.2262 58.18C75.2264 58.18 75.2266 58.18 75.2268 58.18C75.227 58.18 75.2273 58.18 75.2275 58.18C75.2277 58.18 75.2279 58.18 75.2281 58.18C75.2283 58.18 75.2285 58.18 75.2288 58.18C75.229 58.18 75.2292 58.18 75.2294 58.18C75.2296 58.18 75.2298 58.18 75.2301 58.18C75.2303 58.18 75.2305 58.18 75.2307 58.18C75.2309 58.18 75.2311 58.18 75.2313 58.18C75.2316 58.18 75.2318 58.18 75.232 58.18C75.2322 58.18 75.2324 58.18 75.2326 58.18C75.2329 58.18 75.2331 58.18 75.2333 58.18C75.2335 58.18 75.2337 58.18 75.2339 58.18C75.2342 58.18 75.2344 58.18 75.2346 58.18C75.2348 58.18 75.235 58.18 75.2352 58.18C75.2355 58.18 75.2357 58.18 75.2359 58.18C75.2361 58.18 75.2363 58.18 75.2365 58.18C75.2368 58.18 75.237 58.18 75.2372 58.18C75.2374 58.18 75.2376 58.18 75.2378 58.18C75.2381 58.18 75.2383 58.18 75.2385 58.18C75.2387 58.18 75.2389 58.18 75.2392 58.18C75.2394 58.18 75.2396 58.18 75.2398 58.18C75.24 58.18 75.2402 58.18 75.2405 58.18C75.2407 58.18 75.2409 58.18 75.2411 58.18C75.2413 58.18 75.2415 58.18 75.2418 58.18C75.242 58.18 75.2422 58.18 75.2424 58.18C75.2426 58.18 75.2429 58.18 75.2431 58.18C75.2433 58.18 75.2435 58.18 75.2437 58.18C75.244 58.18 75.2442 58.18 75.2444 58.18C75.2446 58.18 75.2448 58.18 75.245 58.18C75.2453 58.18 75.2455 58.18 75.2457 58.18C75.2459 58.18 75.2461 58.18 75.2464 58.18C75.2466 58.18 75.2468 58.18 75.247 58.18C75.2472 58.18 75.2475 58.18 75.2477 58.18C75.2479 58.18 75.2481 58.18 75.2483 58.18C75.2486 58.18 75.2488 58.18 75.249 58.18C75.2492 58.18 75.2494 58.18 75.2497 58.18C75.2499 58.18 75.2501 58.18 75.2503 58.18C75.2505 58.18 75.2508 58.18 75.251 58.18C75.2512 58.18 75.2514 58.18 75.2516 58.18C75.2519 58.18 75.2521 58.18 75.2523 58.18C75.2525 58.18 75.2527 58.18 75.253 58.18C75.2532 58.18 75.2534 58.18 75.2536 58.18C75.2539 58.18 75.2541 58.18 75.2543 58.18C75.2545 58.18 75.2547 58.18 75.255 58.18C75.2552 58.18 75.2554 58.18 75.2556 58.18C75.2558 58.18 75.2561 58.18 75.2563 58.18C75.2565 58.18 75.2567 58.18 75.257 58.18C75.2572 58.18 75.2574 58.18 75.2576 58.18C75.2578 58.18 75.2581 58.18 75.2583 58.18C75.2585 58.18 75.2587 58.18 75.259 58.18C75.2592 58.18 75.2594 58.18 75.2596 58.18C75.2598 58.18 75.2601 58.18 75.2603 58.18C75.2605 58.18 75.2607 58.18 75.261 58.18C75.2612 58.18 75.2614 58.18 75.2616 58.18C75.2619 58.18 75.2621 58.18 75.2623 58.18C75.2625 58.18 75.2628 58.18 75.263 58.18C75.2632 58.18 75.2634 58.18 75.2636 58.18C75.2639 58.18 75.2641 58.18 75.2643 58.18C75.2645 58.18 75.2648 58.18 75.265 58.18C75.2652 58.18 75.2654 58.18 75.2657 58.18C75.2659 58.18 75.2661 58.18 75.2663 58.18C75.2666 58.18 75.2668 58.18 75.267 58.18C75.2672 58.18 75.2675 58.18 75.2677 58.18C75.2679 58.18 75.2681 58.18 75.2684 58.18C75.2686 58.18 75.2688 58.18 75.269 58.18C75.2693 58.18 75.2695 58.18 75.2697 58.18C75.2699 58.18 75.2702 58.18 75.2704 58.18C75.2706 58.18 75.2708 58.18 75.2711 58.18C75.2713 58.18 75.2715 58.18 75.2717 58.18C75.272 58.18 75.2722 58.18 75.2724 58.18C75.2726 58.18 75.2729 58.18 75.2731 58.18C75.2733 58.18 75.2736 58.18 75.2738 58.18C75.274 58.18 75.2742 58.18 75.2745 58.18C75.2747 58.18 75.2749 58.18 75.2751 58.18C75.2754 58.18 75.2756 58.18 75.2758 58.18C75.2761 58.18 75.2763 58.18 75.2765 58.18C75.2767 58.18 75.277 58.18 75.2772 58.18C75.2774 58.18 75.2776 58.18 75.2779 58.18C75.2781 58.18 75.2783 58.18 75.2786 58.18C75.2788 58.18 75.279 58.18 75.2792 58.18C75.2795 58.18 75.2797 58.18 75.2799 58.18C75.2802 58.18 75.2804 58.18 75.2806 58.18C75.2808 58.18 75.2811 58.18 75.2813 58.18C75.2815 58.18 75.2818 58.18 75.282 58.18C75.2822 58.18 75.2824 58.18 75.2827 58.18C75.2829 58.18 75.2831 58.18 75.2834 58.18C75.2836 58.18 75.2838 58.18 75.2841 58.18C75.2843 58.18 75.2845 58.18 75.2847 58.18C75.285 58.18 75.2852 58.18 75.2854 58.18C75.2857 58.18 75.2859 58.18 75.2861 58.18C75.2864 58.18 75.2866 58.18 75.2868 58.18C75.287 58.18 75.2873 58.18 75.2875 58.18C75.2877 58.18 75.288 58.18 75.2882 58.18C75.2884 58.18 75.2887 58.18 75.2889 58.18C75.2891 58.18 75.2894 58.18 75.2896 58.18C75.2898 58.18 75.2901 58.18 75.2903 58.18C75.2905 58.18 75.2907 58.18 75.291 58.18C75.2912 58.18 75.2914 58.18 75.2917 58.18C75.2919 58.18 75.2921 58.18 75.2924 58.18C75.2926 58.18 75.2928 58.18 75.2931 58.18C75.2933 58.18 75.2935 58.18 75.2938 58.18C75.294 58.18 75.2942 58.18 75.2945 58.18C75.2947 58.18 75.2949 58.18 75.2952 58.18C75.2954 58.18 75.2956 58.18 75.2959 58.18C75.2961 58.18 75.2963 58.18 75.2966 58.18C75.2968 58.18 75.297 58.18 75.2973 58.18C75.2975 58.18 75.2977 58.18 75.298 58.18C75.2982 58.18 75.2984 58.18 75.2987 58.18V56.18C75.2984 56.18 75.2982 56.18 75.298 56.18C75.2977 56.18 75.2975 56.18 75.2973 56.18C75.297 56.18 75.2968 56.18 75.2966 56.18C75.2963 56.18 75.2961 56.18 75.2959 56.18C75.2956 56.18 75.2954 56.18 75.2952 56.18C75.2949 56.18 75.2947 56.18 75.2945 56.18C75.2942 56.18 75.294 56.18 75.2938 56.18C75.2935 56.18 75.2933 56.18 75.2931 56.18C75.2928 56.18 75.2926 56.18 75.2924 56.18C75.2921 56.18 75.2919 56.18 75.2917 56.18C75.2914 56.18 75.2912 56.18 75.291 56.18C75.2907 56.18 75.2905 56.18 75.2903 56.18C75.2901 56.18 75.2898 56.18 75.2896 56.18C75.2894 56.18 75.2891 56.18 75.2889 56.18C75.2887 56.18 75.2884 56.18 75.2882 56.18C75.288 56.18 75.2877 56.18 75.2875 56.18C75.2873 56.18 75.287 56.18 75.2868 56.18C75.2866 56.18 75.2864 56.18 75.2861 56.18C75.2859 56.18 75.2857 56.18 75.2854 56.18C75.2852 56.18 75.285 56.18 75.2847 56.18C75.2845 56.18 75.2843 56.18 75.2841 56.18C75.2838 56.18 75.2836 56.18 75.2834 56.18C75.2831 56.18 75.2829 56.18 75.2827 56.18C75.2824 56.18 75.2822 56.18 75.282 56.18C75.2818 56.18 75.2815 56.18 75.2813 56.18C75.2811 56.18 75.2808 56.18 75.2806 56.18C75.2804 56.18 75.2802 56.18 75.2799 56.18C75.2797 56.18 75.2795 56.18 75.2792 56.18C75.279 56.18 75.2788 56.18 75.2786 56.18C75.2783 56.18 75.2781 56.18 75.2779 56.18C75.2776 56.18 75.2774 56.18 75.2772 56.18C75.277 56.18 75.2767 56.18 75.2765 56.18C75.2763 56.18 75.2761 56.18 75.2758 56.18C75.2756 56.18 75.2754 56.18 75.2751 56.18C75.2749 56.18 75.2747 56.18 75.2745 56.18C75.2742 56.18 75.274 56.18 75.2738 56.18C75.2736 56.18 75.2733 56.18 75.2731 56.18C75.2729 56.18 75.2726 56.18 75.2724 56.18C75.2722 56.18 75.272 56.18 75.2717 56.18C75.2715 56.18 75.2713 56.18 75.2711 56.18C75.2708 56.18 75.2706 56.18 75.2704 56.18C75.2702 56.18 75.2699 56.18 75.2697 56.18C75.2695 56.18 75.2693 56.18 75.269 56.18C75.2688 56.18 75.2686 56.18 75.2684 56.18C75.2681 56.18 75.2679 56.18 75.2677 56.18C75.2675 56.18 75.2672 56.18 75.267 56.18C75.2668 56.18 75.2666 56.18 75.2663 56.18C75.2661 56.18 75.2659 56.18 75.2657 56.18C75.2654 56.18 75.2652 56.18 75.265 56.18C75.2648 56.18 75.2645 56.18 75.2643 56.18C75.2641 56.18 75.2639 56.18 75.2636 56.18C75.2634 56.18 75.2632 56.18 75.263 56.18C75.2628 56.18 75.2625 56.18 75.2623 56.18C75.2621 56.18 75.2619 56.18 75.2616 56.18C75.2614 56.18 75.2612 56.18 75.261 56.18C75.2607 56.18 75.2605 56.18 75.2603 56.18C75.2601 56.18 75.2598 56.18 75.2596 56.18C75.2594 56.18 75.2592 56.18 75.259 56.18C75.2587 56.18 75.2585 56.18 75.2583 56.18C75.2581 56.18 75.2578 56.18 75.2576 56.18C75.2574 56.18 75.2572 56.18 75.257 56.18C75.2567 56.18 75.2565 56.18 75.2563 56.18C75.2561 56.18 75.2558 56.18 75.2556 56.18C75.2554 56.18 75.2552 56.18 75.255 56.18C75.2547 56.18 75.2545 56.18 75.2543 56.18C75.2541 56.18 75.2539 56.18 75.2536 56.18C75.2534 56.18 75.2532 56.18 75.253 56.18C75.2527 56.18 75.2525 56.18 75.2523 56.18C75.2521 56.18 75.2519 56.18 75.2516 56.18C75.2514 56.18 75.2512 56.18 75.251 56.18C75.2508 56.18 75.2505 56.18 75.2503 56.18C75.2501 56.18 75.2499 56.18 75.2497 56.18C75.2494 56.18 75.2492 56.18 75.249 56.18C75.2488 56.18 75.2486 56.18 75.2483 56.18C75.2481 56.18 75.2479 56.18 75.2477 56.18C75.2475 56.18 75.2472 56.18 75.247 56.18C75.2468 56.18 75.2466 56.18 75.2464 56.18C75.2461 56.18 75.2459 56.18 75.2457 56.18C75.2455 56.18 75.2453 56.18 75.245 56.18C75.2448 56.18 75.2446 56.18 75.2444 56.18C75.2442 56.18 75.244 56.18 75.2437 56.18C75.2435 56.18 75.2433 56.18 75.2431 56.18C75.2429 56.18 75.2426 56.18 75.2424 56.18C75.2422 56.18 75.242 56.18 75.2418 56.18C75.2415 56.18 75.2413 56.18 75.2411 56.18C75.2409 56.18 75.2407 56.18 75.2405 56.18C75.2402 56.18 75.24 56.18 75.2398 56.18C75.2396 56.18 75.2394 56.18 75.2392 56.18C75.2389 56.18 75.2387 56.18 75.2385 56.18C75.2383 56.18 75.2381 56.18 75.2378 56.18C75.2376 56.18 75.2374 56.18 75.2372 56.18C75.237 56.18 75.2368 56.18 75.2365 56.18C75.2363 56.18 75.2361 56.18 75.2359 56.18C75.2357 56.18 75.2355 56.18 75.2352 56.18C75.235 56.18 75.2348 56.18 75.2346 56.18C75.2344 56.18 75.2342 56.18 75.2339 56.18C75.2337 56.18 75.2335 56.18 75.2333 56.18C75.2331 56.18 75.2329 56.18 75.2326 56.18C75.2324 56.18 75.2322 56.18 75.232 56.18C75.2318 56.18 75.2316 56.18 75.2313 56.18C75.2311 56.18 75.2309 56.18 75.2307 56.18C75.2305 56.18 75.2303 56.18 75.2301 56.18C75.2298 56.18 75.2296 56.18 75.2294 56.18C75.2292 56.18 75.229 56.18 75.2288 56.18C75.2285 56.18 75.2283 56.18 75.2281 56.18C75.2279 56.18 75.2277 56.18 75.2275 56.18C75.2273 56.18 75.227 56.18 75.2268 56.18C75.2266 56.18 75.2264 56.18 75.2262 56.18C75.226 56.18 75.2257 56.18 75.2255 56.18C75.2253 56.18 75.2251 56.18 75.2249 56.18C75.2247 56.18 75.2245 56.18 75.2242 56.18C75.224 56.18 75.2238 56.18 75.2236 56.18C75.2234 56.18 75.2232 56.18 75.223 56.18C75.2227 56.18 75.2225 56.18 75.2223 56.18C75.2221 56.18 75.2219 56.18 75.2217 56.18C75.2215 56.18 75.2212 56.18 75.221 56.18C75.2208 56.18 75.2206 56.18 75.2204 56.18C75.2202 56.18 75.22 56.18 75.2197 56.18C75.2195 56.18 75.2193 56.18 75.2191 56.18C75.2189 56.18 75.2187 56.18 75.2185 56.18C75.2183 56.18 75.218 56.18 75.2178 56.18C75.2176 56.18 75.2174 56.18 75.2172 56.18C75.217 56.18 75.2168 56.18 75.2165 56.18C75.2163 56.18 75.2161 56.18 75.2159 56.18C75.2157 56.18 75.2155 56.18 75.2153 56.18C75.2151 56.18 75.2148 56.18 75.2146 56.18C75.2144 56.18 75.2142 56.18 75.214 56.18C75.2138 56.18 75.2136 56.18 75.2134 56.18C75.2131 56.18 75.2129 56.18 75.2127 56.18C75.2125 56.18 75.2123 56.18 75.2121 56.18C75.2119 56.18 75.2117 56.18 75.2114 56.18C75.2112 56.18 75.211 56.18 75.2108 56.18C75.2106 56.18 75.2104 56.18 75.2102 56.18C75.21 56.18 75.2098 56.18 75.2095 56.18C75.2093 56.18 75.2091 56.18 75.2089 56.18C75.2087 56.18 75.2085 56.18 75.2083 56.18C75.2081 56.18 75.2078 56.18 75.2076 56.18C75.2074 56.18 75.2072 56.18 75.207 56.18C75.2068 56.18 75.2066 56.18 75.2064 56.18C75.2062 56.18 75.2059 56.18 75.2057 56.18C75.2055 56.18 75.2053 56.18 75.2051 56.18C75.2049 56.18 75.2047 56.18 75.2045 56.18C75.2043 56.18 75.2041 56.18 75.2038 56.18C75.2036 56.18 75.2034 56.18 75.2032 56.18C75.203 56.18 75.2028 56.18 75.2026 56.18C75.2024 56.18 75.2022 56.18 75.2019 56.18C75.2017 56.18 75.2015 56.18 75.2013 56.18C75.2011 56.18 75.2009 56.18 75.2007 56.18C75.2005 56.18 75.2003 56.18 75.2001 56.18C75.1998 56.18 75.1996 56.18 75.1994 56.18C75.1992 56.18 75.199 56.18 75.1988 56.18C75.1986 56.18 75.1984 56.18 75.1982 56.18C75.1979 56.18 75.1977 56.18 75.1975 56.18C75.1973 56.18 75.1971 56.18 75.1969 56.18C75.1967 56.18 75.1965 56.18 75.1963 56.18C75.1961 56.18 75.1959 56.18 75.1956 56.18C75.1954 56.18 75.1952 56.18 75.195 56.18C75.1948 56.18 75.1946 56.18 75.1944 56.18C75.1942 56.18 75.194 56.18 75.1938 56.18C75.1935 56.18 75.1933 56.18 75.1931 56.18C75.1929 56.18 75.1927 56.18 75.1925 56.18C75.1923 56.18 75.1921 56.18 75.1919 56.18C75.1917 56.18 75.1915 56.18 75.1912 56.18C75.191 56.18 75.1908 56.18 75.1906 56.18C75.1904 56.18 75.1902 56.18 75.19 56.18C75.1898 56.18 75.1896 56.18 75.1894 56.18C75.1892 56.18 75.189 56.18 75.1887 56.18C75.1885 56.18 75.1883 56.18 75.1881 56.18C75.1879 56.18 75.1877 56.18 75.1875 56.18C75.1873 56.18 75.1871 56.18 75.1869 56.18C75.1867 56.18 75.1864 56.18 75.1862 56.18C75.186 56.18 75.1858 56.18 75.1856 56.18C75.1854 56.18 75.1852 56.18 75.185 56.18C75.1848 56.18 75.1846 56.18 75.1844 56.18C75.1842 56.18 75.184 56.18 75.1837 56.18C75.1835 56.18 75.1833 56.18 75.1831 56.18C75.1829 56.18 75.1827 56.18 75.1825 56.18C75.1823 56.18 75.1821 56.18 75.1819 56.18C75.1817 56.18 75.1815 56.18 75.1812 56.18C75.181 56.18 75.1808 56.18 75.1806 56.18C75.1804 56.18 75.1802 56.18 75.18 56.18C75.1798 56.18 75.1796 56.18 75.1794 56.18C75.1792 56.18 75.179 56.18 75.1788 56.18C75.1786 56.18 75.1783 56.18 75.1781 56.18C75.1779 56.18 75.1777 56.18 75.1775 56.18C75.1773 56.18 75.1771 56.18 75.1769 56.18C75.1767 56.18 75.1765 56.18 75.1763 56.18C75.1761 56.18 75.1759 56.18 75.1756 56.18C75.1754 56.18 75.1752 56.18 75.175 56.18C75.1748 56.18 75.1746 56.18 75.1744 56.18C75.1742 56.18 75.174 56.18 75.1738 56.18C75.1736 56.18 75.1734 56.18 75.1732 56.18C75.173 56.18 75.1728 56.18 75.1725 56.18C75.1723 56.18 75.1721 56.18 75.1719 56.18C75.1717 56.18 75.1715 56.18 75.1713 56.18C75.1711 56.18 75.1709 56.18 75.1707 56.18C75.1705 56.18 75.1703 56.18 75.1701 56.18C75.1699 56.18 75.1696 56.18 75.1694 56.18C75.1692 56.18 75.169 56.18 75.1688 56.18C75.1686 56.18 75.1684 56.18 75.1682 56.18C75.168 56.18 75.1678 56.18 75.1676 56.18C75.1674 56.18 75.1672 56.18 75.167 56.18C75.1668 56.18 75.1666 56.18 75.1663 56.18C75.1661 56.18 75.1659 56.18 75.1657 56.18C75.1655 56.18 75.1653 56.18 75.1651 56.18C75.1649 56.18 75.1647 56.18 75.1645 56.18C75.1643 56.18 75.1641 56.18 75.1639 56.18C75.1637 56.18 75.1635 56.18 75.1633 56.18C75.163 56.18 75.1628 56.18 75.1626 56.18C75.1624 56.18 75.1622 56.18 75.162 56.18C75.1618 56.18 75.1616 56.18 75.1614 56.18C75.1612 56.18 75.161 56.18 75.1608 56.18C75.1606 56.18 75.1604 56.18 75.1602 56.18C75.16 56.18 75.1597 56.18 75.1595 56.18C75.1593 56.18 75.1591 56.18 75.1589 56.18C75.1587 56.18 75.1585 56.18 75.1583 56.18C75.1581 56.18 75.1579 56.18 75.1577 56.18C75.1575 56.18 75.1573 56.18 75.1571 56.18C75.1569 56.18 75.1567 56.18 75.1565 56.18C75.1563 56.18 75.156 56.18 75.1558 56.18C75.1556 56.18 75.1554 56.18 75.1552 56.18C75.155 56.18 75.1548 56.18 75.1546 56.18C75.1544 56.18 75.1542 56.18 75.154 56.18C75.1538 56.18 75.1536 56.18 75.1534 56.18C75.1532 56.18 75.153 56.18 75.1528 56.18C75.1526 56.18 75.1523 56.18 75.1521 56.18C75.1519 56.18 75.1517 56.18 75.1515 56.18C75.1513 56.18 75.1511 56.18 75.1509 56.18C75.1507 56.18 75.1505 56.18 75.1503 56.18C75.1501 56.18 75.1499 56.18 75.1497 56.18C75.1495 56.18 75.1493 56.18 75.1491 56.18C75.1489 56.18 75.1486 56.18 75.1484 56.18C75.1482 56.18 75.148 56.18 75.1478 56.18C75.1476 56.18 75.1474 56.18 75.1472 56.18C75.147 56.18 75.1468 56.18 75.1466 56.18C75.1464 56.18 75.1462 56.18 75.146 56.18C75.1458 56.18 75.1456 56.18 75.1454 56.18C75.1452 56.18 75.145 56.18 75.1447 56.18C75.1445 56.18 75.1443 56.18 75.1441 56.18C75.1439 56.18 75.1437 56.18 75.1435 56.18C75.1433 56.18 75.1431 56.18 75.1429 56.18C75.1427 56.18 75.1425 56.18 75.1423 56.18C75.1421 56.18 75.1419 56.18 75.1417 56.18C75.1415 56.18 75.1413 56.18 75.1411 56.18C75.1409 56.18 75.1406 56.18 75.1404 56.18C75.1402 56.18 75.14 56.18 75.1398 56.18C75.1396 56.18 75.1394 56.18 75.1392 56.18C75.139 56.18 75.1388 56.18 75.1386 56.18C75.1384 56.18 75.1382 56.18 75.138 56.18C75.1378 56.18 75.1376 56.18 75.1374 56.18C75.1372 56.18 75.137 56.18 75.1367 56.18C75.1365 56.18 75.1363 56.18 75.1361 56.18C75.1359 56.18 75.1357 56.18 75.1355 56.18C75.1353 56.18 75.1351 56.18 75.1349 56.18C75.1347 56.18 75.1345 56.18 75.1343 56.18C75.1341 56.18 75.1339 56.18 75.1337 56.18C75.1335 56.18 75.1333 56.18 75.1331 56.18C75.1329 56.18 75.1326 56.18 75.1324 56.18C75.1322 56.18 75.132 56.18 75.1318 56.18C75.1316 56.18 75.1314 56.18 75.1312 56.18C75.131 56.18 75.1308 56.18 75.1306 56.18C75.1304 56.18 75.1302 56.18 75.13 56.18C75.1298 56.18 75.1296 56.18 75.1294 56.18C75.1292 56.18 75.129 56.18 75.1287 56.18C75.1285 56.18 75.1283 56.18 75.1281 56.18C75.1279 56.18 75.1277 56.18 75.1275 56.18C75.1273 56.18 75.1271 56.18 75.1269 56.18C75.1267 56.18 75.1265 56.18 75.1263 56.18C75.1261 56.18 75.1259 56.18 75.1257 56.18C75.1255 56.18 75.1253 56.18 75.1251 56.18C75.1249 56.18 75.1246 56.18 75.1244 56.18C75.1242 56.18 75.124 56.18 75.1238 56.18C75.1236 56.18 75.1234 56.18 75.1232 56.18C75.123 56.18 75.1228 56.18 75.1226 56.18C75.1224 56.18 75.1222 56.18 75.122 56.18C75.1218 56.18 75.1216 56.18 75.1214 56.18C75.1212 56.18 75.121 56.18 75.1207 56.18C75.1205 56.18 75.1203 56.18 75.1201 56.18C75.1199 56.18 75.1197 56.18 75.1195 56.18C75.1193 56.18 75.1191 56.18 75.1189 56.18C75.1187 56.18 75.1185 56.18 75.1183 56.18C75.1181 56.18 75.1179 56.18 75.1177 56.18C75.1175 56.18 75.1173 56.18 75.1171 56.18C75.1168 56.18 75.1166 56.18 75.1164 56.18C75.1162 56.18 75.116 56.18 75.1158 56.18C75.1156 56.18 75.1154 56.18 75.1152 56.18C75.115 56.18 75.1148 56.18 75.1146 56.18C75.1144 56.18 75.1142 56.18 75.114 56.18C75.1138 56.18 75.1136 56.18 75.1134 56.18C75.1131 56.18 75.1129 56.18 75.1127 56.18C75.1125 56.18 75.1123 56.18 75.1121 56.18C75.1119 56.18 75.1117 56.18 75.1115 56.18C75.1113 56.18 75.1111 56.18 75.1109 56.18C75.1107 56.18 75.1105 56.18 75.1103 56.18C75.1101 56.18 75.1099 56.18 75.1097 56.18C75.1094 56.18 75.1092 56.18 75.109 56.18C75.1088 56.18 75.1086 56.18 75.1084 56.18C75.1082 56.18 75.108 56.18 75.1078 56.18C75.1076 56.18 75.1074 56.18 75.1072 56.18C75.107 56.18 75.1068 56.18 75.1066 56.18C75.1064 56.18 75.1062 56.18 75.1059 56.18C75.1057 56.18 75.1055 56.18 75.1053 56.18C75.1051 56.18 75.1049 56.18 75.1047 56.18C75.1045 56.18 75.1043 56.18 75.1041 56.18C75.1039 56.18 75.1037 56.18 75.1035 56.18C75.1033 56.18 75.1031 56.18 75.1029 56.18C75.1026 56.18 75.1024 56.18 75.1022 56.18C75.102 56.18 75.1018 56.18 75.1016 56.18C75.1014 56.18 75.1012 56.18 75.101 56.18C75.1008 56.18 75.1006 56.18 75.1004 56.18C75.1002 56.18 75.1 56.18 75.0998 56.18C75.0996 56.18 75.0993 56.18 75.0991 56.18C75.0989 56.18 75.0987 56.18 75.0985 56.18C75.0983 56.18 75.0981 56.18 75.0979 56.18C75.0977 56.18 75.0975 56.18 75.0973 56.18C75.0971 56.18 75.0969 56.18 75.0967 56.18C75.0965 56.18 75.0962 56.18 75.096 56.18C75.0958 56.18 75.0956 56.18 75.0954 56.18C75.0952 56.18 75.095 56.18 75.0948 56.18C75.0946 56.18 75.0944 56.18 75.0942 56.18C75.094 56.18 75.0938 56.18 75.0936 56.18C75.0934 56.18 75.0931 56.18 75.0929 56.18C75.0927 56.18 75.0925 56.18 75.0923 56.18C75.0921 56.18 75.0919 56.18 75.0917 56.18C75.0915 56.18 75.0913 56.18 75.0911 56.18C75.0909 56.18 75.0907 56.18 75.0905 56.18C75.0902 56.18 75.09 56.18 75.0898 56.18C75.0896 56.18 75.0894 56.18 75.0892 56.18C75.089 56.18 75.0888 56.18 75.0886 56.18C75.0884 56.18 75.0882 56.18 75.088 56.18C75.0878 56.18 75.0875 56.18 75.0873 56.18C75.0871 56.18 75.0869 56.18 75.0867 56.18C75.0865 56.18 75.0863 56.18 75.0861 56.18C75.0859 56.18 75.0857 56.18 75.0855 56.18C75.0853 56.18 75.0851 56.18 75.0848 56.18C75.0846 56.18 75.0844 56.18 75.0842 56.18C75.084 56.18 75.0838 56.18 75.0836 56.18C75.0834 56.18 75.0832 56.18 75.083 56.18C75.0828 56.18 75.0826 56.18 75.0824 56.18C75.0821 56.18 75.0819 56.18 75.0817 56.18C75.0815 56.18 75.0813 56.18 75.0811 56.18C75.0809 56.18 75.0807 56.18 75.0805 56.18C75.0803 56.18 75.0801 56.18 75.0799 56.18C75.0796 56.18 75.0794 56.18 75.0792 56.18C75.079 56.18 75.0788 56.18 75.0786 56.18C75.0784 56.18 75.0782 56.18 75.078 56.18C75.0778 56.18 75.0776 56.18 75.0773 56.18C75.0771 56.18 75.0769 56.18 75.0767 56.18C75.0765 56.18 75.0763 56.18 75.0761 56.18C75.0759 56.18 75.0757 56.18 75.0755 56.18C75.0753 56.18 75.0751 56.18 75.0748 56.18C75.0746 56.18 75.0744 56.18 75.0742 56.18C75.074 56.18 75.0738 56.18 75.0736 56.18C75.0734 56.18 75.0732 56.18 75.073 56.18C75.0727 56.18 75.0725 56.18 75.0723 56.18C75.0721 56.18 75.0719 56.18 75.0717 56.18C75.0715 56.18 75.0713 56.18 75.0711 56.18C75.0709 56.18 75.0707 56.18 75.0704 56.18C75.0702 56.18 75.07 56.18 75.0698 56.18C75.0696 56.18 75.0694 56.18 75.0692 56.18C75.069 56.18 75.0688 56.18 75.0686 56.18C75.0683 56.18 75.0681 56.18 75.0679 56.18C75.0677 56.18 75.0675 56.18 75.0673 56.18C75.0671 56.18 75.0669 56.18 75.0667 56.18C75.0665 56.18 75.0662 56.18 75.066 56.18C75.0658 56.18 75.0656 56.18 75.0654 56.18C75.0652 56.18 75.065 56.18 75.0648 56.18C75.0646 56.18 75.0643 56.18 75.0641 56.18C75.0639 56.18 75.0637 56.18 75.0635 56.18C75.0633 56.18 75.0631 56.18 75.0629 56.18C75.0627 56.18 75.0625 56.18 75.0622 56.18C75.062 56.18 75.0618 56.18 75.0616 56.18C75.0614 56.18 75.0612 56.18 75.061 56.18C75.0608 56.18 75.0606 56.18 75.0603 56.18C75.0601 56.18 75.0599 56.18 75.0597 56.18C75.0595 56.18 75.0593 56.18 75.0591 56.18C75.0589 56.18 75.0586 56.18 75.0584 56.18C75.0582 56.18 75.058 56.18 75.0578 56.18C75.0576 56.18 75.0574 56.18 75.0572 56.18C75.057 56.18 75.0567 56.18 75.0565 56.18C75.0563 56.18 75.0561 56.18 75.0559 56.18C75.0557 56.18 75.0555 56.18 75.0553 56.18C75.055 56.18 75.0548 56.18 75.0546 56.18C75.0544 56.18 75.0542 56.18 75.054 56.18C75.0538 56.18 75.0536 56.18 75.0533 56.18C75.0531 56.18 75.0529 56.18 75.0527 56.18C75.0525 56.18 75.0523 56.18 75.0521 56.18C75.0519 56.18 75.0516 56.18 75.0514 56.18C75.0512 56.18 75.051 56.18 75.0508 56.18C75.0506 56.18 75.0504 56.18 75.0502 56.18C75.0499 56.18 75.0497 56.18 75.0495 56.18C75.0493 56.18 75.0491 56.18 75.0489 56.18C75.0487 56.18 75.0484 56.18 75.0482 56.18C75.048 56.18 75.0478 56.18 75.0476 56.18C75.0474 56.18 75.0472 56.18 75.047 56.18C75.0467 56.18 75.0465 56.18 75.0463 56.18C75.0461 56.18 75.0459 56.18 75.0457 56.18C75.0455 56.18 75.0452 56.18 75.045 56.18C75.0448 56.18 75.0446 56.18 75.0444 56.18C75.0442 56.18 75.044 56.18 75.0437 56.18C75.0435 56.18 75.0433 56.18 75.0431 56.18C75.0429 56.18 75.0427 56.18 75.0425 56.18C75.0422 56.18 75.042 56.18 75.0418 56.18C75.0416 56.18 75.0414 56.18 75.0412 56.18C75.041 56.18 75.0407 56.18 75.0405 56.18C75.0403 56.18 75.0401 56.18 75.0399 56.18C75.0397 56.18 75.0394 56.18 75.0392 56.18C75.039 56.18 75.0388 56.18 75.0386 56.18C75.0384 56.18 75.0382 56.18 75.0379 56.18C75.0377 56.18 75.0375 56.18 75.0373 56.18C75.0371 56.18 75.0369 56.18 75.0366 56.18C75.0364 56.18 75.0362 56.18 75.036 56.18C75.0358 56.18 75.0356 56.18 75.0354 56.18C75.0351 56.18 75.0349 56.18 75.0347 56.18C75.0345 56.18 75.0343 56.18 75.0341 56.18C75.0338 56.18 75.0336 56.18 75.0334 56.18C75.0332 56.18 75.033 56.18 75.0328 56.18C75.0325 56.18 75.0323 56.18 75.0321 56.18C75.0319 56.18 75.0317 56.18 75.0315 56.18C75.0312 56.18 75.031 56.18 75.0308 56.18C75.0306 56.18 75.0304 56.18 75.0301 56.18C75.0299 56.18 75.0297 56.18 75.0295 56.18C75.0293 56.18 75.0291 56.18 75.0288 56.18C75.0286 56.18 75.0284 56.18 75.0282 56.18C75.028 56.18 75.0278 56.18 75.0275 56.18C75.0273 56.18 75.0271 56.18 75.0269 56.18C75.0267 56.18 75.0264 56.18 75.0262 56.18C75.026 56.18 75.0258 56.18 75.0256 56.18C75.0254 56.18 75.0251 56.18 75.0249 56.18C75.0247 56.18 75.0245 56.18 75.0243 56.18C75.024 56.18 75.0238 56.18 75.0236 56.18C75.0234 56.18 75.0232 56.18 75.023 56.18C75.0227 56.18 75.0225 56.18 75.0223 56.18C75.0221 56.18 75.0219 56.18 75.0216 56.18C75.0214 56.18 75.0212 56.18 75.021 56.18C75.0208 56.18 75.0205 56.18 75.0203 56.18C75.0201 56.18 75.0199 56.18 75.0197 56.18C75.0194 56.18 75.0192 56.18 75.019 56.18C75.0188 56.18 75.0186 56.18 75.0183 56.18C75.0181 56.18 75.0179 56.18 75.0177 56.18C75.0175 56.18 75.0172 56.18 75.017 56.18C75.0168 56.18 75.0166 56.18 75.0164 56.18C75.0161 56.18 75.0159 56.18 75.0157 56.18C75.0155 56.18 75.0153 56.18 75.015 56.18C75.0148 56.18 75.0146 56.18 75.0144 56.18C75.0142 56.18 75.0139 56.18 75.0137 56.18C75.0135 56.18 75.0133 56.18 75.013 56.18C75.0128 56.18 75.0126 56.18 75.0124 56.18C75.0122 56.18 75.0119 56.18 75.0117 56.18C75.0115 56.18 75.0113 56.18 75.0111 56.18C75.0108 56.18 75.0106 56.18 75.0104 56.18C75.0102 56.18 75.0099 56.18 75.0097 56.18C75.0095 56.18 75.0093 56.18 75.0091 56.18C75.0088 56.18 75.0086 56.18 75.0084 56.18C75.0082 56.18 75.0079 56.18 75.0077 56.18C75.0075 56.18 75.0073 56.18 75.007 56.18C75.0068 56.18 75.0066 56.18 75.0064 56.18C75.0062 56.18 75.0059 56.18 75.0057 56.18C75.0055 56.18 75.0053 56.18 75.005 56.18C75.0048 56.18 75.0046 56.18 75.0044 56.18C75.0041 56.18 75.0039 56.18 75.0037 56.18C75.0035 56.18 75.0033 56.18 75.003 56.18C75.0028 56.18 75.0026 56.18 75.0024 56.18C75.0021 56.18 75.0019 56.18 75.0017 56.18C75.0015 56.18 75.0012 56.18 75.001 56.18C75.0008 56.18 75.0006 56.18 75.0003 56.18C75.0001 56.18 74.9999 56.18 74.9997 56.18C74.9994 56.18 74.9992 56.18 74.999 56.18C74.9988 56.18 74.9985 56.18 74.9983 56.18C74.9981 56.18 74.9979 56.18 74.9976 56.18C74.9974 56.18 74.9972 56.18 74.997 56.18C74.9967 56.18 74.9965 56.18 74.9963 56.18C74.996 56.18 74.9958 56.18 74.9956 56.18C74.9954 56.18 74.9951 56.18 74.9949 56.18C74.9947 56.18 74.9945 56.18 74.9942 56.18C74.994 56.18 74.9938 56.18 74.9936 56.18C74.9933 56.18 74.9931 56.18 74.9929 56.18C74.9927 56.18 74.9924 56.18 74.9922 56.18C74.992 56.18 74.9917 56.18 74.9915 56.18C74.9913 56.18 74.9911 56.18 74.9908 56.18C74.9906 56.18 74.9904 56.18 74.9902 56.18C74.9899 56.18 74.9897 56.18 74.9895 56.18C74.9892 56.18 74.989 56.18 74.9888 56.18C74.9886 56.18 74.9883 56.18 74.9881 56.18C74.9879 56.18 74.9876 56.18 74.9874 56.18C74.9872 56.18 74.987 56.18 74.9867 56.18C74.9865 56.18 74.9863 56.18 74.986 56.18C74.9858 56.18 74.9856 56.18 74.9854 56.18C74.9851 56.18 74.9849 56.18 74.9847 56.18C74.9844 56.18 74.9842 56.18 74.984 56.18C74.9837 56.18 74.9835 56.18 74.9833 56.18C74.9831 56.18 74.9828 56.18 74.9826 56.18C74.9824 56.18 74.9821 56.18 74.9819 56.18C74.9817 56.18 74.9815 56.18 74.9812 56.18C74.981 56.18 74.9808 56.18 74.9805 56.18C74.9803 56.18 74.9801 56.18 74.9798 56.18C74.9796 56.18 74.9794 56.18 74.9791 56.18C74.9789 56.18 74.9787 56.18 74.9784 56.18C74.9782 56.18 74.978 56.18 74.9778 56.18C74.9775 56.18 74.9773 56.18 74.9771 56.18C74.9768 56.18 74.9766 56.18 74.9764 56.18C74.9761 56.18 74.9759 56.18 74.9757 56.18C74.9754 56.18 74.9752 56.18 74.975 56.18C74.9747 56.18 74.9745 56.18 74.9743 56.18C74.974 56.18 74.9738 56.18 74.9736 56.18C74.9733 56.18 74.9731 56.18 74.9729 56.18C74.9726 56.18 74.9724 56.18 74.9722 56.18C74.9719 56.18 74.9717 56.18 74.9715 56.18C74.9712 56.18 74.971 56.18 74.9708 56.18C74.9705 56.18 74.9703 56.18 74.9701 56.18C74.9698 56.18 74.9696 56.18 74.9694 56.18C74.9691 56.18 74.9689 56.18 74.9687 56.18V58.18ZM76.4487 39.48C76.4487 38.2174 76.938 37.3296 77.6896 36.7284C78.4694 36.1045 79.6033 35.7366 80.9289 35.7098L80.8885 33.7102C79.2441 33.7434 77.6479 34.2005 76.4402 35.1666C75.2043 36.1554 74.4487 37.6226 74.4487 39.48H76.4487ZM79.9454 34.4415L77.0354 44.8815L78.962 45.4185L81.872 34.9785L79.9454 34.4415ZM78.802 44.5544C77.4791 42.7701 76.4487 41.289 76.4487 39.48H74.4487C74.4487 42.051 75.9382 44.0499 77.1954 45.7456L78.802 44.5544ZM79.7587 51.57C79.7587 53.1139 79.2418 54.1641 78.4978 54.8371C77.7382 55.5243 76.639 55.91 75.3287 55.91V57.91C77.0184 57.91 78.6341 57.4107 79.8395 56.3204C81.0605 55.2159 81.7587 53.5961 81.7587 51.57H79.7587ZM75.3287 55.91C75.3285 55.91 75.3283 55.91 75.3281 55.91C75.328 55.91 75.3278 55.91 75.3276 55.91C75.3274 55.91 75.3273 55.91 75.3271 55.91C75.3269 55.91 75.3267 55.91 75.3266 55.91C75.3264 55.91 75.3262 55.91 75.326 55.91C75.3259 55.91 75.3257 55.91 75.3255 55.91C75.3253 55.91 75.3252 55.91 75.325 55.91C75.3248 55.91 75.3246 55.91 75.3245 55.91C75.3243 55.91 75.3241 55.91 75.3239 55.91C75.3237 55.91 75.3236 55.91 75.3234 55.91C75.3232 55.91 75.323 55.91 75.3229 55.91C75.3227 55.91 75.3225 55.91 75.3223 55.91C75.3222 55.91 75.322 55.91 75.3218 55.91C75.3216 55.91 75.3215 55.91 75.3213 55.91C75.3211 55.91 75.3209 55.91 75.3208 55.91C75.3206 55.91 75.3204 55.91 75.3202 55.91C75.3201 55.91 75.3199 55.91 75.3197 55.91C75.3195 55.91 75.3194 55.91 75.3192 55.91C75.319 55.91 75.3188 55.91 75.3187 55.91C75.3185 55.91 75.3183 55.91 75.3181 55.91C75.3179 55.91 75.3178 55.91 75.3176 55.91C75.3174 55.91 75.3172 55.91 75.3171 55.91C75.3169 55.91 75.3167 55.91 75.3165 55.91C75.3164 55.91 75.3162 55.91 75.316 55.91C75.3158 55.91 75.3157 55.91 75.3155 55.91C75.3153 55.91 75.3151 55.91 75.315 55.91C75.3148 55.91 75.3146 55.91 75.3144 55.91C75.3143 55.91 75.3141 55.91 75.3139 55.91C75.3137 55.91 75.3135 55.91 75.3134 55.91C75.3132 55.91 75.313 55.91 75.3128 55.91C75.3127 55.91 75.3125 55.91 75.3123 55.91C75.3121 55.91 75.312 55.91 75.3118 55.91C75.3116 55.91 75.3114 55.91 75.3113 55.91C75.3111 55.91 75.3109 55.91 75.3107 55.91C75.3106 55.91 75.3104 55.91 75.3102 55.91C75.31 55.91 75.3099 55.91 75.3097 55.91C75.3095 55.91 75.3093 55.91 75.3091 55.91C75.309 55.91 75.3088 55.91 75.3086 55.91C75.3084 55.91 75.3083 55.91 75.3081 55.91C75.3079 55.91 75.3077 55.91 75.3076 55.91C75.3074 55.91 75.3072 55.91 75.307 55.91C75.3069 55.91 75.3067 55.91 75.3065 55.91C75.3063 55.91 75.3062 55.91 75.306 55.91C75.3058 55.91 75.3056 55.91 75.3055 55.91C75.3053 55.91 75.3051 55.91 75.3049 55.91C75.3047 55.91 75.3046 55.91 75.3044 55.91C75.3042 55.91 75.304 55.91 75.3039 55.91C75.3037 55.91 75.3035 55.91 75.3033 55.91C75.3032 55.91 75.303 55.91 75.3028 55.91C75.3026 55.91 75.3025 55.91 75.3023 55.91C75.3021 55.91 75.3019 55.91 75.3017 55.91C75.3016 55.91 75.3014 55.91 75.3012 55.91C75.301 55.91 75.3009 55.91 75.3007 55.91C75.3005 55.91 75.3003 55.91 75.3002 55.91C75.3 55.91 75.2998 55.91 75.2996 55.91C75.2995 55.91 75.2993 55.91 75.2991 55.91C75.2989 55.91 75.2987 55.91 75.2986 55.91C75.2984 55.91 75.2982 55.91 75.298 55.91C75.2979 55.91 75.2977 55.91 75.2975 55.91C75.2973 55.91 75.2972 55.91 75.297 55.91C75.2968 55.91 75.2966 55.91 75.2965 55.91C75.2963 55.91 75.2961 55.91 75.2959 55.91C75.2957 55.91 75.2956 55.91 75.2954 55.91C75.2952 55.91 75.295 55.91 75.2949 55.91C75.2947 55.91 75.2945 55.91 75.2943 55.91C75.2942 55.91 75.294 55.91 75.2938 55.91C75.2936 55.91 75.2934 55.91 75.2933 55.91C75.2931 55.91 75.2929 55.91 75.2927 55.91C75.2926 55.91 75.2924 55.91 75.2922 55.91C75.292 55.91 75.2919 55.91 75.2917 55.91C75.2915 55.91 75.2913 55.91 75.2912 55.91C75.291 55.91 75.2908 55.91 75.2906 55.91C75.2904 55.91 75.2903 55.91 75.2901 55.91C75.2899 55.91 75.2897 55.91 75.2896 55.91C75.2894 55.91 75.2892 55.91 75.289 55.91C75.2889 55.91 75.2887 55.91 75.2885 55.91C75.2883 55.91 75.2881 55.91 75.288 55.91C75.2878 55.91 75.2876 55.91 75.2874 55.91C75.2873 55.91 75.2871 55.91 75.2869 55.91C75.2867 55.91 75.2865 55.91 75.2864 55.91C75.2862 55.91 75.286 55.91 75.2858 55.91C75.2857 55.91 75.2855 55.91 75.2853 55.91C75.2851 55.91 75.285 55.91 75.2848 55.91C75.2846 55.91 75.2844 55.91 75.2842 55.91C75.2841 55.91 75.2839 55.91 75.2837 55.91C75.2835 55.91 75.2834 55.91 75.2832 55.91C75.283 55.91 75.2828 55.91 75.2826 55.91C75.2825 55.91 75.2823 55.91 75.2821 55.91C75.2819 55.91 75.2818 55.91 75.2816 55.91C75.2814 55.91 75.2812 55.91 75.281 55.91C75.2809 55.91 75.2807 55.91 75.2805 55.91C75.2803 55.91 75.2802 55.91 75.28 55.91C75.2798 55.91 75.2796 55.91 75.2794 55.91C75.2793 55.91 75.2791 55.91 75.2789 55.91C75.2787 55.91 75.2786 55.91 75.2784 55.91C75.2782 55.91 75.278 55.91 75.2778 55.91C75.2777 55.91 75.2775 55.91 75.2773 55.91C75.2771 55.91 75.277 55.91 75.2768 55.91C75.2766 55.91 75.2764 55.91 75.2762 55.91C75.2761 55.91 75.2759 55.91 75.2757 55.91C75.2755 55.91 75.2754 55.91 75.2752 55.91C75.275 55.91 75.2748 55.91 75.2746 55.91C75.2745 55.91 75.2743 55.91 75.2741 55.91C75.2739 55.91 75.2738 55.91 75.2736 55.91C75.2734 55.91 75.2732 55.91 75.273 55.91C75.2729 55.91 75.2727 55.91 75.2725 55.91C75.2723 55.91 75.2722 55.91 75.272 55.91C75.2718 55.91 75.2716 55.91 75.2714 55.91C75.2713 55.91 75.2711 55.91 75.2709 55.91C75.2707 55.91 75.2705 55.91 75.2704 55.91C75.2702 55.91 75.27 55.91 75.2698 55.91C75.2697 55.91 75.2695 55.91 75.2693 55.91C75.2691 55.91 75.2689 55.91 75.2688 55.91C75.2686 55.91 75.2684 55.91 75.2682 55.91C75.268 55.91 75.2679 55.91 75.2677 55.91C75.2675 55.91 75.2673 55.91 75.2672 55.91C75.267 55.91 75.2668 55.91 75.2666 55.91C75.2664 55.91 75.2663 55.91 75.2661 55.91C75.2659 55.91 75.2657 55.91 75.2655 55.91C75.2654 55.91 75.2652 55.91 75.265 55.91C75.2648 55.91 75.2646 55.91 75.2645 55.91C75.2643 55.91 75.2641 55.91 75.2639 55.91C75.2638 55.91 75.2636 55.91 75.2634 55.91C75.2632 55.91 75.263 55.91 75.2629 55.91C75.2627 55.91 75.2625 55.91 75.2623 55.91C75.2621 55.91 75.262 55.91 75.2618 55.91C75.2616 55.91 75.2614 55.91 75.2612 55.91C75.2611 55.91 75.2609 55.91 75.2607 55.91C75.2605 55.91 75.2603 55.91 75.2602 55.91C75.26 55.91 75.2598 55.91 75.2596 55.91C75.2594 55.91 75.2593 55.91 75.2591 55.91C75.2589 55.91 75.2587 55.91 75.2585 55.91C75.2584 55.91 75.2582 55.91 75.258 55.91C75.2578 55.91 75.2577 55.91 75.2575 55.91C75.2573 55.91 75.2571 55.91 75.2569 55.91C75.2568 55.91 75.2566 55.91 75.2564 55.91C75.2562 55.91 75.256 55.91 75.2559 55.91C75.2557 55.91 75.2555 55.91 75.2553 55.91C75.2551 55.91 75.255 55.91 75.2548 55.91C75.2546 55.91 75.2544 55.91 75.2542 55.91C75.2541 55.91 75.2539 55.91 75.2537 55.91C75.2535 55.91 75.2533 55.91 75.2531 55.91C75.253 55.91 75.2528 55.91 75.2526 55.91C75.2524 55.91 75.2522 55.91 75.2521 55.91C75.2519 55.91 75.2517 55.91 75.2515 55.91C75.2513 55.91 75.2512 55.91 75.251 55.91C75.2508 55.91 75.2506 55.91 75.2504 55.91C75.2503 55.91 75.2501 55.91 75.2499 55.91C75.2497 55.91 75.2495 55.91 75.2494 55.91C75.2492 55.91 75.249 55.91 75.2488 55.91C75.2486 55.91 75.2485 55.91 75.2483 55.91C75.2481 55.91 75.2479 55.91 75.2477 55.91C75.2475 55.91 75.2474 55.91 75.2472 55.91C75.247 55.91 75.2468 55.91 75.2466 55.91C75.2465 55.91 75.2463 55.91 75.2461 55.91C75.2459 55.91 75.2457 55.91 75.2456 55.91C75.2454 55.91 75.2452 55.91 75.245 55.91C75.2448 55.91 75.2447 55.91 75.2445 55.91C75.2443 55.91 75.2441 55.91 75.2439 55.91C75.2437 55.91 75.2436 55.91 75.2434 55.91C75.2432 55.91 75.243 55.91 75.2428 55.91C75.2427 55.91 75.2425 55.91 75.2423 55.91C75.2421 55.91 75.2419 55.91 75.2417 55.91C75.2416 55.91 75.2414 55.91 75.2412 55.91C75.241 55.91 75.2408 55.91 75.2407 55.91C75.2405 55.91 75.2403 55.91 75.2401 55.91C75.2399 55.91 75.2397 55.91 75.2396 55.91C75.2394 55.91 75.2392 55.91 75.239 55.91C75.2388 55.91 75.2387 55.91 75.2385 55.91C75.2383 55.91 75.2381 55.91 75.2379 55.91C75.2377 55.91 75.2376 55.91 75.2374 55.91C75.2372 55.91 75.237 55.91 75.2368 55.91C75.2366 55.91 75.2365 55.91 75.2363 55.91C75.2361 55.91 75.2359 55.91 75.2357 55.91C75.2356 55.91 75.2354 55.91 75.2352 55.91C75.235 55.91 75.2348 55.91 75.2346 55.91C75.2345 55.91 75.2343 55.91 75.2341 55.91C75.2339 55.91 75.2337 55.91 75.2335 55.91C75.2334 55.91 75.2332 55.91 75.233 55.91C75.2328 55.91 75.2326 55.91 75.2324 55.91C75.2323 55.91 75.2321 55.91 75.2319 55.91C75.2317 55.91 75.2315 55.91 75.2313 55.91C75.2312 55.91 75.231 55.91 75.2308 55.91C75.2306 55.91 75.2304 55.91 75.2302 55.91C75.2301 55.91 75.2299 55.91 75.2297 55.91C75.2295 55.91 75.2293 55.91 75.2291 55.91C75.229 55.91 75.2288 55.91 75.2286 55.91C75.2284 55.91 75.2282 55.91 75.228 55.91C75.2279 55.91 75.2277 55.91 75.2275 55.91C75.2273 55.91 75.2271 55.91 75.2269 55.91C75.2268 55.91 75.2266 55.91 75.2264 55.91C75.2262 55.91 75.226 55.91 75.2258 55.91C75.2257 55.91 75.2255 55.91 75.2253 55.91C75.2251 55.91 75.2249 55.91 75.2247 55.91C75.2246 55.91 75.2244 55.91 75.2242 55.91C75.224 55.91 75.2238 55.91 75.2236 55.91C75.2234 55.91 75.2233 55.91 75.2231 55.91C75.2229 55.91 75.2227 55.91 75.2225 55.91C75.2223 55.91 75.2222 55.91 75.222 55.91C75.2218 55.91 75.2216 55.91 75.2214 55.91C75.2212 55.91 75.221 55.91 75.2209 55.91C75.2207 55.91 75.2205 55.91 75.2203 55.91C75.2201 55.91 75.2199 55.91 75.2198 55.91C75.2196 55.91 75.2194 55.91 75.2192 55.91C75.219 55.91 75.2188 55.91 75.2186 55.91C75.2185 55.91 75.2183 55.91 75.2181 55.91C75.2179 55.91 75.2177 55.91 75.2175 55.91C75.2173 55.91 75.2172 55.91 75.217 55.91C75.2168 55.91 75.2166 55.91 75.2164 55.91C75.2162 55.91 75.216 55.91 75.2159 55.91C75.2157 55.91 75.2155 55.91 75.2153 55.91C75.2151 55.91 75.2149 55.91 75.2147 55.91C75.2146 55.91 75.2144 55.91 75.2142 55.91C75.214 55.91 75.2138 55.91 75.2136 55.91C75.2134 55.91 75.2133 55.91 75.2131 55.91C75.2129 55.91 75.2127 55.91 75.2125 55.91C75.2123 55.91 75.2121 55.91 75.212 55.91C75.2118 55.91 75.2116 55.91 75.2114 55.91C75.2112 55.91 75.211 55.91 75.2108 55.91C75.2106 55.91 75.2105 55.91 75.2103 55.91C75.2101 55.91 75.2099 55.91 75.2097 55.91C75.2095 55.91 75.2093 55.91 75.2092 55.91C75.209 55.91 75.2088 55.91 75.2086 55.91C75.2084 55.91 75.2082 55.91 75.208 55.91C75.2078 55.91 75.2077 55.91 75.2075 55.91C75.2073 55.91 75.2071 55.91 75.2069 55.91C75.2067 55.91 75.2065 55.91 75.2064 55.91C75.2062 55.91 75.206 55.91 75.2058 55.91C75.2056 55.91 75.2054 55.91 75.2052 55.91C75.205 55.91 75.2049 55.91 75.2047 55.91C75.2045 55.91 75.2043 55.91 75.2041 55.91C75.2039 55.91 75.2037 55.91 75.2035 55.91C75.2034 55.91 75.2032 55.91 75.203 55.91C75.2028 55.91 75.2026 55.91 75.2024 55.91C75.2022 55.91 75.202 55.91 75.2018 55.91C75.2017 55.91 75.2015 55.91 75.2013 55.91C75.2011 55.91 75.2009 55.91 75.2007 55.91C75.2005 55.91 75.2003 55.91 75.2002 55.91C75.2 55.91 75.1998 55.91 75.1996 55.91C75.1994 55.91 75.1992 55.91 75.199 55.91C75.1988 55.91 75.1986 55.91 75.1985 55.91C75.1983 55.91 75.1981 55.91 75.1979 55.91C75.1977 55.91 75.1975 55.91 75.1973 55.91C75.1971 55.91 75.1969 55.91 75.1968 55.91C75.1966 55.91 75.1964 55.91 75.1962 55.91C75.196 55.91 75.1958 55.91 75.1956 55.91C75.1954 55.91 75.1952 55.91 75.195 55.91C75.1949 55.91 75.1947 55.91 75.1945 55.91C75.1943 55.91 75.1941 55.91 75.1939 55.91C75.1937 55.91 75.1935 55.91 75.1933 55.91C75.1932 55.91 75.193 55.91 75.1928 55.91C75.1926 55.91 75.1924 55.91 75.1922 55.91C75.192 55.91 75.1918 55.91 75.1916 55.91C75.1914 55.91 75.1913 55.91 75.1911 55.91C75.1909 55.91 75.1907 55.91 75.1905 55.91C75.1903 55.91 75.1901 55.91 75.1899 55.91C75.1897 55.91 75.1895 55.91 75.1894 55.91C75.1892 55.91 75.189 55.91 75.1888 55.91C75.1886 55.91 75.1884 55.91 75.1882 55.91C75.188 55.91 75.1878 55.91 75.1876 55.91C75.1874 55.91 75.1873 55.91 75.1871 55.91C75.1869 55.91 75.1867 55.91 75.1865 55.91C75.1863 55.91 75.1861 55.91 75.1859 55.91C75.1857 55.91 75.1855 55.91 75.1853 55.91C75.1852 55.91 75.185 55.91 75.1848 55.91C75.1846 55.91 75.1844 55.91 75.1842 55.91C75.184 55.91 75.1838 55.91 75.1836 55.91C75.1834 55.91 75.1832 55.91 75.183 55.91C75.1828 55.91 75.1827 55.91 75.1825 55.91C75.1823 55.91 75.1821 55.91 75.1819 55.91C75.1817 55.91 75.1815 55.91 75.1813 55.91C75.1811 55.91 75.1809 55.91 75.1807 55.91C75.1805 55.91 75.1804 55.91 75.1802 55.91C75.18 55.91 75.1798 55.91 75.1796 55.91C75.1794 55.91 75.1792 55.91 75.179 55.91C75.1788 55.91 75.1786 55.91 75.1784 55.91C75.1782 55.91 75.178 55.91 75.1778 55.91C75.1777 55.91 75.1775 55.91 75.1773 55.91C75.1771 55.91 75.1769 55.91 75.1767 55.91C75.1765 55.91 75.1763 55.91 75.1761 55.91C75.1759 55.91 75.1757 55.91 75.1755 55.91C75.1753 55.91 75.1751 55.91 75.1749 55.91C75.1748 55.91 75.1746 55.91 75.1744 55.91C75.1742 55.91 75.174 55.91 75.1738 55.91C75.1736 55.91 75.1734 55.91 75.1732 55.91C75.173 55.91 75.1728 55.91 75.1726 55.91C75.1724 55.91 75.1722 55.91 75.172 55.91C75.1718 55.91 75.1717 55.91 75.1715 55.91C75.1713 55.91 75.1711 55.91 75.1709 55.91C75.1707 55.91 75.1705 55.91 75.1703 55.91C75.1701 55.91 75.1699 55.91 75.1697 55.91C75.1695 55.91 75.1693 55.91 75.1691 55.91C75.1689 55.91 75.1687 55.91 75.1685 55.91C75.1683 55.91 75.1681 55.91 75.168 55.91C75.1678 55.91 75.1676 55.91 75.1674 55.91C75.1672 55.91 75.167 55.91 75.1668 55.91C75.1666 55.91 75.1664 55.91 75.1662 55.91C75.166 55.91 75.1658 55.91 75.1656 55.91C75.1654 55.91 75.1652 55.91 75.165 55.91C75.1648 55.91 75.1646 55.91 75.1644 55.91C75.1642 55.91 75.164 55.91 75.1638 55.91C75.1637 55.91 75.1635 55.91 75.1633 55.91C75.1631 55.91 75.1629 55.91 75.1627 55.91C75.1625 55.91 75.1623 55.91 75.1621 55.91C75.1619 55.91 75.1617 55.91 75.1615 55.91C75.1613 55.91 75.1611 55.91 75.1609 55.91C75.1607 55.91 75.1605 55.91 75.1603 55.91C75.1601 55.91 75.1599 55.91 75.1597 55.91C75.1595 55.91 75.1593 55.91 75.1591 55.91C75.1589 55.91 75.1587 55.91 75.1585 55.91C75.1583 55.91 75.1581 55.91 75.1579 55.91C75.1577 55.91 75.1576 55.91 75.1574 55.91C75.1572 55.91 75.157 55.91 75.1568 55.91C75.1566 55.91 75.1564 55.91 75.1562 55.91C75.156 55.91 75.1558 55.91 75.1556 55.91C75.1554 55.91 75.1552 55.91 75.155 55.91C75.1548 55.91 75.1546 55.91 75.1544 55.91C75.1542 55.91 75.154 55.91 75.1538 55.91C75.1536 55.91 75.1534 55.91 75.1532 55.91C75.153 55.91 75.1528 55.91 75.1526 55.91C75.1524 55.91 75.1522 55.91 75.152 55.91C75.1518 55.91 75.1516 55.91 75.1514 55.91C75.1512 55.91 75.151 55.91 75.1508 55.91C75.1506 55.91 75.1504 55.91 75.1502 55.91C75.15 55.91 75.1498 55.91 75.1496 55.91C75.1494 55.91 75.1492 55.91 75.149 55.91C75.1488 55.91 75.1486 55.91 75.1484 55.91C75.1482 55.91 75.148 55.91 75.1478 55.91C75.1476 55.91 75.1474 55.91 75.1472 55.91C75.147 55.91 75.1468 55.91 75.1466 55.91C75.1464 55.91 75.1462 55.91 75.146 55.91C75.1458 55.91 75.1456 55.91 75.1454 55.91C75.1452 55.91 75.145 55.91 75.1448 55.91C75.1446 55.91 75.1444 55.91 75.1442 55.91C75.144 55.91 75.1438 55.91 75.1436 55.91C75.1434 55.91 75.1432 55.91 75.143 55.91C75.1428 55.91 75.1426 55.91 75.1424 55.91C75.1422 55.91 75.142 55.91 75.1418 55.91C75.1416 55.91 75.1414 55.91 75.1412 55.91C75.141 55.91 75.1408 55.91 75.1406 55.91C75.1404 55.91 75.1402 55.91 75.14 55.91C75.1398 55.91 75.1396 55.91 75.1394 55.91C75.1392 55.91 75.139 55.91 75.1388 55.91C75.1386 55.91 75.1384 55.91 75.1382 55.91C75.138 55.91 75.1378 55.91 75.1376 55.91C75.1374 55.91 75.1372 55.91 75.137 55.91C75.1367 55.91 75.1365 55.91 75.1363 55.91C75.1361 55.91 75.1359 55.91 75.1357 55.91C75.1355 55.91 75.1353 55.91 75.1351 55.91C75.1349 55.91 75.1347 55.91 75.1345 55.91C75.1343 55.91 75.1341 55.91 75.1339 55.91C75.1337 55.91 75.1335 55.91 75.1333 55.91C75.1331 55.91 75.1329 55.91 75.1327 55.91C75.1325 55.91 75.1323 55.91 75.1321 55.91C75.1319 55.91 75.1317 55.91 75.1315 55.91C75.1313 55.91 75.1311 55.91 75.1309 55.91C75.1306 55.91 75.1304 55.91 75.1302 55.91C75.13 55.91 75.1298 55.91 75.1296 55.91C75.1294 55.91 75.1292 55.91 75.129 55.91C75.1288 55.91 75.1286 55.91 75.1284 55.91C75.1282 55.91 75.128 55.91 75.1278 55.91C75.1276 55.91 75.1274 55.91 75.1272 55.91C75.127 55.91 75.1268 55.91 75.1266 55.91C75.1264 55.91 75.1261 55.91 75.1259 55.91C75.1257 55.91 75.1255 55.91 75.1253 55.91C75.1251 55.91 75.1249 55.91 75.1247 55.91C75.1245 55.91 75.1243 55.91 75.1241 55.91C75.1239 55.91 75.1237 55.91 75.1235 55.91C75.1233 55.91 75.1231 55.91 75.1229 55.91C75.1226 55.91 75.1224 55.91 75.1222 55.91C75.122 55.91 75.1218 55.91 75.1216 55.91C75.1214 55.91 75.1212 55.91 75.121 55.91C75.1208 55.91 75.1206 55.91 75.1204 55.91C75.1202 55.91 75.12 55.91 75.1198 55.91C75.1195 55.91 75.1193 55.91 75.1191 55.91C75.1189 55.91 75.1187 55.91 75.1185 55.91C75.1183 55.91 75.1181 55.91 75.1179 55.91C75.1177 55.91 75.1175 55.91 75.1173 55.91C75.1171 55.91 75.1168 55.91 75.1166 55.91C75.1164 55.91 75.1162 55.91 75.116 55.91C75.1158 55.91 75.1156 55.91 75.1154 55.91C75.1152 55.91 75.115 55.91 75.1148 55.91C75.1146 55.91 75.1144 55.91 75.1141 55.91C75.1139 55.91 75.1137 55.91 75.1135 55.91C75.1133 55.91 75.1131 55.91 75.1129 55.91C75.1127 55.91 75.1125 55.91 75.1123 55.91C75.1121 55.91 75.1118 55.91 75.1116 55.91C75.1114 55.91 75.1112 55.91 75.111 55.91C75.1108 55.91 75.1106 55.91 75.1104 55.91C75.1102 55.91 75.11 55.91 75.1097 55.91C75.1095 55.91 75.1093 55.91 75.1091 55.91C75.1089 55.91 75.1087 55.91 75.1085 55.91C75.1083 55.91 75.1081 55.91 75.1079 55.91C75.1076 55.91 75.1074 55.91 75.1072 55.91C75.107 55.91 75.1068 55.91 75.1066 55.91C75.1064 55.91 75.1062 55.91 75.106 55.91C75.1058 55.91 75.1055 55.91 75.1053 55.91C75.1051 55.91 75.1049 55.91 75.1047 55.91C75.1045 55.91 75.1043 55.91 75.1041 55.91C75.1039 55.91 75.1036 55.91 75.1034 55.91C75.1032 55.91 75.103 55.91 75.1028 55.91C75.1026 55.91 75.1024 55.91 75.1022 55.91C75.1019 55.91 75.1017 55.91 75.1015 55.91C75.1013 55.91 75.1011 55.91 75.1009 55.91C75.1007 55.91 75.1005 55.91 75.1003 55.91C75.1 55.91 75.0998 55.91 75.0996 55.91C75.0994 55.91 75.0992 55.91 75.099 55.91C75.0988 55.91 75.0985 55.91 75.0983 55.91C75.0981 55.91 75.0979 55.91 75.0977 55.91C75.0975 55.91 75.0973 55.91 75.0971 55.91C75.0968 55.91 75.0966 55.91 75.0964 55.91C75.0962 55.91 75.096 55.91 75.0958 55.91C75.0956 55.91 75.0953 55.91 75.0951 55.91C75.0949 55.91 75.0947 55.91 75.0945 55.91C75.0943 55.91 75.0941 55.91 75.0938 55.91C75.0936 55.91 75.0934 55.91 75.0932 55.91C75.093 55.91 75.0928 55.91 75.0926 55.91C75.0923 55.91 75.0921 55.91 75.0919 55.91C75.0917 55.91 75.0915 55.91 75.0913 55.91C75.0911 55.91 75.0908 55.91 75.0906 55.91C75.0904 55.91 75.0902 55.91 75.09 55.91C75.0898 55.91 75.0896 55.91 75.0893 55.91C75.0891 55.91 75.0889 55.91 75.0887 55.91C75.0885 55.91 75.0883 55.91 75.088 55.91C75.0878 55.91 75.0876 55.91 75.0874 55.91C75.0872 55.91 75.087 55.91 75.0867 55.91C75.0865 55.91 75.0863 55.91 75.0861 55.91C75.0859 55.91 75.0857 55.91 75.0854 55.91C75.0852 55.91 75.085 55.91 75.0848 55.91C75.0846 55.91 75.0844 55.91 75.0841 55.91C75.0839 55.91 75.0837 55.91 75.0835 55.91C75.0833 55.91 75.0831 55.91 75.0828 55.91C75.0826 55.91 75.0824 55.91 75.0822 55.91C75.082 55.91 75.0818 55.91 75.0815 55.91C75.0813 55.91 75.0811 55.91 75.0809 55.91C75.0807 55.91 75.0804 55.91 75.0802 55.91C75.08 55.91 75.0798 55.91 75.0796 55.91C75.0794 55.91 75.0791 55.91 75.0789 55.91C75.0787 55.91 75.0785 55.91 75.0783 55.91C75.078 55.91 75.0778 55.91 75.0776 55.91C75.0774 55.91 75.0772 55.91 75.0769 55.91C75.0767 55.91 75.0765 55.91 75.0763 55.91C75.0761 55.91 75.0758 55.91 75.0756 55.91C75.0754 55.91 75.0752 55.91 75.075 55.91C75.0747 55.91 75.0745 55.91 75.0743 55.91C75.0741 55.91 75.0739 55.91 75.0736 55.91C75.0734 55.91 75.0732 55.91 75.073 55.91C75.0728 55.91 75.0725 55.91 75.0723 55.91C75.0721 55.91 75.0719 55.91 75.0717 55.91C75.0714 55.91 75.0712 55.91 75.071 55.91C75.0708 55.91 75.0706 55.91 75.0703 55.91C75.0701 55.91 75.0699 55.91 75.0697 55.91C75.0695 55.91 75.0692 55.91 75.069 55.91C75.0688 55.91 75.0686 55.91 75.0683 55.91C75.0681 55.91 75.0679 55.91 75.0677 55.91C75.0675 55.91 75.0672 55.91 75.067 55.91C75.0668 55.91 75.0666 55.91 75.0663 55.91C75.0661 55.91 75.0659 55.91 75.0657 55.91C75.0655 55.91 75.0652 55.91 75.065 55.91C75.0648 55.91 75.0646 55.91 75.0643 55.91C75.0641 55.91 75.0639 55.91 75.0637 55.91C75.0634 55.91 75.0632 55.91 75.063 55.91C75.0628 55.91 75.0626 55.91 75.0623 55.91C75.0621 55.91 75.0619 55.91 75.0617 55.91C75.0614 55.91 75.0612 55.91 75.061 55.91C75.0608 55.91 75.0605 55.91 75.0603 55.91C75.0601 55.91 75.0599 55.91 75.0596 55.91C75.0594 55.91 75.0592 55.91 75.059 55.91C75.0587 55.91 75.0585 55.91 75.0583 55.91C75.0581 55.91 75.0578 55.91 75.0576 55.91C75.0574 55.91 75.0572 55.91 75.0569 55.91C75.0567 55.91 75.0565 55.91 75.0563 55.91C75.056 55.91 75.0558 55.91 75.0556 55.91C75.0554 55.91 75.0551 55.91 75.0549 55.91C75.0547 55.91 75.0545 55.91 75.0542 55.91C75.054 55.91 75.0538 55.91 75.0536 55.91C75.0533 55.91 75.0531 55.91 75.0529 55.91C75.0526 55.91 75.0524 55.91 75.0522 55.91C75.052 55.91 75.0517 55.91 75.0515 55.91C75.0513 55.91 75.0511 55.91 75.0508 55.91C75.0506 55.91 75.0504 55.91 75.0501 55.91C75.0499 55.91 75.0497 55.91 75.0495 55.91C75.0492 55.91 75.049 55.91 75.0488 55.91C75.0486 55.91 75.0483 55.91 75.0481 55.91C75.0479 55.91 75.0476 55.91 75.0474 55.91C75.0472 55.91 75.047 55.91 75.0467 55.91C75.0465 55.91 75.0463 55.91 75.046 55.91C75.0458 55.91 75.0456 55.91 75.0454 55.91C75.0451 55.91 75.0449 55.91 75.0447 55.91C75.0444 55.91 75.0442 55.91 75.044 55.91C75.0437 55.91 75.0435 55.91 75.0433 55.91C75.0431 55.91 75.0428 55.91 75.0426 55.91C75.0424 55.91 75.0421 55.91 75.0419 55.91C75.0417 55.91 75.0414 55.91 75.0412 55.91C75.041 55.91 75.0408 55.91 75.0405 55.91C75.0403 55.91 75.0401 55.91 75.0398 55.91C75.0396 55.91 75.0394 55.91 75.0391 55.91C75.0389 55.91 75.0387 55.91 75.0384 55.91C75.0382 55.91 75.038 55.91 75.0378 55.91C75.0375 55.91 75.0373 55.91 75.0371 55.91C75.0368 55.91 75.0366 55.91 75.0364 55.91C75.0361 55.91 75.0359 55.91 75.0357 55.91C75.0354 55.91 75.0352 55.91 75.035 55.91C75.0347 55.91 75.0345 55.91 75.0343 55.91C75.034 55.91 75.0338 55.91 75.0336 55.91C75.0333 55.91 75.0331 55.91 75.0329 55.91C75.0326 55.91 75.0324 55.91 75.0322 55.91C75.0319 55.91 75.0317 55.91 75.0315 55.91C75.0312 55.91 75.031 55.91 75.0308 55.91C75.0305 55.91 75.0303 55.91 75.0301 55.91C75.0298 55.91 75.0296 55.91 75.0294 55.91C75.0291 55.91 75.0289 55.91 75.0287 55.91V57.91C75.0289 57.91 75.0291 57.91 75.0294 57.91C75.0296 57.91 75.0298 57.91 75.0301 57.91C75.0303 57.91 75.0305 57.91 75.0308 57.91C75.031 57.91 75.0312 57.91 75.0315 57.91C75.0317 57.91 75.0319 57.91 75.0322 57.91C75.0324 57.91 75.0326 57.91 75.0329 57.91C75.0331 57.91 75.0333 57.91 75.0336 57.91C75.0338 57.91 75.034 57.91 75.0343 57.91C75.0345 57.91 75.0347 57.91 75.035 57.91C75.0352 57.91 75.0354 57.91 75.0357 57.91C75.0359 57.91 75.0361 57.91 75.0364 57.91C75.0366 57.91 75.0368 57.91 75.0371 57.91C75.0373 57.91 75.0375 57.91 75.0378 57.91C75.038 57.91 75.0382 57.91 75.0384 57.91C75.0387 57.91 75.0389 57.91 75.0391 57.91C75.0394 57.91 75.0396 57.91 75.0398 57.91C75.0401 57.91 75.0403 57.91 75.0405 57.91C75.0408 57.91 75.041 57.91 75.0412 57.91C75.0414 57.91 75.0417 57.91 75.0419 57.91C75.0421 57.91 75.0424 57.91 75.0426 57.91C75.0428 57.91 75.0431 57.91 75.0433 57.91C75.0435 57.91 75.0437 57.91 75.044 57.91C75.0442 57.91 75.0444 57.91 75.0447 57.91C75.0449 57.91 75.0451 57.91 75.0454 57.91C75.0456 57.91 75.0458 57.91 75.046 57.91C75.0463 57.91 75.0465 57.91 75.0467 57.91C75.047 57.91 75.0472 57.91 75.0474 57.91C75.0476 57.91 75.0479 57.91 75.0481 57.91C75.0483 57.91 75.0486 57.91 75.0488 57.91C75.049 57.91 75.0492 57.91 75.0495 57.91C75.0497 57.91 75.0499 57.91 75.0501 57.91C75.0504 57.91 75.0506 57.91 75.0508 57.91C75.0511 57.91 75.0513 57.91 75.0515 57.91C75.0517 57.91 75.052 57.91 75.0522 57.91C75.0524 57.91 75.0526 57.91 75.0529 57.91C75.0531 57.91 75.0533 57.91 75.0536 57.91C75.0538 57.91 75.054 57.91 75.0542 57.91C75.0545 57.91 75.0547 57.91 75.0549 57.91C75.0551 57.91 75.0554 57.91 75.0556 57.91C75.0558 57.91 75.056 57.91 75.0563 57.91C75.0565 57.91 75.0567 57.91 75.0569 57.91C75.0572 57.91 75.0574 57.91 75.0576 57.91C75.0578 57.91 75.0581 57.91 75.0583 57.91C75.0585 57.91 75.0587 57.91 75.059 57.91C75.0592 57.91 75.0594 57.91 75.0596 57.91C75.0599 57.91 75.0601 57.91 75.0603 57.91C75.0605 57.91 75.0608 57.91 75.061 57.91C75.0612 57.91 75.0614 57.91 75.0617 57.91C75.0619 57.91 75.0621 57.91 75.0623 57.91C75.0626 57.91 75.0628 57.91 75.063 57.91C75.0632 57.91 75.0634 57.91 75.0637 57.91C75.0639 57.91 75.0641 57.91 75.0643 57.91C75.0646 57.91 75.0648 57.91 75.065 57.91C75.0652 57.91 75.0655 57.91 75.0657 57.91C75.0659 57.91 75.0661 57.91 75.0663 57.91C75.0666 57.91 75.0668 57.91 75.067 57.91C75.0672 57.91 75.0675 57.91 75.0677 57.91C75.0679 57.91 75.0681 57.91 75.0683 57.91C75.0686 57.91 75.0688 57.91 75.069 57.91C75.0692 57.91 75.0695 57.91 75.0697 57.91C75.0699 57.91 75.0701 57.91 75.0703 57.91C75.0706 57.91 75.0708 57.91 75.071 57.91C75.0712 57.91 75.0714 57.91 75.0717 57.91C75.0719 57.91 75.0721 57.91 75.0723 57.91C75.0725 57.91 75.0728 57.91 75.073 57.91C75.0732 57.91 75.0734 57.91 75.0736 57.91C75.0739 57.91 75.0741 57.91 75.0743 57.91C75.0745 57.91 75.0747 57.91 75.075 57.91C75.0752 57.91 75.0754 57.91 75.0756 57.91C75.0758 57.91 75.0761 57.91 75.0763 57.91C75.0765 57.91 75.0767 57.91 75.0769 57.91C75.0772 57.91 75.0774 57.91 75.0776 57.91C75.0778 57.91 75.078 57.91 75.0783 57.91C75.0785 57.91 75.0787 57.91 75.0789 57.91C75.0791 57.91 75.0794 57.91 75.0796 57.91C75.0798 57.91 75.08 57.91 75.0802 57.91C75.0804 57.91 75.0807 57.91 75.0809 57.91C75.0811 57.91 75.0813 57.91 75.0815 57.91C75.0818 57.91 75.082 57.91 75.0822 57.91C75.0824 57.91 75.0826 57.91 75.0828 57.91C75.0831 57.91 75.0833 57.91 75.0835 57.91C75.0837 57.91 75.0839 57.91 75.0841 57.91C75.0844 57.91 75.0846 57.91 75.0848 57.91C75.085 57.91 75.0852 57.91 75.0854 57.91C75.0857 57.91 75.0859 57.91 75.0861 57.91C75.0863 57.91 75.0865 57.91 75.0867 57.91C75.087 57.91 75.0872 57.91 75.0874 57.91C75.0876 57.91 75.0878 57.91 75.088 57.91C75.0883 57.91 75.0885 57.91 75.0887 57.91C75.0889 57.91 75.0891 57.91 75.0893 57.91C75.0896 57.91 75.0898 57.91 75.09 57.91C75.0902 57.91 75.0904 57.91 75.0906 57.91C75.0908 57.91 75.0911 57.91 75.0913 57.91C75.0915 57.91 75.0917 57.91 75.0919 57.91C75.0921 57.91 75.0923 57.91 75.0926 57.91C75.0928 57.91 75.093 57.91 75.0932 57.91C75.0934 57.91 75.0936 57.91 75.0938 57.91C75.0941 57.91 75.0943 57.91 75.0945 57.91C75.0947 57.91 75.0949 57.91 75.0951 57.91C75.0953 57.91 75.0956 57.91 75.0958 57.91C75.096 57.91 75.0962 57.91 75.0964 57.91C75.0966 57.91 75.0968 57.91 75.0971 57.91C75.0973 57.91 75.0975 57.91 75.0977 57.91C75.0979 57.91 75.0981 57.91 75.0983 57.91C75.0985 57.91 75.0988 57.91 75.099 57.91C75.0992 57.91 75.0994 57.91 75.0996 57.91C75.0998 57.91 75.1 57.91 75.1003 57.91C75.1005 57.91 75.1007 57.91 75.1009 57.91C75.1011 57.91 75.1013 57.91 75.1015 57.91C75.1017 57.91 75.1019 57.91 75.1022 57.91C75.1024 57.91 75.1026 57.91 75.1028 57.91C75.103 57.91 75.1032 57.91 75.1034 57.91C75.1036 57.91 75.1039 57.91 75.1041 57.91C75.1043 57.91 75.1045 57.91 75.1047 57.91C75.1049 57.91 75.1051 57.91 75.1053 57.91C75.1055 57.91 75.1058 57.91 75.106 57.91C75.1062 57.91 75.1064 57.91 75.1066 57.91C75.1068 57.91 75.107 57.91 75.1072 57.91C75.1074 57.91 75.1076 57.91 75.1079 57.91C75.1081 57.91 75.1083 57.91 75.1085 57.91C75.1087 57.91 75.1089 57.91 75.1091 57.91C75.1093 57.91 75.1095 57.91 75.1097 57.91C75.11 57.91 75.1102 57.91 75.1104 57.91C75.1106 57.91 75.1108 57.91 75.111 57.91C75.1112 57.91 75.1114 57.91 75.1116 57.91C75.1118 57.91 75.1121 57.91 75.1123 57.91C75.1125 57.91 75.1127 57.91 75.1129 57.91C75.1131 57.91 75.1133 57.91 75.1135 57.91C75.1137 57.91 75.1139 57.91 75.1141 57.91C75.1144 57.91 75.1146 57.91 75.1148 57.91C75.115 57.91 75.1152 57.91 75.1154 57.91C75.1156 57.91 75.1158 57.91 75.116 57.91C75.1162 57.91 75.1164 57.91 75.1166 57.91C75.1168 57.91 75.1171 57.91 75.1173 57.91C75.1175 57.91 75.1177 57.91 75.1179 57.91C75.1181 57.91 75.1183 57.91 75.1185 57.91C75.1187 57.91 75.1189 57.91 75.1191 57.91C75.1193 57.91 75.1195 57.91 75.1198 57.91C75.12 57.91 75.1202 57.91 75.1204 57.91C75.1206 57.91 75.1208 57.91 75.121 57.91C75.1212 57.91 75.1214 57.91 75.1216 57.91C75.1218 57.91 75.122 57.91 75.1222 57.91C75.1224 57.91 75.1226 57.91 75.1229 57.91C75.1231 57.91 75.1233 57.91 75.1235 57.91C75.1237 57.91 75.1239 57.91 75.1241 57.91C75.1243 57.91 75.1245 57.91 75.1247 57.91C75.1249 57.91 75.1251 57.91 75.1253 57.91C75.1255 57.91 75.1257 57.91 75.1259 57.91C75.1261 57.91 75.1264 57.91 75.1266 57.91C75.1268 57.91 75.127 57.91 75.1272 57.91C75.1274 57.91 75.1276 57.91 75.1278 57.91C75.128 57.91 75.1282 57.91 75.1284 57.91C75.1286 57.91 75.1288 57.91 75.129 57.91C75.1292 57.91 75.1294 57.91 75.1296 57.91C75.1298 57.91 75.13 57.91 75.1302 57.91C75.1304 57.91 75.1306 57.91 75.1309 57.91C75.1311 57.91 75.1313 57.91 75.1315 57.91C75.1317 57.91 75.1319 57.91 75.1321 57.91C75.1323 57.91 75.1325 57.91 75.1327 57.91C75.1329 57.91 75.1331 57.91 75.1333 57.91C75.1335 57.91 75.1337 57.91 75.1339 57.91C75.1341 57.91 75.1343 57.91 75.1345 57.91C75.1347 57.91 75.1349 57.91 75.1351 57.91C75.1353 57.91 75.1355 57.91 75.1357 57.91C75.1359 57.91 75.1361 57.91 75.1363 57.91C75.1365 57.91 75.1367 57.91 75.137 57.91C75.1372 57.91 75.1374 57.91 75.1376 57.91C75.1378 57.91 75.138 57.91 75.1382 57.91C75.1384 57.91 75.1386 57.91 75.1388 57.91C75.139 57.91 75.1392 57.91 75.1394 57.91C75.1396 57.91 75.1398 57.91 75.14 57.91C75.1402 57.91 75.1404 57.91 75.1406 57.91C75.1408 57.91 75.141 57.91 75.1412 57.91C75.1414 57.91 75.1416 57.91 75.1418 57.91C75.142 57.91 75.1422 57.91 75.1424 57.91C75.1426 57.91 75.1428 57.91 75.143 57.91C75.1432 57.91 75.1434 57.91 75.1436 57.91C75.1438 57.91 75.144 57.91 75.1442 57.91C75.1444 57.91 75.1446 57.91 75.1448 57.91C75.145 57.91 75.1452 57.91 75.1454 57.91C75.1456 57.91 75.1458 57.91 75.146 57.91C75.1462 57.91 75.1464 57.91 75.1466 57.91C75.1468 57.91 75.147 57.91 75.1472 57.91C75.1474 57.91 75.1476 57.91 75.1478 57.91C75.148 57.91 75.1482 57.91 75.1484 57.91C75.1486 57.91 75.1488 57.91 75.149 57.91C75.1492 57.91 75.1494 57.91 75.1496 57.91C75.1498 57.91 75.15 57.91 75.1502 57.91C75.1504 57.91 75.1506 57.91 75.1508 57.91C75.151 57.91 75.1512 57.91 75.1514 57.91C75.1516 57.91 75.1518 57.91 75.152 57.91C75.1522 57.91 75.1524 57.91 75.1526 57.91C75.1528 57.91 75.153 57.91 75.1532 57.91C75.1534 57.91 75.1536 57.91 75.1538 57.91C75.154 57.91 75.1542 57.91 75.1544 57.91C75.1546 57.91 75.1548 57.91 75.155 57.91C75.1552 57.91 75.1554 57.91 75.1556 57.91C75.1558 57.91 75.156 57.91 75.1562 57.91C75.1564 57.91 75.1566 57.91 75.1568 57.91C75.157 57.91 75.1572 57.91 75.1574 57.91C75.1576 57.91 75.1577 57.91 75.1579 57.91C75.1581 57.91 75.1583 57.91 75.1585 57.91C75.1587 57.91 75.1589 57.91 75.1591 57.91C75.1593 57.91 75.1595 57.91 75.1597 57.91C75.1599 57.91 75.1601 57.91 75.1603 57.91C75.1605 57.91 75.1607 57.91 75.1609 57.91C75.1611 57.91 75.1613 57.91 75.1615 57.91C75.1617 57.91 75.1619 57.91 75.1621 57.91C75.1623 57.91 75.1625 57.91 75.1627 57.91C75.1629 57.91 75.1631 57.91 75.1633 57.91C75.1635 57.91 75.1637 57.91 75.1638 57.91C75.164 57.91 75.1642 57.91 75.1644 57.91C75.1646 57.91 75.1648 57.91 75.165 57.91C75.1652 57.91 75.1654 57.91 75.1656 57.91C75.1658 57.91 75.166 57.91 75.1662 57.91C75.1664 57.91 75.1666 57.91 75.1668 57.91C75.167 57.91 75.1672 57.91 75.1674 57.91C75.1676 57.91 75.1678 57.91 75.168 57.91C75.1681 57.91 75.1683 57.91 75.1685 57.91C75.1687 57.91 75.1689 57.91 75.1691 57.91C75.1693 57.91 75.1695 57.91 75.1697 57.91C75.1699 57.91 75.1701 57.91 75.1703 57.91C75.1705 57.91 75.1707 57.91 75.1709 57.91C75.1711 57.91 75.1713 57.91 75.1715 57.91C75.1717 57.91 75.1718 57.91 75.172 57.91C75.1722 57.91 75.1724 57.91 75.1726 57.91C75.1728 57.91 75.173 57.91 75.1732 57.91C75.1734 57.91 75.1736 57.91 75.1738 57.91C75.174 57.91 75.1742 57.91 75.1744 57.91C75.1746 57.91 75.1748 57.91 75.1749 57.91C75.1751 57.91 75.1753 57.91 75.1755 57.91C75.1757 57.91 75.1759 57.91 75.1761 57.91C75.1763 57.91 75.1765 57.91 75.1767 57.91C75.1769 57.91 75.1771 57.91 75.1773 57.91C75.1775 57.91 75.1777 57.91 75.1778 57.91C75.178 57.91 75.1782 57.91 75.1784 57.91C75.1786 57.91 75.1788 57.91 75.179 57.91C75.1792 57.91 75.1794 57.91 75.1796 57.91C75.1798 57.91 75.18 57.91 75.1802 57.91C75.1804 57.91 75.1805 57.91 75.1807 57.91C75.1809 57.91 75.1811 57.91 75.1813 57.91C75.1815 57.91 75.1817 57.91 75.1819 57.91C75.1821 57.91 75.1823 57.91 75.1825 57.91C75.1827 57.91 75.1828 57.91 75.183 57.91C75.1832 57.91 75.1834 57.91 75.1836 57.91C75.1838 57.91 75.184 57.91 75.1842 57.91C75.1844 57.91 75.1846 57.91 75.1848 57.91C75.185 57.91 75.1852 57.91 75.1853 57.91C75.1855 57.91 75.1857 57.91 75.1859 57.91C75.1861 57.91 75.1863 57.91 75.1865 57.91C75.1867 57.91 75.1869 57.91 75.1871 57.91C75.1873 57.91 75.1874 57.91 75.1876 57.91C75.1878 57.91 75.188 57.91 75.1882 57.91C75.1884 57.91 75.1886 57.91 75.1888 57.91C75.189 57.91 75.1892 57.91 75.1894 57.91C75.1895 57.91 75.1897 57.91 75.1899 57.91C75.1901 57.91 75.1903 57.91 75.1905 57.91C75.1907 57.91 75.1909 57.91 75.1911 57.91C75.1913 57.91 75.1914 57.91 75.1916 57.91C75.1918 57.91 75.192 57.91 75.1922 57.91C75.1924 57.91 75.1926 57.91 75.1928 57.91C75.193 57.91 75.1932 57.91 75.1933 57.91C75.1935 57.91 75.1937 57.91 75.1939 57.91C75.1941 57.91 75.1943 57.91 75.1945 57.91C75.1947 57.91 75.1949 57.91 75.195 57.91C75.1952 57.91 75.1954 57.91 75.1956 57.91C75.1958 57.91 75.196 57.91 75.1962 57.91C75.1964 57.91 75.1966 57.91 75.1968 57.91C75.1969 57.91 75.1971 57.91 75.1973 57.91C75.1975 57.91 75.1977 57.91 75.1979 57.91C75.1981 57.91 75.1983 57.91 75.1985 57.91C75.1986 57.91 75.1988 57.91 75.199 57.91C75.1992 57.91 75.1994 57.91 75.1996 57.91C75.1998 57.91 75.2 57.91 75.2002 57.91C75.2003 57.91 75.2005 57.91 75.2007 57.91C75.2009 57.91 75.2011 57.91 75.2013 57.91C75.2015 57.91 75.2017 57.91 75.2018 57.91C75.202 57.91 75.2022 57.91 75.2024 57.91C75.2026 57.91 75.2028 57.91 75.203 57.91C75.2032 57.91 75.2034 57.91 75.2035 57.91C75.2037 57.91 75.2039 57.91 75.2041 57.91C75.2043 57.91 75.2045 57.91 75.2047 57.91C75.2049 57.91 75.205 57.91 75.2052 57.91C75.2054 57.91 75.2056 57.91 75.2058 57.91C75.206 57.91 75.2062 57.91 75.2064 57.91C75.2065 57.91 75.2067 57.91 75.2069 57.91C75.2071 57.91 75.2073 57.91 75.2075 57.91C75.2077 57.91 75.2078 57.91 75.208 57.91C75.2082 57.91 75.2084 57.91 75.2086 57.91C75.2088 57.91 75.209 57.91 75.2092 57.91C75.2093 57.91 75.2095 57.91 75.2097 57.91C75.2099 57.91 75.2101 57.91 75.2103 57.91C75.2105 57.91 75.2106 57.91 75.2108 57.91C75.211 57.91 75.2112 57.91 75.2114 57.91C75.2116 57.91 75.2118 57.91 75.212 57.91C75.2121 57.91 75.2123 57.91 75.2125 57.91C75.2127 57.91 75.2129 57.91 75.2131 57.91C75.2133 57.91 75.2134 57.91 75.2136 57.91C75.2138 57.91 75.214 57.91 75.2142 57.91C75.2144 57.91 75.2146 57.91 75.2147 57.91C75.2149 57.91 75.2151 57.91 75.2153 57.91C75.2155 57.91 75.2157 57.91 75.2159 57.91C75.216 57.91 75.2162 57.91 75.2164 57.91C75.2166 57.91 75.2168 57.91 75.217 57.91C75.2172 57.91 75.2173 57.91 75.2175 57.91C75.2177 57.91 75.2179 57.91 75.2181 57.91C75.2183 57.91 75.2185 57.91 75.2186 57.91C75.2188 57.91 75.219 57.91 75.2192 57.91C75.2194 57.91 75.2196 57.91 75.2198 57.91C75.2199 57.91 75.2201 57.91 75.2203 57.91C75.2205 57.91 75.2207 57.91 75.2209 57.91C75.221 57.91 75.2212 57.91 75.2214 57.91C75.2216 57.91 75.2218 57.91 75.222 57.91C75.2222 57.91 75.2223 57.91 75.2225 57.91C75.2227 57.91 75.2229 57.91 75.2231 57.91C75.2233 57.91 75.2234 57.91 75.2236 57.91C75.2238 57.91 75.224 57.91 75.2242 57.91C75.2244 57.91 75.2246 57.91 75.2247 57.91C75.2249 57.91 75.2251 57.91 75.2253 57.91C75.2255 57.91 75.2257 57.91 75.2258 57.91C75.226 57.91 75.2262 57.91 75.2264 57.91C75.2266 57.91 75.2268 57.91 75.2269 57.91C75.2271 57.91 75.2273 57.91 75.2275 57.91C75.2277 57.91 75.2279 57.91 75.228 57.91C75.2282 57.91 75.2284 57.91 75.2286 57.91C75.2288 57.91 75.229 57.91 75.2291 57.91C75.2293 57.91 75.2295 57.91 75.2297 57.91C75.2299 57.91 75.2301 57.91 75.2302 57.91C75.2304 57.91 75.2306 57.91 75.2308 57.91C75.231 57.91 75.2312 57.91 75.2313 57.91C75.2315 57.91 75.2317 57.91 75.2319 57.91C75.2321 57.91 75.2323 57.91 75.2324 57.91C75.2326 57.91 75.2328 57.91 75.233 57.91C75.2332 57.91 75.2334 57.91 75.2335 57.91C75.2337 57.91 75.2339 57.91 75.2341 57.91C75.2343 57.91 75.2345 57.91 75.2346 57.91C75.2348 57.91 75.235 57.91 75.2352 57.91C75.2354 57.91 75.2356 57.91 75.2357 57.91C75.2359 57.91 75.2361 57.91 75.2363 57.91C75.2365 57.91 75.2366 57.91 75.2368 57.91C75.237 57.91 75.2372 57.91 75.2374 57.91C75.2376 57.91 75.2377 57.91 75.2379 57.91C75.2381 57.91 75.2383 57.91 75.2385 57.91C75.2387 57.91 75.2388 57.91 75.239 57.91C75.2392 57.91 75.2394 57.91 75.2396 57.91C75.2397 57.91 75.2399 57.91 75.2401 57.91C75.2403 57.91 75.2405 57.91 75.2407 57.91C75.2408 57.91 75.241 57.91 75.2412 57.91C75.2414 57.91 75.2416 57.91 75.2417 57.91C75.2419 57.91 75.2421 57.91 75.2423 57.91C75.2425 57.91 75.2427 57.91 75.2428 57.91C75.243 57.91 75.2432 57.91 75.2434 57.91C75.2436 57.91 75.2437 57.91 75.2439 57.91C75.2441 57.91 75.2443 57.91 75.2445 57.91C75.2447 57.91 75.2448 57.91 75.245 57.91C75.2452 57.91 75.2454 57.91 75.2456 57.91C75.2457 57.91 75.2459 57.91 75.2461 57.91C75.2463 57.91 75.2465 57.91 75.2466 57.91C75.2468 57.91 75.247 57.91 75.2472 57.91C75.2474 57.91 75.2475 57.91 75.2477 57.91C75.2479 57.91 75.2481 57.91 75.2483 57.91C75.2485 57.91 75.2486 57.91 75.2488 57.91C75.249 57.91 75.2492 57.91 75.2494 57.91C75.2495 57.91 75.2497 57.91 75.2499 57.91C75.2501 57.91 75.2503 57.91 75.2504 57.91C75.2506 57.91 75.2508 57.91 75.251 57.91C75.2512 57.91 75.2513 57.91 75.2515 57.91C75.2517 57.91 75.2519 57.91 75.2521 57.91C75.2522 57.91 75.2524 57.91 75.2526 57.91C75.2528 57.91 75.253 57.91 75.2531 57.91C75.2533 57.91 75.2535 57.91 75.2537 57.91C75.2539 57.91 75.2541 57.91 75.2542 57.91C75.2544 57.91 75.2546 57.91 75.2548 57.91C75.255 57.91 75.2551 57.91 75.2553 57.91C75.2555 57.91 75.2557 57.91 75.2559 57.91C75.256 57.91 75.2562 57.91 75.2564 57.91C75.2566 57.91 75.2568 57.91 75.2569 57.91C75.2571 57.91 75.2573 57.91 75.2575 57.91C75.2577 57.91 75.2578 57.91 75.258 57.91C75.2582 57.91 75.2584 57.91 75.2585 57.91C75.2587 57.91 75.2589 57.91 75.2591 57.91C75.2593 57.91 75.2594 57.91 75.2596 57.91C75.2598 57.91 75.26 57.91 75.2602 57.91C75.2603 57.91 75.2605 57.91 75.2607 57.91C75.2609 57.91 75.2611 57.91 75.2612 57.91C75.2614 57.91 75.2616 57.91 75.2618 57.91C75.262 57.91 75.2621 57.91 75.2623 57.91C75.2625 57.91 75.2627 57.91 75.2629 57.91C75.263 57.91 75.2632 57.91 75.2634 57.91C75.2636 57.91 75.2638 57.91 75.2639 57.91C75.2641 57.91 75.2643 57.91 75.2645 57.91C75.2646 57.91 75.2648 57.91 75.265 57.91C75.2652 57.91 75.2654 57.91 75.2655 57.91C75.2657 57.91 75.2659 57.91 75.2661 57.91C75.2663 57.91 75.2664 57.91 75.2666 57.91C75.2668 57.91 75.267 57.91 75.2672 57.91C75.2673 57.91 75.2675 57.91 75.2677 57.91C75.2679 57.91 75.268 57.91 75.2682 57.91C75.2684 57.91 75.2686 57.91 75.2688 57.91C75.2689 57.91 75.2691 57.91 75.2693 57.91C75.2695 57.91 75.2697 57.91 75.2698 57.91C75.27 57.91 75.2702 57.91 75.2704 57.91C75.2705 57.91 75.2707 57.91 75.2709 57.91C75.2711 57.91 75.2713 57.91 75.2714 57.91C75.2716 57.91 75.2718 57.91 75.272 57.91C75.2722 57.91 75.2723 57.91 75.2725 57.91C75.2727 57.91 75.2729 57.91 75.273 57.91C75.2732 57.91 75.2734 57.91 75.2736 57.91C75.2738 57.91 75.2739 57.91 75.2741 57.91C75.2743 57.91 75.2745 57.91 75.2746 57.91C75.2748 57.91 75.275 57.91 75.2752 57.91C75.2754 57.91 75.2755 57.91 75.2757 57.91C75.2759 57.91 75.2761 57.91 75.2762 57.91C75.2764 57.91 75.2766 57.91 75.2768 57.91C75.277 57.91 75.2771 57.91 75.2773 57.91C75.2775 57.91 75.2777 57.91 75.2778 57.91C75.278 57.91 75.2782 57.91 75.2784 57.91C75.2786 57.91 75.2787 57.91 75.2789 57.91C75.2791 57.91 75.2793 57.91 75.2794 57.91C75.2796 57.91 75.2798 57.91 75.28 57.91C75.2802 57.91 75.2803 57.91 75.2805 57.91C75.2807 57.91 75.2809 57.91 75.281 57.91C75.2812 57.91 75.2814 57.91 75.2816 57.91C75.2818 57.91 75.2819 57.91 75.2821 57.91C75.2823 57.91 75.2825 57.91 75.2826 57.91C75.2828 57.91 75.283 57.91 75.2832 57.91C75.2834 57.91 75.2835 57.91 75.2837 57.91C75.2839 57.91 75.2841 57.91 75.2842 57.91C75.2844 57.91 75.2846 57.91 75.2848 57.91C75.285 57.91 75.2851 57.91 75.2853 57.91C75.2855 57.91 75.2857 57.91 75.2858 57.91C75.286 57.91 75.2862 57.91 75.2864 57.91C75.2865 57.91 75.2867 57.91 75.2869 57.91C75.2871 57.91 75.2873 57.91 75.2874 57.91C75.2876 57.91 75.2878 57.91 75.288 57.91C75.2881 57.91 75.2883 57.91 75.2885 57.91C75.2887 57.91 75.2889 57.91 75.289 57.91C75.2892 57.91 75.2894 57.91 75.2896 57.91C75.2897 57.91 75.2899 57.91 75.2901 57.91C75.2903 57.91 75.2904 57.91 75.2906 57.91C75.2908 57.91 75.291 57.91 75.2912 57.91C75.2913 57.91 75.2915 57.91 75.2917 57.91C75.2919 57.91 75.292 57.91 75.2922 57.91C75.2924 57.91 75.2926 57.91 75.2927 57.91C75.2929 57.91 75.2931 57.91 75.2933 57.91C75.2934 57.91 75.2936 57.91 75.2938 57.91C75.294 57.91 75.2942 57.91 75.2943 57.91C75.2945 57.91 75.2947 57.91 75.2949 57.91C75.295 57.91 75.2952 57.91 75.2954 57.91C75.2956 57.91 75.2957 57.91 75.2959 57.91C75.2961 57.91 75.2963 57.91 75.2965 57.91C75.2966 57.91 75.2968 57.91 75.297 57.91C75.2972 57.91 75.2973 57.91 75.2975 57.91C75.2977 57.91 75.2979 57.91 75.298 57.91C75.2982 57.91 75.2984 57.91 75.2986 57.91C75.2987 57.91 75.2989 57.91 75.2991 57.91C75.2993 57.91 75.2995 57.91 75.2996 57.91C75.2998 57.91 75.3 57.91 75.3002 57.91C75.3003 57.91 75.3005 57.91 75.3007 57.91C75.3009 57.91 75.301 57.91 75.3012 57.91C75.3014 57.91 75.3016 57.91 75.3017 57.91C75.3019 57.91 75.3021 57.91 75.3023 57.91C75.3025 57.91 75.3026 57.91 75.3028 57.91C75.303 57.91 75.3032 57.91 75.3033 57.91C75.3035 57.91 75.3037 57.91 75.3039 57.91C75.304 57.91 75.3042 57.91 75.3044 57.91C75.3046 57.91 75.3047 57.91 75.3049 57.91C75.3051 57.91 75.3053 57.91 75.3055 57.91C75.3056 57.91 75.3058 57.91 75.306 57.91C75.3062 57.91 75.3063 57.91 75.3065 57.91C75.3067 57.91 75.3069 57.91 75.307 57.91C75.3072 57.91 75.3074 57.91 75.3076 57.91C75.3077 57.91 75.3079 57.91 75.3081 57.91C75.3083 57.91 75.3084 57.91 75.3086 57.91C75.3088 57.91 75.309 57.91 75.3091 57.91C75.3093 57.91 75.3095 57.91 75.3097 57.91C75.3099 57.91 75.31 57.91 75.3102 57.91C75.3104 57.91 75.3106 57.91 75.3107 57.91C75.3109 57.91 75.3111 57.91 75.3113 57.91C75.3114 57.91 75.3116 57.91 75.3118 57.91C75.312 57.91 75.3121 57.91 75.3123 57.91C75.3125 57.91 75.3127 57.91 75.3128 57.91C75.313 57.91 75.3132 57.91 75.3134 57.91C75.3135 57.91 75.3137 57.91 75.3139 57.91C75.3141 57.91 75.3143 57.91 75.3144 57.91C75.3146 57.91 75.3148 57.91 75.315 57.91C75.3151 57.91 75.3153 57.91 75.3155 57.91C75.3157 57.91 75.3158 57.91 75.316 57.91C75.3162 57.91 75.3164 57.91 75.3165 57.91C75.3167 57.91 75.3169 57.91 75.3171 57.91C75.3172 57.91 75.3174 57.91 75.3176 57.91C75.3178 57.91 75.3179 57.91 75.3181 57.91C75.3183 57.91 75.3185 57.91 75.3187 57.91C75.3188 57.91 75.319 57.91 75.3192 57.91C75.3194 57.91 75.3195 57.91 75.3197 57.91C75.3199 57.91 75.3201 57.91 75.3202 57.91C75.3204 57.91 75.3206 57.91 75.3208 57.91C75.3209 57.91 75.3211 57.91 75.3213 57.91C75.3215 57.91 75.3216 57.91 75.3218 57.91C75.322 57.91 75.3222 57.91 75.3223 57.91C75.3225 57.91 75.3227 57.91 75.3229 57.91C75.323 57.91 75.3232 57.91 75.3234 57.91C75.3236 57.91 75.3237 57.91 75.3239 57.91C75.3241 57.91 75.3243 57.91 75.3245 57.91C75.3246 57.91 75.3248 57.91 75.325 57.91C75.3252 57.91 75.3253 57.91 75.3255 57.91C75.3257 57.91 75.3259 57.91 75.326 57.91C75.3262 57.91 75.3264 57.91 75.3266 57.91C75.3267 57.91 75.3269 57.91 75.3271 57.91C75.3273 57.91 75.3274 57.91 75.3276 57.91C75.3278 57.91 75.328 57.91 75.3281 57.91C75.3283 57.91 75.3285 57.91 75.3287 57.91V55.91ZM75.9916 57.1799L79.1116 46.0499L77.1858 45.5101L74.0658 56.6401L75.9916 57.1799ZM77.352 46.3844C78.6977 48.1582 79.7587 49.6729 79.7587 51.57H81.7587C81.7587 48.9071 80.2397 46.8818 78.9454 45.1756L77.352 46.3844Z" fill="black"/>
</svg>
