<svg width="139" height="91" viewBox="0 0 139 91" fill="none" xmlns="http://www.w3.org/2000/svg">
<path d="M136.5 45.5C136.5 56.9471 129.411 67.6363 117.275 75.5817C105.16 83.5129 88.2762 88.5 69.5 88.5C50.7238 88.5 33.84 83.5129 21.7254 75.5817C9.58894 67.6363 2.5 56.9471 2.5 45.5C2.5 34.0529 9.58894 23.3637 21.7254 15.4183C33.84 7.48712 50.7238 2.5 69.5 2.5C88.2762 2.5 105.16 7.48712 117.275 15.4183C129.411 23.3637 136.5 34.0529 136.5 45.5Z" fill="white" stroke="black" stroke-width="5"/>
<path d="M61.34 52.08L60.02 56.73L55.73 54.09C58.7 51.78 61.4 48.72 61.4 45.54C61.4 43.32 60.05 41.7 57.26 41.7C56.33 41.7 55.4 41.82 54.53 42.15L53.27 46.62H53.57L54.77 42.39C55.58 42.09 56.42 42 57.26 42C59.9 42 61.1 43.56 61.1 45.54C61.1 48.63 58.4 51.66 55.49 53.94L52.31 51.99L52.07 52.14L50.75 56.91L50.99 57.12C52.31 56.46 53.93 55.47 55.52 54.27L59.96 57H60.26L61.64 52.08H61.34ZM52.31 52.32L55.25 54.12C53.81 55.2 52.34 56.1 51.11 56.73L52.31 52.32ZM72.4285 41.7C68.0185 41.7 65.0785 45.3 65.0785 49.59C65.0785 53.91 68.0185 57.3 72.4285 57.3C76.8685 57.3 79.7785 53.73 79.7785 49.59C79.7785 45.12 76.7785 41.7 72.4285 41.7ZM72.4285 57.03C68.1385 57.03 65.3785 53.7 65.3785 49.59C65.3785 45.42 68.1985 41.97 72.4285 41.97C76.6885 41.97 79.4785 45.33 79.4785 49.59C79.4785 53.58 76.6885 57.03 72.4285 57.03ZM85.0838 57.18C88.2638 57.18 90.8438 55.29 90.8438 51.54C90.8438 49.17 89.4338 47.28 88.0238 45.45L90.9938 34.71C92.8238 34.71 93.8738 35.04 94.2038 35.16L92.4338 41.82H92.7338L94.5338 34.98C94.5338 34.98 93.4838 34.47 91.0838 34.44L91.8038 31.83H91.5038L90.7838 34.44C87.4238 34.44 84.9338 36.3 84.9338 39.48C84.9338 41.85 86.3138 43.68 87.6938 45.48L84.5438 56.88C83.0438 56.79 81.7538 56.28 81.1538 55.71L82.6238 50.43H82.3238L80.8238 55.8C81.5738 56.52 82.9838 57.03 84.4538 57.15L83.4638 60.72H83.7638L84.7538 57.18C84.8738 57.18 84.9638 57.18 85.0838 57.18ZM85.2338 39.48C85.2338 36.36 87.7238 34.77 90.6938 34.71L87.7838 45.15C86.4938 43.41 85.2338 41.67 85.2338 39.48ZM90.5438 51.57C90.5438 55.14 88.1138 56.91 85.1138 56.91C85.0238 56.91 84.9338 56.91 84.8138 56.91L87.9338 45.78C89.2538 47.52 90.5438 49.29 90.5438 51.57Z" fill="black"/>
<path d="M61.34 52.08V51.08H60.5844L60.378 51.8069L61.34 52.08ZM60.02 56.73L59.4959 57.5817L60.6212 58.2741L60.982 57.0031L60.02 56.73ZM55.73 54.09L55.1161 53.3006L53.9778 54.1859L55.2059 54.9417L55.73 54.09ZM54.53 42.15L54.1753 41.215L53.7042 41.3937L53.5675 41.8787L54.53 42.15ZM53.27 46.62L52.3075 46.3487L51.9492 47.62H53.27V46.62ZM53.57 46.62V47.62H54.3258L54.532 46.8929L53.57 46.62ZM54.77 42.39L54.4227 41.4523L53.9465 41.6286L53.808 42.1171L54.77 42.39ZM55.49 53.94L54.9672 54.7925L55.5597 55.1558L56.1067 54.7272L55.49 53.94ZM52.31 51.99L52.8328 51.1375L52.305 50.8139L51.78 51.142L52.31 51.99ZM52.07 52.14L51.54 51.292L51.21 51.4982L51.1062 51.8733L52.07 52.14ZM50.75 56.91L49.7862 56.6433L49.6187 57.2488L50.0915 57.6626L50.75 56.91ZM50.99 57.12L50.3315 57.8726L50.8367 58.3147L51.4372 58.0144L50.99 57.12ZM55.52 54.27L56.0438 53.4181L55.4624 53.0607L54.9176 53.4718L55.52 54.27ZM59.96 57L59.4362 57.8519L59.6772 58H59.96V57ZM60.26 57V58H61.0181L61.2228 57.2701L60.26 57ZM61.64 52.08L62.6028 52.3501L62.9591 51.08H61.64V52.08ZM52.31 52.32L52.8322 51.4671L51.6951 50.771L51.3451 52.0574L52.31 52.32ZM55.25 54.12L55.85 54.92L57.0283 54.0362L55.7722 53.2671L55.25 54.12ZM51.11 56.73L50.1451 56.4674L49.5506 58.6523L51.5659 57.62L51.11 56.73ZM60.378 51.8069L59.058 56.4569L60.982 57.0031L62.302 52.3531L60.378 51.8069ZM60.5441 55.8783L56.2541 53.2383L55.2059 54.9417L59.4959 57.5817L60.5441 55.8783ZM56.3439 54.8794C57.8749 53.6886 59.3699 52.2797 60.4899 50.7261C61.6066 49.1771 62.4 47.4145 62.4 45.54H60.4C60.4 46.8455 59.8434 48.2029 58.8676 49.5564C57.8951 50.9053 56.5551 52.1814 55.1161 53.3006L56.3439 54.8794ZM62.4 45.54C62.4 44.2285 61.9978 42.9898 61.0814 42.0785C60.1632 41.1653 58.8489 40.7 57.26 40.7V42.7C58.4611 42.7 59.2168 43.0447 59.6711 43.4965C60.1272 43.9502 60.4 44.6315 60.4 45.54H62.4ZM57.26 40.7C56.2478 40.7 55.1901 40.8301 54.1753 41.215L54.8847 43.085C55.6099 42.8099 56.4122 42.7 57.26 42.7V40.7ZM53.5675 41.8787L52.3075 46.3487L54.2325 46.8913L55.4925 42.4213L53.5675 41.8787ZM53.27 47.62H53.57V45.62H53.27V47.62ZM54.532 46.8929L55.732 42.6629L53.808 42.1171L52.608 46.3471L54.532 46.8929ZM55.1173 43.3277C55.7769 43.0835 56.4878 43 57.26 43V41C56.3522 41 55.3831 41.0965 54.4227 41.4523L55.1173 43.3277ZM57.26 43C58.3805 43 59.0594 43.3263 59.4587 43.7304C59.863 44.1395 60.1 44.7489 60.1 45.54H62.1C62.1 44.3511 61.737 43.1905 60.8813 42.3246C60.0206 41.4537 58.7795 41 57.26 41V43ZM60.1 45.54C60.1 46.7944 59.5485 48.12 58.5774 49.4557C57.6113 50.7846 56.2843 52.0473 54.8733 53.1528L56.1067 54.7272C57.6057 53.5527 59.0837 52.1604 60.1951 50.6318C61.3015 49.11 62.1 47.3756 62.1 45.54H60.1ZM56.0128 53.0875L52.8328 51.1375L51.7872 52.8425L54.9672 54.7925L56.0128 53.0875ZM51.78 51.142L51.54 51.292L52.6 52.988L52.84 52.838L51.78 51.142ZM51.1062 51.8733L49.7862 56.6433L51.7138 57.1767L53.0338 52.4067L51.1062 51.8733ZM50.0915 57.6626L50.3315 57.8726L51.6485 56.3674L51.4085 56.1574L50.0915 57.6626ZM51.4372 58.0144C52.8154 57.3253 54.4871 56.3024 56.1224 55.0682L54.9176 53.4718C53.3729 54.6376 51.8046 55.5947 50.5428 56.2256L51.4372 58.0144ZM54.9962 55.1219L59.4362 57.8519L60.4838 56.1481L56.0438 53.4181L54.9962 55.1219ZM59.96 58H60.26V56H59.96V58ZM61.2228 57.2701L62.6028 52.3501L60.6772 51.8099L59.2972 56.7299L61.2228 57.2701ZM61.64 51.08H61.34V53.08H61.64V51.08ZM51.7878 53.1729L54.7278 54.9729L55.7722 53.2671L52.8322 51.4671L51.7878 53.1729ZM54.65 53.32C53.2547 54.3665 51.8328 55.2362 50.6541 55.84L51.5659 57.62C52.8472 56.9638 54.3653 56.0335 55.85 54.92L54.65 53.32ZM52.0749 56.9926L53.2749 52.5826L51.3451 52.0574L50.1451 56.4674L52.0749 56.9926ZM72.4285 40.7C67.3654 40.7 64.0785 44.8543 64.0785 49.59H66.0785C66.0785 45.7457 68.6717 42.7 72.4285 42.7V40.7ZM64.0785 49.59C64.0785 54.3896 67.3962 58.3 72.4285 58.3V56.3C68.6408 56.3 66.0785 53.4304 66.0785 49.59H64.0785ZM72.4285 58.3C77.5079 58.3 80.7785 54.191 80.7785 49.59H78.7785C78.7785 53.269 76.2292 56.3 72.4285 56.3V58.3ZM80.7785 49.59C80.7785 44.6531 77.4124 40.7 72.4285 40.7V42.7C76.1446 42.7 78.7785 45.5869 78.7785 49.59H80.7785ZM72.4285 56.03C68.7766 56.03 66.3785 53.2376 66.3785 49.59H64.3785C64.3785 54.1624 67.5004 58.03 72.4285 58.03V56.03ZM66.3785 49.59C66.3785 45.8613 68.8556 42.97 72.4285 42.97V40.97C67.5414 40.97 64.3785 44.9787 64.3785 49.59H66.3785ZM72.4285 42.97C76.036 42.97 78.4785 45.7764 78.4785 49.59H80.4785C80.4785 44.8836 77.3411 40.97 72.4285 40.97V42.97ZM78.4785 49.59C78.4785 53.1255 76.0433 56.03 72.4285 56.03V58.03C77.3338 58.03 80.4785 54.0345 80.4785 49.59H78.4785ZM88.0238 45.45L87.06 45.1835L86.9269 45.6648L87.2317 46.0603L88.0238 45.45ZM90.9938 34.71V33.71H90.2328L90.03 34.4435L90.9938 34.71ZM94.2038 35.16L95.1703 35.4168L95.4052 34.5328L94.5456 34.2202L94.2038 35.16ZM92.4338 41.82L91.4674 41.5631L91.1334 42.82H92.4338V41.82ZM92.7338 41.82V42.82H93.5047L93.7009 42.0745L92.7338 41.82ZM94.5338 34.98L95.5009 35.2345L95.7101 34.4396L94.9707 34.0805L94.5338 34.98ZM91.0838 34.44L90.1198 34.1741L89.7751 35.4237L91.0713 35.4399L91.0838 34.44ZM91.8038 31.83L92.7678 32.0959L93.117 30.83H91.8038V31.83ZM91.5038 31.83V30.83H90.7423L90.5398 31.5641L91.5038 31.83ZM90.7838 34.44V35.44H91.5453L91.7478 34.7059L90.7838 34.44ZM87.6938 45.48L88.6577 45.7463L88.7903 45.2666L88.4874 44.8716L87.6938 45.48ZM84.5438 56.88L84.4839 57.8782L85.2921 57.9267L85.5077 57.1463L84.5438 56.88ZM81.1538 55.71L80.1905 55.4418L80.0292 56.0209L80.4651 56.435L81.1538 55.71ZM82.6238 50.43L83.5872 50.6982L83.9403 49.43H82.6238V50.43ZM82.3238 50.43V49.43H81.5649L81.3607 50.161L82.3238 50.43ZM80.8238 55.8L79.8607 55.531L79.6998 56.1071L80.1313 56.5214L80.8238 55.8ZM84.4538 57.15L85.4175 57.4172L85.7407 56.2517L84.5352 56.1533L84.4538 57.15ZM83.4638 60.72L82.5002 60.4528L82.1488 61.72H83.4638V60.72ZM83.7638 60.72V61.72H84.5225L84.7269 60.9893L83.7638 60.72ZM84.7538 57.18V56.18H83.9951L83.7908 56.9107L84.7538 57.18ZM90.6938 34.71L91.6571 34.9785L92.0182 33.683L90.6736 33.7102L90.6938 34.71ZM87.7838 45.15L86.9805 45.7456L88.1982 47.388L88.7471 45.4185L87.7838 45.15ZM84.8138 56.91L83.8509 56.6401L83.495 57.91H84.8138V56.91ZM87.9338 45.78L88.7305 45.1756L87.5142 43.5722L86.9709 45.5101L87.9338 45.78ZM85.0838 58.18C86.8652 58.18 88.5624 57.6498 89.8265 56.5085C91.1061 55.3531 91.8438 53.6592 91.8438 51.54H89.8438C89.8438 53.1708 89.2915 54.2969 88.4862 55.024C87.6653 55.7652 86.4824 56.18 85.0838 56.18V58.18ZM91.8438 51.54C91.8438 48.7782 90.1926 46.6263 88.816 44.8397L87.2317 46.0603C88.6751 47.9337 89.8438 49.5618 89.8438 51.54H91.8438ZM88.9877 45.7165L91.9577 34.9765L90.03 34.4435L87.06 45.1835L88.9877 45.7165ZM90.9938 35.71C92.6984 35.71 93.6329 36.0165 93.8621 36.0998L94.5456 34.2202C94.1147 34.0635 92.9493 33.71 90.9938 33.71V35.71ZM93.2374 34.9031L91.4674 41.5631L93.4003 42.0768L95.1703 35.4168L93.2374 34.9031ZM92.4338 42.82H92.7338V40.82H92.4338V42.82ZM93.7009 42.0745L95.5009 35.2345L93.5668 34.7255L91.7668 41.5655L93.7009 42.0745ZM94.5338 34.98C94.9707 34.0805 94.9703 34.0803 94.97 34.0801C94.9698 34.08 94.9694 34.0799 94.9691 34.0797C94.9686 34.0795 94.968 34.0792 94.9675 34.0789C94.9663 34.0784 94.9651 34.0778 94.9638 34.0772C94.9612 34.0759 94.9584 34.0746 94.9553 34.0731C94.9491 34.0702 94.9418 34.0669 94.9335 34.0631C94.9168 34.0556 94.8959 34.0464 94.8707 34.0358C94.8202 34.0147 94.7525 33.9879 94.667 33.9575C94.4958 33.8967 94.2537 33.8215 93.9361 33.7474C93.3005 33.5991 92.3658 33.4559 91.0963 33.4401L91.0713 35.4399C92.2018 35.4541 92.9922 35.5809 93.4816 35.6951C93.7265 35.7522 93.8969 35.8064 93.9976 35.8422C94.048 35.8601 94.081 35.8734 94.0973 35.8802C94.1055 35.8837 94.1095 35.8855 94.1094 35.8854C94.1094 35.8854 94.1083 35.8849 94.1062 35.8839C94.1052 35.8835 94.1039 35.8828 94.1023 35.8821C94.1015 35.8817 94.1007 35.8813 94.0998 35.8809C94.0994 35.8807 94.0989 35.8805 94.0984 35.8802C94.0982 35.8801 94.0978 35.8799 94.0977 35.8799C94.0973 35.8797 94.0969 35.8795 94.5338 34.98ZM92.0478 34.7059L92.7678 32.0959L90.8398 31.5641L90.1198 34.1741L92.0478 34.7059ZM91.8038 30.83H91.5038V32.83H91.8038V30.83ZM90.5398 31.5641L89.8198 34.1741L91.7478 34.7059L92.4678 32.0959L90.5398 31.5641ZM90.7838 33.44C88.9282 33.44 87.2227 33.9535 85.9614 34.997C84.6795 36.0575 83.9338 37.6048 83.9338 39.48H85.9338C85.9338 38.1752 86.4331 37.2025 87.2363 36.538C88.0599 35.8565 89.2795 35.44 90.7838 35.44V33.44ZM83.9338 39.48C83.9338 42.2408 85.5543 44.3328 86.9002 46.0884L88.4874 44.8716C87.0734 43.0272 85.9338 41.4592 85.9338 39.48H83.9338ZM86.7299 45.2137L83.5799 56.6137L85.5077 57.1463L88.6577 45.7463L86.7299 45.2137ZM84.6037 55.8818C83.2384 55.7999 82.2107 55.3347 81.8426 54.985L80.4651 56.435C81.297 57.2253 82.8492 57.7801 84.4839 57.8782L84.6037 55.8818ZM82.1172 55.9782L83.5872 50.6982L81.6605 50.1618L80.1905 55.4418L82.1172 55.9782ZM82.6238 49.43H82.3238V51.43H82.6238V49.43ZM81.3607 50.161L79.8607 55.531L81.787 56.069L83.287 50.699L81.3607 50.161ZM80.1313 56.5214C81.1114 57.4623 82.781 58.0168 84.3725 58.1467L84.5352 56.1533C83.1867 56.0432 82.0363 55.5777 81.5164 55.0786L80.1313 56.5214ZM83.4902 56.8828L82.5002 60.4528L84.4275 60.9872L85.4175 57.4172L83.4902 56.8828ZM83.4638 61.72H83.7638V59.72H83.4638V61.72ZM84.7269 60.9893L85.7169 57.4493L83.7908 56.9107L82.8008 60.4507L84.7269 60.9893ZM84.7538 58.18C84.7541 58.18 84.7543 58.18 84.7545 58.18C84.7548 58.18 84.755 58.18 84.7552 58.18C84.7555 58.18 84.7557 58.18 84.7559 58.18C84.7562 58.18 84.7564 58.18 84.7566 58.18C84.7569 58.18 84.7571 58.18 84.7573 58.18C84.7576 58.18 84.7578 58.18 84.758 58.18C84.7583 58.18 84.7585 58.18 84.7587 58.18C84.759 58.18 84.7592 58.18 84.7594 58.18C84.7597 58.18 84.7599 58.18 84.7601 58.18C84.7604 58.18 84.7606 58.18 84.7608 58.18C84.7611 58.18 84.7613 58.18 84.7615 58.18C84.7618 58.18 84.762 58.18 84.7622 58.18C84.7624 58.18 84.7627 58.18 84.7629 58.18C84.7631 58.18 84.7634 58.18 84.7636 58.18C84.7638 58.18 84.7641 58.18 84.7643 58.18C84.7645 58.18 84.7648 58.18 84.765 58.18C84.7652 58.18 84.7655 58.18 84.7657 58.18C84.7659 58.18 84.7661 58.18 84.7664 58.18C84.7666 58.18 84.7668 58.18 84.7671 58.18C84.7673 58.18 84.7675 58.18 84.7678 58.18C84.768 58.18 84.7682 58.18 84.7684 58.18C84.7687 58.18 84.7689 58.18 84.7691 58.18C84.7694 58.18 84.7696 58.18 84.7698 58.18C84.7701 58.18 84.7703 58.18 84.7705 58.18C84.7707 58.18 84.771 58.18 84.7712 58.18C84.7714 58.18 84.7717 58.18 84.7719 58.18C84.7721 58.18 84.7723 58.18 84.7726 58.18C84.7728 58.18 84.773 58.18 84.7733 58.18C84.7735 58.18 84.7737 58.18 84.7739 58.18C84.7742 58.18 84.7744 58.18 84.7746 58.18C84.7749 58.18 84.7751 58.18 84.7753 58.18C84.7755 58.18 84.7758 58.18 84.776 58.18C84.7762 58.18 84.7764 58.18 84.7767 58.18C84.7769 58.18 84.7771 58.18 84.7774 58.18C84.7776 58.18 84.7778 58.18 84.778 58.18C84.7783 58.18 84.7785 58.18 84.7787 58.18C84.7789 58.18 84.7792 58.18 84.7794 58.18C84.7796 58.18 84.7799 58.18 84.7801 58.18C84.7803 58.18 84.7805 58.18 84.7808 58.18C84.781 58.18 84.7812 58.18 84.7814 58.18C84.7817 58.18 84.7819 58.18 84.7821 58.18C84.7823 58.18 84.7826 58.18 84.7828 58.18C84.783 58.18 84.7832 58.18 84.7835 58.18C84.7837 58.18 84.7839 58.18 84.7841 58.18C84.7844 58.18 84.7846 58.18 84.7848 58.18C84.785 58.18 84.7853 58.18 84.7855 58.18C84.7857 58.18 84.7859 58.18 84.7862 58.18C84.7864 58.18 84.7866 58.18 84.7868 58.18C84.7871 58.18 84.7873 58.18 84.7875 58.18C84.7877 58.18 84.788 58.18 84.7882 58.18C84.7884 58.18 84.7886 58.18 84.7889 58.18C84.7891 58.18 84.7893 58.18 84.7895 58.18C84.7897 58.18 84.79 58.18 84.7902 58.18C84.7904 58.18 84.7906 58.18 84.7909 58.18C84.7911 58.18 84.7913 58.18 84.7915 58.18C84.7918 58.18 84.792 58.18 84.7922 58.18C84.7924 58.18 84.7927 58.18 84.7929 58.18C84.7931 58.18 84.7933 58.18 84.7935 58.18C84.7938 58.18 84.794 58.18 84.7942 58.18C84.7944 58.18 84.7947 58.18 84.7949 58.18C84.7951 58.18 84.7953 58.18 84.7955 58.18C84.7958 58.18 84.796 58.18 84.7962 58.18C84.7964 58.18 84.7967 58.18 84.7969 58.18C84.7971 58.18 84.7973 58.18 84.7975 58.18C84.7978 58.18 84.798 58.18 84.7982 58.18C84.7984 58.18 84.7986 58.18 84.7989 58.18C84.7991 58.18 84.7993 58.18 84.7995 58.18C84.7998 58.18 84.8 58.18 84.8002 58.18C84.8004 58.18 84.8006 58.18 84.8009 58.18C84.8011 58.18 84.8013 58.18 84.8015 58.18C84.8017 58.18 84.802 58.18 84.8022 58.18C84.8024 58.18 84.8026 58.18 84.8028 58.18C84.8031 58.18 84.8033 58.18 84.8035 58.18C84.8037 58.18 84.8039 58.18 84.8042 58.18C84.8044 58.18 84.8046 58.18 84.8048 58.18C84.805 58.18 84.8053 58.18 84.8055 58.18C84.8057 58.18 84.8059 58.18 84.8061 58.18C84.8064 58.18 84.8066 58.18 84.8068 58.18C84.807 58.18 84.8072 58.18 84.8075 58.18C84.8077 58.18 84.8079 58.18 84.8081 58.18C84.8083 58.18 84.8085 58.18 84.8088 58.18C84.809 58.18 84.8092 58.18 84.8094 58.18C84.8096 58.18 84.8099 58.18 84.8101 58.18C84.8103 58.18 84.8105 58.18 84.8107 58.18C84.811 58.18 84.8112 58.18 84.8114 58.18C84.8116 58.18 84.8118 58.18 84.812 58.18C84.8123 58.18 84.8125 58.18 84.8127 58.18C84.8129 58.18 84.8131 58.18 84.8134 58.18C84.8136 58.18 84.8138 58.18 84.814 58.18C84.8142 58.18 84.8144 58.18 84.8147 58.18C84.8149 58.18 84.8151 58.18 84.8153 58.18C84.8155 58.18 84.8157 58.18 84.816 58.18C84.8162 58.18 84.8164 58.18 84.8166 58.18C84.8168 58.18 84.817 58.18 84.8173 58.18C84.8175 58.18 84.8177 58.18 84.8179 58.18C84.8181 58.18 84.8183 58.18 84.8186 58.18C84.8188 58.18 84.819 58.18 84.8192 58.18C84.8194 58.18 84.8196 58.18 84.8199 58.18C84.8201 58.18 84.8203 58.18 84.8205 58.18C84.8207 58.18 84.8209 58.18 84.8212 58.18C84.8214 58.18 84.8216 58.18 84.8218 58.18C84.822 58.18 84.8222 58.18 84.8224 58.18C84.8227 58.18 84.8229 58.18 84.8231 58.18C84.8233 58.18 84.8235 58.18 84.8237 58.18C84.824 58.18 84.8242 58.18 84.8244 58.18C84.8246 58.18 84.8248 58.18 84.825 58.18C84.8252 58.18 84.8255 58.18 84.8257 58.18C84.8259 58.18 84.8261 58.18 84.8263 58.18C84.8265 58.18 84.8268 58.18 84.827 58.18C84.8272 58.18 84.8274 58.18 84.8276 58.18C84.8278 58.18 84.828 58.18 84.8283 58.18C84.8285 58.18 84.8287 58.18 84.8289 58.18C84.8291 58.18 84.8293 58.18 84.8295 58.18C84.8298 58.18 84.83 58.18 84.8302 58.18C84.8304 58.18 84.8306 58.18 84.8308 58.18C84.831 58.18 84.8313 58.18 84.8315 58.18C84.8317 58.18 84.8319 58.18 84.8321 58.18C84.8323 58.18 84.8325 58.18 84.8328 58.18C84.833 58.18 84.8332 58.18 84.8334 58.18C84.8336 58.18 84.8338 58.18 84.834 58.18C84.8342 58.18 84.8345 58.18 84.8347 58.18C84.8349 58.18 84.8351 58.18 84.8353 58.18C84.8355 58.18 84.8357 58.18 84.8359 58.18C84.8362 58.18 84.8364 58.18 84.8366 58.18C84.8368 58.18 84.837 58.18 84.8372 58.18C84.8374 58.18 84.8377 58.18 84.8379 58.18C84.8381 58.18 84.8383 58.18 84.8385 58.18C84.8387 58.18 84.8389 58.18 84.8391 58.18C84.8394 58.18 84.8396 58.18 84.8398 58.18C84.84 58.18 84.8402 58.18 84.8404 58.18C84.8406 58.18 84.8408 58.18 84.841 58.18C84.8413 58.18 84.8415 58.18 84.8417 58.18C84.8419 58.18 84.8421 58.18 84.8423 58.18C84.8425 58.18 84.8427 58.18 84.843 58.18C84.8432 58.18 84.8434 58.18 84.8436 58.18C84.8438 58.18 84.844 58.18 84.8442 58.18C84.8444 58.18 84.8447 58.18 84.8449 58.18C84.8451 58.18 84.8453 58.18 84.8455 58.18C84.8457 58.18 84.8459 58.18 84.8461 58.18C84.8463 58.18 84.8466 58.18 84.8468 58.18C84.847 58.18 84.8472 58.18 84.8474 58.18C84.8476 58.18 84.8478 58.18 84.848 58.18C84.8482 58.18 84.8484 58.18 84.8487 58.18C84.8489 58.18 84.8491 58.18 84.8493 58.18C84.8495 58.18 84.8497 58.18 84.8499 58.18C84.8501 58.18 84.8503 58.18 84.8506 58.18C84.8508 58.18 84.851 58.18 84.8512 58.18C84.8514 58.18 84.8516 58.18 84.8518 58.18C84.852 58.18 84.8522 58.18 84.8525 58.18C84.8527 58.18 84.8529 58.18 84.8531 58.18C84.8533 58.18 84.8535 58.18 84.8537 58.18C84.8539 58.18 84.8541 58.18 84.8543 58.18C84.8545 58.18 84.8548 58.18 84.855 58.18C84.8552 58.18 84.8554 58.18 84.8556 58.18C84.8558 58.18 84.856 58.18 84.8562 58.18C84.8564 58.18 84.8566 58.18 84.8569 58.18C84.8571 58.18 84.8573 58.18 84.8575 58.18C84.8577 58.18 84.8579 58.18 84.8581 58.18C84.8583 58.18 84.8585 58.18 84.8587 58.18C84.859 58.18 84.8592 58.18 84.8594 58.18C84.8596 58.18 84.8598 58.18 84.86 58.18C84.8602 58.18 84.8604 58.18 84.8606 58.18C84.8608 58.18 84.861 58.18 84.8613 58.18C84.8615 58.18 84.8617 58.18 84.8619 58.18C84.8621 58.18 84.8623 58.18 84.8625 58.18C84.8627 58.18 84.8629 58.18 84.8631 58.18C84.8633 58.18 84.8635 58.18 84.8638 58.18C84.864 58.18 84.8642 58.18 84.8644 58.18C84.8646 58.18 84.8648 58.18 84.865 58.18C84.8652 58.18 84.8654 58.18 84.8656 58.18C84.8658 58.18 84.8661 58.18 84.8663 58.18C84.8665 58.18 84.8667 58.18 84.8669 58.18C84.8671 58.18 84.8673 58.18 84.8675 58.18C84.8677 58.18 84.8679 58.18 84.8681 58.18C84.8683 58.18 84.8685 58.18 84.8688 58.18C84.869 58.18 84.8692 58.18 84.8694 58.18C84.8696 58.18 84.8698 58.18 84.87 58.18C84.8702 58.18 84.8704 58.18 84.8706 58.18C84.8708 58.18 84.871 58.18 84.8713 58.18C84.8715 58.18 84.8717 58.18 84.8719 58.18C84.8721 58.18 84.8723 58.18 84.8725 58.18C84.8727 58.18 84.8729 58.18 84.8731 58.18C84.8733 58.18 84.8735 58.18 84.8737 58.18C84.874 58.18 84.8742 58.18 84.8744 58.18C84.8746 58.18 84.8748 58.18 84.875 58.18C84.8752 58.18 84.8754 58.18 84.8756 58.18C84.8758 58.18 84.876 58.18 84.8762 58.18C84.8764 58.18 84.8766 58.18 84.8769 58.18C84.8771 58.18 84.8773 58.18 84.8775 58.18C84.8777 58.18 84.8779 58.18 84.8781 58.18C84.8783 58.18 84.8785 58.18 84.8787 58.18C84.8789 58.18 84.8791 58.18 84.8793 58.18C84.8795 58.18 84.8797 58.18 84.88 58.18C84.8802 58.18 84.8804 58.18 84.8806 58.18C84.8808 58.18 84.881 58.18 84.8812 58.18C84.8814 58.18 84.8816 58.18 84.8818 58.18C84.882 58.18 84.8822 58.18 84.8824 58.18C84.8826 58.18 84.8829 58.18 84.8831 58.18C84.8833 58.18 84.8835 58.18 84.8837 58.18C84.8839 58.18 84.8841 58.18 84.8843 58.18C84.8845 58.18 84.8847 58.18 84.8849 58.18C84.8851 58.18 84.8853 58.18 84.8855 58.18C84.8857 58.18 84.8859 58.18 84.8862 58.18C84.8864 58.18 84.8866 58.18 84.8868 58.18C84.887 58.18 84.8872 58.18 84.8874 58.18C84.8876 58.18 84.8878 58.18 84.888 58.18C84.8882 58.18 84.8884 58.18 84.8886 58.18C84.8888 58.18 84.889 58.18 84.8892 58.18C84.8895 58.18 84.8897 58.18 84.8899 58.18C84.8901 58.18 84.8903 58.18 84.8905 58.18C84.8907 58.18 84.8909 58.18 84.8911 58.18C84.8913 58.18 84.8915 58.18 84.8917 58.18C84.8919 58.18 84.8921 58.18 84.8923 58.18C84.8925 58.18 84.8927 58.18 84.893 58.18C84.8932 58.18 84.8934 58.18 84.8936 58.18C84.8938 58.18 84.894 58.18 84.8942 58.18C84.8944 58.18 84.8946 58.18 84.8948 58.18C84.895 58.18 84.8952 58.18 84.8954 58.18C84.8956 58.18 84.8958 58.18 84.896 58.18C84.8962 58.18 84.8965 58.18 84.8967 58.18C84.8969 58.18 84.8971 58.18 84.8973 58.18C84.8975 58.18 84.8977 58.18 84.8979 58.18C84.8981 58.18 84.8983 58.18 84.8985 58.18C84.8987 58.18 84.8989 58.18 84.8991 58.18C84.8993 58.18 84.8995 58.18 84.8997 58.18C84.8999 58.18 84.9002 58.18 84.9004 58.18C84.9006 58.18 84.9008 58.18 84.901 58.18C84.9012 58.18 84.9014 58.18 84.9016 58.18C84.9018 58.18 84.902 58.18 84.9022 58.18C84.9024 58.18 84.9026 58.18 84.9028 58.18C84.903 58.18 84.9032 58.18 84.9034 58.18C84.9036 58.18 84.9039 58.18 84.9041 58.18C84.9043 58.18 84.9045 58.18 84.9047 58.18C84.9049 58.18 84.9051 58.18 84.9053 58.18C84.9055 58.18 84.9057 58.18 84.9059 58.18C84.9061 58.18 84.9063 58.18 84.9065 58.18C84.9067 58.18 84.9069 58.18 84.9071 58.18C84.9073 58.18 84.9075 58.18 84.9078 58.18C84.908 58.18 84.9082 58.18 84.9084 58.18C84.9086 58.18 84.9088 58.18 84.909 58.18C84.9092 58.18 84.9094 58.18 84.9096 58.18C84.9098 58.18 84.91 58.18 84.9102 58.18C84.9104 58.18 84.9106 58.18 84.9108 58.18C84.911 58.18 84.9112 58.18 84.9114 58.18C84.9117 58.18 84.9119 58.18 84.9121 58.18C84.9123 58.18 84.9125 58.18 84.9127 58.18C84.9129 58.18 84.9131 58.18 84.9133 58.18C84.9135 58.18 84.9137 58.18 84.9139 58.18C84.9141 58.18 84.9143 58.18 84.9145 58.18C84.9147 58.18 84.9149 58.18 84.9151 58.18C84.9153 58.18 84.9155 58.18 84.9158 58.18C84.916 58.18 84.9162 58.18 84.9164 58.18C84.9166 58.18 84.9168 58.18 84.917 58.18C84.9172 58.18 84.9174 58.18 84.9176 58.18C84.9178 58.18 84.918 58.18 84.9182 58.18C84.9184 58.18 84.9186 58.18 84.9188 58.18C84.919 58.18 84.9192 58.18 84.9194 58.18C84.9196 58.18 84.9199 58.18 84.9201 58.18C84.9203 58.18 84.9205 58.18 84.9207 58.18C84.9209 58.18 84.9211 58.18 84.9213 58.18C84.9215 58.18 84.9217 58.18 84.9219 58.18C84.9221 58.18 84.9223 58.18 84.9225 58.18C84.9227 58.18 84.9229 58.18 84.9231 58.18C84.9233 58.18 84.9235 58.18 84.9238 58.18C84.924 58.18 84.9242 58.18 84.9244 58.18C84.9246 58.18 84.9248 58.18 84.925 58.18C84.9252 58.18 84.9254 58.18 84.9256 58.18C84.9258 58.18 84.926 58.18 84.9262 58.18C84.9264 58.18 84.9266 58.18 84.9268 58.18C84.927 58.18 84.9272 58.18 84.9274 58.18C84.9276 58.18 84.9279 58.18 84.9281 58.18C84.9283 58.18 84.9285 58.18 84.9287 58.18C84.9289 58.18 84.9291 58.18 84.9293 58.18C84.9295 58.18 84.9297 58.18 84.9299 58.18C84.9301 58.18 84.9303 58.18 84.9305 58.18C84.9307 58.18 84.9309 58.18 84.9311 58.18C84.9313 58.18 84.9315 58.18 84.9318 58.18C84.932 58.18 84.9322 58.18 84.9324 58.18C84.9326 58.18 84.9328 58.18 84.933 58.18C84.9332 58.18 84.9334 58.18 84.9336 58.18C84.9338 58.18 84.934 58.18 84.9342 58.18C84.9344 58.18 84.9346 58.18 84.9348 58.18C84.935 58.18 84.9352 58.18 84.9354 58.18C84.9357 58.18 84.9359 58.18 84.9361 58.18C84.9363 58.18 84.9365 58.18 84.9367 58.18C84.9369 58.18 84.9371 58.18 84.9373 58.18C84.9375 58.18 84.9377 58.18 84.9379 58.18C84.9381 58.18 84.9383 58.18 84.9385 58.18C84.9387 58.18 84.9389 58.18 84.9391 58.18C84.9394 58.18 84.9396 58.18 84.9398 58.18C84.94 58.18 84.9402 58.18 84.9404 58.18C84.9406 58.18 84.9408 58.18 84.941 58.18C84.9412 58.18 84.9414 58.18 84.9416 58.18C84.9418 58.18 84.942 58.18 84.9422 58.18C84.9424 58.18 84.9426 58.18 84.9428 58.18C84.9431 58.18 84.9433 58.18 84.9435 58.18C84.9437 58.18 84.9439 58.18 84.9441 58.18C84.9443 58.18 84.9445 58.18 84.9447 58.18C84.9449 58.18 84.9451 58.18 84.9453 58.18C84.9455 58.18 84.9457 58.18 84.9459 58.18C84.9461 58.18 84.9464 58.18 84.9466 58.18C84.9468 58.18 84.947 58.18 84.9472 58.18C84.9474 58.18 84.9476 58.18 84.9478 58.18C84.948 58.18 84.9482 58.18 84.9484 58.18C84.9486 58.18 84.9488 58.18 84.949 58.18C84.9492 58.18 84.9494 58.18 84.9496 58.18C84.9499 58.18 84.9501 58.18 84.9503 58.18C84.9505 58.18 84.9507 58.18 84.9509 58.18C84.9511 58.18 84.9513 58.18 84.9515 58.18C84.9517 58.18 84.9519 58.18 84.9521 58.18C84.9523 58.18 84.9525 58.18 84.9527 58.18C84.9529 58.18 84.9532 58.18 84.9534 58.18C84.9536 58.18 84.9538 58.18 84.954 58.18C84.9542 58.18 84.9544 58.18 84.9546 58.18C84.9548 58.18 84.955 58.18 84.9552 58.18C84.9554 58.18 84.9556 58.18 84.9558 58.18C84.956 58.18 84.9563 58.18 84.9565 58.18C84.9567 58.18 84.9569 58.18 84.9571 58.18C84.9573 58.18 84.9575 58.18 84.9577 58.18C84.9579 58.18 84.9581 58.18 84.9583 58.18C84.9585 58.18 84.9587 58.18 84.9589 58.18C84.9591 58.18 84.9594 58.18 84.9596 58.18C84.9598 58.18 84.96 58.18 84.9602 58.18C84.9604 58.18 84.9606 58.18 84.9608 58.18C84.961 58.18 84.9612 58.18 84.9614 58.18C84.9616 58.18 84.9618 58.18 84.962 58.18C84.9623 58.18 84.9625 58.18 84.9627 58.18C84.9629 58.18 84.9631 58.18 84.9633 58.18C84.9635 58.18 84.9637 58.18 84.9639 58.18C84.9641 58.18 84.9643 58.18 84.9645 58.18C84.9647 58.18 84.965 58.18 84.9652 58.18C84.9654 58.18 84.9656 58.18 84.9658 58.18C84.966 58.18 84.9662 58.18 84.9664 58.18C84.9666 58.18 84.9668 58.18 84.967 58.18C84.9672 58.18 84.9674 58.18 84.9677 58.18C84.9679 58.18 84.9681 58.18 84.9683 58.18C84.9685 58.18 84.9687 58.18 84.9689 58.18C84.9691 58.18 84.9693 58.18 84.9695 58.18C84.9697 58.18 84.9699 58.18 84.9701 58.18C84.9704 58.18 84.9706 58.18 84.9708 58.18C84.971 58.18 84.9712 58.18 84.9714 58.18C84.9716 58.18 84.9718 58.18 84.972 58.18C84.9722 58.18 84.9724 58.18 84.9726 58.18C84.9729 58.18 84.9731 58.18 84.9733 58.18C84.9735 58.18 84.9737 58.18 84.9739 58.18C84.9741 58.18 84.9743 58.18 84.9745 58.18C84.9747 58.18 84.9749 58.18 84.9752 58.18C84.9754 58.18 84.9756 58.18 84.9758 58.18C84.976 58.18 84.9762 58.18 84.9764 58.18C84.9766 58.18 84.9768 58.18 84.977 58.18C84.9772 58.18 84.9775 58.18 84.9777 58.18C84.9779 58.18 84.9781 58.18 84.9783 58.18C84.9785 58.18 84.9787 58.18 84.9789 58.18C84.9791 58.18 84.9793 58.18 84.9795 58.18C84.9798 58.18 84.98 58.18 84.9802 58.18C84.9804 58.18 84.9806 58.18 84.9808 58.18C84.981 58.18 84.9812 58.18 84.9814 58.18C84.9816 58.18 84.9818 58.18 84.9821 58.18C84.9823 58.18 84.9825 58.18 84.9827 58.18C84.9829 58.18 84.9831 58.18 84.9833 58.18C84.9835 58.18 84.9837 58.18 84.9839 58.18C84.9842 58.18 84.9844 58.18 84.9846 58.18C84.9848 58.18 84.985 58.18 84.9852 58.18C84.9854 58.18 84.9856 58.18 84.9858 58.18C84.986 58.18 84.9863 58.18 84.9865 58.18C84.9867 58.18 84.9869 58.18 84.9871 58.18C84.9873 58.18 84.9875 58.18 84.9877 58.18C84.9879 58.18 84.9882 58.18 84.9884 58.18C84.9886 58.18 84.9888 58.18 84.989 58.18C84.9892 58.18 84.9894 58.18 84.9896 58.18C84.9898 58.18 84.99 58.18 84.9903 58.18C84.9905 58.18 84.9907 58.18 84.9909 58.18C84.9911 58.18 84.9913 58.18 84.9915 58.18C84.9917 58.18 84.9919 58.18 84.9922 58.18C84.9924 58.18 84.9926 58.18 84.9928 58.18C84.993 58.18 84.9932 58.18 84.9934 58.18C84.9936 58.18 84.9939 58.18 84.9941 58.18C84.9943 58.18 84.9945 58.18 84.9947 58.18C84.9949 58.18 84.9951 58.18 84.9953 58.18C84.9955 58.18 84.9958 58.18 84.996 58.18C84.9962 58.18 84.9964 58.18 84.9966 58.18C84.9968 58.18 84.997 58.18 84.9972 58.18C84.9975 58.18 84.9977 58.18 84.9979 58.18C84.9981 58.18 84.9983 58.18 84.9985 58.18C84.9987 58.18 84.9989 58.18 84.9992 58.18C84.9994 58.18 84.9996 58.18 84.9998 58.18C85 58.18 85.0002 58.18 85.0004 58.18C85.0006 58.18 85.0009 58.18 85.0011 58.18C85.0013 58.18 85.0015 58.18 85.0017 58.18C85.0019 58.18 85.0021 58.18 85.0023 58.18C85.0026 58.18 85.0028 58.18 85.003 58.18C85.0032 58.18 85.0034 58.18 85.0036 58.18C85.0038 58.18 85.0041 58.18 85.0043 58.18C85.0045 58.18 85.0047 58.18 85.0049 58.18C85.0051 58.18 85.0053 58.18 85.0055 58.18C85.0058 58.18 85.006 58.18 85.0062 58.18C85.0064 58.18 85.0066 58.18 85.0068 58.18C85.007 58.18 85.0073 58.18 85.0075 58.18C85.0077 58.18 85.0079 58.18 85.0081 58.18C85.0083 58.18 85.0085 58.18 85.0088 58.18C85.009 58.18 85.0092 58.18 85.0094 58.18C85.0096 58.18 85.0098 58.18 85.01 58.18C85.0103 58.18 85.0105 58.18 85.0107 58.18C85.0109 58.18 85.0111 58.18 85.0113 58.18C85.0115 58.18 85.0118 58.18 85.012 58.18C85.0122 58.18 85.0124 58.18 85.0126 58.18C85.0128 58.18 85.0131 58.18 85.0133 58.18C85.0135 58.18 85.0137 58.18 85.0139 58.18C85.0141 58.18 85.0143 58.18 85.0146 58.18C85.0148 58.18 85.015 58.18 85.0152 58.18C85.0154 58.18 85.0156 58.18 85.0159 58.18C85.0161 58.18 85.0163 58.18 85.0165 58.18C85.0167 58.18 85.0169 58.18 85.0172 58.18C85.0174 58.18 85.0176 58.18 85.0178 58.18C85.018 58.18 85.0182 58.18 85.0184 58.18C85.0187 58.18 85.0189 58.18 85.0191 58.18C85.0193 58.18 85.0195 58.18 85.0197 58.18C85.02 58.18 85.0202 58.18 85.0204 58.18C85.0206 58.18 85.0208 58.18 85.021 58.18C85.0213 58.18 85.0215 58.18 85.0217 58.18C85.0219 58.18 85.0221 58.18 85.0224 58.18C85.0226 58.18 85.0228 58.18 85.023 58.18C85.0232 58.18 85.0234 58.18 85.0237 58.18C85.0239 58.18 85.0241 58.18 85.0243 58.18C85.0245 58.18 85.0247 58.18 85.025 58.18C85.0252 58.18 85.0254 58.18 85.0256 58.18C85.0258 58.18 85.0261 58.18 85.0263 58.18C85.0265 58.18 85.0267 58.18 85.0269 58.18C85.0271 58.18 85.0274 58.18 85.0276 58.18C85.0278 58.18 85.028 58.18 85.0282 58.18C85.0285 58.18 85.0287 58.18 85.0289 58.18C85.0291 58.18 85.0293 58.18 85.0295 58.18C85.0298 58.18 85.03 58.18 85.0302 58.18C85.0304 58.18 85.0306 58.18 85.0309 58.18C85.0311 58.18 85.0313 58.18 85.0315 58.18C85.0317 58.18 85.032 58.18 85.0322 58.18C85.0324 58.18 85.0326 58.18 85.0328 58.18C85.0331 58.18 85.0333 58.18 85.0335 58.18C85.0337 58.18 85.0339 58.18 85.0342 58.18C85.0344 58.18 85.0346 58.18 85.0348 58.18C85.035 58.18 85.0353 58.18 85.0355 58.18C85.0357 58.18 85.0359 58.18 85.0361 58.18C85.0364 58.18 85.0366 58.18 85.0368 58.18C85.037 58.18 85.0372 58.18 85.0375 58.18C85.0377 58.18 85.0379 58.18 85.0381 58.18C85.0383 58.18 85.0386 58.18 85.0388 58.18C85.039 58.18 85.0392 58.18 85.0395 58.18C85.0397 58.18 85.0399 58.18 85.0401 58.18C85.0403 58.18 85.0406 58.18 85.0408 58.18C85.041 58.18 85.0412 58.18 85.0414 58.18C85.0417 58.18 85.0419 58.18 85.0421 58.18C85.0423 58.18 85.0426 58.18 85.0428 58.18C85.043 58.18 85.0432 58.18 85.0434 58.18C85.0437 58.18 85.0439 58.18 85.0441 58.18C85.0443 58.18 85.0446 58.18 85.0448 58.18C85.045 58.18 85.0452 58.18 85.0455 58.18C85.0457 58.18 85.0459 58.18 85.0461 58.18C85.0463 58.18 85.0466 58.18 85.0468 58.18C85.047 58.18 85.0472 58.18 85.0475 58.18C85.0477 58.18 85.0479 58.18 85.0481 58.18C85.0484 58.18 85.0486 58.18 85.0488 58.18C85.049 58.18 85.0493 58.18 85.0495 58.18C85.0497 58.18 85.0499 58.18 85.0501 58.18C85.0504 58.18 85.0506 58.18 85.0508 58.18C85.051 58.18 85.0513 58.18 85.0515 58.18C85.0517 58.18 85.0519 58.18 85.0522 58.18C85.0524 58.18 85.0526 58.18 85.0528 58.18C85.0531 58.18 85.0533 58.18 85.0535 58.18C85.0537 58.18 85.054 58.18 85.0542 58.18C85.0544 58.18 85.0546 58.18 85.0549 58.18C85.0551 58.18 85.0553 58.18 85.0555 58.18C85.0558 58.18 85.056 58.18 85.0562 58.18C85.0564 58.18 85.0567 58.18 85.0569 58.18C85.0571 58.18 85.0574 58.18 85.0576 58.18C85.0578 58.18 85.058 58.18 85.0583 58.18C85.0585 58.18 85.0587 58.18 85.0589 58.18C85.0592 58.18 85.0594 58.18 85.0596 58.18C85.0598 58.18 85.0601 58.18 85.0603 58.18C85.0605 58.18 85.0608 58.18 85.061 58.18C85.0612 58.18 85.0614 58.18 85.0617 58.18C85.0619 58.18 85.0621 58.18 85.0623 58.18C85.0626 58.18 85.0628 58.18 85.063 58.18C85.0633 58.18 85.0635 58.18 85.0637 58.18C85.0639 58.18 85.0642 58.18 85.0644 58.18C85.0646 58.18 85.0649 58.18 85.0651 58.18C85.0653 58.18 85.0655 58.18 85.0658 58.18C85.066 58.18 85.0662 58.18 85.0665 58.18C85.0667 58.18 85.0669 58.18 85.0671 58.18C85.0674 58.18 85.0676 58.18 85.0678 58.18C85.0681 58.18 85.0683 58.18 85.0685 58.18C85.0687 58.18 85.069 58.18 85.0692 58.18C85.0694 58.18 85.0697 58.18 85.0699 58.18C85.0701 58.18 85.0704 58.18 85.0706 58.18C85.0708 58.18 85.071 58.18 85.0713 58.18C85.0715 58.18 85.0717 58.18 85.072 58.18C85.0722 58.18 85.0724 58.18 85.0727 58.18C85.0729 58.18 85.0731 58.18 85.0734 58.18C85.0736 58.18 85.0738 58.18 85.0741 58.18C85.0743 58.18 85.0745 58.18 85.0747 58.18C85.075 58.18 85.0752 58.18 85.0754 58.18C85.0757 58.18 85.0759 58.18 85.0761 58.18C85.0764 58.18 85.0766 58.18 85.0768 58.18C85.0771 58.18 85.0773 58.18 85.0775 58.18C85.0778 58.18 85.078 58.18 85.0782 58.18C85.0785 58.18 85.0787 58.18 85.0789 58.18C85.0792 58.18 85.0794 58.18 85.0796 58.18C85.0799 58.18 85.0801 58.18 85.0803 58.18C85.0806 58.18 85.0808 58.18 85.081 58.18C85.0813 58.18 85.0815 58.18 85.0817 58.18C85.082 58.18 85.0822 58.18 85.0824 58.18C85.0827 58.18 85.0829 58.18 85.0831 58.18C85.0834 58.18 85.0836 58.18 85.0838 58.18V56.18C85.0836 56.18 85.0834 56.18 85.0831 56.18C85.0829 56.18 85.0827 56.18 85.0824 56.18C85.0822 56.18 85.082 56.18 85.0817 56.18C85.0815 56.18 85.0813 56.18 85.081 56.18C85.0808 56.18 85.0806 56.18 85.0803 56.18C85.0801 56.18 85.0799 56.18 85.0796 56.18C85.0794 56.18 85.0792 56.18 85.0789 56.18C85.0787 56.18 85.0785 56.18 85.0782 56.18C85.078 56.18 85.0778 56.18 85.0775 56.18C85.0773 56.18 85.0771 56.18 85.0768 56.18C85.0766 56.18 85.0764 56.18 85.0761 56.18C85.0759 56.18 85.0757 56.18 85.0754 56.18C85.0752 56.18 85.075 56.18 85.0747 56.18C85.0745 56.18 85.0743 56.18 85.0741 56.18C85.0738 56.18 85.0736 56.18 85.0734 56.18C85.0731 56.18 85.0729 56.18 85.0727 56.18C85.0724 56.18 85.0722 56.18 85.072 56.18C85.0717 56.18 85.0715 56.18 85.0713 56.18C85.071 56.18 85.0708 56.18 85.0706 56.18C85.0704 56.18 85.0701 56.18 85.0699 56.18C85.0697 56.18 85.0694 56.18 85.0692 56.18C85.069 56.18 85.0687 56.18 85.0685 56.18C85.0683 56.18 85.0681 56.18 85.0678 56.18C85.0676 56.18 85.0674 56.18 85.0671 56.18C85.0669 56.18 85.0667 56.18 85.0665 56.18C85.0662 56.18 85.066 56.18 85.0658 56.18C85.0655 56.18 85.0653 56.18 85.0651 56.18C85.0649 56.18 85.0646 56.18 85.0644 56.18C85.0642 56.18 85.0639 56.18 85.0637 56.18C85.0635 56.18 85.0633 56.18 85.063 56.18C85.0628 56.18 85.0626 56.18 85.0623 56.18C85.0621 56.18 85.0619 56.18 85.0617 56.18C85.0614 56.18 85.0612 56.18 85.061 56.18C85.0608 56.18 85.0605 56.18 85.0603 56.18C85.0601 56.18 85.0598 56.18 85.0596 56.18C85.0594 56.18 85.0592 56.18 85.0589 56.18C85.0587 56.18 85.0585 56.18 85.0583 56.18C85.058 56.18 85.0578 56.18 85.0576 56.18C85.0574 56.18 85.0571 56.18 85.0569 56.18C85.0567 56.18 85.0564 56.18 85.0562 56.18C85.056 56.18 85.0558 56.18 85.0555 56.18C85.0553 56.18 85.0551 56.18 85.0549 56.18C85.0546 56.18 85.0544 56.18 85.0542 56.18C85.054 56.18 85.0537 56.18 85.0535 56.18C85.0533 56.18 85.0531 56.18 85.0528 56.18C85.0526 56.18 85.0524 56.18 85.0522 56.18C85.0519 56.18 85.0517 56.18 85.0515 56.18C85.0513 56.18 85.051 56.18 85.0508 56.18C85.0506 56.18 85.0504 56.18 85.0501 56.18C85.0499 56.18 85.0497 56.18 85.0495 56.18C85.0493 56.18 85.049 56.18 85.0488 56.18C85.0486 56.18 85.0484 56.18 85.0481 56.18C85.0479 56.18 85.0477 56.18 85.0475 56.18C85.0472 56.18 85.047 56.18 85.0468 56.18C85.0466 56.18 85.0463 56.18 85.0461 56.18C85.0459 56.18 85.0457 56.18 85.0455 56.18C85.0452 56.18 85.045 56.18 85.0448 56.18C85.0446 56.18 85.0443 56.18 85.0441 56.18C85.0439 56.18 85.0437 56.18 85.0434 56.18C85.0432 56.18 85.043 56.18 85.0428 56.18C85.0426 56.18 85.0423 56.18 85.0421 56.18C85.0419 56.18 85.0417 56.18 85.0414 56.18C85.0412 56.18 85.041 56.18 85.0408 56.18C85.0406 56.18 85.0403 56.18 85.0401 56.18C85.0399 56.18 85.0397 56.18 85.0395 56.18C85.0392 56.18 85.039 56.18 85.0388 56.18C85.0386 56.18 85.0383 56.18 85.0381 56.18C85.0379 56.18 85.0377 56.18 85.0375 56.18C85.0372 56.18 85.037 56.18 85.0368 56.18C85.0366 56.18 85.0364 56.18 85.0361 56.18C85.0359 56.18 85.0357 56.18 85.0355 56.18C85.0353 56.18 85.035 56.18 85.0348 56.18C85.0346 56.18 85.0344 56.18 85.0342 56.18C85.0339 56.18 85.0337 56.18 85.0335 56.18C85.0333 56.18 85.0331 56.18 85.0328 56.18C85.0326 56.18 85.0324 56.18 85.0322 56.18C85.032 56.18 85.0317 56.18 85.0315 56.18C85.0313 56.18 85.0311 56.18 85.0309 56.18C85.0306 56.18 85.0304 56.18 85.0302 56.18C85.03 56.18 85.0298 56.18 85.0295 56.18C85.0293 56.18 85.0291 56.18 85.0289 56.18C85.0287 56.18 85.0285 56.18 85.0282 56.18C85.028 56.18 85.0278 56.18 85.0276 56.18C85.0274 56.18 85.0271 56.18 85.0269 56.18C85.0267 56.18 85.0265 56.18 85.0263 56.18C85.0261 56.18 85.0258 56.18 85.0256 56.18C85.0254 56.18 85.0252 56.18 85.025 56.18C85.0247 56.18 85.0245 56.18 85.0243 56.18C85.0241 56.18 85.0239 56.18 85.0237 56.18C85.0234 56.18 85.0232 56.18 85.023 56.18C85.0228 56.18 85.0226 56.18 85.0224 56.18C85.0221 56.18 85.0219 56.18 85.0217 56.18C85.0215 56.18 85.0213 56.18 85.021 56.18C85.0208 56.18 85.0206 56.18 85.0204 56.18C85.0202 56.18 85.02 56.18 85.0197 56.18C85.0195 56.18 85.0193 56.18 85.0191 56.18C85.0189 56.18 85.0187 56.18 85.0184 56.18C85.0182 56.18 85.018 56.18 85.0178 56.18C85.0176 56.18 85.0174 56.18 85.0172 56.18C85.0169 56.18 85.0167 56.18 85.0165 56.18C85.0163 56.18 85.0161 56.18 85.0159 56.18C85.0156 56.18 85.0154 56.18 85.0152 56.18C85.015 56.18 85.0148 56.18 85.0146 56.18C85.0143 56.18 85.0141 56.18 85.0139 56.18C85.0137 56.18 85.0135 56.18 85.0133 56.18C85.0131 56.18 85.0128 56.18 85.0126 56.18C85.0124 56.18 85.0122 56.18 85.012 56.18C85.0118 56.18 85.0115 56.18 85.0113 56.18C85.0111 56.18 85.0109 56.18 85.0107 56.18C85.0105 56.18 85.0103 56.18 85.01 56.18C85.0098 56.18 85.0096 56.18 85.0094 56.18C85.0092 56.18 85.009 56.18 85.0088 56.18C85.0085 56.18 85.0083 56.18 85.0081 56.18C85.0079 56.18 85.0077 56.18 85.0075 56.18C85.0073 56.18 85.007 56.18 85.0068 56.18C85.0066 56.18 85.0064 56.18 85.0062 56.18C85.006 56.18 85.0058 56.18 85.0055 56.18C85.0053 56.18 85.0051 56.18 85.0049 56.18C85.0047 56.18 85.0045 56.18 85.0043 56.18C85.0041 56.18 85.0038 56.18 85.0036 56.18C85.0034 56.18 85.0032 56.18 85.003 56.18C85.0028 56.18 85.0026 56.18 85.0023 56.18C85.0021 56.18 85.0019 56.18 85.0017 56.18C85.0015 56.18 85.0013 56.18 85.0011 56.18C85.0009 56.18 85.0006 56.18 85.0004 56.18C85.0002 56.18 85 56.18 84.9998 56.18C84.9996 56.18 84.9994 56.18 84.9992 56.18C84.9989 56.18 84.9987 56.18 84.9985 56.18C84.9983 56.18 84.9981 56.18 84.9979 56.18C84.9977 56.18 84.9975 56.18 84.9972 56.18C84.997 56.18 84.9968 56.18 84.9966 56.18C84.9964 56.18 84.9962 56.18 84.996 56.18C84.9958 56.18 84.9955 56.18 84.9953 56.18C84.9951 56.18 84.9949 56.18 84.9947 56.18C84.9945 56.18 84.9943 56.18 84.9941 56.18C84.9939 56.18 84.9936 56.18 84.9934 56.18C84.9932 56.18 84.993 56.18 84.9928 56.18C84.9926 56.18 84.9924 56.18 84.9922 56.18C84.9919 56.18 84.9917 56.18 84.9915 56.18C84.9913 56.18 84.9911 56.18 84.9909 56.18C84.9907 56.18 84.9905 56.18 84.9903 56.18C84.99 56.18 84.9898 56.18 84.9896 56.18C84.9894 56.18 84.9892 56.18 84.989 56.18C84.9888 56.18 84.9886 56.18 84.9884 56.18C84.9882 56.18 84.9879 56.18 84.9877 56.18C84.9875 56.18 84.9873 56.18 84.9871 56.18C84.9869 56.18 84.9867 56.18 84.9865 56.18C84.9863 56.18 84.986 56.18 84.9858 56.18C84.9856 56.18 84.9854 56.18 84.9852 56.18C84.985 56.18 84.9848 56.18 84.9846 56.18C84.9844 56.18 84.9842 56.18 84.9839 56.18C84.9837 56.18 84.9835 56.18 84.9833 56.18C84.9831 56.18 84.9829 56.18 84.9827 56.18C84.9825 56.18 84.9823 56.18 84.9821 56.18C84.9818 56.18 84.9816 56.18 84.9814 56.18C84.9812 56.18 84.981 56.18 84.9808 56.18C84.9806 56.18 84.9804 56.18 84.9802 56.18C84.98 56.18 84.9798 56.18 84.9795 56.18C84.9793 56.18 84.9791 56.18 84.9789 56.18C84.9787 56.18 84.9785 56.18 84.9783 56.18C84.9781 56.18 84.9779 56.18 84.9777 56.18C84.9775 56.18 84.9772 56.18 84.977 56.18C84.9768 56.18 84.9766 56.18 84.9764 56.18C84.9762 56.18 84.976 56.18 84.9758 56.18C84.9756 56.18 84.9754 56.18 84.9752 56.18C84.9749 56.18 84.9747 56.18 84.9745 56.18C84.9743 56.18 84.9741 56.18 84.9739 56.18C84.9737 56.18 84.9735 56.18 84.9733 56.18C84.9731 56.18 84.9729 56.18 84.9726 56.18C84.9724 56.18 84.9722 56.18 84.972 56.18C84.9718 56.18 84.9716 56.18 84.9714 56.18C84.9712 56.18 84.971 56.18 84.9708 56.18C84.9706 56.18 84.9704 56.18 84.9701 56.18C84.9699 56.18 84.9697 56.18 84.9695 56.18C84.9693 56.18 84.9691 56.18 84.9689 56.18C84.9687 56.18 84.9685 56.18 84.9683 56.18C84.9681 56.18 84.9679 56.18 84.9677 56.18C84.9674 56.18 84.9672 56.18 84.967 56.18C84.9668 56.18 84.9666 56.18 84.9664 56.18C84.9662 56.18 84.966 56.18 84.9658 56.18C84.9656 56.18 84.9654 56.18 84.9652 56.18C84.965 56.18 84.9647 56.18 84.9645 56.18C84.9643 56.18 84.9641 56.18 84.9639 56.18C84.9637 56.18 84.9635 56.18 84.9633 56.18C84.9631 56.18 84.9629 56.18 84.9627 56.18C84.9625 56.18 84.9623 56.18 84.962 56.18C84.9618 56.18 84.9616 56.18 84.9614 56.18C84.9612 56.18 84.961 56.18 84.9608 56.18C84.9606 56.18 84.9604 56.18 84.9602 56.18C84.96 56.18 84.9598 56.18 84.9596 56.18C84.9594 56.18 84.9591 56.18 84.9589 56.18C84.9587 56.18 84.9585 56.18 84.9583 56.18C84.9581 56.18 84.9579 56.18 84.9577 56.18C84.9575 56.18 84.9573 56.18 84.9571 56.18C84.9569 56.18 84.9567 56.18 84.9565 56.18C84.9563 56.18 84.956 56.18 84.9558 56.18C84.9556 56.18 84.9554 56.18 84.9552 56.18C84.955 56.18 84.9548 56.18 84.9546 56.18C84.9544 56.18 84.9542 56.18 84.954 56.18C84.9538 56.18 84.9536 56.18 84.9534 56.18C84.9532 56.18 84.9529 56.18 84.9527 56.18C84.9525 56.18 84.9523 56.18 84.9521 56.18C84.9519 56.18 84.9517 56.18 84.9515 56.18C84.9513 56.18 84.9511 56.18 84.9509 56.18C84.9507 56.18 84.9505 56.18 84.9503 56.18C84.9501 56.18 84.9499 56.18 84.9496 56.18C84.9494 56.18 84.9492 56.18 84.949 56.18C84.9488 56.18 84.9486 56.18 84.9484 56.18C84.9482 56.18 84.948 56.18 84.9478 56.18C84.9476 56.18 84.9474 56.18 84.9472 56.18C84.947 56.18 84.9468 56.18 84.9466 56.18C84.9464 56.18 84.9461 56.18 84.9459 56.18C84.9457 56.18 84.9455 56.18 84.9453 56.18C84.9451 56.18 84.9449 56.18 84.9447 56.18C84.9445 56.18 84.9443 56.18 84.9441 56.18C84.9439 56.18 84.9437 56.18 84.9435 56.18C84.9433 56.18 84.9431 56.18 84.9428 56.18C84.9426 56.18 84.9424 56.18 84.9422 56.18C84.942 56.18 84.9418 56.18 84.9416 56.18C84.9414 56.18 84.9412 56.18 84.941 56.18C84.9408 56.18 84.9406 56.18 84.9404 56.18C84.9402 56.18 84.94 56.18 84.9398 56.18C84.9396 56.18 84.9394 56.18 84.9391 56.18C84.9389 56.18 84.9387 56.18 84.9385 56.18C84.9383 56.18 84.9381 56.18 84.9379 56.18C84.9377 56.18 84.9375 56.18 84.9373 56.18C84.9371 56.18 84.9369 56.18 84.9367 56.18C84.9365 56.18 84.9363 56.18 84.9361 56.18C84.9359 56.18 84.9357 56.18 84.9354 56.18C84.9352 56.18 84.935 56.18 84.9348 56.18C84.9346 56.18 84.9344 56.18 84.9342 56.18C84.934 56.18 84.9338 56.18 84.9336 56.18C84.9334 56.18 84.9332 56.18 84.933 56.18C84.9328 56.18 84.9326 56.18 84.9324 56.18C84.9322 56.18 84.932 56.18 84.9318 56.18C84.9315 56.18 84.9313 56.18 84.9311 56.18C84.9309 56.18 84.9307 56.18 84.9305 56.18C84.9303 56.18 84.9301 56.18 84.9299 56.18C84.9297 56.18 84.9295 56.18 84.9293 56.18C84.9291 56.18 84.9289 56.18 84.9287 56.18C84.9285 56.18 84.9283 56.18 84.9281 56.18C84.9279 56.18 84.9276 56.18 84.9274 56.18C84.9272 56.18 84.927 56.18 84.9268 56.18C84.9266 56.18 84.9264 56.18 84.9262 56.18C84.926 56.18 84.9258 56.18 84.9256 56.18C84.9254 56.18 84.9252 56.18 84.925 56.18C84.9248 56.18 84.9246 56.18 84.9244 56.18C84.9242 56.18 84.924 56.18 84.9238 56.18C84.9235 56.18 84.9233 56.18 84.9231 56.18C84.9229 56.18 84.9227 56.18 84.9225 56.18C84.9223 56.18 84.9221 56.18 84.9219 56.18C84.9217 56.18 84.9215 56.18 84.9213 56.18C84.9211 56.18 84.9209 56.18 84.9207 56.18C84.9205 56.18 84.9203 56.18 84.9201 56.18C84.9199 56.18 84.9196 56.18 84.9194 56.18C84.9192 56.18 84.919 56.18 84.9188 56.18C84.9186 56.18 84.9184 56.18 84.9182 56.18C84.918 56.18 84.9178 56.18 84.9176 56.18C84.9174 56.18 84.9172 56.18 84.917 56.18C84.9168 56.18 84.9166 56.18 84.9164 56.18C84.9162 56.18 84.916 56.18 84.9158 56.18C84.9155 56.18 84.9153 56.18 84.9151 56.18C84.9149 56.18 84.9147 56.18 84.9145 56.18C84.9143 56.18 84.9141 56.18 84.9139 56.18C84.9137 56.18 84.9135 56.18 84.9133 56.18C84.9131 56.18 84.9129 56.18 84.9127 56.18C84.9125 56.18 84.9123 56.18 84.9121 56.18C84.9119 56.18 84.9117 56.18 84.9114 56.18C84.9112 56.18 84.911 56.18 84.9108 56.18C84.9106 56.18 84.9104 56.18 84.9102 56.18C84.91 56.18 84.9098 56.18 84.9096 56.18C84.9094 56.18 84.9092 56.18 84.909 56.18C84.9088 56.18 84.9086 56.18 84.9084 56.18C84.9082 56.18 84.908 56.18 84.9078 56.18C84.9075 56.18 84.9073 56.18 84.9071 56.18C84.9069 56.18 84.9067 56.18 84.9065 56.18C84.9063 56.18 84.9061 56.18 84.9059 56.18C84.9057 56.18 84.9055 56.18 84.9053 56.18C84.9051 56.18 84.9049 56.18 84.9047 56.18C84.9045 56.18 84.9043 56.18 84.9041 56.18C84.9039 56.18 84.9036 56.18 84.9034 56.18C84.9032 56.18 84.903 56.18 84.9028 56.18C84.9026 56.18 84.9024 56.18 84.9022 56.18C84.902 56.18 84.9018 56.18 84.9016 56.18C84.9014 56.18 84.9012 56.18 84.901 56.18C84.9008 56.18 84.9006 56.18 84.9004 56.18C84.9002 56.18 84.8999 56.18 84.8997 56.18C84.8995 56.18 84.8993 56.18 84.8991 56.18C84.8989 56.18 84.8987 56.18 84.8985 56.18C84.8983 56.18 84.8981 56.18 84.8979 56.18C84.8977 56.18 84.8975 56.18 84.8973 56.18C84.8971 56.18 84.8969 56.18 84.8967 56.18C84.8965 56.18 84.8962 56.18 84.896 56.18C84.8958 56.18 84.8956 56.18 84.8954 56.18C84.8952 56.18 84.895 56.18 84.8948 56.18C84.8946 56.18 84.8944 56.18 84.8942 56.18C84.894 56.18 84.8938 56.18 84.8936 56.18C84.8934 56.18 84.8932 56.18 84.893 56.18C84.8927 56.18 84.8925 56.18 84.8923 56.18C84.8921 56.18 84.8919 56.18 84.8917 56.18C84.8915 56.18 84.8913 56.18 84.8911 56.18C84.8909 56.18 84.8907 56.18 84.8905 56.18C84.8903 56.18 84.8901 56.18 84.8899 56.18C84.8897 56.18 84.8895 56.18 84.8892 56.18C84.889 56.18 84.8888 56.18 84.8886 56.18C84.8884 56.18 84.8882 56.18 84.888 56.18C84.8878 56.18 84.8876 56.18 84.8874 56.18C84.8872 56.18 84.887 56.18 84.8868 56.18C84.8866 56.18 84.8864 56.18 84.8862 56.18C84.8859 56.18 84.8857 56.18 84.8855 56.18C84.8853 56.18 84.8851 56.18 84.8849 56.18C84.8847 56.18 84.8845 56.18 84.8843 56.18C84.8841 56.18 84.8839 56.18 84.8837 56.18C84.8835 56.18 84.8833 56.18 84.8831 56.18C84.8829 56.18 84.8826 56.18 84.8824 56.18C84.8822 56.18 84.882 56.18 84.8818 56.18C84.8816 56.18 84.8814 56.18 84.8812 56.18C84.881 56.18 84.8808 56.18 84.8806 56.18C84.8804 56.18 84.8802 56.18 84.88 56.18C84.8797 56.18 84.8795 56.18 84.8793 56.18C84.8791 56.18 84.8789 56.18 84.8787 56.18C84.8785 56.18 84.8783 56.18 84.8781 56.18C84.8779 56.18 84.8777 56.18 84.8775 56.18C84.8773 56.18 84.8771 56.18 84.8769 56.18C84.8766 56.18 84.8764 56.18 84.8762 56.18C84.876 56.18 84.8758 56.18 84.8756 56.18C84.8754 56.18 84.8752 56.18 84.875 56.18C84.8748 56.18 84.8746 56.18 84.8744 56.18C84.8742 56.18 84.874 56.18 84.8737 56.18C84.8735 56.18 84.8733 56.18 84.8731 56.18C84.8729 56.18 84.8727 56.18 84.8725 56.18C84.8723 56.18 84.8721 56.18 84.8719 56.18C84.8717 56.18 84.8715 56.18 84.8713 56.18C84.871 56.18 84.8708 56.18 84.8706 56.18C84.8704 56.18 84.8702 56.18 84.87 56.18C84.8698 56.18 84.8696 56.18 84.8694 56.18C84.8692 56.18 84.869 56.18 84.8688 56.18C84.8685 56.18 84.8683 56.18 84.8681 56.18C84.8679 56.18 84.8677 56.18 84.8675 56.18C84.8673 56.18 84.8671 56.18 84.8669 56.18C84.8667 56.18 84.8665 56.18 84.8663 56.18C84.8661 56.18 84.8658 56.18 84.8656 56.18C84.8654 56.18 84.8652 56.18 84.865 56.18C84.8648 56.18 84.8646 56.18 84.8644 56.18C84.8642 56.18 84.864 56.18 84.8638 56.18C84.8635 56.18 84.8633 56.18 84.8631 56.18C84.8629 56.18 84.8627 56.18 84.8625 56.18C84.8623 56.18 84.8621 56.18 84.8619 56.18C84.8617 56.18 84.8615 56.18 84.8613 56.18C84.861 56.18 84.8608 56.18 84.8606 56.18C84.8604 56.18 84.8602 56.18 84.86 56.18C84.8598 56.18 84.8596 56.18 84.8594 56.18C84.8592 56.18 84.859 56.18 84.8587 56.18C84.8585 56.18 84.8583 56.18 84.8581 56.18C84.8579 56.18 84.8577 56.18 84.8575 56.18C84.8573 56.18 84.8571 56.18 84.8569 56.18C84.8566 56.18 84.8564 56.18 84.8562 56.18C84.856 56.18 84.8558 56.18 84.8556 56.18C84.8554 56.18 84.8552 56.18 84.855 56.18C84.8548 56.18 84.8545 56.18 84.8543 56.18C84.8541 56.18 84.8539 56.18 84.8537 56.18C84.8535 56.18 84.8533 56.18 84.8531 56.18C84.8529 56.18 84.8527 56.18 84.8525 56.18C84.8522 56.18 84.852 56.18 84.8518 56.18C84.8516 56.18 84.8514 56.18 84.8512 56.18C84.851 56.18 84.8508 56.18 84.8506 56.18C84.8503 56.18 84.8501 56.18 84.8499 56.18C84.8497 56.18 84.8495 56.18 84.8493 56.18C84.8491 56.18 84.8489 56.18 84.8487 56.18C84.8484 56.18 84.8482 56.18 84.848 56.18C84.8478 56.18 84.8476 56.18 84.8474 56.18C84.8472 56.18 84.847 56.18 84.8468 56.18C84.8466 56.18 84.8463 56.18 84.8461 56.18C84.8459 56.18 84.8457 56.18 84.8455 56.18C84.8453 56.18 84.8451 56.18 84.8449 56.18C84.8447 56.18 84.8444 56.18 84.8442 56.18C84.844 56.18 84.8438 56.18 84.8436 56.18C84.8434 56.18 84.8432 56.18 84.843 56.18C84.8427 56.18 84.8425 56.18 84.8423 56.18C84.8421 56.18 84.8419 56.18 84.8417 56.18C84.8415 56.18 84.8413 56.18 84.841 56.18C84.8408 56.18 84.8406 56.18 84.8404 56.18C84.8402 56.18 84.84 56.18 84.8398 56.18C84.8396 56.18 84.8394 56.18 84.8391 56.18C84.8389 56.18 84.8387 56.18 84.8385 56.18C84.8383 56.18 84.8381 56.18 84.8379 56.18C84.8377 56.18 84.8374 56.18 84.8372 56.18C84.837 56.18 84.8368 56.18 84.8366 56.18C84.8364 56.18 84.8362 56.18 84.8359 56.18C84.8357 56.18 84.8355 56.18 84.8353 56.18C84.8351 56.18 84.8349 56.18 84.8347 56.18C84.8345 56.18 84.8342 56.18 84.834 56.18C84.8338 56.18 84.8336 56.18 84.8334 56.18C84.8332 56.18 84.833 56.18 84.8328 56.18C84.8325 56.18 84.8323 56.18 84.8321 56.18C84.8319 56.18 84.8317 56.18 84.8315 56.18C84.8313 56.18 84.831 56.18 84.8308 56.18C84.8306 56.18 84.8304 56.18 84.8302 56.18C84.83 56.18 84.8298 56.18 84.8295 56.18C84.8293 56.18 84.8291 56.18 84.8289 56.18C84.8287 56.18 84.8285 56.18 84.8283 56.18C84.828 56.18 84.8278 56.18 84.8276 56.18C84.8274 56.18 84.8272 56.18 84.827 56.18C84.8268 56.18 84.8265 56.18 84.8263 56.18C84.8261 56.18 84.8259 56.18 84.8257 56.18C84.8255 56.18 84.8252 56.18 84.825 56.18C84.8248 56.18 84.8246 56.18 84.8244 56.18C84.8242 56.18 84.824 56.18 84.8237 56.18C84.8235 56.18 84.8233 56.18 84.8231 56.18C84.8229 56.18 84.8227 56.18 84.8224 56.18C84.8222 56.18 84.822 56.18 84.8218 56.18C84.8216 56.18 84.8214 56.18 84.8212 56.18C84.8209 56.18 84.8207 56.18 84.8205 56.18C84.8203 56.18 84.8201 56.18 84.8199 56.18C84.8196 56.18 84.8194 56.18 84.8192 56.18C84.819 56.18 84.8188 56.18 84.8186 56.18C84.8183 56.18 84.8181 56.18 84.8179 56.18C84.8177 56.18 84.8175 56.18 84.8173 56.18C84.817 56.18 84.8168 56.18 84.8166 56.18C84.8164 56.18 84.8162 56.18 84.816 56.18C84.8157 56.18 84.8155 56.18 84.8153 56.18C84.8151 56.18 84.8149 56.18 84.8147 56.18C84.8144 56.18 84.8142 56.18 84.814 56.18C84.8138 56.18 84.8136 56.18 84.8134 56.18C84.8131 56.18 84.8129 56.18 84.8127 56.18C84.8125 56.18 84.8123 56.18 84.812 56.18C84.8118 56.18 84.8116 56.18 84.8114 56.18C84.8112 56.18 84.811 56.18 84.8107 56.18C84.8105 56.18 84.8103 56.18 84.8101 56.18C84.8099 56.18 84.8096 56.18 84.8094 56.18C84.8092 56.18 84.809 56.18 84.8088 56.18C84.8085 56.18 84.8083 56.18 84.8081 56.18C84.8079 56.18 84.8077 56.18 84.8075 56.18C84.8072 56.18 84.807 56.18 84.8068 56.18C84.8066 56.18 84.8064 56.18 84.8061 56.18C84.8059 56.18 84.8057 56.18 84.8055 56.18C84.8053 56.18 84.805 56.18 84.8048 56.18C84.8046 56.18 84.8044 56.18 84.8042 56.18C84.8039 56.18 84.8037 56.18 84.8035 56.18C84.8033 56.18 84.8031 56.18 84.8028 56.18C84.8026 56.18 84.8024 56.18 84.8022 56.18C84.802 56.18 84.8017 56.18 84.8015 56.18C84.8013 56.18 84.8011 56.18 84.8009 56.18C84.8006 56.18 84.8004 56.18 84.8002 56.18C84.8 56.18 84.7998 56.18 84.7995 56.18C84.7993 56.18 84.7991 56.18 84.7989 56.18C84.7986 56.18 84.7984 56.18 84.7982 56.18C84.798 56.18 84.7978 56.18 84.7975 56.18C84.7973 56.18 84.7971 56.18 84.7969 56.18C84.7967 56.18 84.7964 56.18 84.7962 56.18C84.796 56.18 84.7958 56.18 84.7955 56.18C84.7953 56.18 84.7951 56.18 84.7949 56.18C84.7947 56.18 84.7944 56.18 84.7942 56.18C84.794 56.18 84.7938 56.18 84.7935 56.18C84.7933 56.18 84.7931 56.18 84.7929 56.18C84.7927 56.18 84.7924 56.18 84.7922 56.18C84.792 56.18 84.7918 56.18 84.7915 56.18C84.7913 56.18 84.7911 56.18 84.7909 56.18C84.7906 56.18 84.7904 56.18 84.7902 56.18C84.79 56.18 84.7897 56.18 84.7895 56.18C84.7893 56.18 84.7891 56.18 84.7889 56.18C84.7886 56.18 84.7884 56.18 84.7882 56.18C84.788 56.18 84.7877 56.18 84.7875 56.18C84.7873 56.18 84.7871 56.18 84.7868 56.18C84.7866 56.18 84.7864 56.18 84.7862 56.18C84.7859 56.18 84.7857 56.18 84.7855 56.18C84.7853 56.18 84.785 56.18 84.7848 56.18C84.7846 56.18 84.7844 56.18 84.7841 56.18C84.7839 56.18 84.7837 56.18 84.7835 56.18C84.7832 56.18 84.783 56.18 84.7828 56.18C84.7826 56.18 84.7823 56.18 84.7821 56.18C84.7819 56.18 84.7817 56.18 84.7814 56.18C84.7812 56.18 84.781 56.18 84.7808 56.18C84.7805 56.18 84.7803 56.18 84.7801 56.18C84.7799 56.18 84.7796 56.18 84.7794 56.18C84.7792 56.18 84.7789 56.18 84.7787 56.18C84.7785 56.18 84.7783 56.18 84.778 56.18C84.7778 56.18 84.7776 56.18 84.7774 56.18C84.7771 56.18 84.7769 56.18 84.7767 56.18C84.7764 56.18 84.7762 56.18 84.776 56.18C84.7758 56.18 84.7755 56.18 84.7753 56.18C84.7751 56.18 84.7749 56.18 84.7746 56.18C84.7744 56.18 84.7742 56.18 84.7739 56.18C84.7737 56.18 84.7735 56.18 84.7733 56.18C84.773 56.18 84.7728 56.18 84.7726 56.18C84.7723 56.18 84.7721 56.18 84.7719 56.18C84.7717 56.18 84.7714 56.18 84.7712 56.18C84.771 56.18 84.7707 56.18 84.7705 56.18C84.7703 56.18 84.7701 56.18 84.7698 56.18C84.7696 56.18 84.7694 56.18 84.7691 56.18C84.7689 56.18 84.7687 56.18 84.7684 56.18C84.7682 56.18 84.768 56.18 84.7678 56.18C84.7675 56.18 84.7673 56.18 84.7671 56.18C84.7668 56.18 84.7666 56.18 84.7664 56.18C84.7661 56.18 84.7659 56.18 84.7657 56.18C84.7655 56.18 84.7652 56.18 84.765 56.18C84.7648 56.18 84.7645 56.18 84.7643 56.18C84.7641 56.18 84.7638 56.18 84.7636 56.18C84.7634 56.18 84.7631 56.18 84.7629 56.18C84.7627 56.18 84.7624 56.18 84.7622 56.18C84.762 56.18 84.7618 56.18 84.7615 56.18C84.7613 56.18 84.7611 56.18 84.7608 56.18C84.7606 56.18 84.7604 56.18 84.7601 56.18C84.7599 56.18 84.7597 56.18 84.7594 56.18C84.7592 56.18 84.759 56.18 84.7587 56.18C84.7585 56.18 84.7583 56.18 84.758 56.18C84.7578 56.18 84.7576 56.18 84.7573 56.18C84.7571 56.18 84.7569 56.18 84.7566 56.18C84.7564 56.18 84.7562 56.18 84.7559 56.18C84.7557 56.18 84.7555 56.18 84.7552 56.18C84.755 56.18 84.7548 56.18 84.7545 56.18C84.7543 56.18 84.7541 56.18 84.7538 56.18V58.18ZM86.2338 39.48C86.2338 38.2174 86.7232 37.3296 87.4748 36.7284C88.2546 36.1045 89.3884 35.7366 90.714 35.7098L90.6736 33.7102C89.0292 33.7434 87.4331 34.2005 86.2254 35.1666C84.9895 36.1554 84.2338 37.6226 84.2338 39.48H86.2338ZM89.7305 34.4415L86.8205 44.8815L88.7471 45.4185L91.6571 34.9785L89.7305 34.4415ZM88.5871 44.5544C87.2643 42.7701 86.2338 41.289 86.2338 39.48H84.2338C84.2338 42.051 85.7234 44.0499 86.9805 45.7456L88.5871 44.5544ZM89.5438 51.57C89.5438 53.1139 89.027 54.1641 88.283 54.8371C87.5234 55.5243 86.4241 55.91 85.1138 55.91V57.91C86.8035 57.91 88.4193 57.4107 89.6247 56.3204C90.8457 55.2159 91.5438 53.5961 91.5438 51.57H89.5438ZM85.1138 55.91C85.1137 55.91 85.1135 55.91 85.1133 55.91C85.1131 55.91 85.1129 55.91 85.1128 55.91C85.1126 55.91 85.1124 55.91 85.1122 55.91C85.1121 55.91 85.1119 55.91 85.1117 55.91C85.1115 55.91 85.1114 55.91 85.1112 55.91C85.111 55.91 85.1108 55.91 85.1107 55.91C85.1105 55.91 85.1103 55.91 85.1101 55.91C85.11 55.91 85.1098 55.91 85.1096 55.91C85.1094 55.91 85.1093 55.91 85.1091 55.91C85.1089 55.91 85.1087 55.91 85.1086 55.91C85.1084 55.91 85.1082 55.91 85.108 55.91C85.1079 55.91 85.1077 55.91 85.1075 55.91C85.1073 55.91 85.1071 55.91 85.107 55.91C85.1068 55.91 85.1066 55.91 85.1064 55.91C85.1063 55.91 85.1061 55.91 85.1059 55.91C85.1057 55.91 85.1056 55.91 85.1054 55.91C85.1052 55.91 85.105 55.91 85.1049 55.91C85.1047 55.91 85.1045 55.91 85.1043 55.91C85.1042 55.91 85.104 55.91 85.1038 55.91C85.1036 55.91 85.1035 55.91 85.1033 55.91C85.1031 55.91 85.1029 55.91 85.1028 55.91C85.1026 55.91 85.1024 55.91 85.1022 55.91C85.102 55.91 85.1019 55.91 85.1017 55.91C85.1015 55.91 85.1013 55.91 85.1012 55.91C85.101 55.91 85.1008 55.91 85.1006 55.91C85.1005 55.91 85.1003 55.91 85.1001 55.91C85.0999 55.91 85.0998 55.91 85.0996 55.91C85.0994 55.91 85.0992 55.91 85.0991 55.91C85.0989 55.91 85.0987 55.91 85.0985 55.91C85.0984 55.91 85.0982 55.91 85.098 55.91C85.0978 55.91 85.0976 55.91 85.0975 55.91C85.0973 55.91 85.0971 55.91 85.0969 55.91C85.0968 55.91 85.0966 55.91 85.0964 55.91C85.0962 55.91 85.0961 55.91 85.0959 55.91C85.0957 55.91 85.0955 55.91 85.0954 55.91C85.0952 55.91 85.095 55.91 85.0948 55.91C85.0947 55.91 85.0945 55.91 85.0943 55.91C85.0941 55.91 85.094 55.91 85.0938 55.91C85.0936 55.91 85.0934 55.91 85.0933 55.91C85.0931 55.91 85.0929 55.91 85.0927 55.91C85.0925 55.91 85.0924 55.91 85.0922 55.91C85.092 55.91 85.0918 55.91 85.0917 55.91C85.0915 55.91 85.0913 55.91 85.0911 55.91C85.091 55.91 85.0908 55.91 85.0906 55.91C85.0904 55.91 85.0903 55.91 85.0901 55.91C85.0899 55.91 85.0897 55.91 85.0896 55.91C85.0894 55.91 85.0892 55.91 85.089 55.91C85.0888 55.91 85.0887 55.91 85.0885 55.91C85.0883 55.91 85.0881 55.91 85.088 55.91C85.0878 55.91 85.0876 55.91 85.0874 55.91C85.0873 55.91 85.0871 55.91 85.0869 55.91C85.0867 55.91 85.0866 55.91 85.0864 55.91C85.0862 55.91 85.086 55.91 85.0858 55.91C85.0857 55.91 85.0855 55.91 85.0853 55.91C85.0851 55.91 85.085 55.91 85.0848 55.91C85.0846 55.91 85.0844 55.91 85.0843 55.91C85.0841 55.91 85.0839 55.91 85.0837 55.91C85.0836 55.91 85.0834 55.91 85.0832 55.91C85.083 55.91 85.0828 55.91 85.0827 55.91C85.0825 55.91 85.0823 55.91 85.0821 55.91C85.082 55.91 85.0818 55.91 85.0816 55.91C85.0814 55.91 85.0813 55.91 85.0811 55.91C85.0809 55.91 85.0807 55.91 85.0806 55.91C85.0804 55.91 85.0802 55.91 85.08 55.91C85.0798 55.91 85.0797 55.91 85.0795 55.91C85.0793 55.91 85.0791 55.91 85.079 55.91C85.0788 55.91 85.0786 55.91 85.0784 55.91C85.0783 55.91 85.0781 55.91 85.0779 55.91C85.0777 55.91 85.0775 55.91 85.0774 55.91C85.0772 55.91 85.077 55.91 85.0768 55.91C85.0767 55.91 85.0765 55.91 85.0763 55.91C85.0761 55.91 85.076 55.91 85.0758 55.91C85.0756 55.91 85.0754 55.91 85.0752 55.91C85.0751 55.91 85.0749 55.91 85.0747 55.91C85.0745 55.91 85.0744 55.91 85.0742 55.91C85.074 55.91 85.0738 55.91 85.0737 55.91C85.0735 55.91 85.0733 55.91 85.0731 55.91C85.0729 55.91 85.0728 55.91 85.0726 55.91C85.0724 55.91 85.0722 55.91 85.0721 55.91C85.0719 55.91 85.0717 55.91 85.0715 55.91C85.0714 55.91 85.0712 55.91 85.071 55.91C85.0708 55.91 85.0706 55.91 85.0705 55.91C85.0703 55.91 85.0701 55.91 85.0699 55.91C85.0698 55.91 85.0696 55.91 85.0694 55.91C85.0692 55.91 85.069 55.91 85.0689 55.91C85.0687 55.91 85.0685 55.91 85.0683 55.91C85.0682 55.91 85.068 55.91 85.0678 55.91C85.0676 55.91 85.0674 55.91 85.0673 55.91C85.0671 55.91 85.0669 55.91 85.0667 55.91C85.0666 55.91 85.0664 55.91 85.0662 55.91C85.066 55.91 85.0658 55.91 85.0657 55.91C85.0655 55.91 85.0653 55.91 85.0651 55.91C85.065 55.91 85.0648 55.91 85.0646 55.91C85.0644 55.91 85.0643 55.91 85.0641 55.91C85.0639 55.91 85.0637 55.91 85.0635 55.91C85.0634 55.91 85.0632 55.91 85.063 55.91C85.0628 55.91 85.0626 55.91 85.0625 55.91C85.0623 55.91 85.0621 55.91 85.0619 55.91C85.0618 55.91 85.0616 55.91 85.0614 55.91C85.0612 55.91 85.061 55.91 85.0609 55.91C85.0607 55.91 85.0605 55.91 85.0603 55.91C85.0602 55.91 85.06 55.91 85.0598 55.91C85.0596 55.91 85.0594 55.91 85.0593 55.91C85.0591 55.91 85.0589 55.91 85.0587 55.91C85.0586 55.91 85.0584 55.91 85.0582 55.91C85.058 55.91 85.0578 55.91 85.0577 55.91C85.0575 55.91 85.0573 55.91 85.0571 55.91C85.0569 55.91 85.0568 55.91 85.0566 55.91C85.0564 55.91 85.0562 55.91 85.0561 55.91C85.0559 55.91 85.0557 55.91 85.0555 55.91C85.0553 55.91 85.0552 55.91 85.055 55.91C85.0548 55.91 85.0546 55.91 85.0545 55.91C85.0543 55.91 85.0541 55.91 85.0539 55.91C85.0537 55.91 85.0536 55.91 85.0534 55.91C85.0532 55.91 85.053 55.91 85.0528 55.91C85.0527 55.91 85.0525 55.91 85.0523 55.91C85.0521 55.91 85.0519 55.91 85.0518 55.91C85.0516 55.91 85.0514 55.91 85.0512 55.91C85.0511 55.91 85.0509 55.91 85.0507 55.91C85.0505 55.91 85.0503 55.91 85.0502 55.91C85.05 55.91 85.0498 55.91 85.0496 55.91C85.0494 55.91 85.0493 55.91 85.0491 55.91C85.0489 55.91 85.0487 55.91 85.0485 55.91C85.0484 55.91 85.0482 55.91 85.048 55.91C85.0478 55.91 85.0477 55.91 85.0475 55.91C85.0473 55.91 85.0471 55.91 85.0469 55.91C85.0468 55.91 85.0466 55.91 85.0464 55.91C85.0462 55.91 85.046 55.91 85.0459 55.91C85.0457 55.91 85.0455 55.91 85.0453 55.91C85.0451 55.91 85.045 55.91 85.0448 55.91C85.0446 55.91 85.0444 55.91 85.0442 55.91C85.0441 55.91 85.0439 55.91 85.0437 55.91C85.0435 55.91 85.0433 55.91 85.0432 55.91C85.043 55.91 85.0428 55.91 85.0426 55.91C85.0424 55.91 85.0423 55.91 85.0421 55.91C85.0419 55.91 85.0417 55.91 85.0415 55.91C85.0414 55.91 85.0412 55.91 85.041 55.91C85.0408 55.91 85.0406 55.91 85.0405 55.91C85.0403 55.91 85.0401 55.91 85.0399 55.91C85.0397 55.91 85.0396 55.91 85.0394 55.91C85.0392 55.91 85.039 55.91 85.0388 55.91C85.0387 55.91 85.0385 55.91 85.0383 55.91C85.0381 55.91 85.0379 55.91 85.0378 55.91C85.0376 55.91 85.0374 55.91 85.0372 55.91C85.037 55.91 85.0369 55.91 85.0367 55.91C85.0365 55.91 85.0363 55.91 85.0361 55.91C85.036 55.91 85.0358 55.91 85.0356 55.91C85.0354 55.91 85.0352 55.91 85.0351 55.91C85.0349 55.91 85.0347 55.91 85.0345 55.91C85.0343 55.91 85.0342 55.91 85.034 55.91C85.0338 55.91 85.0336 55.91 85.0334 55.91C85.0332 55.91 85.0331 55.91 85.0329 55.91C85.0327 55.91 85.0325 55.91 85.0323 55.91C85.0322 55.91 85.032 55.91 85.0318 55.91C85.0316 55.91 85.0314 55.91 85.0313 55.91C85.0311 55.91 85.0309 55.91 85.0307 55.91C85.0305 55.91 85.0304 55.91 85.0302 55.91C85.03 55.91 85.0298 55.91 85.0296 55.91C85.0294 55.91 85.0293 55.91 85.0291 55.91C85.0289 55.91 85.0287 55.91 85.0285 55.91C85.0284 55.91 85.0282 55.91 85.028 55.91C85.0278 55.91 85.0276 55.91 85.0274 55.91C85.0273 55.91 85.0271 55.91 85.0269 55.91C85.0267 55.91 85.0265 55.91 85.0264 55.91C85.0262 55.91 85.026 55.91 85.0258 55.91C85.0256 55.91 85.0254 55.91 85.0253 55.91C85.0251 55.91 85.0249 55.91 85.0247 55.91C85.0245 55.91 85.0244 55.91 85.0242 55.91C85.024 55.91 85.0238 55.91 85.0236 55.91C85.0234 55.91 85.0233 55.91 85.0231 55.91C85.0229 55.91 85.0227 55.91 85.0225 55.91C85.0224 55.91 85.0222 55.91 85.022 55.91C85.0218 55.91 85.0216 55.91 85.0214 55.91C85.0213 55.91 85.0211 55.91 85.0209 55.91C85.0207 55.91 85.0205 55.91 85.0203 55.91C85.0202 55.91 85.02 55.91 85.0198 55.91C85.0196 55.91 85.0194 55.91 85.0192 55.91C85.0191 55.91 85.0189 55.91 85.0187 55.91C85.0185 55.91 85.0183 55.91 85.0182 55.91C85.018 55.91 85.0178 55.91 85.0176 55.91C85.0174 55.91 85.0172 55.91 85.0171 55.91C85.0169 55.91 85.0167 55.91 85.0165 55.91C85.0163 55.91 85.0161 55.91 85.016 55.91C85.0158 55.91 85.0156 55.91 85.0154 55.91C85.0152 55.91 85.015 55.91 85.0149 55.91C85.0147 55.91 85.0145 55.91 85.0143 55.91C85.0141 55.91 85.0139 55.91 85.0138 55.91C85.0136 55.91 85.0134 55.91 85.0132 55.91C85.013 55.91 85.0128 55.91 85.0126 55.91C85.0125 55.91 85.0123 55.91 85.0121 55.91C85.0119 55.91 85.0117 55.91 85.0115 55.91C85.0114 55.91 85.0112 55.91 85.011 55.91C85.0108 55.91 85.0106 55.91 85.0104 55.91C85.0103 55.91 85.0101 55.91 85.0099 55.91C85.0097 55.91 85.0095 55.91 85.0093 55.91C85.0092 55.91 85.009 55.91 85.0088 55.91C85.0086 55.91 85.0084 55.91 85.0082 55.91C85.008 55.91 85.0079 55.91 85.0077 55.91C85.0075 55.91 85.0073 55.91 85.0071 55.91C85.0069 55.91 85.0068 55.91 85.0066 55.91C85.0064 55.91 85.0062 55.91 85.006 55.91C85.0058 55.91 85.0056 55.91 85.0055 55.91C85.0053 55.91 85.0051 55.91 85.0049 55.91C85.0047 55.91 85.0045 55.91 85.0044 55.91C85.0042 55.91 85.004 55.91 85.0038 55.91C85.0036 55.91 85.0034 55.91 85.0032 55.91C85.0031 55.91 85.0029 55.91 85.0027 55.91C85.0025 55.91 85.0023 55.91 85.0021 55.91C85.0019 55.91 85.0018 55.91 85.0016 55.91C85.0014 55.91 85.0012 55.91 85.001 55.91C85.0008 55.91 85.0006 55.91 85.0005 55.91C85.0003 55.91 85.0001 55.91 84.9999 55.91C84.9997 55.91 84.9995 55.91 84.9993 55.91C84.9992 55.91 84.999 55.91 84.9988 55.91C84.9986 55.91 84.9984 55.91 84.9982 55.91C84.998 55.91 84.9979 55.91 84.9977 55.91C84.9975 55.91 84.9973 55.91 84.9971 55.91C84.9969 55.91 84.9967 55.91 84.9966 55.91C84.9964 55.91 84.9962 55.91 84.996 55.91C84.9958 55.91 84.9956 55.91 84.9954 55.91C84.9952 55.91 84.9951 55.91 84.9949 55.91C84.9947 55.91 84.9945 55.91 84.9943 55.91C84.9941 55.91 84.9939 55.91 84.9938 55.91C84.9936 55.91 84.9934 55.91 84.9932 55.91C84.993 55.91 84.9928 55.91 84.9926 55.91C84.9924 55.91 84.9923 55.91 84.9921 55.91C84.9919 55.91 84.9917 55.91 84.9915 55.91C84.9913 55.91 84.9911 55.91 84.9909 55.91C84.9908 55.91 84.9906 55.91 84.9904 55.91C84.9902 55.91 84.99 55.91 84.9898 55.91C84.9896 55.91 84.9894 55.91 84.9893 55.91C84.9891 55.91 84.9889 55.91 84.9887 55.91C84.9885 55.91 84.9883 55.91 84.9881 55.91C84.9879 55.91 84.9878 55.91 84.9876 55.91C84.9874 55.91 84.9872 55.91 84.987 55.91C84.9868 55.91 84.9866 55.91 84.9864 55.91C84.9862 55.91 84.9861 55.91 84.9859 55.91C84.9857 55.91 84.9855 55.91 84.9853 55.91C84.9851 55.91 84.9849 55.91 84.9847 55.91C84.9846 55.91 84.9844 55.91 84.9842 55.91C84.984 55.91 84.9838 55.91 84.9836 55.91C84.9834 55.91 84.9832 55.91 84.983 55.91C84.9829 55.91 84.9827 55.91 84.9825 55.91C84.9823 55.91 84.9821 55.91 84.9819 55.91C84.9817 55.91 84.9815 55.91 84.9813 55.91C84.9812 55.91 84.981 55.91 84.9808 55.91C84.9806 55.91 84.9804 55.91 84.9802 55.91C84.98 55.91 84.9798 55.91 84.9796 55.91C84.9794 55.91 84.9793 55.91 84.9791 55.91C84.9789 55.91 84.9787 55.91 84.9785 55.91C84.9783 55.91 84.9781 55.91 84.9779 55.91C84.9777 55.91 84.9776 55.91 84.9774 55.91C84.9772 55.91 84.977 55.91 84.9768 55.91C84.9766 55.91 84.9764 55.91 84.9762 55.91C84.976 55.91 84.9758 55.91 84.9757 55.91C84.9755 55.91 84.9753 55.91 84.9751 55.91C84.9749 55.91 84.9747 55.91 84.9745 55.91C84.9743 55.91 84.9741 55.91 84.9739 55.91C84.9737 55.91 84.9736 55.91 84.9734 55.91C84.9732 55.91 84.973 55.91 84.9728 55.91C84.9726 55.91 84.9724 55.91 84.9722 55.91C84.972 55.91 84.9718 55.91 84.9716 55.91C84.9715 55.91 84.9713 55.91 84.9711 55.91C84.9709 55.91 84.9707 55.91 84.9705 55.91C84.9703 55.91 84.9701 55.91 84.9699 55.91C84.9697 55.91 84.9695 55.91 84.9693 55.91C84.9692 55.91 84.969 55.91 84.9688 55.91C84.9686 55.91 84.9684 55.91 84.9682 55.91C84.968 55.91 84.9678 55.91 84.9676 55.91C84.9674 55.91 84.9672 55.91 84.967 55.91C84.9669 55.91 84.9667 55.91 84.9665 55.91C84.9663 55.91 84.9661 55.91 84.9659 55.91C84.9657 55.91 84.9655 55.91 84.9653 55.91C84.9651 55.91 84.9649 55.91 84.9647 55.91C84.9645 55.91 84.9644 55.91 84.9642 55.91C84.964 55.91 84.9638 55.91 84.9636 55.91C84.9634 55.91 84.9632 55.91 84.963 55.91C84.9628 55.91 84.9626 55.91 84.9624 55.91C84.9622 55.91 84.962 55.91 84.9618 55.91C84.9617 55.91 84.9615 55.91 84.9613 55.91C84.9611 55.91 84.9609 55.91 84.9607 55.91C84.9605 55.91 84.9603 55.91 84.9601 55.91C84.9599 55.91 84.9597 55.91 84.9595 55.91C84.9593 55.91 84.9591 55.91 84.9589 55.91C84.9587 55.91 84.9586 55.91 84.9584 55.91C84.9582 55.91 84.958 55.91 84.9578 55.91C84.9576 55.91 84.9574 55.91 84.9572 55.91C84.957 55.91 84.9568 55.91 84.9566 55.91C84.9564 55.91 84.9562 55.91 84.956 55.91C84.9558 55.91 84.9556 55.91 84.9554 55.91C84.9553 55.91 84.9551 55.91 84.9549 55.91C84.9547 55.91 84.9545 55.91 84.9543 55.91C84.9541 55.91 84.9539 55.91 84.9537 55.91C84.9535 55.91 84.9533 55.91 84.9531 55.91C84.9529 55.91 84.9527 55.91 84.9525 55.91C84.9523 55.91 84.9521 55.91 84.9519 55.91C84.9517 55.91 84.9515 55.91 84.9514 55.91C84.9512 55.91 84.951 55.91 84.9508 55.91C84.9506 55.91 84.9504 55.91 84.9502 55.91C84.95 55.91 84.9498 55.91 84.9496 55.91C84.9494 55.91 84.9492 55.91 84.949 55.91C84.9488 55.91 84.9486 55.91 84.9484 55.91C84.9482 55.91 84.948 55.91 84.9478 55.91C84.9476 55.91 84.9474 55.91 84.9472 55.91C84.947 55.91 84.9468 55.91 84.9466 55.91C84.9464 55.91 84.9463 55.91 84.9461 55.91C84.9459 55.91 84.9457 55.91 84.9455 55.91C84.9453 55.91 84.9451 55.91 84.9449 55.91C84.9447 55.91 84.9445 55.91 84.9443 55.91C84.9441 55.91 84.9439 55.91 84.9437 55.91C84.9435 55.91 84.9433 55.91 84.9431 55.91C84.9429 55.91 84.9427 55.91 84.9425 55.91C84.9423 55.91 84.9421 55.91 84.9419 55.91C84.9417 55.91 84.9415 55.91 84.9413 55.91C84.9411 55.91 84.9409 55.91 84.9407 55.91C84.9405 55.91 84.9403 55.91 84.9401 55.91C84.9399 55.91 84.9397 55.91 84.9395 55.91C84.9393 55.91 84.9391 55.91 84.9389 55.91C84.9387 55.91 84.9385 55.91 84.9384 55.91C84.9382 55.91 84.938 55.91 84.9378 55.91C84.9376 55.91 84.9374 55.91 84.9372 55.91C84.937 55.91 84.9368 55.91 84.9366 55.91C84.9364 55.91 84.9362 55.91 84.936 55.91C84.9358 55.91 84.9356 55.91 84.9354 55.91C84.9352 55.91 84.935 55.91 84.9348 55.91C84.9346 55.91 84.9344 55.91 84.9342 55.91C84.934 55.91 84.9338 55.91 84.9336 55.91C84.9334 55.91 84.9332 55.91 84.933 55.91C84.9328 55.91 84.9326 55.91 84.9324 55.91C84.9322 55.91 84.932 55.91 84.9318 55.91C84.9316 55.91 84.9314 55.91 84.9312 55.91C84.931 55.91 84.9308 55.91 84.9306 55.91C84.9304 55.91 84.9302 55.91 84.93 55.91C84.9298 55.91 84.9296 55.91 84.9294 55.91C84.9292 55.91 84.929 55.91 84.9288 55.91C84.9286 55.91 84.9284 55.91 84.9282 55.91C84.928 55.91 84.9278 55.91 84.9276 55.91C84.9274 55.91 84.9272 55.91 84.927 55.91C84.9268 55.91 84.9266 55.91 84.9263 55.91C84.9262 55.91 84.9259 55.91 84.9257 55.91C84.9255 55.91 84.9253 55.91 84.9251 55.91C84.9249 55.91 84.9247 55.91 84.9245 55.91C84.9243 55.91 84.9241 55.91 84.9239 55.91C84.9237 55.91 84.9235 55.91 84.9233 55.91C84.9231 55.91 84.9229 55.91 84.9227 55.91C84.9225 55.91 84.9223 55.91 84.9221 55.91C84.9219 55.91 84.9217 55.91 84.9215 55.91C84.9213 55.91 84.9211 55.91 84.9209 55.91C84.9207 55.91 84.9205 55.91 84.9203 55.91C84.9201 55.91 84.9199 55.91 84.9197 55.91C84.9195 55.91 84.9193 55.91 84.9191 55.91C84.9189 55.91 84.9187 55.91 84.9185 55.91C84.9183 55.91 84.918 55.91 84.9178 55.91C84.9176 55.91 84.9174 55.91 84.9172 55.91C84.917 55.91 84.9168 55.91 84.9166 55.91C84.9164 55.91 84.9162 55.91 84.916 55.91C84.9158 55.91 84.9156 55.91 84.9154 55.91C84.9152 55.91 84.915 55.91 84.9148 55.91C84.9146 55.91 84.9144 55.91 84.9142 55.91C84.914 55.91 84.9138 55.91 84.9136 55.91C84.9134 55.91 84.9131 55.91 84.9129 55.91C84.9127 55.91 84.9125 55.91 84.9123 55.91C84.9121 55.91 84.9119 55.91 84.9117 55.91C84.9115 55.91 84.9113 55.91 84.9111 55.91C84.9109 55.91 84.9107 55.91 84.9105 55.91C84.9103 55.91 84.9101 55.91 84.9099 55.91C84.9097 55.91 84.9095 55.91 84.9092 55.91C84.909 55.91 84.9088 55.91 84.9086 55.91C84.9084 55.91 84.9082 55.91 84.908 55.91C84.9078 55.91 84.9076 55.91 84.9074 55.91C84.9072 55.91 84.907 55.91 84.9068 55.91C84.9066 55.91 84.9064 55.91 84.9062 55.91C84.9059 55.91 84.9057 55.91 84.9055 55.91C84.9053 55.91 84.9051 55.91 84.9049 55.91C84.9047 55.91 84.9045 55.91 84.9043 55.91C84.9041 55.91 84.9039 55.91 84.9037 55.91C84.9035 55.91 84.9033 55.91 84.903 55.91C84.9028 55.91 84.9026 55.91 84.9024 55.91C84.9022 55.91 84.902 55.91 84.9018 55.91C84.9016 55.91 84.9014 55.91 84.9012 55.91C84.901 55.91 84.9008 55.91 84.9005 55.91C84.9003 55.91 84.9001 55.91 84.8999 55.91C84.8997 55.91 84.8995 55.91 84.8993 55.91C84.8991 55.91 84.8989 55.91 84.8987 55.91C84.8985 55.91 84.8983 55.91 84.898 55.91C84.8978 55.91 84.8976 55.91 84.8974 55.91C84.8972 55.91 84.897 55.91 84.8968 55.91C84.8966 55.91 84.8964 55.91 84.8962 55.91C84.896 55.91 84.8957 55.91 84.8955 55.91C84.8953 55.91 84.8951 55.91 84.8949 55.91C84.8947 55.91 84.8945 55.91 84.8943 55.91C84.8941 55.91 84.8939 55.91 84.8936 55.91C84.8934 55.91 84.8932 55.91 84.893 55.91C84.8928 55.91 84.8926 55.91 84.8924 55.91C84.8922 55.91 84.892 55.91 84.8918 55.91C84.8915 55.91 84.8913 55.91 84.8911 55.91C84.8909 55.91 84.8907 55.91 84.8905 55.91C84.8903 55.91 84.8901 55.91 84.8899 55.91C84.8896 55.91 84.8894 55.91 84.8892 55.91C84.889 55.91 84.8888 55.91 84.8886 55.91C84.8884 55.91 84.8882 55.91 84.888 55.91C84.8877 55.91 84.8875 55.91 84.8873 55.91C84.8871 55.91 84.8869 55.91 84.8867 55.91C84.8865 55.91 84.8863 55.91 84.886 55.91C84.8858 55.91 84.8856 55.91 84.8854 55.91C84.8852 55.91 84.885 55.91 84.8848 55.91C84.8846 55.91 84.8843 55.91 84.8841 55.91C84.8839 55.91 84.8837 55.91 84.8835 55.91C84.8833 55.91 84.8831 55.91 84.8829 55.91C84.8826 55.91 84.8824 55.91 84.8822 55.91C84.882 55.91 84.8818 55.91 84.8816 55.91C84.8814 55.91 84.8811 55.91 84.8809 55.91C84.8807 55.91 84.8805 55.91 84.8803 55.91C84.8801 55.91 84.8799 55.91 84.8796 55.91C84.8794 55.91 84.8792 55.91 84.879 55.91C84.8788 55.91 84.8786 55.91 84.8784 55.91C84.8781 55.91 84.8779 55.91 84.8777 55.91C84.8775 55.91 84.8773 55.91 84.8771 55.91C84.8769 55.91 84.8766 55.91 84.8764 55.91C84.8762 55.91 84.876 55.91 84.8758 55.91C84.8756 55.91 84.8754 55.91 84.8751 55.91C84.8749 55.91 84.8747 55.91 84.8745 55.91C84.8743 55.91 84.8741 55.91 84.8738 55.91C84.8736 55.91 84.8734 55.91 84.8732 55.91C84.873 55.91 84.8728 55.91 84.8725 55.91C84.8723 55.91 84.8721 55.91 84.8719 55.91C84.8717 55.91 84.8715 55.91 84.8713 55.91C84.871 55.91 84.8708 55.91 84.8706 55.91C84.8704 55.91 84.8702 55.91 84.8699 55.91C84.8697 55.91 84.8695 55.91 84.8693 55.91C84.8691 55.91 84.8689 55.91 84.8686 55.91C84.8684 55.91 84.8682 55.91 84.868 55.91C84.8678 55.91 84.8676 55.91 84.8673 55.91C84.8671 55.91 84.8669 55.91 84.8667 55.91C84.8665 55.91 84.8663 55.91 84.866 55.91C84.8658 55.91 84.8656 55.91 84.8654 55.91C84.8652 55.91 84.8649 55.91 84.8647 55.91C84.8645 55.91 84.8643 55.91 84.8641 55.91C84.8638 55.91 84.8636 55.91 84.8634 55.91C84.8632 55.91 84.863 55.91 84.8628 55.91C84.8625 55.91 84.8623 55.91 84.8621 55.91C84.8619 55.91 84.8617 55.91 84.8614 55.91C84.8612 55.91 84.861 55.91 84.8608 55.91C84.8606 55.91 84.8603 55.91 84.8601 55.91C84.8599 55.91 84.8597 55.91 84.8595 55.91C84.8592 55.91 84.859 55.91 84.8588 55.91C84.8586 55.91 84.8584 55.91 84.8581 55.91C84.8579 55.91 84.8577 55.91 84.8575 55.91C84.8573 55.91 84.857 55.91 84.8568 55.91C84.8566 55.91 84.8564 55.91 84.8562 55.91C84.8559 55.91 84.8557 55.91 84.8555 55.91C84.8553 55.91 84.855 55.91 84.8548 55.91C84.8546 55.91 84.8544 55.91 84.8542 55.91C84.8539 55.91 84.8537 55.91 84.8535 55.91C84.8533 55.91 84.8531 55.91 84.8528 55.91C84.8526 55.91 84.8524 55.91 84.8522 55.91C84.8519 55.91 84.8517 55.91 84.8515 55.91C84.8513 55.91 84.8511 55.91 84.8508 55.91C84.8506 55.91 84.8504 55.91 84.8502 55.91C84.8499 55.91 84.8497 55.91 84.8495 55.91C84.8493 55.91 84.849 55.91 84.8488 55.91C84.8486 55.91 84.8484 55.91 84.8482 55.91C84.8479 55.91 84.8477 55.91 84.8475 55.91C84.8473 55.91 84.847 55.91 84.8468 55.91C84.8466 55.91 84.8464 55.91 84.8461 55.91C84.8459 55.91 84.8457 55.91 84.8455 55.91C84.8452 55.91 84.845 55.91 84.8448 55.91C84.8446 55.91 84.8443 55.91 84.8441 55.91C84.8439 55.91 84.8437 55.91 84.8434 55.91C84.8432 55.91 84.843 55.91 84.8428 55.91C84.8425 55.91 84.8423 55.91 84.8421 55.91C84.8419 55.91 84.8416 55.91 84.8414 55.91C84.8412 55.91 84.841 55.91 84.8407 55.91C84.8405 55.91 84.8403 55.91 84.8401 55.91C84.8398 55.91 84.8396 55.91 84.8394 55.91C84.8392 55.91 84.8389 55.91 84.8387 55.91C84.8385 55.91 84.8383 55.91 84.838 55.91C84.8378 55.91 84.8376 55.91 84.8373 55.91C84.8371 55.91 84.8369 55.91 84.8367 55.91C84.8364 55.91 84.8362 55.91 84.836 55.91C84.8358 55.91 84.8355 55.91 84.8353 55.91C84.8351 55.91 84.8348 55.91 84.8346 55.91C84.8344 55.91 84.8342 55.91 84.8339 55.91C84.8337 55.91 84.8335 55.91 84.8333 55.91C84.833 55.91 84.8328 55.91 84.8326 55.91C84.8323 55.91 84.8321 55.91 84.8319 55.91C84.8317 55.91 84.8314 55.91 84.8312 55.91C84.831 55.91 84.8307 55.91 84.8305 55.91C84.8303 55.91 84.8301 55.91 84.8298 55.91C84.8296 55.91 84.8294 55.91 84.8291 55.91C84.8289 55.91 84.8287 55.91 84.8284 55.91C84.8282 55.91 84.828 55.91 84.8278 55.91C84.8275 55.91 84.8273 55.91 84.8271 55.91C84.8268 55.91 84.8266 55.91 84.8264 55.91C84.8261 55.91 84.8259 55.91 84.8257 55.91C84.8255 55.91 84.8252 55.91 84.825 55.91C84.8248 55.91 84.8245 55.91 84.8243 55.91C84.8241 55.91 84.8238 55.91 84.8236 55.91C84.8234 55.91 84.8231 55.91 84.8229 55.91C84.8227 55.91 84.8224 55.91 84.8222 55.91C84.822 55.91 84.8218 55.91 84.8215 55.91C84.8213 55.91 84.8211 55.91 84.8208 55.91C84.8206 55.91 84.8204 55.91 84.8201 55.91C84.8199 55.91 84.8197 55.91 84.8194 55.91C84.8192 55.91 84.819 55.91 84.8187 55.91C84.8185 55.91 84.8183 55.91 84.818 55.91C84.8178 55.91 84.8176 55.91 84.8173 55.91C84.8171 55.91 84.8169 55.91 84.8166 55.91C84.8164 55.91 84.8162 55.91 84.8159 55.91C84.8157 55.91 84.8155 55.91 84.8152 55.91C84.815 55.91 84.8148 55.91 84.8145 55.91C84.8143 55.91 84.8141 55.91 84.8138 55.91V57.91C84.8141 57.91 84.8143 57.91 84.8145 57.91C84.8148 57.91 84.815 57.91 84.8152 57.91C84.8155 57.91 84.8157 57.91 84.8159 57.91C84.8162 57.91 84.8164 57.91 84.8166 57.91C84.8169 57.91 84.8171 57.91 84.8173 57.91C84.8176 57.91 84.8178 57.91 84.818 57.91C84.8183 57.91 84.8185 57.91 84.8187 57.91C84.819 57.91 84.8192 57.91 84.8194 57.91C84.8197 57.91 84.8199 57.91 84.8201 57.91C84.8204 57.91 84.8206 57.91 84.8208 57.91C84.8211 57.91 84.8213 57.91 84.8215 57.91C84.8218 57.91 84.822 57.91 84.8222 57.91C84.8224 57.91 84.8227 57.91 84.8229 57.91C84.8231 57.91 84.8234 57.91 84.8236 57.91C84.8238 57.91 84.8241 57.91 84.8243 57.91C84.8245 57.91 84.8248 57.91 84.825 57.91C84.8252 57.91 84.8255 57.91 84.8257 57.91C84.8259 57.91 84.8261 57.91 84.8264 57.91C84.8266 57.91 84.8268 57.91 84.8271 57.91C84.8273 57.91 84.8275 57.91 84.8278 57.91C84.828 57.91 84.8282 57.91 84.8284 57.91C84.8287 57.91 84.8289 57.91 84.8291 57.91C84.8294 57.91 84.8296 57.91 84.8298 57.91C84.8301 57.91 84.8303 57.91 84.8305 57.91C84.8307 57.91 84.831 57.91 84.8312 57.91C84.8314 57.91 84.8317 57.91 84.8319 57.91C84.8321 57.91 84.8323 57.91 84.8326 57.91C84.8328 57.91 84.833 57.91 84.8333 57.91C84.8335 57.91 84.8337 57.91 84.8339 57.91C84.8342 57.91 84.8344 57.91 84.8346 57.91C84.8348 57.91 84.8351 57.91 84.8353 57.91C84.8355 57.91 84.8358 57.91 84.836 57.91C84.8362 57.91 84.8364 57.91 84.8367 57.91C84.8369 57.91 84.8371 57.91 84.8373 57.91C84.8376 57.91 84.8378 57.91 84.838 57.91C84.8383 57.91 84.8385 57.91 84.8387 57.91C84.8389 57.91 84.8392 57.91 84.8394 57.91C84.8396 57.91 84.8398 57.91 84.8401 57.91C84.8403 57.91 84.8405 57.91 84.8407 57.91C84.841 57.91 84.8412 57.91 84.8414 57.91C84.8416 57.91 84.8419 57.91 84.8421 57.91C84.8423 57.91 84.8425 57.91 84.8428 57.91C84.843 57.91 84.8432 57.91 84.8434 57.91C84.8437 57.91 84.8439 57.91 84.8441 57.91C84.8443 57.91 84.8446 57.91 84.8448 57.91C84.845 57.91 84.8452 57.91 84.8455 57.91C84.8457 57.91 84.8459 57.91 84.8461 57.91C84.8464 57.91 84.8466 57.91 84.8468 57.91C84.847 57.91 84.8473 57.91 84.8475 57.91C84.8477 57.91 84.8479 57.91 84.8482 57.91C84.8484 57.91 84.8486 57.91 84.8488 57.91C84.849 57.91 84.8493 57.91 84.8495 57.91C84.8497 57.91 84.8499 57.91 84.8502 57.91C84.8504 57.91 84.8506 57.91 84.8508 57.91C84.8511 57.91 84.8513 57.91 84.8515 57.91C84.8517 57.91 84.8519 57.91 84.8522 57.91C84.8524 57.91 84.8526 57.91 84.8528 57.91C84.8531 57.91 84.8533 57.91 84.8535 57.91C84.8537 57.91 84.8539 57.91 84.8542 57.91C84.8544 57.91 84.8546 57.91 84.8548 57.91C84.855 57.91 84.8553 57.91 84.8555 57.91C84.8557 57.91 84.8559 57.91 84.8562 57.91C84.8564 57.91 84.8566 57.91 84.8568 57.91C84.857 57.91 84.8573 57.91 84.8575 57.91C84.8577 57.91 84.8579 57.91 84.8581 57.91C84.8584 57.91 84.8586 57.91 84.8588 57.91C84.859 57.91 84.8592 57.91 84.8595 57.91C84.8597 57.91 84.8599 57.91 84.8601 57.91C84.8603 57.91 84.8606 57.91 84.8608 57.91C84.861 57.91 84.8612 57.91 84.8614 57.91C84.8617 57.91 84.8619 57.91 84.8621 57.91C84.8623 57.91 84.8625 57.91 84.8628 57.91C84.863 57.91 84.8632 57.91 84.8634 57.91C84.8636 57.91 84.8638 57.91 84.8641 57.91C84.8643 57.91 84.8645 57.91 84.8647 57.91C84.8649 57.91 84.8652 57.91 84.8654 57.91C84.8656 57.91 84.8658 57.91 84.866 57.91C84.8663 57.91 84.8665 57.91 84.8667 57.91C84.8669 57.91 84.8671 57.91 84.8673 57.91C84.8676 57.91 84.8678 57.91 84.868 57.91C84.8682 57.91 84.8684 57.91 84.8686 57.91C84.8689 57.91 84.8691 57.91 84.8693 57.91C84.8695 57.91 84.8697 57.91 84.8699 57.91C84.8702 57.91 84.8704 57.91 84.8706 57.91C84.8708 57.91 84.871 57.91 84.8713 57.91C84.8715 57.91 84.8717 57.91 84.8719 57.91C84.8721 57.91 84.8723 57.91 84.8725 57.91C84.8728 57.91 84.873 57.91 84.8732 57.91C84.8734 57.91 84.8736 57.91 84.8738 57.91C84.8741 57.91 84.8743 57.91 84.8745 57.91C84.8747 57.91 84.8749 57.91 84.8751 57.91C84.8754 57.91 84.8756 57.91 84.8758 57.91C84.876 57.91 84.8762 57.91 84.8764 57.91C84.8766 57.91 84.8769 57.91 84.8771 57.91C84.8773 57.91 84.8775 57.91 84.8777 57.91C84.8779 57.91 84.8781 57.91 84.8784 57.91C84.8786 57.91 84.8788 57.91 84.879 57.91C84.8792 57.91 84.8794 57.91 84.8796 57.91C84.8799 57.91 84.8801 57.91 84.8803 57.91C84.8805 57.91 84.8807 57.91 84.8809 57.91C84.8811 57.91 84.8814 57.91 84.8816 57.91C84.8818 57.91 84.882 57.91 84.8822 57.91C84.8824 57.91 84.8826 57.91 84.8829 57.91C84.8831 57.91 84.8833 57.91 84.8835 57.91C84.8837 57.91 84.8839 57.91 84.8841 57.91C84.8843 57.91 84.8846 57.91 84.8848 57.91C84.885 57.91 84.8852 57.91 84.8854 57.91C84.8856 57.91 84.8858 57.91 84.886 57.91C84.8863 57.91 84.8865 57.91 84.8867 57.91C84.8869 57.91 84.8871 57.91 84.8873 57.91C84.8875 57.91 84.8877 57.91 84.888 57.91C84.8882 57.91 84.8884 57.91 84.8886 57.91C84.8888 57.91 84.889 57.91 84.8892 57.91C84.8894 57.91 84.8896 57.91 84.8899 57.91C84.8901 57.91 84.8903 57.91 84.8905 57.91C84.8907 57.91 84.8909 57.91 84.8911 57.91C84.8913 57.91 84.8915 57.91 84.8918 57.91C84.892 57.91 84.8922 57.91 84.8924 57.91C84.8926 57.91 84.8928 57.91 84.893 57.91C84.8932 57.91 84.8934 57.91 84.8936 57.91C84.8939 57.91 84.8941 57.91 84.8943 57.91C84.8945 57.91 84.8947 57.91 84.8949 57.91C84.8951 57.91 84.8953 57.91 84.8955 57.91C84.8957 57.91 84.896 57.91 84.8962 57.91C84.8964 57.91 84.8966 57.91 84.8968 57.91C84.897 57.91 84.8972 57.91 84.8974 57.91C84.8976 57.91 84.8978 57.91 84.898 57.91C84.8983 57.91 84.8985 57.91 84.8987 57.91C84.8989 57.91 84.8991 57.91 84.8993 57.91C84.8995 57.91 84.8997 57.91 84.8999 57.91C84.9001 57.91 84.9003 57.91 84.9005 57.91C84.9008 57.91 84.901 57.91 84.9012 57.91C84.9014 57.91 84.9016 57.91 84.9018 57.91C84.902 57.91 84.9022 57.91 84.9024 57.91C84.9026 57.91 84.9028 57.91 84.903 57.91C84.9033 57.91 84.9035 57.91 84.9037 57.91C84.9039 57.91 84.9041 57.91 84.9043 57.91C84.9045 57.91 84.9047 57.91 84.9049 57.91C84.9051 57.91 84.9053 57.91 84.9055 57.91C84.9057 57.91 84.9059 57.91 84.9062 57.91C84.9064 57.91 84.9066 57.91 84.9068 57.91C84.907 57.91 84.9072 57.91 84.9074 57.91C84.9076 57.91 84.9078 57.91 84.908 57.91C84.9082 57.91 84.9084 57.91 84.9086 57.91C84.9088 57.91 84.909 57.91 84.9092 57.91C84.9095 57.91 84.9097 57.91 84.9099 57.91C84.9101 57.91 84.9103 57.91 84.9105 57.91C84.9107 57.91 84.9109 57.91 84.9111 57.91C84.9113 57.91 84.9115 57.91 84.9117 57.91C84.9119 57.91 84.9121 57.91 84.9123 57.91C84.9125 57.91 84.9127 57.91 84.9129 57.91C84.9131 57.91 84.9134 57.91 84.9136 57.91C84.9138 57.91 84.914 57.91 84.9142 57.91C84.9144 57.91 84.9146 57.91 84.9148 57.91C84.915 57.91 84.9152 57.91 84.9154 57.91C84.9156 57.91 84.9158 57.91 84.916 57.91C84.9162 57.91 84.9164 57.91 84.9166 57.91C84.9168 57.91 84.917 57.91 84.9172 57.91C84.9174 57.91 84.9176 57.91 84.9178 57.91C84.918 57.91 84.9183 57.91 84.9185 57.91C84.9187 57.91 84.9189 57.91 84.9191 57.91C84.9193 57.91 84.9195 57.91 84.9197 57.91C84.9199 57.91 84.9201 57.91 84.9203 57.91C84.9205 57.91 84.9207 57.91 84.9209 57.91C84.9211 57.91 84.9213 57.91 84.9215 57.91C84.9217 57.91 84.9219 57.91 84.9221 57.91C84.9223 57.91 84.9225 57.91 84.9227 57.91C84.9229 57.91 84.9231 57.91 84.9233 57.91C84.9235 57.91 84.9237 57.91 84.9239 57.91C84.9241 57.91 84.9243 57.91 84.9245 57.91C84.9247 57.91 84.9249 57.91 84.9251 57.91C84.9253 57.91 84.9255 57.91 84.9257 57.91C84.9259 57.91 84.9262 57.91 84.9263 57.91C84.9266 57.91 84.9268 57.91 84.927 57.91C84.9272 57.91 84.9274 57.91 84.9276 57.91C84.9278 57.91 84.928 57.91 84.9282 57.91C84.9284 57.91 84.9286 57.91 84.9288 57.91C84.929 57.91 84.9292 57.91 84.9294 57.91C84.9296 57.91 84.9298 57.91 84.93 57.91C84.9302 57.91 84.9304 57.91 84.9306 57.91C84.9308 57.91 84.931 57.91 84.9312 57.91C84.9314 57.91 84.9316 57.91 84.9318 57.91C84.932 57.91 84.9322 57.91 84.9324 57.91C84.9326 57.91 84.9328 57.91 84.933 57.91C84.9332 57.91 84.9334 57.91 84.9336 57.91C84.9338 57.91 84.934 57.91 84.9342 57.91C84.9344 57.91 84.9346 57.91 84.9348 57.91C84.935 57.91 84.9352 57.91 84.9354 57.91C84.9356 57.91 84.9358 57.91 84.936 57.91C84.9362 57.91 84.9364 57.91 84.9366 57.91C84.9368 57.91 84.937 57.91 84.9372 57.91C84.9374 57.91 84.9376 57.91 84.9378 57.91C84.938 57.91 84.9382 57.91 84.9384 57.91C84.9385 57.91 84.9387 57.91 84.9389 57.91C84.9391 57.91 84.9393 57.91 84.9395 57.91C84.9397 57.91 84.9399 57.91 84.9401 57.91C84.9403 57.91 84.9405 57.91 84.9407 57.91C84.9409 57.91 84.9411 57.91 84.9413 57.91C84.9415 57.91 84.9417 57.91 84.9419 57.91C84.9421 57.91 84.9423 57.91 84.9425 57.91C84.9427 57.91 84.9429 57.91 84.9431 57.91C84.9433 57.91 84.9435 57.91 84.9437 57.91C84.9439 57.91 84.9441 57.91 84.9443 57.91C84.9445 57.91 84.9447 57.91 84.9449 57.91C84.9451 57.91 84.9453 57.91 84.9455 57.91C84.9457 57.91 84.9459 57.91 84.9461 57.91C84.9463 57.91 84.9464 57.91 84.9466 57.91C84.9468 57.91 84.947 57.91 84.9472 57.91C84.9474 57.91 84.9476 57.91 84.9478 57.91C84.948 57.91 84.9482 57.91 84.9484 57.91C84.9486 57.91 84.9488 57.91 84.949 57.91C84.9492 57.91 84.9494 57.91 84.9496 57.91C84.9498 57.91 84.95 57.91 84.9502 57.91C84.9504 57.91 84.9506 57.91 84.9508 57.91C84.951 57.91 84.9512 57.91 84.9514 57.91C84.9515 57.91 84.9517 57.91 84.9519 57.91C84.9521 57.91 84.9523 57.91 84.9525 57.91C84.9527 57.91 84.9529 57.91 84.9531 57.91C84.9533 57.91 84.9535 57.91 84.9537 57.91C84.9539 57.91 84.9541 57.91 84.9543 57.91C84.9545 57.91 84.9547 57.91 84.9549 57.91C84.9551 57.91 84.9553 57.91 84.9554 57.91C84.9556 57.91 84.9558 57.91 84.956 57.91C84.9562 57.91 84.9564 57.91 84.9566 57.91C84.9568 57.91 84.957 57.91 84.9572 57.91C84.9574 57.91 84.9576 57.91 84.9578 57.91C84.958 57.91 84.9582 57.91 84.9584 57.91C84.9586 57.91 84.9587 57.91 84.9589 57.91C84.9591 57.91 84.9593 57.91 84.9595 57.91C84.9597 57.91 84.9599 57.91 84.9601 57.91C84.9603 57.91 84.9605 57.91 84.9607 57.91C84.9609 57.91 84.9611 57.91 84.9613 57.91C84.9615 57.91 84.9617 57.91 84.9618 57.91C84.962 57.91 84.9622 57.91 84.9624 57.91C84.9626 57.91 84.9628 57.91 84.963 57.91C84.9632 57.91 84.9634 57.91 84.9636 57.91C84.9638 57.91 84.964 57.91 84.9642 57.91C84.9644 57.91 84.9645 57.91 84.9647 57.91C84.9649 57.91 84.9651 57.91 84.9653 57.91C84.9655 57.91 84.9657 57.91 84.9659 57.91C84.9661 57.91 84.9663 57.91 84.9665 57.91C84.9667 57.91 84.9669 57.91 84.967 57.91C84.9672 57.91 84.9674 57.91 84.9676 57.91C84.9678 57.91 84.968 57.91 84.9682 57.91C84.9684 57.91 84.9686 57.91 84.9688 57.91C84.969 57.91 84.9692 57.91 84.9693 57.91C84.9695 57.91 84.9697 57.91 84.9699 57.91C84.9701 57.91 84.9703 57.91 84.9705 57.91C84.9707 57.91 84.9709 57.91 84.9711 57.91C84.9713 57.91 84.9715 57.91 84.9716 57.91C84.9718 57.91 84.972 57.91 84.9722 57.91C84.9724 57.91 84.9726 57.91 84.9728 57.91C84.973 57.91 84.9732 57.91 84.9734 57.91C84.9736 57.91 84.9737 57.91 84.9739 57.91C84.9741 57.91 84.9743 57.91 84.9745 57.91C84.9747 57.91 84.9749 57.91 84.9751 57.91C84.9753 57.91 84.9755 57.91 84.9757 57.91C84.9758 57.91 84.976 57.91 84.9762 57.91C84.9764 57.91 84.9766 57.91 84.9768 57.91C84.977 57.91 84.9772 57.91 84.9774 57.91C84.9776 57.91 84.9777 57.91 84.9779 57.91C84.9781 57.91 84.9783 57.91 84.9785 57.91C84.9787 57.91 84.9789 57.91 84.9791 57.91C84.9793 57.91 84.9794 57.91 84.9796 57.91C84.9798 57.91 84.98 57.91 84.9802 57.91C84.9804 57.91 84.9806 57.91 84.9808 57.91C84.981 57.91 84.9812 57.91 84.9813 57.91C84.9815 57.91 84.9817 57.91 84.9819 57.91C84.9821 57.91 84.9823 57.91 84.9825 57.91C84.9827 57.91 84.9829 57.91 84.983 57.91C84.9832 57.91 84.9834 57.91 84.9836 57.91C84.9838 57.91 84.984 57.91 84.9842 57.91C84.9844 57.91 84.9846 57.91 84.9847 57.91C84.9849 57.91 84.9851 57.91 84.9853 57.91C84.9855 57.91 84.9857 57.91 84.9859 57.91C84.9861 57.91 84.9862 57.91 84.9864 57.91C84.9866 57.91 84.9868 57.91 84.987 57.91C84.9872 57.91 84.9874 57.91 84.9876 57.91C84.9878 57.91 84.9879 57.91 84.9881 57.91C84.9883 57.91 84.9885 57.91 84.9887 57.91C84.9889 57.91 84.9891 57.91 84.9893 57.91C84.9894 57.91 84.9896 57.91 84.9898 57.91C84.99 57.91 84.9902 57.91 84.9904 57.91C84.9906 57.91 84.9908 57.91 84.9909 57.91C84.9911 57.91 84.9913 57.91 84.9915 57.91C84.9917 57.91 84.9919 57.91 84.9921 57.91C84.9923 57.91 84.9924 57.91 84.9926 57.91C84.9928 57.91 84.993 57.91 84.9932 57.91C84.9934 57.91 84.9936 57.91 84.9938 57.91C84.9939 57.91 84.9941 57.91 84.9943 57.91C84.9945 57.91 84.9947 57.91 84.9949 57.91C84.9951 57.91 84.9952 57.91 84.9954 57.91C84.9956 57.91 84.9958 57.91 84.996 57.91C84.9962 57.91 84.9964 57.91 84.9966 57.91C84.9967 57.91 84.9969 57.91 84.9971 57.91C84.9973 57.91 84.9975 57.91 84.9977 57.91C84.9979 57.91 84.998 57.91 84.9982 57.91C84.9984 57.91 84.9986 57.91 84.9988 57.91C84.999 57.91 84.9992 57.91 84.9993 57.91C84.9995 57.91 84.9997 57.91 84.9999 57.91C85.0001 57.91 85.0003 57.91 85.0005 57.91C85.0006 57.91 85.0008 57.91 85.001 57.91C85.0012 57.91 85.0014 57.91 85.0016 57.91C85.0018 57.91 85.0019 57.91 85.0021 57.91C85.0023 57.91 85.0025 57.91 85.0027 57.91C85.0029 57.91 85.0031 57.91 85.0032 57.91C85.0034 57.91 85.0036 57.91 85.0038 57.91C85.004 57.91 85.0042 57.91 85.0044 57.91C85.0045 57.91 85.0047 57.91 85.0049 57.91C85.0051 57.91 85.0053 57.91 85.0055 57.91C85.0056 57.91 85.0058 57.91 85.006 57.91C85.0062 57.91 85.0064 57.91 85.0066 57.91C85.0068 57.91 85.0069 57.91 85.0071 57.91C85.0073 57.91 85.0075 57.91 85.0077 57.91C85.0079 57.91 85.008 57.91 85.0082 57.91C85.0084 57.91 85.0086 57.91 85.0088 57.91C85.009 57.91 85.0092 57.91 85.0093 57.91C85.0095 57.91 85.0097 57.91 85.0099 57.91C85.0101 57.91 85.0103 57.91 85.0104 57.91C85.0106 57.91 85.0108 57.91 85.011 57.91C85.0112 57.91 85.0114 57.91 85.0115 57.91C85.0117 57.91 85.0119 57.91 85.0121 57.91C85.0123 57.91 85.0125 57.91 85.0126 57.91C85.0128 57.91 85.013 57.91 85.0132 57.91C85.0134 57.91 85.0136 57.91 85.0138 57.91C85.0139 57.91 85.0141 57.91 85.0143 57.91C85.0145 57.91 85.0147 57.91 85.0149 57.91C85.015 57.91 85.0152 57.91 85.0154 57.91C85.0156 57.91 85.0158 57.91 85.016 57.91C85.0161 57.91 85.0163 57.91 85.0165 57.91C85.0167 57.91 85.0169 57.91 85.0171 57.91C85.0172 57.91 85.0174 57.91 85.0176 57.91C85.0178 57.91 85.018 57.91 85.0182 57.91C85.0183 57.91 85.0185 57.91 85.0187 57.91C85.0189 57.91 85.0191 57.91 85.0192 57.91C85.0194 57.91 85.0196 57.91 85.0198 57.91C85.02 57.91 85.0202 57.91 85.0203 57.91C85.0205 57.91 85.0207 57.91 85.0209 57.91C85.0211 57.91 85.0213 57.91 85.0214 57.91C85.0216 57.91 85.0218 57.91 85.022 57.91C85.0222 57.91 85.0224 57.91 85.0225 57.91C85.0227 57.91 85.0229 57.91 85.0231 57.91C85.0233 57.91 85.0234 57.91 85.0236 57.91C85.0238 57.91 85.024 57.91 85.0242 57.91C85.0244 57.91 85.0245 57.91 85.0247 57.91C85.0249 57.91 85.0251 57.91 85.0253 57.91C85.0254 57.91 85.0256 57.91 85.0258 57.91C85.026 57.91 85.0262 57.91 85.0264 57.91C85.0265 57.91 85.0267 57.91 85.0269 57.91C85.0271 57.91 85.0273 57.91 85.0274 57.91C85.0276 57.91 85.0278 57.91 85.028 57.91C85.0282 57.91 85.0284 57.91 85.0285 57.91C85.0287 57.91 85.0289 57.91 85.0291 57.91C85.0293 57.91 85.0294 57.91 85.0296 57.91C85.0298 57.91 85.03 57.91 85.0302 57.91C85.0304 57.91 85.0305 57.91 85.0307 57.91C85.0309 57.91 85.0311 57.91 85.0313 57.91C85.0314 57.91 85.0316 57.91 85.0318 57.91C85.032 57.91 85.0322 57.91 85.0323 57.91C85.0325 57.91 85.0327 57.91 85.0329 57.91C85.0331 57.91 85.0332 57.91 85.0334 57.91C85.0336 57.91 85.0338 57.91 85.034 57.91C85.0342 57.91 85.0343 57.91 85.0345 57.91C85.0347 57.91 85.0349 57.91 85.0351 57.91C85.0352 57.91 85.0354 57.91 85.0356 57.91C85.0358 57.91 85.036 57.91 85.0361 57.91C85.0363 57.91 85.0365 57.91 85.0367 57.91C85.0369 57.91 85.037 57.91 85.0372 57.91C85.0374 57.91 85.0376 57.91 85.0378 57.91C85.0379 57.91 85.0381 57.91 85.0383 57.91C85.0385 57.91 85.0387 57.91 85.0388 57.91C85.039 57.91 85.0392 57.91 85.0394 57.91C85.0396 57.91 85.0397 57.91 85.0399 57.91C85.0401 57.91 85.0403 57.91 85.0405 57.91C85.0406 57.91 85.0408 57.91 85.041 57.91C85.0412 57.91 85.0414 57.91 85.0415 57.91C85.0417 57.91 85.0419 57.91 85.0421 57.91C85.0423 57.91 85.0424 57.91 85.0426 57.91C85.0428 57.91 85.043 57.91 85.0432 57.91C85.0433 57.91 85.0435 57.91 85.0437 57.91C85.0439 57.91 85.0441 57.91 85.0442 57.91C85.0444 57.91 85.0446 57.91 85.0448 57.91C85.045 57.91 85.0451 57.91 85.0453 57.91C85.0455 57.91 85.0457 57.91 85.0459 57.91C85.046 57.91 85.0462 57.91 85.0464 57.91C85.0466 57.91 85.0468 57.91 85.0469 57.91C85.0471 57.91 85.0473 57.91 85.0475 57.91C85.0477 57.91 85.0478 57.91 85.048 57.91C85.0482 57.91 85.0484 57.91 85.0485 57.91C85.0487 57.91 85.0489 57.91 85.0491 57.91C85.0493 57.91 85.0494 57.91 85.0496 57.91C85.0498 57.91 85.05 57.91 85.0502 57.91C85.0503 57.91 85.0505 57.91 85.0507 57.91C85.0509 57.91 85.0511 57.91 85.0512 57.91C85.0514 57.91 85.0516 57.91 85.0518 57.91C85.0519 57.91 85.0521 57.91 85.0523 57.91C85.0525 57.91 85.0527 57.91 85.0528 57.91C85.053 57.91 85.0532 57.91 85.0534 57.91C85.0536 57.91 85.0537 57.91 85.0539 57.91C85.0541 57.91 85.0543 57.91 85.0545 57.91C85.0546 57.91 85.0548 57.91 85.055 57.91C85.0552 57.91 85.0553 57.91 85.0555 57.91C85.0557 57.91 85.0559 57.91 85.0561 57.91C85.0562 57.91 85.0564 57.91 85.0566 57.91C85.0568 57.91 85.0569 57.91 85.0571 57.91C85.0573 57.91 85.0575 57.91 85.0577 57.91C85.0578 57.91 85.058 57.91 85.0582 57.91C85.0584 57.91 85.0586 57.91 85.0587 57.91C85.0589 57.91 85.0591 57.91 85.0593 57.91C85.0594 57.91 85.0596 57.91 85.0598 57.91C85.06 57.91 85.0602 57.91 85.0603 57.91C85.0605 57.91 85.0607 57.91 85.0609 57.91C85.061 57.91 85.0612 57.91 85.0614 57.91C85.0616 57.91 85.0618 57.91 85.0619 57.91C85.0621 57.91 85.0623 57.91 85.0625 57.91C85.0626 57.91 85.0628 57.91 85.063 57.91C85.0632 57.91 85.0634 57.91 85.0635 57.91C85.0637 57.91 85.0639 57.91 85.0641 57.91C85.0643 57.91 85.0644 57.91 85.0646 57.91C85.0648 57.91 85.065 57.91 85.0651 57.91C85.0653 57.91 85.0655 57.91 85.0657 57.91C85.0658 57.91 85.066 57.91 85.0662 57.91C85.0664 57.91 85.0666 57.91 85.0667 57.91C85.0669 57.91 85.0671 57.91 85.0673 57.91C85.0674 57.91 85.0676 57.91 85.0678 57.91C85.068 57.91 85.0682 57.91 85.0683 57.91C85.0685 57.91 85.0687 57.91 85.0689 57.91C85.069 57.91 85.0692 57.91 85.0694 57.91C85.0696 57.91 85.0698 57.91 85.0699 57.91C85.0701 57.91 85.0703 57.91 85.0705 57.91C85.0706 57.91 85.0708 57.91 85.071 57.91C85.0712 57.91 85.0714 57.91 85.0715 57.91C85.0717 57.91 85.0719 57.91 85.0721 57.91C85.0722 57.91 85.0724 57.91 85.0726 57.91C85.0728 57.91 85.0729 57.91 85.0731 57.91C85.0733 57.91 85.0735 57.91 85.0737 57.91C85.0738 57.91 85.074 57.91 85.0742 57.91C85.0744 57.91 85.0745 57.91 85.0747 57.91C85.0749 57.91 85.0751 57.91 85.0752 57.91C85.0754 57.91 85.0756 57.91 85.0758 57.91C85.076 57.91 85.0761 57.91 85.0763 57.91C85.0765 57.91 85.0767 57.91 85.0768 57.91C85.077 57.91 85.0772 57.91 85.0774 57.91C85.0775 57.91 85.0777 57.91 85.0779 57.91C85.0781 57.91 85.0783 57.91 85.0784 57.91C85.0786 57.91 85.0788 57.91 85.079 57.91C85.0791 57.91 85.0793 57.91 85.0795 57.91C85.0797 57.91 85.0798 57.91 85.08 57.91C85.0802 57.91 85.0804 57.91 85.0806 57.91C85.0807 57.91 85.0809 57.91 85.0811 57.91C85.0813 57.91 85.0814 57.91 85.0816 57.91C85.0818 57.91 85.082 57.91 85.0821 57.91C85.0823 57.91 85.0825 57.91 85.0827 57.91C85.0828 57.91 85.083 57.91 85.0832 57.91C85.0834 57.91 85.0836 57.91 85.0837 57.91C85.0839 57.91 85.0841 57.91 85.0843 57.91C85.0844 57.91 85.0846 57.91 85.0848 57.91C85.085 57.91 85.0851 57.91 85.0853 57.91C85.0855 57.91 85.0857 57.91 85.0858 57.91C85.086 57.91 85.0862 57.91 85.0864 57.91C85.0866 57.91 85.0867 57.91 85.0869 57.91C85.0871 57.91 85.0873 57.91 85.0874 57.91C85.0876 57.91 85.0878 57.91 85.088 57.91C85.0881 57.91 85.0883 57.91 85.0885 57.91C85.0887 57.91 85.0888 57.91 85.089 57.91C85.0892 57.91 85.0894 57.91 85.0896 57.91C85.0897 57.91 85.0899 57.91 85.0901 57.91C85.0903 57.91 85.0904 57.91 85.0906 57.91C85.0908 57.91 85.091 57.91 85.0911 57.91C85.0913 57.91 85.0915 57.91 85.0917 57.91C85.0918 57.91 85.092 57.91 85.0922 57.91C85.0924 57.91 85.0925 57.91 85.0927 57.91C85.0929 57.91 85.0931 57.91 85.0933 57.91C85.0934 57.91 85.0936 57.91 85.0938 57.91C85.094 57.91 85.0941 57.91 85.0943 57.91C85.0945 57.91 85.0947 57.91 85.0948 57.91C85.095 57.91 85.0952 57.91 85.0954 57.91C85.0955 57.91 85.0957 57.91 85.0959 57.91C85.0961 57.91 85.0962 57.91 85.0964 57.91C85.0966 57.91 85.0968 57.91 85.0969 57.91C85.0971 57.91 85.0973 57.91 85.0975 57.91C85.0976 57.91 85.0978 57.91 85.098 57.91C85.0982 57.91 85.0984 57.91 85.0985 57.91C85.0987 57.91 85.0989 57.91 85.0991 57.91C85.0992 57.91 85.0994 57.91 85.0996 57.91C85.0998 57.91 85.0999 57.91 85.1001 57.91C85.1003 57.91 85.1005 57.91 85.1006 57.91C85.1008 57.91 85.101 57.91 85.1012 57.91C85.1013 57.91 85.1015 57.91 85.1017 57.91C85.1019 57.91 85.102 57.91 85.1022 57.91C85.1024 57.91 85.1026 57.91 85.1028 57.91C85.1029 57.91 85.1031 57.91 85.1033 57.91C85.1035 57.91 85.1036 57.91 85.1038 57.91C85.104 57.91 85.1042 57.91 85.1043 57.91C85.1045 57.91 85.1047 57.91 85.1049 57.91C85.105 57.91 85.1052 57.91 85.1054 57.91C85.1056 57.91 85.1057 57.91 85.1059 57.91C85.1061 57.91 85.1063 57.91 85.1064 57.91C85.1066 57.91 85.1068 57.91 85.107 57.91C85.1071 57.91 85.1073 57.91 85.1075 57.91C85.1077 57.91 85.1079 57.91 85.108 57.91C85.1082 57.91 85.1084 57.91 85.1086 57.91C85.1087 57.91 85.1089 57.91 85.1091 57.91C85.1093 57.91 85.1094 57.91 85.1096 57.91C85.1098 57.91 85.11 57.91 85.1101 57.91C85.1103 57.91 85.1105 57.91 85.1107 57.91C85.1108 57.91 85.111 57.91 85.1112 57.91C85.1114 57.91 85.1115 57.91 85.1117 57.91C85.1119 57.91 85.1121 57.91 85.1122 57.91C85.1124 57.91 85.1126 57.91 85.1128 57.91C85.1129 57.91 85.1131 57.91 85.1133 57.91C85.1135 57.91 85.1137 57.91 85.1138 57.91V55.91ZM85.7767 57.1799L88.8967 46.0499L86.9709 45.5101L83.8509 56.6401L85.7767 57.1799ZM87.1371 46.3844C88.4828 48.1582 89.5438 49.6729 89.5438 51.57H91.5438C91.5438 48.9071 90.0248 46.8818 88.7305 45.1756L87.1371 46.3844Z" fill="black"/>
</svg>
