<svg width="744" height="137" viewBox="0 0 744 137" fill="none" xmlns="http://www.w3.org/2000/svg">
<path d="M53.68 25.5022L31.19 80.0649C29.46 86.5887 27.73 95.4848 27.73 100.823C27.73 103.195 26.5767 119.01 26 126.918H31.19V107.939C31.19 106.516 34.65 85.9957 36.38 75.9134L55.9867 32.619C59.2544 29.6537 65.9053 23.4857 66.3667 22.5368C66.828 21.5879 78.8611 16.2107 84.82 13.6407L90.5867 7.11688H79.63L53.68 25.5022Z" fill="black"/>
<path d="M109.617 62.8658L103.273 52.7836H98.0833L103.273 58.7143L109.617 67.6104H121.727L126.34 62.8658L133.26 34.3983L134.99 17.1991L137.873 10.0823H145.947C143.64 9.29149 138.796 7.70996 137.873 7.70996C136.951 7.70996 134.413 9.29149 133.26 10.0823C131.146 17.9899 126.801 34.5169 126.34 37.3636C125.879 40.2104 121.919 55.5512 119.997 62.8658H109.617Z" fill="black"/>
<path d="M178.817 77.0996L175.357 52.1905H181.123L181.7 67.6104L186.89 81.8442L194.963 78.8788L200.73 72.355L204.19 62.8658L215.147 7.70996L220.913 2.96537L230.717 5.93074L235.33 10.6753H227.833L225.527 7.70996H220.913L215.147 34.3983C213.224 44.8759 209.149 66.187 208.227 67.6104C207.304 69.0338 202.844 78.088 200.73 82.4372C196.309 85.0072 187.121 90.1472 185.737 90.1472C184.353 90.1472 180.547 81.4488 178.817 77.0996Z" fill="black"/>
<path d="M287.807 56.9351L283.193 51.5974H290.69C292.228 47.6436 295.303 39.3801 295.303 37.9567C295.303 36.5333 297.994 18.7807 299.34 10.0823L303.953 3.55844H307.413L310.297 9.48918H307.413L305.683 5.33766L303.953 9.48918L300.493 30.8398C298.956 37.759 295.765 51.5974 295.303 51.5974C294.842 51.5974 293.573 55.1558 292.997 56.9351H287.807Z" fill="black"/>
<path d="M334.517 60.4935L332.21 51.5974L336.823 50.4113L337.977 56.9351L343.743 66.4242L348.933 64.0519L358.737 30.8398C361.236 22.9322 366.349 6.76104 366.81 5.33766C367.271 3.91429 370.847 4.74459 372.577 5.33766L377.19 10.0823L372.577 9.48918L370.27 7.11688C368.732 12.8499 365.195 25.6208 363.35 30.8398C361.043 37.3636 355.853 54.5628 353.547 60.4935C351.701 65.2381 351.24 68.0058 351.24 68.7965L343.743 71.7619L334.517 60.4935Z" fill="black"/>
<path d="M418.133 74.7273L410.637 51.5974V50.4113L418.133 51.5974L424.477 74.7273L433.127 86.5887H449.85L464.267 68.7965V40.9221C466.189 34.2006 470.033 20.1645 470.033 17.7922C470.033 14.8268 479.26 7.11688 480.413 5.33766C481.336 3.91429 492.716 3.55844 498.29 3.55844H517.897L529.43 10.0823L513.86 9.48918L504.057 5.33766L486.757 7.11688L475.8 20.7576L470.033 51.5974L464.267 74.7273C459.653 80.0649 448.581 91.2147 441.2 93.1126C433.819 95.0104 429.667 89.5541 428.513 86.5887L418.133 74.7273Z" fill="black"/>
<path d="M529.43 64.0519V51.5974H533.467C533.659 53.3766 533.928 56.9351 533.467 56.9351C533.005 56.9351 536.734 62.8658 538.657 65.8312L547.883 68.7965C548.844 65.2381 550.767 57.884 550.767 56.9351V33.2121C550.767 30.8398 550.19 20.7576 550.767 20.7576C551.228 20.7576 554.803 11.6638 556.533 7.11688L562.877 0L569.797 3.55844L576.14 10.0823H569.797L562.877 3.55844C560.186 8.30303 554.803 18.3853 554.803 20.7576V60.4935L547.883 79.4719L529.43 64.0519Z" fill="black"/>
<path d="M581.33 56.9351L579.023 51.5974L577.87 50.4113L583.637 51.5974V53.9697L589.98 51.5974L595.747 42.1082C597.092 35.9798 600.129 23.1299 601.513 20.7576C602.897 18.3853 607.472 12.2569 609.587 9.48918L619.39 3.55844H629.193L636.69 10.0823H629.193L623.427 7.11688L614.2 10.0823C611.701 14.4315 606.588 23.6043 606.127 25.5022C605.55 27.8745 600.36 45.0736 599.783 46.8528C599.207 48.632 592.287 56.9351 589.98 56.9351H581.33Z" fill="black"/>
<path d="M644.187 56.9351L641.303 51.5974H646.493L650.53 53.9697L667.253 42.1082C671.482 35.9798 680.286 23.4857 681.67 22.5368C683.054 21.5879 685.322 10.6753 686.283 5.33766L698.97 3.55844L707.043 9.48918H696.663C695.318 10.4776 692.511 12.6918 692.05 13.6407C691.589 14.5896 681.478 33.0144 676.48 42.1082C669.752 47.0505 655.835 57.2909 653.99 58.7143C652.145 60.1377 646.686 58.1212 644.187 56.9351Z" fill="black"/>
<path d="M713.387 65.8312C713.387 63.4589 711.464 55.3535 710.503 51.5974L713.387 50.4113L718 60.4935C717.231 64.2496 715.693 72.1178 715.693 73.5411C715.693 75.3204 713.387 98.4502 713.387 101.416V126.325L715.693 137L710.503 130.476V101.416C710.503 99.6364 713.387 68.7965 713.387 65.8312Z" fill="black"/>
<path d="M108.116 64.8068C113.087 67.7082 112.647 78.2695 107.131 88.3962C101.616 98.5229 93.1152 104.38 88.1436 101.479C83.1721 98.5776 83.6127 88.0163 89.1279 77.8896C94.643 67.7628 103.144 61.9055 108.116 64.8068Z" fill="#FBFF31"/>
<path d="M101.609 72.1013C99.9448 71.1299 99.3562 68.9458 100.294 67.2229L102.462 63.2421C103.401 61.5191 105.511 60.9099 107.175 61.8812L111.021 64.1254C112.685 65.0967 113.274 67.2809 112.335 69.0038L110.167 72.9846C109.229 74.7075 107.119 75.3168 105.455 74.3455L101.609 72.1013Z" fill="#FBFF31"/>
<path d="M196.291 84.5179C200.083 82.3614 206.48 86.874 210.579 94.5972C214.679 102.32 214.928 110.33 211.137 112.486C207.345 114.643 200.948 110.13 196.849 102.407C192.749 94.6836 192.5 86.6745 196.291 84.5179Z" fill="#FBFF31"/>
<path d="M198.966 91.3538C197.291 92.3062 195.188 91.6731 194.268 89.9397L193.462 88.4226C192.542 86.6891 193.154 84.5118 194.828 83.5593L196.294 82.7258C197.969 81.7733 200.072 82.4064 200.992 84.1399L201.797 85.657C202.717 87.3904 202.106 89.5677 200.431 90.5202L198.966 91.3538Z" fill="#FBFF31"/>
<path d="M216.406 22.6464C215.947 18.1933 222.436 13.8246 230.901 12.8886C239.366 11.9525 246.6 14.8036 247.06 19.2567C247.519 23.7097 241.03 28.0784 232.565 29.0144C224.1 29.9505 216.866 27.0994 216.406 22.6464Z" fill="#FBFF31"/>
<path d="M223.53 22.7291C223.733 24.6958 222.358 26.4604 220.458 26.6705L218.795 26.8544C216.895 27.0644 215.191 25.6404 214.988 23.6738L214.81 21.9525C214.607 19.9859 215.983 18.2212 217.883 18.0111L219.545 17.8273C221.445 17.6172 223.15 19.0412 223.353 21.0079L223.53 22.7291Z" fill="#FBFF31"/>
<path d="M130.408 48.0217C131.817 43.7875 139.484 42.6816 147.533 45.5516C155.581 48.4217 160.964 54.1808 159.555 58.415C158.146 62.6492 150.479 63.755 142.43 60.885C134.381 58.015 128.999 52.2559 130.408 48.0217Z" fill="#FBFF31"/>
<path d="M136.825 51.2254C136.203 53.0955 134.234 54.0892 132.427 53.4451L130.846 52.8813C129.04 52.2371 128.08 50.199 128.702 48.3289L129.247 46.6923C129.869 44.8223 131.838 43.8285 133.644 44.4727L135.225 45.0364C137.032 45.6806 137.992 47.7188 137.37 49.5888L136.825 51.2254Z" fill="#FBFF31"/>
<path d="M30.208 88.6881C31.134 93.0627 25.1435 98.138 16.8278 100.024C8.51216 101.91 1.02035 99.8929 0.0943981 95.5183C-0.831558 91.1437 5.15897 86.0684 13.4746 84.1823C21.7903 82.2962 29.2821 84.3135 30.208 88.6881Z" fill="#FBFF31"/>
<path d="M23.1177 89.4102C22.7087 87.4781 23.8902 85.5687 25.7566 85.1454L27.3901 84.7749C29.2565 84.3516 31.101 85.5746 31.51 87.5067L31.8679 89.1976C32.2768 91.1296 31.0953 93.039 29.2289 93.4623L27.5955 93.8328C25.7291 94.2562 23.8845 93.0331 23.4756 91.1011L23.1177 89.4102Z" fill="#FBFF31"/>
<path d="M46.7363 51.8466C50.9103 50.6689 56.1087 56.6066 58.3473 65.1087C60.5858 73.6109 59.0169 81.4579 54.8429 82.6355C50.6689 83.8132 45.4705 77.8755 43.2319 69.3734C40.9934 60.8712 42.5623 53.0242 46.7363 51.8466Z" fill="#FBFF31"/>
<path d="M47.7901 59.1406C45.9467 59.6607 44.0449 58.5354 43.5425 56.6271L43.1028 54.957C42.6003 53.0488 43.6874 51.0802 45.5309 50.5601L47.1442 50.1049C48.9877 49.5848 50.8894 50.7101 51.3918 52.6184L51.8316 54.2884C52.334 56.1967 51.2469 58.1653 49.4035 58.6854L47.7901 59.1406Z" fill="#FBFF31"/>
<path d="M344.906 70.7717C349.207 70.286 353.442 76.9938 354.365 85.7541C355.289 94.5143 352.551 102.01 348.25 102.495C343.949 102.981 339.714 96.2734 338.791 87.5131C337.868 78.7528 340.605 71.2575 344.906 70.7717Z" fill="#FBFF31"/>
<path d="M344.842 78.1465C342.943 78.3611 341.235 76.9411 341.028 74.9749L340.847 73.2541C340.639 71.2879 342.011 69.52 343.911 69.3055L345.573 69.1177C347.472 68.9032 349.18 70.3232 349.387 72.2894L349.569 74.0102C349.776 75.9764 348.404 77.7442 346.505 77.9588L344.842 78.1465Z" fill="#FBFF31"/>
<path d="M365.936 22.8411C367.125 18.5353 374.725 17.0085 382.91 19.4309C391.095 21.8532 396.766 27.3076 395.577 31.6134C394.387 35.9192 386.788 37.4461 378.603 35.0237C370.418 32.6013 364.747 27.147 365.936 22.8411Z" fill="#FBFF31"/>
<path d="M372.509 25.6867C371.984 27.5884 370.069 28.6893 368.232 28.1456L366.624 27.6697C364.787 27.126 363.724 25.1437 364.249 23.242L364.708 21.5777C365.234 19.676 367.149 18.5751 368.986 19.1188L370.594 19.5947C372.431 20.1384 373.494 22.1207 372.969 24.0224L372.509 25.6867Z" fill="#FBFF31"/>
<path d="M417.121 69.6915C420.576 72.3874 419.222 80.2772 414.097 87.3139C408.973 94.3507 402.018 97.8697 398.564 95.1738C395.109 92.478 396.463 84.5881 401.587 77.5514C406.712 70.5147 413.667 66.9957 417.121 69.6915Z" fill="#FBFF31"/>
<path d="M412.194 75.0189C410.669 73.8283 410.364 71.5828 411.514 70.0034L412.521 68.6212C413.671 67.0418 415.84 66.7267 417.366 67.9173L418.701 68.9593C420.227 70.1499 420.531 72.3954 419.381 73.9748L418.375 75.357C417.225 76.9364 415.055 77.2515 413.53 76.0609L412.194 75.0189Z" fill="#FBFF31"/>
<path d="M441.794 90.8652C445.999 89.8116 451.031 95.9007 453.034 104.466C455.037 113.03 453.251 120.828 449.047 121.881C444.842 122.935 439.81 116.846 437.807 108.281C435.804 99.7163 437.589 91.9189 441.794 90.8652Z" fill="#FBFF31"/>
<path d="M442.646 98.1875C440.789 98.6528 438.919 97.4717 438.469 95.5493L438.076 93.8669C437.626 91.9445 438.767 90.0089 440.624 89.5436L442.25 89.1363C444.107 88.671 445.976 89.8521 446.426 91.7745L446.819 93.4569C447.269 95.3792 446.128 97.3149 444.271 97.7802L442.646 98.1875Z" fill="#FBFF31"/>
<path d="M483.309 12.0777C487.514 11.0241 492.546 17.1131 494.549 25.678C496.552 34.2429 494.767 42.0403 490.562 43.0939C486.357 44.1476 481.325 38.0585 479.322 29.4936C477.319 20.9287 479.104 13.1313 483.309 12.0777Z" fill="#FBFF31"/>
<path d="M484.161 19.3999C482.304 19.8652 480.434 18.6841 479.984 16.7618L479.591 15.0793C479.141 13.157 480.282 11.2214 482.139 10.756L483.765 10.3488C485.622 9.88343 487.492 11.0646 487.941 12.9869L488.335 14.6693C488.784 16.5917 487.643 18.5273 485.786 18.9926L484.161 19.3999Z" fill="#FBFF31"/>
<path d="M547.888 76.5402C552.093 75.4866 557.125 81.5757 559.128 90.1406C561.131 98.7055 559.346 106.503 555.141 107.556C550.936 108.61 545.904 102.521 543.901 93.9561C541.898 85.3912 543.683 77.5939 547.888 76.5402Z" fill="#FBFF31"/>
<path d="M548.74 83.8624C546.883 84.3278 545.013 83.1466 544.564 81.2243L544.17 79.5419C543.721 77.6195 544.862 75.6839 546.719 75.2186L548.344 74.8113C550.201 74.346 552.071 75.5271 552.52 77.4495L552.914 79.1319C553.363 81.0542 552.222 82.9898 550.365 83.4552L548.74 83.8624Z" fill="#FBFF31"/>
<path d="M592.863 53.859C597.068 52.8053 602.1 58.8944 604.103 67.4593C606.106 76.0242 604.321 83.8216 600.116 84.8752C595.911 85.9289 590.879 79.8398 588.876 71.2749C586.873 62.71 588.658 54.9126 592.863 53.859Z" fill="#FBFF31"/>
<path d="M593.715 61.1812C591.858 61.6465 589.988 60.4654 589.538 58.543L589.145 56.8606C588.695 54.9383 589.836 53.0027 591.694 52.5373L593.319 52.13C595.176 51.6647 597.046 52.8458 597.495 54.7682L597.889 56.4506C598.338 58.373 597.197 60.3086 595.34 60.7739L593.715 61.1812Z" fill="#FBFF31"/>
<path d="M600.842 22.0027C600.778 26.4806 593.825 30.0042 585.313 29.8729C576.801 29.7417 569.953 26.0053 570.018 21.5274C570.082 17.0495 577.035 13.5259 585.547 13.6571C594.059 13.7884 600.907 17.5248 600.842 22.0027Z" fill="#FBFF31"/>
<path d="M593.78 21.0281C593.809 19.0504 595.381 17.4711 597.291 17.5006L598.963 17.5264C600.874 17.5558 602.399 19.1829 602.371 21.1606L602.346 22.8914C602.317 24.869 600.746 26.4484 598.835 26.4189L597.163 26.3931C595.253 26.3637 593.727 24.7366 593.755 22.7589L593.78 21.0281Z" fill="#FBFF31"/>
<path d="M653.991 55.9486C658.232 55.0668 663.03 61.3559 664.706 69.9956C666.382 78.6354 664.303 86.3541 660.061 87.2359C655.82 88.1177 651.022 81.8287 649.346 73.1889C647.67 64.5492 649.749 56.8304 653.991 55.9486Z" fill="#FBFF31"/>
<path d="M654.564 63.2998C652.691 63.6893 650.867 62.433 650.491 60.4939L650.162 58.7967C649.786 56.8576 650.999 54.9699 652.873 54.5804L654.512 54.2396C656.385 53.8501 658.209 55.1064 658.585 57.0456L658.914 58.7427C659.291 60.6818 658.077 62.5695 656.204 62.959L654.564 63.2998Z" fill="#FBFF31"/>
<path d="M696.659 11.7799C700.901 10.898 705.698 17.1871 707.375 25.8268C709.051 34.4666 706.971 42.1853 702.729 43.0672C698.488 43.949 693.691 37.6599 692.014 29.0202C690.338 20.3804 692.418 12.6617 696.659 11.7799Z" fill="#FBFF31"/>
<path d="M697.233 19.1311C695.359 19.5205 693.536 18.2642 693.16 16.3251L692.83 14.628C692.454 12.6888 693.668 10.8011 695.541 10.4116L697.181 10.0708C699.054 9.68135 700.877 10.9376 701.254 12.8768L701.583 14.5739C701.959 16.5131 700.745 18.4008 698.872 18.7902L697.233 19.1311Z" fill="#FBFF31"/>
<path d="M714.225 86.1076C715.427 81.8056 723.03 80.3028 731.208 82.7511C739.386 85.1993 745.041 90.6716 743.839 94.9736C742.637 99.2757 735.033 100.778 726.855 98.3302C718.678 95.8819 713.023 90.4097 714.225 86.1076Z" fill="#FBFF31"/>
<path d="M720.789 88.974C720.258 90.874 718.34 91.9688 716.505 91.4193L714.898 90.9384C713.063 90.3889 712.005 88.4032 712.536 86.5032L713 84.8403C713.531 82.9403 715.45 81.8455 717.285 82.395L718.891 82.8759C720.727 83.4254 721.784 85.4111 721.254 87.3111L720.789 88.974Z" fill="#FBFF31"/>
</svg>
