<svg width="385" height="323" viewBox="0 0 385 323" fill="none" xmlns="http://www.w3.org/2000/svg">
<path d="M118.728 83.7759C110.81 83.9542 104.118 77.4453 105.367 69.3989C107.192 57.6302 111.502 46.352 118.061 36.3857C127.315 22.324 140.589 11.5693 156.045 5.61003C171.501 -0.349233 188.376 -1.21842 204.333 3.12277C220.291 7.46396 234.542 16.8009 245.115 29.8413C255.688 42.8818 262.06 58.981 263.349 75.911C264.638 92.8409 260.78 109.765 252.31 124.34C243.839 138.915 231.174 150.421 216.069 157.265C205.362 162.116 193.805 164.456 182.224 164.193C174.306 164.013 169.282 156.073 170.873 148.091C172.464 140.108 180.124 135.186 188.019 134.54C193.677 134.077 199.253 132.642 204.509 130.261C214.173 125.882 222.275 118.521 227.694 109.197C233.113 99.8726 235.581 89.0459 234.756 78.2152C233.932 67.3844 229.855 57.0851 223.091 48.7426C216.327 40.4001 207.21 34.4269 197.001 31.6497C186.793 28.8725 175.998 29.4285 166.11 33.2409C156.222 37.0533 147.73 43.9335 141.81 52.9293C138.59 57.8218 136.217 63.2084 134.76 68.8518C132.726 76.7268 126.646 83.5977 118.728 83.7759Z" fill="black"/>
<path d="M171.645 149.726L199.173 149.107L200.299 202.056L172.772 202.675L171.645 149.726Z" fill="black"/>
<path d="M13.7309 316.589C0.0178137 306.95 -3.63307 287.545 7.35432 274.732C26.5809 252.31 49.6288 233.522 75.4953 219.29C110.265 200.161 149.136 189.811 188.918 189.091C228.701 188.37 268.262 197.298 304.355 215.144C331.435 228.533 355.983 246.656 376.905 268.602C388.421 280.682 385.831 300.091 372.716 310.299C359.821 320.336 341.615 317.634 329.925 306.142C314.998 291.468 297.862 279.244 279.139 269.986C251.613 256.377 221.443 249.567 191.102 250.117C160.762 250.667 131.118 258.56 104.601 273.149C86.9925 282.837 71.0967 295.294 57.4575 310.019C46 322.388 27.444 326.228 13.7309 316.589Z" fill="black"/>
<path d="M118.728 83.7759C110.81 83.9542 104.118 77.4453 105.367 69.3989C107.192 57.6302 111.502 46.352 118.061 36.3857C127.315 22.324 140.589 11.5693 156.045 5.61003C171.501 -0.349233 188.376 -1.21842 204.333 3.12277C220.291 7.46396 234.542 16.8009 245.115 29.8413C255.688 42.8818 262.06 58.981 263.349 75.911C264.638 92.8409 260.78 109.765 252.31 124.34C243.839 138.915 231.174 150.421 216.069 157.265C205.362 162.116 193.805 164.456 182.224 164.193C174.306 164.013 169.282 156.073 170.873 148.091C172.464 140.108 180.124 135.186 188.019 134.54C193.677 134.077 199.253 132.642 204.509 130.261C214.173 125.882 222.275 118.521 227.694 109.197C233.113 99.8726 235.581 89.0459 234.756 78.2152C233.932 67.3844 229.855 57.0851 223.091 48.7426C216.327 40.4001 207.21 34.4269 197.001 31.6497C186.793 28.8725 175.998 29.4285 166.11 33.2409C156.222 37.0533 147.73 43.9335 141.81 52.9293C138.59 57.8218 136.217 63.2084 134.76 68.8518C132.726 76.7268 126.646 83.5977 118.728 83.7759Z" fill="black"/>
</svg>
